<svg viewBox="0 0 36.67 36.67" xmlns="http://www.w3.org/2000/svg"><circle cx="18.34" cy="18.34" fill="none" r="17.96" stroke="#333" stroke-miterlimit="10" stroke-width=".75"/><g fill="#333" transform="translate(-5.35 -5.07)"><path d="m14.65 28c.1-.29.17-.6.3-.88a3 3 0 0 1 .83-1.05 5 5 0 0 1 2.09-1.07 6.34 6.34 0 0 1 1.54-.18h.72a1.7 1.7 0 0 1 -.41-2.19h-.15a4.19 4.19 0 0 1 -1.62-.2 3.32 3.32 0 0 1 -2.27-3.35 2.77 2.77 0 0 1 .58-1.57 4.38 4.38 0 0 1 3.12-1.74 3.55 3.55 0 0 1 .43 0h4.67l-.3.23-.63.45a.41.41 0 0 1 -.21.07h-1.13a.37.37 0 0 0 -.16 0c.13.08.27.16.39.25a2.48 2.48 0 0 1 .81 1.23 3.34 3.34 0 0 1 .14 2 3.19 3.19 0 0 1 -1 1.58c-.27.24-.55.46-.81.72a1 1 0 0 0 0 1.45 8.72 8.72 0 0 0 1.26 1.11 3.11 3.11 0 0 1 1.25 2.14 3.52 3.52 0 0 1 -.09 1.4 3.07 3.07 0 0 1 -.85 1.36 4.65 4.65 0 0 1 -2.67 1.24 7.91 7.91 0 0 1 -3.68-.36 3.87 3.87 0 0 1 -1.56-1 2.1 2.1 0 0 1 -.57-1.1.46.46 0 0 0 0-.07v-.47zm4.93 2.26a6 6 0 0 0 1.48-.18 2.25 2.25 0 0 0 1.73-1.45 1.93 1.93 0 0 0 -.49-2.19c-.3-.23-.61-.44-.92-.67a1.61 1.61 0 0 0 -.47-.29 4 4 0 0 0 -3.82.79 1.89 1.89 0 0 0 -.73 1.54 2.31 2.31 0 0 0 1.13 1.92 3.54 3.54 0 0 0 2.08.55zm2.23-10.26a3.69 3.69 0 0 0 -.36-1.74 2.93 2.93 0 0 0 -1.76-1.7 1.58 1.58 0 0 0 -1.6.29 2.18 2.18 0 0 0 -.73 1.47 3.82 3.82 0 0 0 .78 2.83 2.48 2.48 0 0 0 1.53 1 1.54 1.54 0 0 0 1.48-.47 2.47 2.47 0 0 0 .66-1.68z"/><path d="m32.72 20.26h-3.4v.18 3.07c0 .14 0 .18-.18.17h-.93v-3.43h-3.39v-1.13h3.18c.19 0 .19 0 .19-.19q0-1.49 0-3c0-.06 0-.11 0-.18h1.11v.17 3a.14.14 0 0 0 .17.17h3.23v1.13z"/></g></svg>