<svg height="171" viewBox="0 0 171 171" width="171" xmlns="http://www.w3.org/2000/svg"><g fill="none" fill-rule="evenodd"><path d="m85.5 5.8c44.2 0 80.2 36 80.2 80.2s-36 80.2-80.2 80.2-80.2-36-80.2-80.2c0-44.3 36-80.2 80.2-80.2zm0-4.9c-47 0-85 38.1-85 85s38.1 85 85 85 85-38.1 85-85-38-85-85-85z" fill="#c8c8c8"/><g fill="#232323" transform="translate(48 49)"><path d="m37.4 73.8c-5.5-.1-11-.2-16.4-.5-5.1-.3-9.8-1.8-13.6-5.4-3.7-3.5-5.5-7.8-6-12.8-.3-3.4-.5-6.7-.5-10.1 0-8.2 0-16.3.3-24.5.2-6.6 2.8-12.2 8.4-16.2 3.4-2.4 7.3-3.5 11.3-3.7 11-.5 22.1-.6 33.1 0 6.7.4 12.4 2.9 16.3 8.6 2.2 3.3 3.3 7 3.4 11 .2 9 .3 18 .3 27.1 0 3.2-.2 6.4-.7 9.5-1.7 9.3-8.3 15.3-17.7 16.2-3.5.3-7.1.4-10.6.5-2.5.1-5 0-7.5 0-.1.2-.1.3-.1.3zm30.2-36.7h-.2c0-3 .1-6 0-8.9s-.2-5.9-.5-8.8c-.7-6.3-4.7-10.6-10.9-11.6-3.2-.5-6.5-.6-9.8-.6-5.8-.1-11.6-.1-17.5 0-3 0-6.1.1-9.1.5-6.3.7-10.5 4.7-11.5 10.9-.5 3.2-.6 6.4-.6 9.7-.1 6-.1 11.9 0 17.9 0 2.9.2 5.9.5 8.8.7 6.3 4.7 10.6 10.9 11.6 3.1.5 6.4.6 9.6.6 6 .1 12 .1 18 0 2.9 0 5.8-.2 8.8-.5 2.8-.3 5.3-1.3 7.5-3.2 3-2.6 4.2-6.1 4.4-9.9.2-5.6.2-11.1.4-16.5z"/><path d="m56.3 37.1c0 10.4-8.4 18.8-18.8 18.8s-18.8-8.4-18.8-18.8 8.4-18.8 18.8-18.8c10.4-.1 18.8 8.3 18.8 18.8zm-18.9 12.1c6.8 0 12.2-5.4 12.2-12.1 0-6.8-5.4-12.3-12.1-12.3-6.8 0-12.3 5.4-12.3 12.1.1 6.9 5.4 12.3 12.2 12.3z"/><path d="m57 21.9c-2.4 0-4.4-1.9-4.4-4.4 0-2.4 1.9-4.4 4.4-4.4s4.4 2 4.4 4.4c0 2.5-2 4.4-4.4 4.4z"/></g></g></svg>