<svg height="171" viewBox="0 0 171 171" width="171" xmlns="http://www.w3.org/2000/svg"><g fill="none" fill-rule="evenodd"><path d="m85.5 5.8c44.2 0 80.2 36 80.2 80.2s-36 80.2-80.2 80.2-80.2-36-80.2-80.2c0-44.3 36-80.2 80.2-80.2zm0-4.9c-47 0-85 38.1-85 85s38.1 85 85 85 85-38.1 85-85-38-85-85-85z" fill="#c8c8c8"/><path d="m68.8 118.9c-.1-3.1 0-6.7.8-10 .8-3.6 5.6-23.9 5.6-23.9s-1.4-2.8-1.4-6.9c0-6.5 3.8-11.3 8.4-11.3 4 0 5.9 3 5.9 6.6 0 4-2.6 10-3.9 15.5-1.1 4.6 2.3 8.4 6.9 8.4 8.3 0 13.9-10.6 13.9-23.2 0-9.6-6.5-16.8-18.2-16.8-13.3 0-21.5 9.9-21.5 21 0 3.8 1.1 6.5 2.9 8.6.8 1 .9 1.3.6 2.4-.2.8-.7 2.7-.9 3.5-.3 1.1-1.2 1.5-2.2 1.1-6.1-2.5-9-9.2-9-16.7 0-12.4 10.5-27.3 31.3-27.3 16.7 0 27.7 12.1 27.7 25.1 0 17.2-9.6 30-23.6 30-4.7 0-9.2-2.5-10.7-5.4 0 0-2.5 10.1-3.1 12-.9 3.4-2.7 6.8-4.4 9.4 0-.2-4 4.6-5.1-2.1z" fill="#232323"/></g></svg>