<svg height="171" viewBox="0 0 171 171" width="171" xmlns="http://www.w3.org/2000/svg"><g fill="none" fill-rule="evenodd"><path d="m85.5 5.8c44.2 0 80.2 36 80.2 80.2s-36 80.2-80.2 80.2-80.2-36-80.2-80.2c0-44.3 36-80.2 80.2-80.2zm0-4.9c-47 0-85 38.1-85 85s38.1 85 85 85 85-38.1 85-85-38-85-85-85z" fill="#c8c8c8"/><path d="m87.1 122.5h-3c-2.6-1.1-5.6-1.8-7.8-3.4-4.7-3.3-9.6-4.9-15.2-3.5-1.6.4-2.7-.3-2.9-1.9-.4-2.4-1.7-3.2-4-3.7-2.8-.6-5.9-1-7.2-4.3v-.3c.8-.5 1.6-1.3 2.5-1.6 6.5-1.9 10.8-6.2 13.8-12.1 1.7-3.3 1.3-4.1-2.1-5.5-1.8-.7-3.6-1.5-5.2-2.5-1.8-1.2-1.7-3.4.3-4.5 1-.5 2.3-.5 3.5-.5.8 0 1.6.5 2.4.7 1.9.5 2.6 0 2.6-1.9 0-3.2-.1-6.5 0-9.7.2-7.6 3.9-13 10.8-16 2.6-1.1 5.5-1.6 8.3-2.4h4.4c1 .2 2 .4 3.1.7 8 1.8 14.9 8.4 15.4 16.9.2 3.4 0 6.9-.1 10.3 0 2.4.5 2.6 2.8 2 1.5-.4 3.1-.4 4.6-.4 1.3.1 2.6.9 2.5 2.2 0 .9-.7 2.1-1.5 2.6-1.6 1-3.4 1.7-5.1 2.4-3 1.3-3.5 2.4-2 5.3 3.1 6.1 7.5 10.6 14.3 12.4.7.2 1.7.9 1.8 1.5.2 1.1-.4 2.2-1.6 2.6-1.8.6-3.5 1.5-5.3 1.9-2.1.5-3.5 1.3-3.9 3.7-.2 1.6-1.3 2.3-2.9 1.9-.5-.1-1-.1-1.5-.2-4-.6-7.8-.2-11.2 2.2-3.4 2.3-6.7 4.3-10.6 5.1z" fill="#232323"/></g></svg>