<svg height="171" viewBox="0 0 171 171" width="171" xmlns="http://www.w3.org/2000/svg"><g fill="none" fill-rule="evenodd"><path d="m85.5 5.8c44.2 0 80.2 36 80.2 80.2s-36 80.2-80.2 80.2-80.2-36-80.2-80.2c0-44.3 36-80.2 80.2-80.2zm0-4.9c-47 0-85 38.1-85 85s38.1 85 85 85 85-38.1 85-85-38-85-85-85z" fill="#c8c8c8"/><path d="m130.2 58.6c-3.3 1.5-6.8 2.4-10.5 2.9 3.8-2.3 6.7-5.9 8.1-10.2-3.6 2.1-7.5 3.6-11.7 4.4-3.3-3.6-8.1-5.8-13.4-5.8-10.1 0-18.4 8.2-18.4 18.4 0 1.5.2 2.8.5 4.2-15.2-.7-28.8-8-37.8-19.1-1.6 2.7-2.5 5.9-2.5 9.2 0 6.4 3.2 12 8.2 15.3-3-.1-5.8-.9-8.3-2.3v.2c0 8.9 6.3 16.3 14.7 18-1.5.4-3.2.6-4.8.6-1.2 0-2.3-.1-3.4-.3 2.3 7.3 9.1 12.6 17.1 12.8-6.3 4.9-14.2 7.9-22.8 7.9-1.5 0-2.9-.1-4.4-.3 8.1 5.2 17.8 8.3 28.1 8.3 33.8 0 52.3-28 52.3-52.2 0-.8 0-1.6-.1-2.4 3.6-2.6 6.7-5.9 9.1-9.6z" fill="#232323"/></g></svg>