<svg enable-background="new 0 0 15.2 8.6" viewBox="0 0 15.2 8.6" xmlns="http://www.w3.org/2000/svg" xmlns:xlink="http://www.w3.org/1999/xlink"><clipPath id="a"><path d="m220.1-34-5.6 6.3-5.4-6.3h-2.1l7.5 8.6 7.7-8.6z"/></clipPath><clipPath id="b"><path d="m-278.9-268.3h864v1200h-864z"/></clipPath><clipPath id="c"><path d="m220.1-34-5.6 6.3-5.4-6.3h-2.1l7.5 8.6 7.7-8.6z"/></clipPath><clipPath id="d"><path d="m-278.9-268.3h864v1200h-864z"/></clipPath><clipPath id="e"><path d="m220.1-34-5.6 6.3-5.4-6.3h-2.1l7.5 8.6 7.7-8.6z"/></clipPath><clipPath id="f"><path d="m-278.9-268.3h864v1200h-864z"/></clipPath><clipPath id="g"><path d="m13.1 0-5.6 6.3-5.4-6.3h-2.1l7.5 8.6 7.7-8.6z"/></clipPath><clipPath id="h"><path d="m-485.9-234.3h864v1200h-864z"/></clipPath><g clip-path="url(#a)"><path clip-path="url(#b)" d="m202-39h25.2v18.6h-25.2z" fill="#33333e"/></g><g clip-path="url(#c)"><path clip-path="url(#d)" d="m202-39h25.2v18.6h-25.2z" fill="#33333e"/></g><g clip-path="url(#e)"><path clip-path="url(#f)" d="m202-39h25.2v18.6h-25.2z" fill="#33333e"/></g><g clip-path="url(#g)"><path clip-path="url(#h)" d="m-5-5h25.2v18.6h-25.2z" fill="#33333e"/></g></svg>