<?xml version="1.0" encoding="UTF-8"?>
<svg width="32px" height="28px" viewBox="0 0 32 28" version="1.1" xmlns="http://www.w3.org/2000/svg" xmlns:xlink="http://www.w3.org/1999/xlink">
    <!-- Generator: Sketch 53.1 (72631) - https://sketchapp.com -->
    <title>Account (4)</title>
    <desc>Created with Sketch.</desc>
    <g id="Page-1" stroke="none" stroke-width="1" fill="none" fill-rule="evenodd">
        <g id="Account-(4)" fill="#000000" fill-rule="nonzero">
            <path d="M31.9700291,28 L31.0309402,28 C30.0319095,24.7661692 26.435399,24.0199005 24.2575121,23.5124378 C23.7953176,23.4312686 23.3408148,23.3114414 22.8988303,23.1542289 C21.043789,22.4879583 19.6701476,20.9087629 19.2723489,18.9850746 C19.2451249,18.8456836 19.2859009,18.7016939 19.3822423,18.5970149 C19.4775376,18.4904222 19.6199228,18.4381748 19.761874,18.4577114 L19.761874,18.4577114 C21.7106484,18.7972664 23.7173973,18.5042629 25.4863199,17.6218905 C23.1385977,15.6318408 23.1385977,11.1840796 23.1385977,9.1840796 C23.1385977,4.50746269 20.1415056,0.945273632 16.1453828,0.885572139 L16.085441,0.885572139 C12.0893182,0.885572139 8.82248783,4.54726368 8.82248783,9.00497512 C8.82248783,10.9950249 8.82248783,15.4825871 6.484756,17.4328358 C8.16047075,18.4889126 10.2019475,18.8025586 12.1192891,18.2985075 C12.2685414,18.2548303 12.429858,18.2911072 12.5457887,18.3944188 C12.6617194,18.4977304 12.7157872,18.653393 12.6887366,18.8059701 C12.2891359,20.7287719 10.9161588,22.3072036 9.0622552,22.9751244 C8.64220053,23.1262408 8.21142492,23.2459752 7.7735056,23.3333333 C5.57563806,23.8507463 1.92917602,24.7263682 0.930145321,28 L0.00104677259,28 C-0.000348924195,27.9801238 -0.000348924195,27.9601747 0.00104677259,27.9402985 C1.06001931,23.960199 5.28591916,22.9651741 7.56370915,22.4676617 C7.95017502,22.3874689 8.33069179,22.2810855 8.70260414,22.1492537 C10.0316113,21.6646056 11.0918194,20.6411952 11.6197738,19.3333333 C9.42857064,19.6526468 7.19933292,19.0984659 5.41579315,17.7910448 C5.30064239,17.6979889 5.23897103,17.5543626 5.25095495,17.4071536 C5.26293888,17.2599445 5.34703644,17.12809 5.47573499,17.0547264 C7.93335051,15.6517413 7.93335051,10.8258706 7.93335051,9.00497512 C7.93335051,4.02985075 11.5798126,0.0497512438 16.0554701,0 L16.1853441,0 C20.6010597,0.0597014925 24.0377253,4.09950249 24.0377253,9.1840796 C24.0377253,11.0049751 24.0377253,15.840796 26.4953409,17.2338308 C26.618289,17.3055407 26.6998297,17.4310528 26.7151276,17.5721393 C26.7288057,17.7147983 26.6730978,17.8553591 26.565273,17.9502488 C26.4853506,18.0298507 24.5672116,19.721393 20.2913602,19.4029851 C20.8107631,20.7690451 21.9066807,21.8387379 23.2884523,22.3283582 C23.6797877,22.4607916 24.0805169,22.5638983 24.4872892,22.6368159 C26.7450985,23.1243781 30.9410275,24.0298507 32,27.9402985 C31.9915858,27.960946 31.9815651,27.9809072 31.9700291,28 Z" id="Path"></path>
        </g>
    </g>
</svg>