<?xml version="1.0" encoding="UTF-8"?>
<svg width="32px" height="28px" viewBox="0 0 32 28" version="1.1" xmlns="http://www.w3.org/2000/svg" xmlns:xlink="http://www.w3.org/1999/xlink">
    <!-- Generator: Sketch 53.1 (72631) - https://sketchapp.com -->
    <title>accountActive</title>
    <desc>Created with Sketch.</desc>
    <g id="Page-1" stroke="none" stroke-width="1" fill="none" fill-rule="evenodd">
        <g id="accountActive" fill="#000000" fill-rule="nonzero">
            <path d="M0.00104677259,28 C-0.000348924195,27.9801238 -0.000348924195,27.9601747 0.00104677259,27.9402985 C1.06001931,23.960199 5.28591916,22.9651741 7.56370915,22.4676617 C7.95017502,22.3874689 8.33069179,22.2810855 8.70260414,22.1492537 C10.0316113,21.6646056 11.0918194,20.6411952 11.6197738,19.3333333 C9.42857064,19.6526468 7.19933292,19.0984659 5.41579315,17.7910448 C5.30064239,17.6979889 5.23897103,17.5543626 5.25095495,17.4071536 C5.26293888,17.2599445 5.34703644,17.12809 5.47573499,17.0547264 C7.93335051,15.6517413 7.93335051,10.8258706 7.93335051,9.00497512 C7.93335051,4.02985075 11.5798126,0.0497512438 16.0554701,0 L16.1853441,0 C20.6010597,0.0597014925 24.0377253,4.09950249 24.0377253,9.1840796 C24.0377253,11.0049751 24.0377253,15.840796 26.4953409,17.2338308 C26.618289,17.3055407 26.6998297,17.4310528 26.7151276,17.5721393 C26.7288057,17.7147983 26.6730978,17.8553591 26.565273,17.9502488 C26.4853506,18.0298507 24.5672116,19.721393 20.2913602,19.4029851 C20.8107631,20.7690451 21.9066807,21.8387379 23.2884523,22.3283582 C23.6797877,22.4607916 24.0805169,22.5638983 24.4872892,22.6368159 C26.7450985,23.1243781 30.9410275,24.0298507 32,27.9402985 C31.9915858,27.960946 31.9815651,27.9809072 31.9700291,28 L0.00104677259,28 Z" id="Path"></path>
        </g>
    </g>
</svg>