<svg height="26" viewBox="0 0 31 26" width="31" xmlns="http://www.w3.org/2000/svg" xmlns:xlink="http://www.w3.org/1999/xlink"><mask id="a" fill="#fff"><path d="m.674 2.109c0 .698.559 1.326 1.326 1.326s1.325-.628 1.325-1.326c0-.697-.627-1.325-1.325-1.325s-1.326.558-1.326 1.325zm.698-.069c0-.349.279-.628.628-.628s.628.279.628.628-.279.628-.628.628-.628-.279-.628-.628z" fill="#fff" fill-rule="evenodd"/></mask><mask id="b" fill="#fff"><path d="m.499 2.109c0 .698.558 1.326 1.325 1.326.768 0 1.326-.628 1.326-1.326 0-.767-.628-1.325-1.326-1.325-.697 0-1.325.558-1.325 1.325zm.697-.069c0-.349.28-.628.628-.628.35 0 .629.279.629.628s-.279.628-.629.628c-.348 0-.628-.279-.628-.628z" fill="#fff" fill-rule="evenodd"/></mask><g fill="#33333e" fill-rule="evenodd"><path d="m-3.871 7.98h11.742v-11.742h-11.742z" mask="url(#a)" transform="translate(10 12.2046)"/><path d="m-4.046 7.98h11.742v-11.742h-11.742z" mask="url(#b)" transform="translate(16 12.2046)"/><path d="m0 25.2046h30.416v-25.204h-30.416zm1-1h28.417v-23.205h-28.417z"/><path d="m.5 5.1846h29v-1h-29z"/><path d="m14.5 25.1846h1v-24.999h-1z"/><path d="m8.5 24.1846h1.001v-23.999h-1.001z"/><path d="m20.5 24.1846h1v-23.999h-1z"/><path d="m.5 15.1846h7.999v-1h-7.999z"/><path d="m21.5 15.1846h8v-1h-8z"/><path d="m3.5 4.1846h1v-4h-1z"/><path d="m25.5 4.1846h1v-4h-1z"/></g></svg>