<svg height="30" viewBox="0 0 23 30" width="23" xmlns="http://www.w3.org/2000/svg" xmlns:xlink="http://www.w3.org/1999/xlink"><mask id="a" fill="#fff"><path d="m22.7376 30h-22.7376v-29.9995h22.7376z" fill="#fff" fill-rule="evenodd"/></mask><g fill="#33333e" fill-rule="evenodd" transform="translate(.125)"><path d="m2.6546 3.8565c-.939 0-1.703.764-1.703 1.703v1.452c0 .72.457 1.365 1.136 1.605l.317.112v18.617c0 .939.764 1.703 1.702 1.703h14.524c.939 0 1.703-.764 1.703-1.703v-18.617l.317-.112c.679-.24 1.135-.885 1.135-1.605v-1.452c0-.939-.764-1.703-1.702-1.703h-5.559v-1.202c0-.939-.764-1.703-1.703-1.703h-2.905c-.939 0-1.703.764-1.703 1.703v1.202zm15.976 26.144h-14.524c-1.463 0-2.654-1.191-2.654-2.655v-17.967c-.881-.449-1.453-1.361-1.453-2.367v-1.452c0-1.464 1.191-2.655 2.655-2.655h4.608v-.25c0-1.464 1.19-2.654 2.654-2.654h2.905c1.464 0 2.654 1.19 2.654 2.654v.25h4.608c1.464 0 2.654 1.191 2.654 2.655v1.452c0 1.006-.571 1.918-1.452 2.367v17.967c0 1.464-1.191 2.655-2.655 2.655z" mask="url(#a)"/><path d="m6.1131 11.9882c-.264 0-.479.112-.479.251v14.523c0 .276.958.276.958 0v-14.523c0-.139-.215-.251-.479-.251"/><path d="m11.3694 11.9882c-.264 0-.479.112-.479.251v14.523c0 .276.958.276.958 0v-14.523c0-.139-.215-.251-.479-.251"/><path d="m16.6256 11.9882c-.264 0-.479.112-.479.251v14.523c0 .276.958.276.958 0v-14.523c0-.139-.215-.251-.479-.251"/><path d="m18.8596 8.6371c0-.264-.112-.479-.25-.479h-14.524c-.276 0-.276.958 0 .958h14.524c.138 0 .25-.215.25-.479"/></g></svg>