<svg height="37" viewBox="754 239 38 37" width="38" xmlns="http://www.w3.org/2000/svg"><g fill="#33333e" fill-rule="evenodd" transform="translate(754 241)"><path d="m28.8653846 17.9357143c4.8961539 0 8.9153846-4.0595238 8.9153846-9.00476192 0-4.94523809-4.0192307-8.93095238-8.9153846-8.93095238-4.8961538 0-8.9153846 4.05952381-8.9153846 9.0047619 0 4.9452381 4.0192308 8.9309524 8.9153846 8.9309524zm0-17.34523811c4.6038462 0 8.3307692 3.76428571 8.3307692 8.41428571s-3.726923 8.4142857-8.3307692 8.4142857c-4.6038461 0-8.3307692-3.7642857-8.3307692-8.4142857s3.7269231-8.41428571 8.3307692-8.41428571zm2.2653846 11.66190481c.073077.0738095.1461539.0738095.2192308.0738095s.1461538 0 .2192308-.0738095c.0730769-.0738096.0730769-.2952381 0-.3690477l-2.6307693-2.65714282v-3.98571429c0-.14761905-.1461538-.29523809-.2923077-.29523809-.1461538 0-.2923076.14761904-.2923076.29523809v4.05952381c0 .07380952 0 .14761905.0730769.22142857z"/><path d="m15.711539 9.004762h.730769v21.404762h-.730769z"/><path d="m7.673077 9.004762h.730769v21.404762h-.730769z"/><path d="m23.75 16.0166667.7307692.3690476v14.0238095h-.7307692z"/><path d="m13.2269231 20.8142857c-.8038462 0-1.3884616-.6642857-1.3884616-1.4023809 0-.8119048.6576923-1.402381 1.3884616-1.402381.7307692 0 1.3884615.6642857 1.3884615 1.402381 0 .7380952-.5846154 1.4023809-1.3884615 1.4023809zm0-2.1404762c-.3653846 0-.6576923.2952381-.6576923.6642857 0 .3690477.2923077.6642858.6576923.6642858s.6576923-.2952381.6576923-.6642858c0-.3690476-.2923077-.6642857-.6576923-.6642857z"/><path d="m18.7076923 20.8142857c-.8038461 0-1.3884615-.6642857-1.3884615-1.4023809 0-.8119048.6576923-1.402381 1.3884615-1.402381s1.3884615.5904762 1.3884615 1.402381c0 .7380952-.5846153 1.4023809-1.3884615 1.4023809zm0-2.1404762c-.3653846 0-.6576923.2952381-.6576923.6642857 0 .3690477.2923077.6642858.6576923.6642858s.6576923-.2952381.6576923-.6642858c0-.3690476-.2923077-.6642857-.6576923-.6642857z"/><path d="m19.365385 5.314286h.730769v3.690476h-.730769z"/><path d="m17.173077 5.314286h.730769v3.690476h-.730769z"/><path d="m14.980769 5.314286h.730769v3.690476h-.730769z"/><path d="m12.788462 5.314286h.730769v3.690476h-.730769z"/><path d="m10.596154 5.314286h.730769v3.690476h-.730769z"/><path d="m8.403846 5.314286h.730769v3.690476h-.730769z"/><path d="m6.211538 5.314286h.730769v3.690476h-.730769z"/><path d="m4.019231 5.314286h.730769v3.690476h-.730769z"/><path d="m1.826923 5.314286h.730769v3.690476h-.730769z"/><path d="m31.4230769 30.7785714h-31.4230769v-25.8333333h21.1923077v.73809523h-20.46153847v24.35714287h29.96153847v-12.5476191h.7307692z"/><path d="m0 8.635714h20.461539v.738095h-20.461539z"/><path d="m0 19.707143h8.038462v.738095h-8.038462z"/><path d="m24.115385 19.707143h6.576923v.738095h-6.576923z"/></g></svg>