<svg height="37" viewBox="99 280 37 37" width="37" xmlns="http://www.w3.org/2000/svg"><g fill="#33333e" fill-rule="evenodd" transform="translate(101 285)"><path d="m33 26.8604651h-33v-23.0232558h33zm-32.23255814-.7674418h31.46511624v-21.48837214h-31.46511624z"/><path d="m16.116279 4.604651h.767442v22.255814h-.767442z"/><path d="m7.674419 4.604651h.767442v22.255814h-.767442z"/><path d="m24.55814 4.604651h.767442v22.255814h-.767442z"/><path d="m13.5069767 16.8837209c-.844186 0-1.4581395-.6906976-1.4581395-1.4581395 0-.8441861.6906977-1.4581395 1.4581395-1.4581395.7674419 0 1.4581396.6906976 1.4581396 1.4581395s-.6139535 1.4581395-1.4581396 1.4581395zm0-2.2255814c-.3837209 0-.6906976.3069768-.6906976.6906977s.3069767.6906977.6906976.6906977c.383721 0 .6906977-.3069768.6906977-.6906977s-.3069767-.6906977-.6906977-.6906977z"/><path d="m19.2627907 16.8837209c-.844186 0-1.4581395-.6906976-1.4581395-1.4581395 0-.8441861.6906976-1.4581395 1.4581395-1.4581395s1.4581395.6139534 1.4581395 1.4581395c0 .7674419-.6139535 1.4581395-1.4581395 1.4581395zm0-2.2255814c-.3837209 0-.6906977.3069768-.6906977.6906977s.3069768.6906977.6906977.6906977.6906977-.3069768.6906977-.6906977-.3069768-.6906977-.6906977-.6906977z"/><path d="m25.325581 15.348837h6.906977v.767442h-6.906977z"/><path d="m0 15.348837h8.44186v.767442h-8.44186z"/><path d="m29.930233.767442h.767442v3.837209h-.767442z"/><path d="m27.627907.767442h.767442v3.837209h-.767442z"/><path d="m25.325581.767442h.767442v3.837209h-.767442z"/><path d="m23.023256.767442h.767442v3.837209h-.767442z"/><path d="m20.72093.767442h.767442v3.837209h-.767442z"/><path d="m18.418605.767442h.767442v3.837209h-.767442z"/><path d="m16.116279.767442h.767442v3.837209h-.767442z"/><path d="m13.813954.767442h.767442v3.837209h-.767442z"/><path d="m11.511628.767442h.767442v3.837209h-.767442z"/><path d="m9.209302.767442h.767442v3.837209h-.767442z"/><path d="m6.906977.767442h.767442v3.837209h-.767442z"/><path d="m4.604651.767442h.767442v3.837209h-.767442z"/><path d="m2.302326.767442h.767442v3.837209h-.767442z"/><path d="m33 4.60465116h-.7674419v-3.8372093h-31.46511624v3.8372093h-.76744186v-4.60465116h33z"/></g></svg>