<svg height="30" viewBox="0 0 30 30" width="30" xmlns="http://www.w3.org/2000/svg" xmlns:xlink="http://www.w3.org/1999/xlink"><mask id="a" fill="#fff"><path d="m0 30h30v-30h-30z" fill="#fff" fill-rule="evenodd"/></mask><g fill="#33333e" fill-rule="evenodd"><path d="m15 .9375c7.755 0 14.063 6.309 14.063 14.063 0 7.753-6.308 14.062-14.063 14.062s-14.063-6.307-14.063-14.062c0-7.756 6.31-14.063 14.063-14.063zm0 29.062c8.271 0 15-6.729 15-14.999 0-8.271-6.729-15-15-15s-15 6.729-15 15c0 8.27 6.729 14.999 15 14.999z"/><path d="m13.698 22.297h2.988v-10.083h-2.988zm1.484-11.567c-.501 0-.914-.146-1.24-.437-.325-.292-.487-.668-.487-1.128 0-.461.162-.834.487-1.118.326-.285.739-.427 1.24-.427.515 0 .932.142 1.251.427.318.284.477.657.477 1.118 0 .46-.159.836-.477 1.128-.319.291-.736.437-1.251.437z" mask="url(#a)"/></g></svg>