<svg enable-background="new 0 0 41.6 36.3" viewBox="0 0 41.6 36.3" xmlns="http://www.w3.org/2000/svg"><path d="m34.3 36.3h-6.8c-.3 0-.5-.2-.5-.5v-13h-12.5v13c0 .3-.2.5-.5.5h-6.7c-.3 0-.5-.2-.5-.5v-17.5h-6.3c-.2 0-.4-.1-.5-.3s0-.4.1-.6c6.2-5.1 16.3-13.8 20.4-17.3.2-.2.5-.2.7 0 5.1 4.4 14.5 12.4 20.3 17.3.2.1.2.4.1.6s-.3.3-.5.3h-3.4c-1.4 0-2.3 0-2.9 0v17.6c0 .1-.1.3-.1.4s-.2 0-.4 0zm-6.2-1h5.8v-17.5c0-.3.2-.5.5-.5h5.4c-5.8-4.8-14.2-12-19-16.1-4 3.5-12.9 11.1-18.9 16.2h5.4c.3 0 .5.2.5.5v17.5h5.8v-13c0-.3.2-.5.5-.5h13.5c.3 0 .5.2.5.5z"/></svg>