<svg enable-background="new 0 0 47 30" viewBox="0 0 47 30" xmlns="http://www.w3.org/2000/svg"><g fill="#33333e"><path d="m44.7 0h-41.9c-1.6 0-2.8 1.7-2.8 3.3v24.3c0 1.5 1.2 2.4 2.8 2.4h41.8c1.5 0 2.5-1 2.5-2.5v-24.3c-.1-1.5-1-3.2-2.4-3.2zm-43.7 27.5v-13.5h45v13.5c0 1-.5 1.5-1.5 1.5h-41.7c-1 0-1.8-.5-1.8-1.5zm1.8-26.5h41.9c.9 0 1.3 1.2 1.3 2.2v3.8h-45v-3.7c0-1 .8-2.3 1.8-2.3zm43.2 7v5h-45v-5z"/><path d="m16 25h-12c-.6 0-1 .4-1 1s.4 1 1 1h12c.6 0 1-.4 1-1s-.4-1-1-1z"/><path d="m27 25h-7c-.6 0-1 .4-1 1s.4 1 1 1h7c.6 0 1-.4 1-1s-.4-1-1-1z"/></g></svg>