<svg viewBox="0 0 32 32" xmlns="http://www.w3.org/2000/svg"><path d="m30 15.21h1v10.25a.48.48 0 0 1 -.48.48h-28.99a.48.48 0 0 1 -.53-.48v-16.41a.47.47 0 0 1 0-.05.46.46 0 0 1 0-.1v-.09l.07-.07h14.65v1h-12.72l13 9.36 5-3.6.68.5 8.32 8.29zm-28 9.08 8.32-8.29-8.32-6v14.3zm27.31.71-8.42-8.42-4.61 3.32a.48.48 0 0 1 -.56 0l-4.61-3.32-8.42 8.42zm2.05-15.15a3.17 3.17 0 0 0 -2.3-1.26c-2.12-.16-4.49 1.8-6.08 3.28-1.3 1.22-3.2 2.48-4.7 2.38a2.07 2.07 0 0 1 -1.52-.83 2.11 2.11 0 0 1 -.42-1.58 2.52 2.52 0 0 1 .91-1.67c1.39-1.09 3.44-.19 4.77.92l.67-.8c-1.63-1.36-4.2-2.42-6.09-.94a3.54 3.54 0 0 0 -1.3 2.37 3.15 3.15 0 0 0 .64 2.35 3.1 3.1 0 0 0 2.27 1.22h.26c2.14 0 4.36-1.85 5.24-2.67s3.37-3.14 5.29-3a2.2 2.2 0 0 1 2 2.45 2.52 2.52 0 0 1 -.91 1.67c-1.39 1.1-3.44.19-4.77-.92l-.67.8c1.63 1.36 4.2 2.42 6.09.94a3.54 3.54 0 0 0 1.26-2.36 3.15 3.15 0 0 0 -.64-2.35z"/></svg>