<svg height="33" viewBox="751 109 34 33" width="34" xmlns="http://www.w3.org/2000/svg"><g fill="#33333e" fill-rule="evenodd" transform="translate(755.473684 109.891892)"><path d="m23.1953748 29.2733382-9.4354067-3.9773557-2.9878788 3.8182615-3.5382775-6.3637692-7.2338118-2.7046019 25.2397129-20.0458729zm-9.7499203-4.852374 8.9636364 3.7387144 1.8870813-26.40964208-22.72360442 18.05719508 6.13301436 2.3068663 3.14513556 5.568298z"/><path d="m13.6027113 25.2959825h-.1572568c-.1572567-.0795471-.3145135-.3181885-.1572567-.5568298l9.7499202-21.07998542-15.25390747 19.01176042c-.15725678.1590942-.39314195.1590942-.55039873.0795471s-.15725678-.3977356-.07862839-.5568298l17.29824559-21.55726808c.1572568-.15909423.3145136-.15909423.5503988-.07954712.1572567.07954712.2358851.31818846.1572567.47728269l-11.1652312 24.02322861c-.0786284.1590943-.2358852.2386414-.393142.2386414z"/></g></svg>