<svg height="32" viewBox="0 0 36 32" width="36" xmlns="http://www.w3.org/2000/svg" xmlns:xlink="http://www.w3.org/1999/xlink"><mask id="a" fill="#fff"><path d="m0 31.2358857h35.7795v-31.23542856h-35.7795z" fill="#fff" fill-rule="evenodd"/></mask><path d="m23.0626125 30.0930286h4.5v-14.2857143c0-.3154286.252-.5714286.5625-.5714286h5.58675l-15.769125-13.90857141-15.867 13.90857141h5.799375c.3105 0 .5625.256.5625.5714286v14.2857143h4.5v-10.8571429c0-.3154286.252-.5714286.5625-.5714286h9c.3105 0 .5625.256.5625.5714286zm5.0625 1.1428571h-5.625c-.3105 0-.5625-.256-.5625-.5714286v-10.8571428h-7.875v10.8571428c0 .3154286-.252.5714286-.5625.5714286h-5.625c-.3105 0-.5625-.256-.5625-.5714286v-14.2857142h-6.75c-.235125 0-.4455-.1485715-.527625-.3725715-.082125-.2228571-.018-.4754285.15975-.6308571l17.382375-15.23657144c.2115-.18628572.525375-.18514286.73575.00114285l.241875.21371429 17.031375 15.0228571c.17775.1554286.24075.4068572.1575.6308572-.081.224-.291375.3714286-.5265.3714286h-6.5295v14.2857142c0 .3154286-.252.5714286-.5625.5714286z" fill="#33333e" fill-rule="evenodd" mask="url(#a)"/></svg>