<svg height="30" viewBox="0 0 30 30" width="30" xmlns="http://www.w3.org/2000/svg" xmlns:xlink="http://www.w3.org/1999/xlink"><mask id="a" fill="#fff"><path d="m.0004 30h29.716v-29.7168h-29.716z" fill="#fff" fill-rule="evenodd"/></mask><mask id="b" fill="#fff"><path d="m0 30.7168h29.717v-29.717h-29.717z" fill="#fff" fill-rule="evenodd"/></mask><g fill="#33333e" fill-rule="evenodd" transform="translate(0 -1)"><path d="m14.8584 1.2832c-7.642 0-13.858 6.217-13.858 13.858 0 7.642 6.216 13.859 13.858 13.859s13.858-6.217 13.858-13.859c0-7.641-6.216-13.858-13.858-13.858m0 28.717c-8.193 0-14.858-6.666-14.858-14.859 0-8.192 6.665-14.858 14.858-14.858s14.858 6.666 14.858 14.858c0 8.193-6.665 14.859-14.858 14.859" mask="url(#a)" transform="translate(0 .7168)"/><path d="m13.858 7.5458h2v-6h-2z" mask="url(#b)"/><path d="m13.858 30.5458h2v-6h-2z" mask="url(#b)"/><path d="m22.858 17.5458h6v-2h-6z" mask="url(#b)"/><path d="m.858 17.5458h6v-2h-6z" mask="url(#b)"/></g></svg>