<svg height="293" viewBox="0 0 580 293" width="580" xmlns="http://www.w3.org/2000/svg"><g fill="#33333d" fill-rule="evenodd"><path d="m507.8 287.8c35.2-23.8 47.7-45.7 47.7-62.4 0-7.4-4.1-16.6-12.8-26.1l-24.9-27c-9.8-10.6-16.6-23.1-16.6-37.1 0-11.9 5.6-21.8 13.5-28 7.7-6.1 17-9.2 32.8-9.2 11 0 22.5 2.7 26.6 3.3l-.1 16.4c-4.9-1.3-14.2-4-22.6-4-7.2 0-14.8 1.6-19 4.3-4.8 3.2-9 9.5-9 15.8 0 6.2 2.8 12.6 10 20.6l27.7 30.1c12.1 13.2 18.2 24.8 18.2 38.2 0 28.2-26.2 52.6-46.1 64.9h-25.4z"/><path d="m282.3 166.5c-33.2 0-48.5 25.1-48.5 55.3 0 33.6 17.4 55.4 47.4 55.4 29.4 0 47-17.8 47-58.6.1-27.5-14.1-52.1-45.9-52.1zm-46.2-69.3c13.8 1.3 44.2 7.4 62.9 17.8 37.9 21.1 55.6 55.5 55.6 93.7 0 53.8-29.4 84.1-73.5 84.1-41.3 0-72.8-26.6-72.8-73.6 0-35.2 26.6-67.8 69.5-67.8 16.4 0 31.9 5.5 41.2 11.7-4.3-9.5-14.8-22.8-25.4-29.5-17.8-11.1-36.7-18.6-59.5-21.2z"/><path d="m371.2.4h20.8v287.4h-20.8z"/><path d="m419.1.4h20.8v287.4h-20.8z"/><path d="m463.8 99.5h20.8v188.3h-20.8z"/><circle cx="474.2" cy="57.9" r="12"/><path d="m198.1 97.5-35.2 144.3-46-144.3h-14l-46 144.4-35.3-144.4h-21.5l45.5 190.5h.1 12.8 5.2l46.2-159.4 46.2 159.4h9.4 8.6l45.5-190.5z"/></g></svg>