<svg height="21" viewBox="0 0 31 21" width="31" xmlns="http://www.w3.org/2000/svg" xmlns:xlink="http://www.w3.org/1999/xlink"><mask id="a" fill="#fff"><path d="m30.8696 21.0034h-30.8696v-10.5015-10.5015h30.8696z" fill="#fff" fill-rule="evenodd"/></mask><g fill="none" fill-rule="evenodd" transform="translate(.125)"><path d="m1 12.7504h14.815v-11.75h-14.815zm15.315 1h-15.815c-.276 0-.5-.224-.5-.5v-12.75c0-.277.224-.5.5-.5h15.815c.277 0 .5.223.5.5v12.75c0 .276-.223.5-.5.5z" fill="#33333e" mask="url(#a)"/><path d="m6.7563 18.8486-2.39-.015c-.275-.002-.497-.225-.497-.5v-5.084h1v4.587l1.893.012z" fill="#33333e" mask="url(#a)"/><path d="m23.5594 18.4563-12.482-.08" mask="url(#a)" stroke="#33333e" stroke-linejoin="round"/><g fill="#33333e"><path d="m30.3696 19.25h-.003l-2.542-.141.006-1.063 2.039-.049v-6.392l-4.915-1.716c-.149-.053-.264-.172-.312-.322l-1.991-6.317h-6.782v-1h7.148c.219 0 .412.142.477.35l2.026 6.427 5.014 1.751c.201.07.335.26.335.472v7.25c0 .133-.053.386-.147.479-.094.094-.221.271-.353.271" mask="url(#a)"/><path d="m18.8696 9.25h2.64l-.702-3h-1.938zm3.271 1h-3.771c-.276 0-.5-.224-.5-.5v-4c0-.276.224-.5.5-.5h2.835c.232 0 .434.16.487.386l.935 4c.035.149 0 .305-.095.425-.095.119-.239.189-.391.189z" mask="url(#a)"/><path d="m25.5635 16.9966c-.829 0-1.503.674-1.503 1.503 0 .83.674 1.504 1.503 1.504s1.503-.674 1.503-1.504c0-.829-.674-1.503-1.503-1.503m0 4.007c-1.38 0-2.503-1.123-2.503-2.504 0-1.38 1.123-2.503 2.503-2.503s2.503 1.123 2.503 2.503c0 1.381-1.123 2.504-2.503 2.504" mask="url(#a)"/><path d="m8.7632 16.9966c-.829 0-1.504.674-1.504 1.503 0 .83.675 1.504 1.504 1.504s1.503-.674 1.503-1.504c0-.829-.674-1.503-1.503-1.503m0 4.007c-1.381 0-2.504-1.123-2.504-2.504 0-1.38 1.123-2.503 2.504-2.503 1.38 0 2.503 1.123 2.503 2.503 0 1.381-1.123 2.504-2.503 2.504" mask="url(#a)"/></g></g></svg>