<svg height="33" viewBox="0 0 20 33" width="20" xmlns="http://www.w3.org/2000/svg" xmlns:xlink="http://www.w3.org/1999/xlink"><mask id="a" fill="#fff"><path d="m0 32.8207567v-32.63805449h19.8544814v32.63805449z" fill="#fff" fill-rule="evenodd"/></mask><g fill="none" fill-rule="evenodd"><path d="m9.9273489 15.482645c-2.87329062 0-5.20243019-2.3554363-5.20243019-5.2611673 0-2.90573102 2.32913957-5.26116733 5.20243019-5.26116733 2.8732906 0 5.2024302 2.35543631 5.2024302 5.26116733 0 2.905731-2.3291396 5.2611673-5.2024302 5.2611673m0-15.29994279c-5.4739648 0-9.92778162 4.50300783-9.92778162 10.03877549 0 2.4998476.47707875 5.2338166 1.41609089 8.1275134.74104069 2.2832306 1.7730886 4.6758638 3.06477121 7.1111639 2.12792268 4.0117905 4.21906378 6.6626136 4.45165319 6.9634706.24124391.3096091.60365067.3971311.99310271.3971311h.00324543c.39161569 0 .75294059-.087522.99851179-.4026013.2336712-.3030449 2.3345486-3.0238857 4.4462441-7.0039494 1.2938462-2.4374882 2.3248123-4.8071469 3.0647712-7.0881895.940094-2.8991668 1.4171727-5.6221956 1.4171727-8.1154791 0-5.53576762-4.4538168-10.02783519-9.9277816-10.02783519" fill="#33333e" mask="url(#a)"/><path d="m15.1295627 10.2216965c0 2.9046369-2.3291395 5.2600733-5.20134835 5.2600733-2.87329062 0-5.20134838-2.3554364-5.20134838-5.2600733 0-2.90463699 2.32805776-5.2600733 5.20134838-5.2600733 2.87220885 0 5.20134835 2.35543631 5.20134835 5.2600733" fill="#fff" mask="url(#a)"/></g></svg>