<svg height="20" viewBox="0 0 19 20" width="19" xmlns="http://www.w3.org/2000/svg"><path d="m18.81 18.4375-5.6366667-6.0625c1.2666667-1.375 1.9-3.125 1.9-4.9375 0-2-.76-3.875-2.2166666-5.25-1.3933334-1.4375-3.29333337-2.1875-5.32000003-2.1875-2.02666667 0-3.92666667.75-5.32 2.1875-1.45666667 1.4375-2.21666667 3.25-2.21666667 5.25s.76 3.875 2.21666667 5.25c1.45666666 1.4375 3.35666666 2.1875 5.32 2.1875 1.64666666 0 3.23000003-.5 4.49666663-1.5l5.6366667 6.0625c.1266667.125.3166667.25.57.25.19 0 .38-.0625.5066667-.1875.3166666-.25.3166666-.75.0633333-1.0625zm-10.57666667-10.25v5h-1.26666666v-5h-5.06666667v-1.25h5.06666667v-5h1.26666666v5h5.06666667v1.25z" fill="#ccc" fill-rule="evenodd"/></svg>