<svg height="29" viewBox="0 0 30 29" width="30" xmlns="http://www.w3.org/2000/svg"><path d="m14.972162 22.8035c.08 0 .16.019.233.058l8.047 4.231-1.536-8.962c-.028-.162.026-.327.143-.442l6.51-6.347-8.997-1.307c-.163-.023-.303-.126-.376-.273l-4.024-8.154-4.024 8.154c-.073.147-.213.25-.376.273l-8.99700001 1.307 6.51 6.347c.118.115.172.28.144.442l-1.537 8.962 8.04700001-4.231c.073-.039.153-.058.233-.058m8.944 5.703c-.079 0-.159-.019-.233-.058l-8.711-4.58-8.71100001 4.58c-.168.089-.372.074-.527-.038-.154-.112-.231-.301-.199-.489l1.664-9.701-7.048-6.87c-.137-.133-.185-.332-.127-.512.059-.181.216-.313.404-.341l9.74000001-1.415 4.356-8.826c.168-.342.728-.342.896 0l4.356 8.826 9.74 1.415c.188.028.345.16.404.341.058.18.01.379-.127.512l-7.048 6.87 1.664 9.701c.032.188-.045.377-.199.489-.087.063-.19.096-.294.096" fill="#33333e" fill-rule="evenodd"/></svg>