<svg height="30" viewBox="0 0 32 30" width="32" xmlns="http://www.w3.org/2000/svg" xmlns:xlink="http://www.w3.org/1999/xlink"><mask id="a" fill="#fff"><path d="m0 30h31.373v-29.864h-31.373z" fill="#fff" fill-rule="evenodd"/></mask><g fill="#33333e" fill-rule="evenodd" transform="translate(0 -1)"><path d="m10.9935 10.9866-10.493 1.525 7.593 7.401-1.793 10.451 9.386-4.935 9.386 4.935-1.793-10.451 7.593-7.401-10.493-1.525-4.693-9.509z"/><path d="m15.6865 24.0652c.08 0 .16.019.233.058l8.489 4.463-1.621-9.453c-.028-.162.025-.328.143-.443l6.868-6.694-9.491-1.379c-.163-.024-.304-.126-.376-.274l-4.245-8.6-4.245 8.6c-.072.148-.213.25-.376.274l-9.491 1.379 6.868 6.694c.118.115.171.281.143.443l-1.621 9.453 8.489-4.463c.073-.039.153-.058.233-.058m9.386 5.935c-.08 0-.16-.019-.233-.058l-9.153-4.812-9.153 4.812c-.168.089-.371.074-.527-.038-.153-.112-.231-.301-.198-.489l1.748-10.192-7.406-7.218c-.136-.133-.185-.332-.126-.512.059-.181.215-.313.404-.341l10.233-1.487 4.577-9.273c.168-.342.728-.342.896 0l4.577 9.273 10.233 1.487c.189.028.345.16.404.341.059.18.01.379-.126.512l-7.406 7.218 1.748 10.192c.033.188-.045.377-.198.489-.087.063-.191.096-.294.096" mask="url(#a)" transform="translate(0 .864)"/></g></svg>