<svg height="400pt" preserveAspectRatio="xMidYMid meet" viewBox="0 0 400 400" width="400pt" xmlns="http://www.w3.org/2000/svg"><g transform="matrix(.1 0 0 -.1 0 400)"><path d="m2454 2763c-10-81-11-1106 0-1355l8-208h49 49l1 133c0 72 2 141 5 152 8 36 7 1076-1 1208l-7 127h-48-49z"/><path d="m2716 2688c-8-163-7-1021 2-1288l7-195 46-3 47-3 8 168c11 203 11 1387 1 1426-7 25-11 27-56 27h-48z"/><path d="m2995 2560c-38-42-10-140 40-140 52 0 84 88 49 138-19 28-65 29-89 2z"/><path d="m1690 2253c0-10-3-28-6-40-5-19-2-23 18-23 46 0 173-42 253-83 80-42 163-115 191-169 17-33 15-34-34-9-144 73-352 41-465-71-68-69-100-145-105-254-11-232 109-385 331-425 131-24 273 18 360 106 89 91 133 231 123 395-9 166-58 276-175 390-90 90-178 137-325 174-119 31-166 34-166 9zm393-401c94-51 132-142 125-299-9-208-104-304-286-291-75 6-111 21-161 70-51 49-74 110-79 207-6 101 9 173 48 234 69 110 231 146 353 79z"/><path d="m3330 2251c-130-46-174-181-102-314 14-26 72-98 129-160s113-131 124-155c26-53 22-108-12-179-22-47-143-178-204-221l-30-21 71-1h71l69 58c167 141 222 289 155 423-12 25-70 97-128 160-129 141-155 178-155 222 0 77 52 117 152 117 36 0 80-4 98-9l32-10v44c0 53-5 55-125 61-72 4-101 1-145-15z"/><path d="m381 2223c5-21 29-128 54-238 50-216 169-700 186-752 8-26 16-33 37-33 30 0 8-54 233 562 46 125 85 225 88 222s65-179 137-392l131-387 30-3c25-3 31 1 35 20 3 13 42 149 86 303s102 361 127 460c26 99 53 201 60 228l13 47h-47-47l-44-147c-24-82-71-248-105-370-33-122-63-224-66-227s-35 81-71 187-95 274-129 375c-60 174-64 182-89 182-26 0-30-9-109-222-174-472-196-528-203-528-5 0-8 9-8 20 0 32-132 542-177 683l-15 47h-58-58z"/><path d="m2977 2018c-4-134-3-364 3-513 5-148 10-278 10-288 0-15 7-18 48-15l47 3 6 160c9 225 10 682 2 798l-6 97h-52-52z"/></g></svg>