<svg height="32" viewBox="0 0 30 32" width="30" xmlns="http://www.w3.org/2000/svg" xmlns:xlink="http://www.w3.org/1999/xlink"><mask id="a" fill="#fff"><path d="m14.9998912 31.5364h-14.9998912v-31.536h14.9998912 14.9998912v31.536z" fill="#fff" fill-rule="evenodd"/></mask><path d="m19.1696 20.3364 9.388 10.241c.107.116.276.212.485.021.139-.128.149-.345.021-.484l.312-.288-.313.287-9.387-10.242.274-.287c1.978-2.069 3.066-4.787 3.066-7.652 0-2.962-1.152-5.745-3.246-7.837-2.095-2.094-4.879-3.247-7.837-3.247-2.962 0-5.745 1.153-7.837 3.247-2.094 2.095-3.247 4.879-3.247 7.837 0 2.961 1.153 5.744 3.247 7.837 2.095 2.093 4.878 3.247 7.837 3.247 2.554 0 4.95-.841 6.927-2.431zm9.641 11.2c-.333 0-.654-.141-.879-.386l-8.854-9.659c-2.068 1.554-4.529 2.373-7.145 2.373-3.185 0-6.181-1.241-8.437-3.495-2.254-2.253-3.496-5.249-3.496-8.437 0-3.185 1.242-6.181 3.496-8.437 2.252-2.254 5.248-3.495 8.437-3.495 3.185 0 6.181 1.241 8.437 3.495 2.254 2.252 3.495 5.248 3.495 8.437 0 2.952-1.074 5.758-3.031 7.946l8.855 9.661-.001.001c.445.497.408 1.243-.071 1.684-.22.201-.507.312-.806.312z" fill="#33333e" fill-rule="evenodd" mask="url(#a)"/></svg>