<svg height="30" viewBox="0 0 31 30" width="31" xmlns="http://www.w3.org/2000/svg" xmlns:xlink="http://www.w3.org/1999/xlink"><mask id="a" fill="#fff"><path d="m14.4582.042h-14.455v7.7146h14.455z" fill="#fff" fill-rule="evenodd"/></mask><g fill="none" fill-rule="evenodd" transform="translate(0 -1)"><g fill="#33333e"><path d="m13.9712 7.7566c-.269 0-.487-.218-.487-.487 0-3.448-2.806-6.253-6.253-6.253-3.448 0-6.254 2.805-6.254 6.253 0 .269-.217.487-.487.487-.269 0-.487-.218-.487-.487 0-3.986 3.242-7.228 7.228-7.228 3.985 0 7.227 3.242 7.227 7.228 0 .269-.218.487-.487.487" mask="url(#a)" transform="translate(8 .9582)"/><path d="m8.5494 11.2751c-.536 0-.972.436-.972.972s.436.972.972.972.972-.436.972-.972-.436-.972-.972-.972m0 2.918c-1.073 0-1.946-.873-1.946-1.946s.873-1.946 1.946-1.946 1.946.873 1.946 1.946-.873 1.946-1.946 1.946"/><path d="m22.0977 11.2751c-.536 0-.972.436-.972.972s.436.972.972.972.972-.436.972-.972-.436-.972-.972-.972m0 2.918c-1.073 0-1.946-.873-1.946-1.946s.873-1.946 1.946-1.946 1.946.873 1.946 1.946-.873 1.946-1.946 1.946"/></g><path d="m25.6058 8.4582h-20.75l-4.25 22h29.25z" stroke="#33333e"/></g></svg>