<svg xmlns="http://www.w3.org/2000/svg" width="24" height="24" viewBox="0 0 24 24">
  <path d="M17.794,24 L6.638,24 C5.255,23.995 4.127,22.867 4.122,21.486 L4.122,7.931 C3.434,7.473 3.011,6.705 3,5.864 L3,4.744 C3.005,3.356 4.137,2.228 5.524,2.228 L8.602,2.228 C8.75,0.979 9.815,0.005 11.099,0 L13.33,0 C14.616,0.005 15.68,0.98 15.828,2.228 L18.908,2.228 C20.29,2.233 21.418,3.361 21.422,4.743 L21.422,5.858 C21.423,6.708 21.003,7.486 20.309,7.953 L20.309,21.507 C20.288,22.881 19.161,23.995 17.794,24 Z M5.524,3.188 C4.664,3.188 3.963,3.887 3.96,4.746 L3.96,5.858 C3.968,6.437 4.297,6.963 4.818,7.228 L5.082,7.36 L5.082,21.484 C5.085,22.339 5.784,23.037 6.639,23.04 L17.79,23.04 C18.637,23.037 19.335,22.347 19.349,21.5 L19.349,7.385 L19.611,7.251 C20.136,6.982 20.463,6.449 20.462,5.858 L20.462,4.744 C20.459,3.89 19.761,3.191 18.906,3.188 L14.885,3.188 L14.885,2.516 C14.881,1.662 14.183,0.963 13.328,0.96 L11.101,0.96 C10.247,0.963 9.549,1.662 9.545,2.518 L9.545,3.188 L5.524,3.188 Z M6.838,7.828 L17.655,7.828 L17.655,6.868 L6.838,6.868 L6.838,7.828 Z M7.694,20.771 L8.654,20.771 L8.654,10.015 L7.694,10.015 L7.694,20.771 Z M11.735,20.771 L12.695,20.771 L12.695,10.015 L11.735,10.015 L11.735,20.771 Z M15.776,20.771 L16.736,20.771 L16.736,10.015 L15.776,10.015 L15.776,20.771 Z"/>
</svg>
