<svg height="307" viewBox="0 0 607 307" width="607" xmlns="http://www.w3.org/2000/svg"><g fill-rule="evenodd"><path d="m531.8 301.2c36.8-24.9 49.9-47.8 49.9-65.3 0-7.7-4.3-17.4-13.4-27.3l-26-28.2c-10.3-11.1-17.4-24.2-17.4-38.8 0-12.4 5.9-22.8 14.1-29.3 8.1-6.4 17.8-9.6 34.3-9.6 11.5 0 23.5 2.8 27.8 3.5l-.1 17.2c-5.1-1.4-14.9-4.2-23.6-4.2-7.5 0-15.5 1.7-19.9 4.5-5 3.3-9.4 9.9-9.4 16.5 0 6.5 2.9 13.2 10.5 21.5l29 31.5c12.7 13.8 19 25.9 19 39.9 0 29.5-27.4 55-48.2 67.9h-26.6z"/><path d="m296 174.4c-34.7 0-50.7 26.3-50.7 57.8 0 35.1 18.2 57.9 49.6 57.9 30.7 0 49.1-18.6 49.1-61.3.1-28.7-14.7-54.4-48-54.4zm-48.3-72.5c14.4 1.4 46.2 7.7 65.8 18.6 39.6 22.1 58.1 58 58.1 98 0 56.3-30.7 87.9-76.9 87.9-43.2 0-76.1-27.8-76.1-77 0-36.8 27.8-70.9 72.7-70.9 17.1 0 33.4 5.8 43.1 12.2-4.5-9.9-15.5-23.8-26.6-30.8-18.6-11.6-38.4-19.5-62.2-22.2z"/><path d="m389 .7h21.8v300.5h-21.8z"/><path d="m439.1.7h21.8v300.5h-21.8z"/><path d="m485.8 104.3h21.8v196.9h-21.8z"/><circle cx="496.7" cy="60.8" r="12.5"/><path d="m207.9 102.2-36.8 150.9-48.1-150.9h-14.6l-48.1 151-36.9-151h-22.5l47.6 199.2h.1 13.4 5.4l48.3-166.6 48.3 166.6h9.8 9l47.6-199.2z"/></g></svg>