<svg viewBox="0 0 30.5 27.6" xmlns="http://www.w3.org/2000/svg"><path d="m21.8 2a6.4 6.4 0 0 0 -3.7 1.3 7.2 7.2 0 0 0 -1.7 1.8l-1.1 1.7-1.1-1.7a7.1 7.1 0 0 0 -1.7-1.8 6.4 6.4 0 0 0 -3.7-1.3 6.7 6.7 0 0 0 -6.8 6.8 12.2 12.2 0 0 0 2.1 6.5 26 26 0 0 0 4.7 5.4 41.9 41.9 0 0 0 6.5 4.8 41.6 41.6 0 0 0 6.5-4.8 26 26 0 0 0 4.7-5.4 12.2 12.2 0 0 0 2.1-6.5 6.7 6.7 0 0 0 -6.8-6.8z" fill="none"/><path d="m21.8.2a8.3 8.3 0 0 0 -4.8 1.7l-1.4 1.3-.3.3-.3-.3-1.4-1.3a8.3 8.3 0 0 0 -4.8-1.7 8.6 8.6 0 0 0 -8.6 8.6 14 14 0 0 0 2.4 7.4 27.8 27.8 0 0 0 5 5.8 43 43 0 0 0 7.1 5.2 1.3 1.3 0 0 0 1.3 0 43.5 43.5 0 0 0 7.1-5.2 27.8 27.8 0 0 0 5-5.8 14 14 0 0 0 2.4-7.4 8.6 8.6 0 0 0 -8.7-8.6zm5.3 15.5a26.8 26.8 0 0 1 -4.8 5.5 42.1 42.1 0 0 1 -6.9 5h-.3a42.4 42.4 0 0 1 -6.9-5 26.7 26.7 0 0 1 -4.8-5.5 13 13 0 0 1 -2.2-6.9 7.5 7.5 0 0 1 7.6-7.6 7.2 7.2 0 0 1 4.2 1.5 7.9 7.9 0 0 1 1.9 2l.4.6.4-.6a8 8 0 0 1 1.9-2 7.2 7.2 0 0 1 4.2-1.5 7.5 7.5 0 0 1 7.5 7.5 13 13 0 0 1 -2.2 6.9z" fill="#33333e"/></svg>