<svg height="28" viewBox="0 0 31 28" width="31" xmlns="http://www.w3.org/2000/svg" xmlns:xlink="http://www.w3.org/1999/xlink"><mask id="a" fill="#fff"><path d="m31 .0004v27.9298h-31v-27.9298z" fill="#fff" fill-rule="evenodd"/></mask><path d="m8.9775 1.8404c-3.935 0-7.137 3.202-7.137 7.137 0 2.161.719 4.403 2.135 6.663 1.142 1.823 2.73 3.657 4.721 5.453 3.159 2.853 6.299 4.686 6.804 4.974.528-.3 3.642-2.117 6.805-4.974 1.993-1.799 3.581-3.633 4.72-5.453 1.416-2.264 2.134-4.506 2.134-6.663 0-3.935-3.202-7.137-7.138-7.137-1.309 0-2.713.5-3.953 1.409-.719.527-1.343 1.169-1.804 1.856l-.765 1.14-.765-1.141c-.458-.685-1.081-1.327-1.803-1.855-1.24-.909-2.644-1.409-3.954-1.409m6.524 26.09c-.285 0-.568-.073-.819-.212-.035-.019-3.603-1.994-7.22-5.259-2.116-1.91-3.815-3.875-5.047-5.841-1.603-2.559-2.416-5.13-2.416-7.641 0-4.95 4.028-8.977 8.978-8.977 1.699 0 3.489.626 5.042 1.764.539.394 1.042.85 1.48 1.337.44-.49.936-.938 1.48-1.337 1.553-1.138 3.344-1.764 5.042-1.764 4.952 0 8.979 4.027 8.979 8.977 0 2.508-.813 5.078-2.415 7.64-1.227 1.96-2.925 3.926-5.047 5.842-3.554 3.209-7.07 5.177-7.219 5.259-.252.139-.534.212-.818.212" fill="#33333e" fill-rule="evenodd" mask="url(#a)"/></svg>