<svg id="Layer_1" data-name="Layer 1" xmlns="http://www.w3.org/2000/svg" viewBox="0 0 32 32"><title>NEW_Icons</title><path d="M26.11,10.48a2,2,0,0,0-2-2H21.25V5.81a5.35,5.35,0,0,0-10.69,0V8.49H7.8a2,2,0,0,0-2,1.91l-3,19.15a2,2,0,0,0,2,2H27.16a2,2,0,0,0,2-2.07ZM11.56,5.81a4.35,4.35,0,0,1,8.69,0V8.49H11.56Zm9.19,6.9a.75.75,0,1,1-.75.75A.76.76,0,0,1,20.75,12.72Zm-9.69,0a.75.75,0,1,1-.75.75A.76.76,0,0,1,11.06,12.72Zm16.1,17.82H4.84a1,1,0,0,1-1-.91l3-19.15a1,1,0,0,1,1-1h2.77v2.34a1.73,1.73,0,1,0,1,0V9.49h8.69v2.34a1.73,1.73,0,1,0,1,0V9.49h2.87a1,1,0,0,1,1,1.06l3,19A1,1,0,0,1,27.16,30.53ZM18.74,16.74a.52.52,0,0,0-.5,0l-6.91,3.6a.52.52,0,0,0,0,.92l2.42,1.4L11.8,26a.52.52,0,0,0,.19.71l1.49.86a.52.52,0,0,0,.26.07l.13,0a.52.52,0,0,0,.32-.24L16.12,24l2.42,1.4a.52.52,0,0,0,.79-.47L19,17.18A.52.52,0,0,0,18.74,16.74Zm-2.55,6.13a.52.52,0,0,0-.71.19l-1.92,3.31L13,26l1.92-3.31A.52.52,0,0,0,14.7,22l-2-1.19L18,18l.24,6Z"/></svg>