<?xml version="1.0" encoding="utf-8"?>
<!-- Generator: Adobe Illustrator 23.0.4, SVG Export Plug-In . SVG Version: 6.00 Build 0)  -->
<svg version="1.1" id="Layer_1" xmlns="http://www.w3.org/2000/svg" xmlns:xlink="http://www.w3.org/1999/xlink" x="0px" y="0px"
	 width="26px" height="31px" viewBox="0 0 26.6 31.1" style="enable-background:new 0 0 26 31;" xml:space="preserve">
<style type="text/css">
	.st0{clip-path:url(#SVGID_2_);}
</style>
<g>
	<defs>
		<path id="SVGID_1_" d="M9.1,13c0-0.3-0.2-0.6-0.5-0.7c-0.3-0.1-0.6-0.1-0.8,0.2c-0.2,0.2-0.3,0.5-0.2,0.8c0.1,0.3,0.4,0.5,0.7,0.5
			C8.8,13.7,9.1,13.4,9.1,13L9.1,13z M18.8,13c0-0.3-0.2-0.6-0.5-0.7c-0.3-0.1-0.6-0.1-0.8,0.2c-0.2,0.2-0.3,0.5-0.2,0.8
			c0.1,0.3,0.4,0.5,0.7,0.5C18.5,13.7,18.8,13.4,18.8,13z M18.6,5.3V8h2.9c1.1,0,2,0.9,2,2l3,19c0,0.5-0.2,1.1-0.6,1.5
			C25.5,30.8,25,31,24.4,31H2.1c-1.1,0-2-0.9-2-2l3-19.2C3.2,8.8,4,8,5.1,8h2.8V5.3c0.1-2.9,2.5-5.1,5.3-5.1S18.4,2.4,18.6,5.3z
			 M17.6,8V5.3c-0.1-2.3-2-4.1-4.3-4.1S9,3,8.9,5.3V8H17.6z"/>
	</defs>
	<clipPath id="SVGID_2_">
		<use xlink:href="#SVGID_1_"  style="overflow:visible;"/>
	</clipPath>
	<rect x="-4.9" y="-4.8" class="st0" width="36.3" height="40.9"/>
</g>
</svg>