<svg id="Layer_1" data-name="Layer 1" xmlns="http://www.w3.org/2000/svg" viewBox="0 0 32 32"><title>NEW_Icons</title><path d="M26.11,10.48a2,2,0,0,0-2-2H21.26V5.81a5.35,5.35,0,0,0-10.69,0V8.49H7.8a2,2,0,0,0-2,1.91l-3,19.15a2,2,0,0,0,2,2H27.16a2,2,0,0,0,2-2.07ZM11.57,5.81a4.35,4.35,0,0,1,8.69,0V8.49H11.57Zm15.6,24.72H4.84a1,1,0,0,1-1-.91l3-19.15a1,1,0,0,1,1-1h2.77v2.34a1.73,1.73,0,1,0,1,0V9.49h8.69v2.34a1.73,1.73,0,1,0,1,0V9.49h2.87a1,1,0,0,1,1,1.06l3,19A1,1,0,0,1,27.16,30.53ZM11.07,12.72a.75.75,0,1,1-.75.75A.76.76,0,0,1,11.07,12.72Zm9.69,0a.75.75,0,1,1-.75.75A.76.76,0,0,1,20.76,12.72Z"/></svg>