<svg height="22" viewBox="0 0 22 22" width="22" xmlns="http://www.w3.org/2000/svg" xmlns:xlink="http://www.w3.org/1999/xlink"><mask id="a" fill="#fff"><path d="m22 22h-22v-22h22z" fill="#fff" fill-rule="evenodd"/></mask><path d="m12.2200845 11.0001294 9.5270469-9.52700948c.3371581-.33681172.3371581-.88344058 0-1.22025231-.336813-.33715681-.8827539-.33715681-1.219912 0l-9.5270469 9.52735458-9.52739189-9.52735458c-.33646795-.33715681-.88309896-.33715681-1.219912 0-.33715815.33681173-.33715815.88344059 0 1.22025231l9.52739194 9.52700948-9.52739194 9.5270095c-.33715815.3368117-.33715815.8830955 0 1.2202523.16840652.1680608.38926753.2526088.61012854.2526088.22086102 0 .44172203-.084548.60978346-.2526088l9.52739189-9.5273546 9.5270469 9.5273546c.1687516.1680608.3892675.2526088.6101285.2526088.2208611 0 .441377-.084548.6097835-.2526088.3371581-.3368117.3371581-.8830955 0-1.2202523z" fill-rule="evenodd" mask="url(#a)"/></svg>