<svg height="38" viewBox="749 238 40 38" width="40" xmlns="http://www.w3.org/2000/svg"><g fill="none" fill-rule="evenodd" transform="translate(750 240.111111)"><path d="m9.59338745 19.8327806h3.07253135v-.1673409c2.613727 4.1892926 5.6559705 7.8973359 5.8578893 8.1570028l.5350849.6428198.5350849-.7351458c.1985535-.2550506 3.1454465-3.8211427 5.7288856-7.9007981v.0034622h3.0826273l7.389107 10.7582881h-33.58919559zm.62931365-9.3653194c0-5.05023268 3.927321-9.09064961 8.8361919-9.09064961 4.9088708 0 8.8361919 4.13274294 8.8361919 9.09064961 0 4.4074128-6.8730923 13.3145644-8.8361919 15.7935177-1.9630996-2.4789533-8.8361919-11.3861049-8.8361919-15.7935177zm18.9108192 8.2897214h-3.1521771c1.7858598-2.9648189 3.2520147-6.0669728 3.2520147-8.2897214 0-5.78422444-4.5510258-10.4674612-10.1744649-10.4674612s-10.17446496 4.77440869-10.17446496 10.4674612c0 2.2146701 1.45605906 5.3168239 3.23182286 8.2897214h-3.2497712l-8.8664797 12.9094841h38z" fill="#000"/><path d="m9.59338745 19.8327806h3.07253135v-.1673409c2.613727 4.1892926 5.6559705 7.8973359 5.8578893 8.1570028l.5350849.6428198.5350849-.7351458c.1985535-.2550506 3.1454465-3.8211427 5.7288856-7.9007981v.0034622h3.0826273l7.389107 10.7582881h-33.58919559zm.62931365-9.3653194c0-5.05023268 3.927321-9.09064961 8.8361919-9.09064961 4.9088708 0 8.8361919 4.13274294 8.8361919 9.09064961 0 4.4074128-6.8730923 13.3145644-8.8361919 15.7935177-1.9630996-2.4789533-8.8361919-11.3861049-8.8361919-15.7935177zm18.9108192 8.2897214h-3.1521771c1.7858598-2.9648189 3.2520147-6.0669728 3.2520147-8.2897214 0-5.78422444-4.5510258-10.4674612-10.1744649-10.4674612s-10.17446496 4.77440869-10.17446496 10.4674612c0 2.2146701 1.45605906 5.3168239 3.23182286 8.2897214h-3.2497712l-8.8664797 12.9094841h38z" stroke="#1e1c1c" stroke-width=".25"/><path d="m16.0440199 8.5288146c0-1.60462486 1.3511536-2.95560862 2.9559801-2.95560862 1.6037652 0 2.9559801 1.35098376 2.9559801 2.95560862 0 1.6046249-1.3522149 2.9556086-2.9559801 2.9556086-1.6048265 0-2.9559801-1.3509837-2.9559801-2.9556086m7.1782023-.08490079c0-2.36342563-1.8574381-4.22169159-4.2222222-4.22169159s-4.2222222 1.94210549-4.2222222 4.22169159c0 2.36448689 1.9423496 4.22275289 4.2222222 4.22275289s4.2222222-1.858266 4.2222222-4.22275289" fill="#000"/><path d="m16.0440199 8.5288146c0-1.60462486 1.3511536-2.95560862 2.9559801-2.95560862 1.6037652 0 2.9559801 1.35098376 2.9559801 2.95560862 0 1.6046249-1.3522149 2.9556086-2.9559801 2.9556086-1.6048265 0-2.9559801-1.3509837-2.9559801-2.9556086zm7.1782023-.08490079c0-2.36342563-1.8574381-4.22169159-4.2222222-4.22169159s-4.2222222 1.94210549-4.2222222 4.22169159c0 2.36448689 1.9423496 4.22275289 4.2222222 4.22275289s4.2222222-1.858266 4.2222222-4.22275289z" stroke="#1e1c1c" stroke-width=".25"/></g></svg>