<svg id="Layer_1" data-name="Layer 1" xmlns="http://www.w3.org/2000/svg" viewBox="0 0 32 32"><title>NEW_Icons</title><path d="M21.58,7.6c0-.8,0-1.46,0-2.13s.18-.88.87-.88H26c.78,0,.91.13.91.94,0,2.12,0,4.23,0,6.35a1.06,1.06,0,0,0,.41.9C28.68,14,30,15.19,31.38,16.4c.25.22.45.46.3.82s-.45.4-.78.4c-.81,0-1.62,0-2.43,0-.49,0-.65.09-.65.62,0,4,0,8,0,12,0,.85-.13,1-1,1H20.08c-.82,0-1-.13-1-.94,0-2.82,0-5.64,0-8.47,0-.45-.1-.61-.58-.61-1.68,0-3.35,0-5,0-.4,0-.51.12-.51.51,0,2.86,0,5.71,0,8.57,0,.78-.15.92-.93.92H5.21c-.74,0-.9-.15-.9-.89,0-4,0-8,0-12.06,0-.49-.13-.63-.61-.6-.83,0-1.66,0-2.49,0-.35,0-.64-.06-.78-.41s.07-.6.32-.82L10,8.09l5.48-4.9c.46-.41.67-.41,1.13,0Zm7.91,8.76c-1.2-1.08-2.28-2.07-3.38-3a1.15,1.15,0,0,1-.43-1c0-2,0-4,0-6,0-.43-.13-.55-.54-.53-.63,0-1.27,0-1.9,0-.36,0-.45.12-.44.46,0,.86,0,1.73,0,2.59a.72.72,0,0,1-.38.7.64.64,0,0,1-.77-.19l-.47-.42C19.62,7.52,18,6.11,16.45,4.67c-.29-.27-.46-.27-.76,0Q10.32,9.5,4.94,14.31l-2.2,2c.1,0,.12.07.15.07H4.42c1,0,1.09.11,1.09,1.09,0,4,0,7.94,0,11.91,0,.44.11.57.55.56q2.62,0,5.24,0c.42,0,.53-.12.53-.53,0-2.86,0-5.71,0-8.57,0-.76.13-.88.9-.88h6.61c.87,0,1,.11,1,1,0,2.82,0,5.64,0,8.47,0,.45.13.56.56.55,1.71,0,3.42,0,5.13,0,.54,0,.63-.17.63-.65,0-4,0-7.94,0-11.91,0-.85.15-1,1-1Z"/></svg>