<svg height="22" viewBox="0 0 22 22" width="22" xmlns="http://www.w3.org/2000/svg"><path d="m11.0084615.02538462c-6.06692304 0-10.98307688 4.91615384-10.98307688 10.98307688 0 6.0669231 4.91615384 10.983077 10.98307688 10.983077 6.0669231 0 10.983077-4.9161539 10.983077-10.983077 0-6.06692304-4.9161539-10.98307688-10.983077-10.98307688zm-.9603846 6.30384615 1.9292308.01269231v5.81730772h-1.9292308zm.9730769 9.35846153c-.6430769 0-1.16769226-.5246154-1.16769226-1.155 0-.6430769.52461536-1.155 1.16769226-1.155.6303847 0 1.1423077.5119231 1.1423077 1.155 0 .6303846-.511923 1.155-1.1423077 1.155z" fill="#232323" fill-rule="evenodd" transform="matrix(-1 0 0 -1 22.016924 22.016924)"/></svg>