<svg id="Layer_1" data-name="Layer 1" xmlns="http://www.w3.org/2000/svg" viewBox="0 0 32 32"><defs><style>.cls-1{fill:#231f20;}</style></defs><title>NEW_Icons</title><path class="cls-1" d="M30.16,7H1.84A1.69,1.69,0,0,0,.16,8.69V27.13a1.69,1.69,0,0,0,1.69,1.69H30.16a1.69,1.69,0,0,0,1.69-1.69V8.69A1.69,1.69,0,0,0,30.16,7Zm-29,5.1H30.84v4.17H1.16Zm29.69,15a.69.69,0,0,1-.69.69H1.84a.69.69,0,0,1-.69-.69V17.27H30.84Zm-29.69-16V8.69A.69.69,0,0,1,1.84,8H30.16a.69.69,0,0,1,.69.69v2.42ZM2.45,25.86a.5.5,0,0,1,.5-.5h8.58a.5.5,0,1,1,0,1H2.95A.5.5,0,0,1,2.45,25.86Zm10.33,0a.5.5,0,0,1,.5-.5H17.2a.5.5,0,0,1,0,1H13.28A.5.5,0,0,1,12.78,25.86Z"/></svg>