<svg viewBox="0 0 32 32" xmlns="http://www.w3.org/2000/svg"><path d="m15.08 18.57-11.2-4.89-.35-.15-.41.85-1.12 2.29 1.09.48.76.33 9.61 4.25zm14.4-2.11-.72-1.98-.37-1-.38.15-11.77 4.85 1.44 3.21 10.3-4.57.75-.33zm-17.28-6.51.53.52-.41 2.41 2.16-1.14 2.17 1.14-.42-2.41 1.35-1.31.4-.39-2.42-.35-.23-.47-.85-1.72-1.08 2.19-2.41.36.61.59z" fill="none"/><path d="m3.13 12.59v.04l.02-.05zm.04-.04-.02.03.05-.02zm12.39 5.41-.02-.01-.03.01z"/><path d="m16.59 6.88 2.2-1.16 2.21 1.16-.42-2.45 1.77-1.73-2.46-.36-1.1-2.22-1.1 2.22-2.46.36 1.77 1.73zm.26-3.66 1.34-.22.6-1.21.6 1.21 1.34.19-1 .94.27 1.37-1.2-.63-1.2.63.23-1.33zm12 9.25-9.85-3.61.64-.62-3.54-.51-1.58-3.2-1.62 3.2-3.54.52 1.46 1.41-7.62 2.9-2.2 4.44 2.09 1-.09 7.51 12.6 6.49 13-6.46.08-7.93 1.71-.76zm-15.45-4.05 1.08-2.18.85 1.71.23.47 2.44.35-.4.39-1.35 1.31.41 2.4-2.16-1.14-2.16 1.14.41-2.41-.54-.52-.6-.58-.61-.59zm-11.4 8.25 1.11-2.28.42-.85.35.15 11.2 4.89-1.62 3.15-9.62-4.25-.75-.33zm13.2 14.27-11.42-5.89.06-6.75 10 4.4 1.36-2.7zm.34-13-11.35-4.94 7.23-2.75.51.49-.61 3.52 3.17-1.67 3.17 1.67-.66-3.52 1.32-1.29 9.39 3.47zm12.36 7.13-11.9 5.93v-11.32l1.34 3 10.66-4.68zm.1-7.95-10.3 4.56-1.43-3.21 11.73-4.84.38-.16.37 1 .73 2-.75.33z"/></svg>