<svg id="Layer_1" data-name="Layer 1" xmlns="http://www.w3.org/2000/svg" viewBox="0 0 32 32"><defs><style>.cls-1{fill:#231f20;}</style></defs><title>NEW_Icons</title><path class="cls-1" d="M29.88,3.86H21.24A3.72,3.72,0,0,0,17.79.25H15.34a3.72,3.72,0,0,0-3.44,3.62H3.61V8.7h2l1.71,19a4,4,0,0,0,4,4H22.18a4,4,0,0,0,4-4L27.84,8.7h2ZM15.34,1.21h2.46a2.75,2.75,0,0,1,2.48,2.65H12.86A2.75,2.75,0,0,1,15.34,1.21Zm9.72,26.51a2.88,2.88,0,0,1-2.88,2.88H11.37a2.9,2.9,0,0,1-2.88-2.93L6.78,8.7H26.72ZM29,7.81H4.5V4.75H29ZM11.62,27.94,10.29,11.14a.48.48,0,0,1,.44-.52.5.5,0,0,1,.52.44l1.33,16.79a.48.48,0,0,1-.44.52h0A.48.48,0,0,1,11.62,27.94Zm4.46,0V11.08a.48.48,0,1,1,1,0V27.92a.48.48,0,1,1-1,0Zm4.48-.06,1.33-16.79a.5.5,0,0,1,.52-.44.48.48,0,0,1,.44.52L21.53,27.94a.48.48,0,0,1-.48.45h0A.48.48,0,0,1,20.56,27.86Z"/></svg>