<svg height="19" viewBox="0 0 21 19" width="21" xmlns="http://www.w3.org/2000/svg"><path d="m17.8462549 17.2994137h-3.9503872v-2.4994889c0-.9804411-.3818632-1.9022739-1.075623-2.5958065-.6935326-.6935326-1.6160469-1.075623-2.597851-1.075623-2.0256241 0-3.67347397 1.6469412-3.67347397 3.6712023v2.4994889h-3.95038725v-9.31101052l5.09938431-4.48740367 2.52447691-2.22098541 4.6234751 4.06760404 3.0003861 2.64033071zm2.4806342-7.90281903c.0120397-.01544718.0238523-.03089435.0340747-.04770451.009768-.01567434.0181731-.031803.0261239-.04815883.0072692-.01499285.0143113-.02975853.0202176-.04543286.0074964-.01953613.0131755-.03929943.0184003-.05928989.0034075-.01362985.0070421-.02725971.0095409-.0413439.004089-.02362509.0061334-.04725017.0072693-.07132959.0002271-.00795075.0022716-.01522001.0022716-.02317076 0-.00408896-.0011358-.00795075-.0011358-.01203971-.0004543-.02566956-.0036346-.0508848-.0077236-.07610004-.0015902-.01044956-.002726-.02112628-.0049976-.03134867-.005452-.02498808-.0136299-.04929466-.0227164-.07337407-.0034075-.00908658-.0061335-.01862748-.0099953-.02748689-.0104495-.02362508-.0233979-.04611435-.0372549-.06837645-.0049976-.00795075-.0093138-.01612867-.0145385-.02385225-.0140842-.02021763-.0304401-.03907226-.0477045-.05769974-.0074965-.00817791-.0147657-.01681015-.0227165-.02453374-.0061334-.00590627-.0106767-.0127212-.0170373-.01817315l-1.4970128-1.3173258c-.0011358-.00090865-.0018173-.00204448-.0027259-.00295313l-3.1144226-2.74005584-5.0589491-4.45151172c-.0052248-.00454328-.0111311-.00749642-.016583-.01181254-.01522-.01249404-.0308943-.02317076-.047023-.03362032-.002726-.00181731-.0052248-.00408895-.0079508-.0056791-.0038618-.00249881-.0074964-.00590628-.0115853-.00817792-.008178-.00477045-.016583-.00863224-.024761-.01317553-.0154471-.00795075-.0311215-.01476568-.047023-.02112628-.0072692-.00295313-.0140842-.00681493-.0215806-.00931374-.0102224-.00363462-.0206719-.00681492-.0311215-.00999522-.0143113-.00431613-.0288499-.00726926-.0436155-.01044956-.0079508-.00159015-.0156744-.00363463-.0238523-.00499762-.0120397-.00204448-.0238522-.00340746-.0361191-.00477045-.0134027-.00136298-.0265782-.00181731-.0399809-.00204448-.0084051-.00022716-.016583-.00022716-.0247609 0-.0134027.00022717-.0265783.0006815-.0397538.00204448-.0120397.00113582-.0238522.00272597-.0358919.00454329-.0084051.00136298-.0163559.00340746-.0245338.00499761-.0145385.00295314-.0288499.00613344-.0431612.01044956-.0102224.00295314-.0202176.00590627-.03044.0095409-.0079508.00295314-.0154472.00681493-.0231708.00999523-.01567432.0063606-.03089433.01294837-.04611434.02089912-.00795075.00408895-.0159015.00772358-.02362509.01249403-.00749642.00431613-.01408418.01044956-.02158061.01522001-.0159015.01044956-.03134867.02112628-.04611435.03316599-.00522478.00431612-.01113105.00704209-.01612867.01158538l-3.02628286 2.66259281-5.14731598 4.52852041c-.00181731.00159015-.00295313.00340747-.00454328.00499762l-1.49496829 1.31528132c-.00590627.00522478-.00999523.01135822-.01544717.01681016-.00999523.0095409-.01885464.01999046-.02794121.03021285-.01499285.01681016-.02975853.03339316-.04247973.0515663-.00726926.01022239-.01317553.02135344-.01976329.03225733-.01181255.01953613-.02339793.03907226-.0324845.05974421-.00545194.01203971-.00908657.02476091-.01362986.03725495-.00749642.02089912-.01476568.04157107-.01953613.06315168-.0031803.01362985-.00454328.02748688-.00658776.0413439-.0031803.02203494-.00613344.04361555-.00658777.06587765-.00045432.00522478-.00181731.00999523-.00181731.01522001 0 .00999523.00249881.01953613.00295314.02953136.00113582.02067195.00272597.04111673.00613343.06156152.00295314.01703732.0070421.03339315.01135822.04997615.00454328.01726449.0095409.03430181.0159015.05111197.00681493.01817314.01499284.03566479.02362509.05292928.00704209.01408419.01408418.02771405.02248926.0413439.01181255.01908181.02476091.03680062.03861793.05406511.00567911.00704209.00954091.01499284.01544718.02180777.00295313.00340747.00658776.00545194.0095409.00885941.01953613.02112628.04088957.04020808.063606.05815406.00726926.00567911.01385703.01226687.02135345.01771882.02816837.02021762.05838122.03748211.09018423.05202062.00204447.00090866.00386179.00227165.00590627.0031803.06792213.03021286.14288635.04770451.22193952.04770451h.9495468v8.23947645c0 .3034915.24601894.5495105.54951045.5495105h5.04963532c.30349152 0 .54951046-.246019.54951046-.5495105v-3.0494536c0-1.4184139 1.15467616-2.5721814 2.57422585-2.5721814.6880807 0 1.3345903.2675995 1.8207219.7537312.4859045.4859044.753504 1.1315054.753504 1.8184502v3.0492265c0 .3034915.246019.5495104.5495105.5495104h5.0496353c.3034915 0 .5495105-.2460189.5495105-.5495104v-8.23947652h.9495468c.078826 0 .153563-.01726448.2214852-.04725017.0047704-.00204448.0090865-.00522478.0136298-.00749642.0288499-.01362986.0563368-.02907704.0822335-.04747734.0095409-.00658777.017946-.01499285.0268054-.02226211.0202176-.01658299.0399809-.03362031.0576997-.05270211.0036347-.0038618.0079508-.00636061.0113582-.01044956.0084051-.00795075.0131756-.01703733.0197633-.0254424z" fill-rule="evenodd"/></svg>