<svg id="Layer_1" data-name="Layer 1" xmlns="http://www.w3.org/2000/svg" viewBox="0 0 476.3 232.32"><defs><style>.cls-1{fill:#231f20;}</style></defs><title>Evans_Boutique_Logo</title><path class="cls-1" d="M906.73,13.49h62.72V17H920V65.59h39.77V69.1L920,68.57v50.94h49.48V123H906.73Zm131,109.53,44.44-109.53H1077l-36.46,90.13H1040l-37.55-90.13H989.24L1035.09,123Zm167.75-89,76.5,89h2.44V13.52h-4.35l0,88.25-76.37-88.25h-2.47V123h4.29Zm176.93,53.81a24.58,24.58,0,0,0-5.92-12.27,34.2,34.2,0,0,0-9.31-7.11,111.6,111.6,0,0,0-11.08-5.05c-4.66-1.92-9.34-3.79-14-5.72a37.52,37.52,0,0,1-9.35-5.34,18.28,18.28,0,0,1-6.15-8.54,24.42,24.42,0,0,1-.9-11.39A17.87,17.87,0,0,1,1332,21a24.43,24.43,0,0,1,13.69-5.53,65.36,65.36,0,0,1,6.66-.21,44.59,44.59,0,0,1,9.41,1,42.47,42.47,0,0,1,12.43,5c.64.37,1.27.77,1.91,1.16V18c-5.27-2.44-13.15-5.94-23.47-5.94a62.42,62.42,0,0,0-9.56.48,37,37,0,0,0-9.47,2.76,28.56,28.56,0,0,0-11,8.27A25.69,25.69,0,0,0,1317,37.59a35.7,35.7,0,0,0,.28,8.13,24.77,24.77,0,0,0,3.09,9,28.54,28.54,0,0,0,10.44,10.1A85.29,85.29,0,0,0,1344.22,71c4.69,1.81,9.4,3.56,13.94,5.74A35.68,35.68,0,0,1,1368.75,84a20,20,0,0,1,4.69,7.54,26,26,0,0,1,.66,13.36,18.71,18.71,0,0,1-10.49,13.69,33.72,33.72,0,0,1-11.73,3.19,57.66,57.66,0,0,1-11.23.12,51.26,51.26,0,0,1-9.44-1.74,40.53,40.53,0,0,1-12.48-5.84c-.8-.56-1.58-1.16-2.44-1.81v4.87s3.74,2.27,5.55,3.13a52.16,52.16,0,0,0,21.44,4.78,64.26,64.26,0,0,0,13.05-.93,41.94,41.94,0,0,0,11.75-3.83,26.35,26.35,0,0,0,14.78-22.07A40.28,40.28,0,0,0,1382.42,87.79ZM1127.67,13.52l51,109.5h-12.49l-16.39-35.18L1099,87.76,1083.9,123h-5.2L1125,13.52Zm20.39,70.62L1123.49,31.4H1123l-22.53,52.73ZM1020.8,198.27a23.81,23.81,0,0,1-24,24,33.44,33.44,0,0,1-14.08-3.45V165.62c0-5.94-.19-6.51-6.32-7.09v-2.2A77.68,77.68,0,0,0,990.25,153v29.5l7.76-3.35a10.08,10.08,0,0,1,3.93-1C1012.18,178.16,1020.8,187,1020.8,198.27Zm-8.43,2.49c0-10.92-6.7-17.24-14.65-17.24a15.93,15.93,0,0,0-7.47,1.82v24.71a7.63,7.63,0,0,0,.58,3.26c.57,1.92,3.45,5.27,8.52,5.36C1007.3,218.67,1012.38,211.87,1012.38,200.76Zm58.13-1.25c0,15.42-11.3,22.79-20.78,22.79-13.12,0-21-10.53-21-21.16,0-15.8,12.26-23,21-23C1061.6,178.16,1070.51,187.64,1070.51,199.52Zm-8.91,2.11c0-11.2-4.5-20.3-12.83-20.3-5.94,0-11.11,5.94-11.11,16.76,0,12.07,5.27,21.07,13.12,21.07C1056.72,219.15,1061.6,214.74,1061.6,201.62Zm52.39,9v-32a101.84,101.84,0,0,1-15,1.72v2.2c6.89,1,7.47,1.34,7.47,6.8v22.31a14.88,14.88,0,0,1-10.34,4.6c-4.31,0-8.43-2.3-8.43-10.82V192.62c0-6.51,0-11,.29-14a113.75,113.75,0,0,1-13.69,1.72v2.2c5.46,1.05,5.84,1.44,5.84,6.7V208c0,10.34,5.46,14.27,11.87,14.27,2.59,0,4.6-.77,7.37-2.39s4.88-3.35,7.09-5v6.8l.57.58a107.21,107.21,0,0,1,14.08-3.45v-2.39l-2.68-.19C1114.75,216.08,1114,215.41,1114,210.63Zm28.92,6.22c-2.39,0-5.55-1.44-5.55-9.19V183h10.25a2.72,2.72,0,0,0,.58-3.73h-10.82V166.19L1136,166l-6.22,6.32v7h-4.41l-2.59,2.78.38,1h6.61v27.87c0,7.57,3.35,11.4,9.38,11.4a9.71,9.71,0,0,0,4-1.25l6.51-3.35-.86-2.49A13.68,13.68,0,0,1,1142.91,216.85Zm25.28-5.84V178a60.35,60.35,0,0,1-13.6,3.73V184c5.75,1,6,1.34,6,7.28V211c0,6.51-.67,7.09-6.7,7.66v2.49H1175v-2.49C1168.86,218.1,1168.19,217.52,1168.19,211Zm.48-46.06a4.79,4.79,0,0,0-4.79-5,4.93,4.93,0,0,0-4.88,5,5,5,0,0,0,4.79,4.88A4.9,4.9,0,0,0,1168.67,164.95Zm57.17,76.8v2.59h-23v-2.59c7.47-.67,8.14-1.15,8.14-7.95V218.29l-10.15,4c-14,0-20.59-10.82-20.59-20.11,0-13.69,12.45-24.13,25.57-24a24,24,0,0,1,6.7,1.25,7.46,7.46,0,0,0,2.59.48,10,10,0,0,0,3.26-1.05l.38.29c-.1,2-.29,3.83-.29,10.25V233.9C1218.47,240.7,1219.14,241,1225.84,241.75ZM1211,186a13.72,13.72,0,0,0-9.39-4c-6.51,0-12.83,5.75-12.83,17,0,11.59,8,17.91,15.13,17.91a16.53,16.53,0,0,0,7.09-1.53Zm56,24.61v-32a101.84,101.84,0,0,1-15,1.72v2.2c6.89,1,7.47,1.34,7.47,6.8v22.31a14.88,14.88,0,0,1-10.34,4.6c-4.31,0-8.43-2.3-8.43-10.82V192.62c0-6.51,0-11,.29-14a113.75,113.75,0,0,1-13.69,1.72v2.2c5.46,1.05,5.84,1.44,5.84,6.7V208c0,10.34,5.46,14.27,11.87,14.27,2.59,0,4.6-.77,7.37-2.39s4.88-3.35,7.09-5v6.8l.57.58a107.17,107.17,0,0,1,14.08-3.45v-2.39l-2.68-.19C1267.79,216.08,1267,215.41,1267,210.63Zm44.44-14.84c-1.63.29-13.6,1.25-25,1.63.1,13,7.57,18.39,14.27,18.39,3.83,0,7.47-1.53,10.92-4.79l1.53,2c-6,7.57-12.64,9.29-15.61,9.29-11.78,0-18.67-9.58-18.67-20.4a24.66,24.66,0,0,1,6.32-16.76c3.93-4.41,9.1-7,14.08-7,7.95,0,14.36,7.09,14.36,14.56C1313.66,194.63,1313.19,195.4,1311.46,195.78Zm-6-4.5c.1-5-3.16-9.58-8.43-9.58-4.41,0-8.62,4-10.05,11.78,5.36,0,10.63-.1,16.18-.29C1304.85,193.2,1305.43,192.62,1305.43,191.28Z" transform="translate(-906.73 -12.02)"/></svg>
