<svg id="Layer_1" data-name="Layer 1" xmlns="http://www.w3.org/2000/svg" viewBox="0 0 32 32"><defs><style>.cls-1{fill:none;}</style></defs><title>NEW_Icons</title><path class="cls-1" d="M17,28.77A1.86,1.86,0,0,0,17,29a1.88,1.88,0,0,0,.08.5,1.89,1.89,0,0,0,3.64.06A1.88,1.88,0,0,0,20.8,29c0-.05,0-.1,0-.16A1.89,1.89,0,0,0,17,28.77Zm2.24-.9a1.16,1.16,0,0,1,.8.94,1,1,0,0,1-.12.7,1.18,1.18,0,1,1-.67-1.65Z"/><path class="cls-1" d="M18.71,29.39a.45.45,0,1,0,.18-.87.44.44,0,0,0-.23.07.45.45,0,0,0-.22.38A.46.46,0,0,0,18.71,29.39Z"/><path class="cls-1" d="M6.62,28.52a.45.45,0,0,0-.4.24.44.44,0,0,0-.06.21.46.46,0,1,0,.91,0A.44.44,0,0,0,7,28.77.45.45,0,0,0,6.62,28.52Z"/><path class="cls-1" d="M6.62,27.07a1.9,1.9,0,0,0-1.88,1.69,1.86,1.86,0,0,0,0,.21,1.88,1.88,0,0,0,.08.5,1.89,1.89,0,0,0,3.66,0,1.88,1.88,0,0,0,.08-.5,1.86,1.86,0,0,0,0-.21A1.9,1.9,0,0,0,6.62,27.07Zm1.05,2.41a1.11,1.11,0,1,1,.12-.5A1.16,1.16,0,0,1,7.67,29.48Z"/><path class="cls-1" d="M17.46,12c0-.47.08-.55.56-.55h4.1c.54,0,.61.07.61.6,0,1.75,0,3.5,0,5.25,0,.28.08.35.35.34,1.06,0,2.12,0,3.19,0,.33,0,.39-.1.39-.41,0-2.46,0-4.93,0-7.39,0-.53.1-.62.63-.62h1.15c-.75-.67-1.42-1.28-2.1-1.88a.71.71,0,0,1-.26-.6c0-1.25,0-2.5,0-3.74,0-.26-.08-.34-.33-.33s-.79,0-1.18,0c-.22,0-.28.08-.27.28,0,.54,0,1.07,0,1.61a.44.44,0,0,1-.24.44.4.4,0,0,1-.47-.12l-.29-.26c-1-.88-2-1.76-3-2.65-.18-.17-.29-.17-.47,0l-6.67,6L11.83,9.14l.1,0h1c.61,0,.68.07.68.68q0,3,0,6.05h3.92Q17.46,13.94,17.46,12Z"/><path class="cls-1" d="M21.58,28.82h4.57A.83.83,0,0,0,27,28V25.31a.83.83,0,0,0-.33-.66l-.33-.25h-4.9a.93.93,0,0,1-.93-.93V19.89h-.41a.83.83,0,0,0-.83.83v5.6A2.69,2.69,0,0,1,21.58,28.82Z"/><path class="cls-1" d="M21.42,23.69h4a1.53,1.53,0,0,1-.22-.3l-1.67-3.07a.82.82,0,0,0-.72-.43H21.2v3.59A.21.21,0,0,0,21.42,23.69Z"/><path d="M29.6,9.21C28.76,8.46,27.93,7.7,27.08,7a.66.66,0,0,1-.26-.56c0-1.31,0-2.63,0-3.94,0-.5-.09-.58-.57-.58h-2.2c-.43,0-.54.11-.54.55s0,.83,0,1.32L20.45,1c-.28-.25-.41-.25-.7,0l-3.4,3L10.6,9.2c-.15.14-.28.29-.2.51s.27.26.48.26c.51,0,1,0,1.54,0,.3,0,.38.07.38.37,0,1.86,0,3.72,0,5.58H3.5a.92.92,0,0,0-.92.92V28.56a.92.92,0,0,0,.92.92H4a2.69,2.69,0,0,0,5.29,0h7a2.7,2.7,0,0,0,5.29.06h4.61A1.54,1.54,0,0,0,27.68,28V25.31a1.55,1.55,0,0,0-.61-1.23l-1-.77a.82.82,0,0,1-.23-.26L24.16,20a1.54,1.54,0,0,0-1.35-.8H20.08a1.53,1.53,0,0,0-.83.24V16.83a.92.92,0,0,0-.92-.92h-.13c0-1.14,0-2.29,0-3.43,0-.24.07-.32.31-.32,1,0,2.08,0,3.12,0,.3,0,.36.1.36.38,0,1.75,0,3.5,0,5.25,0,.5.08.58.6.58h4.2c.52,0,.61-.08.61-.61,0-2.47,0-4.95,0-7.42,0-.33.09-.4.4-.39.5,0,1,0,1.51,0,.21,0,.4,0,.49-.25S29.75,9.35,29.6,9.21ZM8.45,29.48a1.89,1.89,0,0,1-3.66,0,1.88,1.88,0,0,1-.08-.5,1.86,1.86,0,0,1,0-.21,1.89,1.89,0,0,1,3.77,0,1.86,1.86,0,0,1,0,.21A1.88,1.88,0,0,1,8.45,29.48ZM21.2,19.89h1.6a.82.82,0,0,1,.72.43l1.67,3.07a1.53,1.53,0,0,0,.22.3h-4a.21.21,0,0,1-.21-.21Zm-2,.83a.83.83,0,0,1,.83-.83h.41v3.59a.93.93,0,0,0,.93.93h4.9l.33.25a.83.83,0,0,1,.33.66V28a.83.83,0,0,1-.83.83H21.58a2.69,2.69,0,0,0-2.33-2.51Zm0,6.39a1.9,1.9,0,0,1,1.53,1.71c0,.05,0,.1,0,.16a1.88,1.88,0,0,1-.09.56,1.89,1.89,0,0,1-3.64-.06A1.88,1.88,0,0,1,17,29a1.86,1.86,0,0,1,0-.21,1.88,1.88,0,0,1,2.24-1.66Zm-1-10.48h.13a.2.2,0,0,1,.2.2v9.48a2.69,2.69,0,0,0-2.32,2.45H9.29a2.68,2.68,0,0,0-5.35,0H3.5a.2.2,0,0,1-.2-.2V16.83a.2.2,0,0,1,.2-.2H18.21Zm9.07-7.44c-.54,0-.63.09-.63.62,0,2.46,0,4.93,0,7.39,0,.3-.06.41-.39.41-1.06,0-2.12,0-3.19,0-.27,0-.35-.07-.35-.34,0-1.75,0-3.5,0-5.25,0-.53-.07-.6-.61-.6H18c-.48,0-.56.08-.56.55q0,2,0,4H13.55q0-3,0-6.05c0-.61-.07-.68-.68-.68h-1l-.1,0,1.36-1.22,6.67-6c.19-.17.29-.16.47,0,1,.89,2,1.77,3,2.65l.29.26a.4.4,0,0,0,.47.12.44.44,0,0,0,.24-.44c0-.54,0-1.07,0-1.61,0-.21,0-.29.27-.28.39,0,.79,0,1.18,0s.34.06.33.33c0,1.25,0,2.5,0,3.74a.71.71,0,0,0,.26.6c.68.6,1.35,1.21,2.1,1.88ZM17.75,28.77a1.17,1.17,0,0,0,0,.21,1.16,1.16,0,0,0,.12.5,1.16,1.16,0,0,0,2.08,0,1.16,1.16,0,0,0-1.39-1.65A1.17,1.17,0,0,0,17.75,28.77Zm1.15-.24a.46.46,0,1,1-.18.87.46.46,0,0,1-.27-.42.45.45,0,0,1,.22-.38A.44.44,0,0,1,18.89,28.52ZM6.62,27.81A1.18,1.18,0,0,0,5.45,29a1.16,1.16,0,0,0,.12.5,1.16,1.16,0,0,0,2.1,0,1.11,1.11,0,0,0,.1-.71A1.17,1.17,0,0,0,6.62,27.81Zm0,1.62A.46.46,0,0,1,6.16,29a.44.44,0,0,1,.06-.21.44.44,0,0,1,.79,0,.44.44,0,0,1,.06.21A.46.46,0,0,1,6.62,29.43Z"/></svg>