<svg height="30" viewBox="0 0 21 30" width="21" xmlns="http://www.w3.org/2000/svg" xmlns:xlink="http://www.w3.org/1999/xlink"><mask id="a" fill="#fff"><path d="m21 15v15h-21v-15-15h21z" fill="#fff" fill-rule="evenodd"/></mask><path d="m10.5 6.00128576c2.548875 0 4.59375 2.0777785 4.59375 4.66766674 0 2.5898882-2.044875 4.6676667-4.59375 4.6676667s-4.59375-2.0777785-4.59375-4.6676667c0-2.58988824 2.044875-4.66766674 4.59375-4.66766674m0-2.00042858c-3.61265625 0-6.5625 2.99730883-6.5625 6.66809532 0 3.6707864 2.94984375 6.6680953 6.5625 6.6680953 3.6126563 0 6.5625-2.9973089 6.5625-6.6680953 0-3.67078649-2.9498437-6.66809532-6.5625-6.66809532m0-2.00042859c4.7256563 0 8.53125 3.85282546 8.53125 8.62684831 0 3.3857254-2.2584844 7.9163627-4.59375 11.4921288-1.7492344 2.6785739-3.1700156 4.4116119-3.9375 5.3241407-.76748437-.9125288-2.18826562-2.6455668-3.9375-5.3241407-2.33526562-3.5757661-4.59375-8.1064034-4.59375-11.4921288 0-4.77402285 3.80559375-8.62684831 8.53125-8.62684831m0-2.00042859c-5.78517187 0-10.5 4.76735473-10.5 10.6272769 0 4.2319067 2.49932813 8.886904 4.921875 12.5963654 2.42254688 3.7094614 4.85001562 6.4493818 4.85001562 6.4493818.36618748.4084208.98864058.4384272 1.39092188.0663475.0226406-.0210045.044625-.0433426.0652969-.0663475 0 0 2.4274687-2.7399204 4.8500156-6.4493818s4.921875-8.3644587 4.921875-12.5963654c0-5.85992217-4.7148281-10.6272769-10.5-10.6272769" fill-rule="evenodd" mask="url(#a)"/></svg>