<svg height="24" viewBox="0 0 24 24" width="24" xmlns="http://www.w3.org/2000/svg" xmlns:xlink="http://www.w3.org/1999/xlink"><mask id="a" fill="#fff"><path d="m43.828125.17204688v43.82795312h-43.828125v-43.828125h43.828125l-43.82815937.00017188v43.82795312h43.82846877v-43.82795312z" fill="#fff" fill-rule="evenodd"/></mask><mask id="b" fill="#fff"><path d="m24 24h-24v-24h24z" fill="#fff" fill-rule="evenodd"/></mask><g fill="#000" fill-rule="evenodd"><path d="m42.1098563 44c-.44 0-.8793125-.16775-1.2155-.50325l-40.39062505-40.390625c-.6716875-.671-.6716875-1.7593125 0-2.4303125.671-.6716875 1.76-.6716875 2.4303125 0l40.39062505 40.390625c.6716875.6716875.6716875 1.7593125 0 2.4303125-.3355.3355-.7748125.50325-1.2148125.50325" mask="url(#a)" transform="translate(0 1)"/><path d="m13.3310013 12.0001412 10.393142-10.39310128c.3678089-.36743097.3678089-.96375337 0-1.33118434-.3674324-.36780744-.9630042-.36780744-1.3308131 0l-10.393142 10.39347772-10.39351845-10.39347772c-.36705594-.36780744-.96338068-.36780744-1.33081309 0-.36780888.36743097-.36780888.96375337 0 1.33118434l10.39351844 10.39310128-10.39351844 10.3931012c-.36780888.367431-.36780888.9633769 0 1.3311844.18371621.183339.42465549.2755732.66559478.2755732s.48187857-.0922342.66521831-.2755732l10.39351845-10.3934778 10.393142 10.3934778c.1840927.183339.4246555.2755732.6655948.2755732s.4815021-.0922342.6652183-.2755732c.3678089-.367431.3678089-.9633769 0-1.3311844z" mask="url(#b)"/></g></svg>