<svg height="500pt" preserveAspectRatio="xMidYMid meet" viewBox="0 0 500 500" width="500pt" xmlns="http://www.w3.org/2000/svg"><g transform="matrix(.1 0 0 -.1 0 500)"><path d="m30 2495v-535h335 335v25 25l-307 2-308 3-3 238-2 237h275 275v25 25l-272 2-273 3v215 215l298 3 297 2v25 25h-325-325z"/><path d="m4585 2871c-130-34-203-156-170-284 24-92 79-128 288-187 183-52 237-98 237-204 0-86-43-149-128-188-55-25-171-27-227-3-77 31-138 110-151 194-6 35-10 41-30 41-28 0-29-9-8-80 32-109 98-176 203-207 103-30 245 0 314 65 52 49 72 99 72 183 0 66-4 81-27 116-34 51-110 90-260 133-137 39-167 52-200 87-51 54-61 118-29 189 76 167 375 145 435-33 9-26 16-55 16-65 0-11 7-18 20-18 41 0 20 102-34 173-44 57-115 89-210 93-44 2-94 0-111-5z"/><path d="m1070 2856c0-2 36-107 79-233 44-125 113-325 154-443 63-184 77-215 95-218 15-2 25 4 31 20 25 63 301 860 301 870 0 4-10 8-22 8-24 0-31-18-241-637-34-100-63-180-66-178-4 4-24 63-178 508-99 286-107 307-129 307-13 0-24-2-24-4z"/><path d="m2376 2733c-27-71-105-271-172-446-68-174-124-319-124-322s11-5 24-5c21 0 28 13 71 128 26 70 54 139 62 155l14 27h199c182 0 200-2 209-18 5-10 32-78 59-151 28-73 53-135 55-138 3-2 14-3 26-1 18 3 11 27-100 318-231 609-219 580-248 580-24 0-30-9-75-127zm192-240 70-183h-185-185l5 23c4 21 144 382 168 437 13 28-3 62 127-277z"/><path d="m3250 2410c0-442 0-450 20-450 19 0 20 8 22 408l3 407 278-407c237-347 282-408 303-408h24v450 450h-25-25v-402c0-340-2-400-14-388-7 8-132 189-277 403-218 320-267 387-286 387h-23z"/></g></svg>