<svg id="Layer_1" data-name="Layer 1" xmlns="http://www.w3.org/2000/svg" viewBox="0 0 32 32"><defs><style>.cls-1{fill:#231f20;}</style></defs><title>NEW_Icons</title><path class="cls-1" d="M28.89,26.46l-5.21-5.21.05-.06,0,0a13,13,0,1,0-10.36,5.15,12.85,12.85,0,0,0,5.41-1.21l5.74,5.74a2.77,2.77,0,0,0,3.92,0l.47-.47a2.77,2.77,0,0,0,0-3.92ZM1.48,13.3A11.89,11.89,0,1,1,18.59,23.94l0,.08h0l0-.08a11.75,11.75,0,0,1-5.23,1.23A11.89,11.89,0,0,1,1.48,13.3ZM28.2,29.68l-.47.47a1.8,1.8,0,0,1-2.54,0l-5.51-5.51A12.91,12.91,0,0,0,23,22l0,0,.05-.07,5.15,5.15a1.8,1.8,0,0,1,0,2.54ZM20.9,19a.48.48,0,0,1-.13-.66,8.9,8.9,0,0,0,1.53-5,9,9,0,0,0-.12-1.45.48.48,0,0,1,.94-.15,10,10,0,0,1,.13,1.61,9.85,9.85,0,0,1-1.69,5.53.48.48,0,0,1-.4.21A.47.47,0,0,1,20.9,19Z"/></svg>