<svg id="Layer_1" data-name="Layer 1" xmlns="http://www.w3.org/2000/svg" viewBox="0 0 32 32"><defs><style>.cls-1{fill:#010101;}</style></defs><title>NEW_Icons</title><path class="cls-1" d="M16,31l-.42-.24C14.88,30.35,0,20.71,0,11.53,0,7.36,1.81,4,4.87,2.63,8.21,1.1,12.38,2.07,16,5c3.06-2.92,7.1-3.9,10.57-2.37S32,7.36,32,11.67C32,20.85,16.7,30.45,16,31ZM8.35,3a9.09,9.09,0,0,0-2.92.56C2.64,4.85,1.11,7.78,1.11,11.53c0,7.79,12.66,16.69,14.89,18.09,2.23-1.39,14.89-10.29,14.89-18.09,0-3.76-1.81-6.68-4.73-7.93-3.2-1.25-7-.28-9.74,2.5L16,6.52l-.42-.42A11.44,11.44,0,0,0,8.35,3Z"/></svg>