<?xml version="1.0" encoding="UTF-8"?>
<svg enable-background="new 0 0 116.5 90.6" version="1.1" viewBox="0 0 116.5 90.6" xml:space="preserve" xmlns="http://www.w3.org/2000/svg" height="20" width="32">
<style type="text/css">
	.st0{fill:#7673C0;}
	.st1{fill:#EB001B;}
	.st2{fill:#00A1DF;}
</style>
<title>ms_vrt_rgb_pos</title>
<path d="m35.2 90.1v-6c0.1-2-1.3-3.7-3.3-3.8h-0.5c-1.3-0.1-2.6 0.6-3.4 1.7-0.7-1.1-1.9-1.8-3.2-1.7-1.1-0.1-2.2 0.5-2.8 1.4v-1.2h-2.1v9.5h2.1v-5.3c-0.2-1.2 0.7-2.3 1.9-2.5h0.4c1.4 0 2.1 0.9 2.1 2.5v5.3h2.1v-5.3c-0.2-1.2 0.7-2.4 1.9-2.5h0.4c1.4 0 2.1 0.9 2.1 2.5v5.3l2.3 0.1zm11.7-4.8v-4.8h-2.1v1.2c-0.7-0.9-1.8-1.4-3-1.4-2.8 0-5 2.2-5 5s2.2 5 5 5c1.2 0 2.3-0.5 3-1.4v1.2h2.1v-4.8zm-7.7 0c0.1-1.6 1.5-2.8 3.1-2.7s2.8 1.5 2.7 3.1c-0.1 1.5-1.3 2.7-2.9 2.7s-2.9-1.2-2.9-2.8v-0.3zm52.2-5c0.7 0 1.4 0.1 2 0.4 0.6 0.2 1.2 0.6 1.6 1.1 0.5 0.5 0.8 1 1.1 1.6 0.5 1.3 0.5 2.7 0 4-0.3 0.6-0.6 1.1-1.1 1.6s-1 0.8-1.6 1.1c-1.3 0.5-2.8 0.5-4.1 0-0.6-0.2-1.2-0.6-1.6-1.1-0.5-0.5-0.8-1-1.1-1.6-0.5-1.3-0.5-2.7 0-4 0.2-0.6 0.6-1.1 1.1-1.6s1-0.8 1.6-1.1 1.4-0.4 2.1-0.4zm0 2c-0.4 0-0.8 0.1-1.2 0.2s-0.7 0.4-1 0.6c-0.3 0.3-0.5 0.6-0.6 1-0.3 0.8-0.3 1.7 0 2.5 0.1 0.4 0.4 0.7 0.6 1 0.3 0.3 0.6 0.5 1 0.6 0.8 0.3 1.6 0.3 2.4 0 0.4-0.1 0.7-0.4 1-0.6 0.3-0.3 0.5-0.6 0.6-1 0.3-0.8 0.3-1.7 0-2.5-0.1-0.4-0.4-0.7-0.6-1-0.3-0.3-0.6-0.5-1-0.6s-0.8-0.2-1.2-0.2zm-33.2 3c0-3-1.9-5-4.5-5-2.8 0-5 2.3-4.9 5.1s2.3 5 5.1 4.9c1.4 0 2.8-0.4 3.9-1.3l-1-1.5c-0.8 0.6-1.8 1-2.8 1-1.4 0.1-2.7-0.9-2.9-2.3h7.1v-0.9zm-7.1-0.8c0.1-1.3 1.2-2.3 2.5-2.3s2.4 1 2.4 2.3h-4.9zm15.9-1.5c-0.9-0.5-1.9-0.8-3-0.8s-1.8 0.4-1.8 1.1 0.7 0.8 1.6 0.9l1 0.1c2.1 0.3 3.3 1.2 3.3 2.9s-1.6 3.1-4.4 3.1c-1.5 0-2.9-0.4-4.1-1.2l1-1.6c0.9 0.7 2 1 3.2 1 1.4 0 2.2-0.4 2.2-1.2 0-0.5-0.5-0.8-1.7-1l-1-0.1c-2.1-0.3-3.3-1.3-3.3-2.8 0-1.9 1.6-3.1 4-3.1 1.4 0 2.7 0.3 3.9 1l-0.9 1.7zm10-0.5h-3.4v4.3c0 1 0.3 1.6 1.4 1.6 0.6 0 1.3-0.2 1.8-0.5l0.6 1.8c-0.8 0.5-1.7 0.7-2.6 0.7-2.5 0-3.3-1.3-3.3-3.5v-4.4h-1.9v-1.9h1.9v-2.9h2.1v2.9h3.4v1.9zm7.2-2.2c0.5 0 1 0.1 1.5 0.3l-0.6 2c-0.4-0.2-0.9-0.2-1.3-0.2-1.4 0-2 0.9-2 2.5v5.4h-2.1v-9.5h2.1v1.2c0.4-1.1 1.4-1.7 2.4-1.7zm14.4 8.4c0.1 0 0.3 0 0.4 0.1 0.1 0 0.2 0.1 0.3 0.2s0.2 0.2 0.2 0.3c0.1 0.2 0.1 0.5 0 0.7-0.1 0.1-0.1 0.2-0.2 0.3s-0.2 0.2-0.3 0.2c-0.1 0.1-0.2 0.1-0.4 0.1-0.4 0-0.7-0.2-0.9-0.6-0.1-0.2-0.1-0.5 0-0.7 0.1-0.1 0.1-0.2 0.2-0.3s0.2-0.2 0.3-0.2c0.1-0.1 0.2-0.1 0.4-0.1zm0 1.7c0.1 0 0.2 0 0.3-0.1 0.1 0 0.2-0.1 0.2-0.2 0.3-0.3 0.3-0.8 0-1-0.1 0-0.2-0.1-0.2-0.1-0.1 0-0.2-0.1-0.3-0.1s-0.2 0-0.3 0.1c-0.1 0-0.2 0.1-0.2 0.2-0.3 0.3-0.3 0.7 0 1 0.1 0.1 0.3 0.2 0.5 0.2zm0-1.2c0.1 0 0.2 0 0.3 0.1s0.1 0.1 0.1 0.2 0 0.1-0.1 0.2-0.1 0.1-0.2 0.1l0.3 0.3h-0.2l-0.3-0.3h-0.1v0.3h-0.2v-0.9h0.4zm-0.2 0.2v0.2h0.2 0.1v-0.1-0.1h-0.1-0.2z"/>

	<rect class="st0" x="42.5" y="7.7" width="31.5" height="56.6"/>
	<path class="st1" d="M44.5,36c0-11,5.1-21.5,13.8-28.3C42.6-4.6,20-1.9,7.7,13.8C-4.6,29.4-1.9,52,13.8,64.3   c13.1,10.3,31.4,10.3,44.5,0C49.6,57.5,44.5,47.1,44.5,36z"/>
	<path class="st2" d="m113.1 58.3v-1.1h0.5v-0.2h-1.2v0.2h0.5v1.2l0.2-0.1zm2.3 0v-1.4h-0.4l-0.4 1-0.4-1h-0.4v1.4h0.3v-1l0.4 0.9h0.3l0.4-0.9v1.1l0.2-0.1z"/>
	<path class="st2" d="m116.5 36c0 19.9-16.1 36-36 36-8.1 0-15.9-2.7-22.2-7.7 15.6-12.3 18.3-34.9 6-50.5-1.8-2.3-3.8-4.3-6.1-6.1 15.6-12.3 38.3-9.6 50.6 6.1 5 6.3 7.7 14.1 7.7 22.2z"/>

</svg>
