<?xml version="1.0" encoding="UTF-8"?>
<svg viewBox="0 0 32 20" xmlns="http://www.w3.org/2000/svg" height="20" width="32">
<g fill="none" fill-rule="evenodd">
<path d="m0.15056 0.14896h31.673v19.812h-31.673z" fill="#000"/>
<g transform="translate(4.8931 1.4896)">
<path d="m4.1027 16.814v-1.1172c0-0.42827-0.26347-0.70757-0.69632-0.70757-0.22583 0-0.47049 0.074482-0.63986 0.31655-0.13174-0.20482-0.31993-0.31655-0.60222-0.31655-0.1882 0-0.39521 0.055861-0.54577 0.26069v-0.22344h-0.35757v1.7876h0.35757v-1.0241c0-0.31655 0.1882-0.46551 0.45167-0.46551s0.41403 0.16758 0.41403 0.46551v1.0241h0.35757v-1.0241c0-0.31655 0.1882-0.46551 0.45167-0.46551s0.41403 0.16758 0.41403 0.46551v1.0241zm5.8717-1.7689h-0.65868v-0.53999h-0.35757v0.53999h-0.37639v0.31655h0.37639v0.83792c0 0.40965 0.15056 0.65171 0.60222 0.65171 0.16938 0 0.35757-0.055861 0.48931-0.13034l-0.11292-0.31655c-0.11292 0.074482-0.24465 0.093102-0.33875 0.093102-0.1882 0-0.28229-0.11172-0.28229-0.29793v-0.85654h0.65868zm3.3499-0.055861c-0.22583 0-0.39521 0.11172-0.48931 0.26069v-0.22344h-0.35757v1.7876h0.35757v-1.0055c0-0.29793 0.15056-0.48413 0.39521-0.48413 0.075278 0 0.16938 0.01862 0.24465 0.037241l0.11292-0.33517c-0.075278-0.01862-0.1882-0.037241-0.26347-0.037241zm-5.0625 0.1862c-0.1882-0.13034-0.45167-0.1862-0.73396-0.1862-0.45167 0-0.73396 0.20482-0.73396 0.55861 0 0.29793 0.20701 0.46551 0.60222 0.52137l0.1882 0.01862c0.20701 0.037241 0.33875 0.11172 0.33875 0.20482 0 0.13034-0.15056 0.22344-0.43285 0.22344s-0.47049-0.093102-0.60222-0.1862l-0.1882 0.27931c0.26347 0.1862 0.58341 0.22344 0.7716 0.22344 0.52695 0 0.80924-0.24206 0.80924-0.57723 0-0.31655-0.22583-0.46551-0.62104-0.52137l-0.1882-0.01862c-0.16938-0.01862-0.31993-0.074482-0.31993-0.1862 0-0.13034 0.15056-0.22344 0.35757-0.22344 0.22583 0 0.45167 0.093102 0.56459 0.14896zm5.4577 0.74481c0 0.53999 0.35757 0.93102 0.94098 0.93102 0.26347 0 0.45167-0.055861 0.63986-0.20482l-0.1882-0.27931c-0.15056 0.11172-0.30111 0.16758-0.47049 0.16758-0.31993 0-0.56459-0.24206-0.56459-0.59585 0-0.35379 0.24465-0.59585 0.56459-0.59585 0.16938 0 0.31993 0.055861 0.47049 0.16758l0.1882-0.27931c-0.1882-0.14896-0.37639-0.20482-0.63986-0.20482-0.56459-0.037241-0.94098 0.35379-0.94098 0.89378zm-2.5218-0.93102c-0.52695 0-0.88452 0.37241-0.88452 0.93102 0 0.55861 0.37639 0.93102 0.92216 0.93102 0.26347 0 0.52695-0.074482 0.73396-0.24206l-0.1882-0.26069c-0.15056 0.11172-0.33875 0.1862-0.52695 0.1862-0.24465 0-0.50813-0.14896-0.54577-0.46551h1.3362v-0.14896c0-0.55861-0.33875-0.93102-0.84688-0.93102zm-0.01882 0.33517c0.26347 0 0.45167 0.16758 0.47049 0.44689h-0.97862c0.056459-0.26069 0.22583-0.44689 0.50813-0.44689zm-4.8743 0.59585v-0.89378h-0.35757v0.22344c-0.13174-0.16758-0.31993-0.26069-0.58341-0.26069-0.50813 0-0.88452 0.39103-0.88452 0.93102 0 0.53999 0.37639 0.93102 0.88452 0.93102 0.26347 0 0.45167-0.093102 0.58341-0.26069v0.22344h0.35757zm-1.4491 0c0-0.33517 0.20701-0.59585 0.56459-0.59585 0.33875 0 0.54577 0.26069 0.54577 0.59585 0 0.35379-0.22583 0.59585-0.54577 0.59585-0.35757 0.01862-0.56459-0.26069-0.56459-0.59585zm13.908-0.93102c-0.22583 0-0.39521 0.11172-0.48931 0.26069v-0.22344h-0.35757v1.7876h0.35757v-1.0055c0-0.29793 0.15056-0.48413 0.39521-0.48413 0.075278 0 0.16938 0.01862 0.24465 0.037241l0.11292-0.33517c-0.075278-0.01862-0.1882-0.037241-0.26347-0.037241zm-1.3926 0.93102v-0.89378h-0.35757v0.22344c-0.13174-0.16758-0.31993-0.26069-0.58341-0.26069-0.50813 0-0.88452 0.39103-0.88452 0.93102 0 0.53999 0.37639 0.93102 0.88452 0.93102 0.26347 0 0.45167-0.093102 0.58341-0.26069v0.22344h0.35757zm-1.4491 0c0-0.33517 0.20701-0.59585 0.56459-0.59585 0.33875 0 0.54577 0.26069 0.54577 0.59585 0 0.35379-0.22583 0.59585-0.54577 0.59585-0.35757 0.01862-0.56459-0.26069-0.56459-0.59585zm5.0813 0v-1.6014h-0.35757v0.93102c-0.13174-0.16758-0.31993-0.26069-0.58341-0.26069-0.50813 0-0.88452 0.39103-0.88452 0.93102 0 0.53999 0.37639 0.93102 0.88452 0.93102 0.26347 0 0.45167-0.093102 0.58341-0.26069v0.22344h0.35757zm-1.4491 0c0-0.33517 0.20701-0.59585 0.56459-0.59585 0.33875 0 0.54577 0.26069 0.54577 0.59585 0 0.35379-0.22583 0.59585-0.54577 0.59585-0.35757 0.01862-0.56459-0.26069-0.56459-0.59585z" fill="#fff"/>
<path d="m7.8477 1.471h6.5304v10.539h-6.5304z" fill="#ff5f00"/>
<path d="m8.5064 6.7406c0-2.1413 1.0163-4.0406 2.5783-5.2696-1.148-0.89378-2.5971-1.4338-4.1779-1.4338-3.7451 0-6.775 2.9979-6.775 6.7033s3.0299 6.7033 6.775 6.7033c1.5808 0 3.0299-0.53999 4.1779-1.4338-1.562-1.2289-2.5783-3.1282-2.5783-5.2696z" fill="#eb001b"/>
<path d="m22.056 6.7406c0 3.7055-3.0299 6.7033-6.775 6.7033-1.5808 0-3.0299-0.53999-4.1779-1.4338 1.5808-1.2289 2.5783-3.1282 2.5783-5.2696s-1.0163-4.0406-2.5783-5.2696c1.148-0.89378 2.5971-1.4338 4.1779-1.4338 3.7451 0 6.775 2.9979 6.775 6.7033z" fill="#f79e1b"/>
</g>
</g>
</svg>
