<svg enable-background="new 0 0 60 60" viewBox="0 0 60 60" xmlns="http://www.w3.org/2000/svg"><g fill="#34333e"><path d="m30.8 15.9c4.6 0 5.1 0 6.9.1 1.7.1 2.6.4 3.2.6.8.3 1.4.7 2 1.3s1 1.2 1.3 2c.2.6.5 1.5.6 3.2.1 1.8.1 2.3.1 6.9s0 5.1-.1 6.9c-.1 1.7-.4 2.6-.6 3.2-.3.8-.7 1.4-1.3 2s-1.2 1-2 1.3c-.6.2-1.5.5-3.2.6-1.8.1-2.3.1-6.9.1s-5.1 0-6.9-.1c-1.7-.1-2.6-.4-3.2-.6-.8-.3-1.4-.7-2-1.3s-1-1.2-1.3-2c-.2-.6-.5-1.5-.6-3.2-.1-1.8-.1-2.3-.1-6.9s0-5.1.1-6.9c.1-1.7.4-2.6.6-3.2.3-.8.7-1.4 1.3-2s1.2-1 2-1.3c.6-.2 1.5-.5 3.2-.6 1.8-.1 2.3-.1 6.9-.1m0-3.1c-4.7 0-5.3 0-7.1.1s-3.1.4-4.2.8-2.1 1-3 2c-.9.9-1.5 1.9-2 3-.4 1.1-.7 2.3-.8 4.2-.1 1.8-.1 2.4-.1 7.1s0 5.3.1 7.1.4 3.1.8 4.2 1 2.1 2 3c.9.9 1.9 1.5 3 2 1.1.4 2.3.7 4.2.8 1.8.1 2.4.1 7.1.1s5.3 0 7.1-.1 3.1-.4 4.2-.8 2.1-1 3-2c.9-.9 1.5-1.9 2-3 .4-1.1.7-2.3.8-4.2.1-1.8.1-2.4.1-7.1s0-5.3-.1-7.1-.4-3.1-.8-4.2-1-2.1-2-3c-.9-.9-1.9-1.5-3-2-1.1-.4-2.3-.7-4.2-.8-1.9 0-2.4-.1-7.1-.1z"/><path d="m30.8 21.2c-4.9 0-8.8 4-8.8 8.8s4 8.8 8.8 8.8c4.9 0 8.8-4 8.8-8.8s-3.9-8.8-8.8-8.8zm0 14.5c-3.1 0-5.7-2.6-5.7-5.7s2.6-5.7 5.7-5.7 5.7 2.6 5.7 5.7-2.6 5.7-5.7 5.7z"/><circle cx="40" cy="20.8" r="2.1"/></g></svg>