<svg enable-background="new 0 0 60 60" viewBox="0 0 60 60" xmlns="http://www.w3.org/2000/svg"><path d="m38.9 14.8c.9-.1 1.6-.3 2.6-.3-.1 1.7-2.1 1.4-3.6 2 5.4.9 8.6 4 9.7 9.3 1.7.4 4 .1 5.3-.7 0 1.4-2 2.9-4.1 2.9.7 1 3.3 1 4.6.7-1 1.4-2.9 2.1-5.3 2.1-3 8.3-10.3 14.6-21 15.4-9.4.7-15.8-3.6-20.4-8.7 2.3 1.3 5.8 3.1 10.1 2.6 3-.4 5.3-2 6.8-3.6-2.6.1-4.1-2.6-2-4-2.3-.4-4.3-1.1-5-3.3 1-.1 1.1-1 2.4-.9-1.7-1.3-4.1-2-4.4-4.9.7-.3 1.4-.4 2.4-.4-1.7-1.4-3.7-2.6-3.6-5.8 5.6 2.3 11.6 4.3 15.5 8.1 1.9-4.4 3.4-9 7.4-11.1-.1.1-.3.3-.3.7 1.2-.4 4.1-2.3 2.9-.1z" fill="#34333e"/></svg>