<svg enable-background="new 0 0 60 60" viewBox="0 0 60 60" xmlns="http://www.w3.org/2000/svg" xmlns:xlink="http://www.w3.org/1999/xlink"><clipPath id="a"><path d="m24.9 36.2v11.2c-.6.8-1.1 1.3-1.7 1.3-.3 0-.6-.2-.6-.6 0-.2 0-.5 0-1.1v-10.8h-2.6v11.7c0 1.1.2 1.7.3 2.2.3.8.9 1.1 1.7 1.1.9 0 2-.6 3.1-1.9v1.6h2.6v-14.7zm17.6 4.2c0-1.4.5-2 1.4-2s1.4.6 1.4 2v1.4h-2.6v-1.4zm-1.8-3c-.6.8-.8 1.9-.8 3.4v5.2c0 1.6.3 2.6.8 3.4.8.9 1.9 1.6 3.3 1.6s2.5-.5 3.3-1.6c.3-.5.5-.9.6-1.6 0-.3 0-.8 0-1.7v-.5h-2.6v1.9c-.2.8-.5 1.1-1.3 1.1-.9 0-1.4-.6-1.4-2v-2.6h5.3v-3.1c0-1.6-.3-2.6-.8-3.4-.8-.9-1.9-1.6-3.1-1.6-1.5.1-2.5.6-3.3 1.5m-30.4-6.2v2.8h3.1v17h3v-17.2h3.1v-2.8h-9.2zm22.3 16.8v-8.9c.5-.5.9-.6 1.4-.6.8 0 1.1.6 1.1 2v6.2c0 1.4-.3 2-1.1 2-.5 0-1-.4-1.4-.7m-2.7-16.8v19.8h2.6v-1.4c.9 1.1 1.9 1.6 2.8 1.6 1.1 0 1.7-.6 2.2-1.7.2-.6.3-1.6.3-3v-5.9c0-1.4-.2-2.3-.3-3-.3-1.1-1.1-1.7-2.2-1.7-.9 0-1.9.5-2.8 1.6v-6.4h-2.6z"/></clipPath><path d="m39.7 8.4v11.4c-.6.8-1.1 1.3-1.7 1.3-.3 0-.6-.2-.6-.6 0-.2 0-.5 0-1.1v-11h-2.6v11.7c0 1.1.2 1.7.3 2.2.3.8.9 1.1 1.7 1.1.9 0 2-.6 3.1-1.9v1.6h2.6v-14.8h-2.8zm-12.6 10.6v-6.2c0-1.4.5-2 1.3-2 .9 0 1.3.6 1.3 2v6.2c0 1.4-.5 2-1.3 2s-1.3-.6-1.3-2m-1.7-9.2c-.6.8-.8 1.9-.8 3.4v5.1c0 1.6.3 2.8.8 3.4.8.9 1.9 1.6 3.1 1.6 1.4 0 2.3-.5 3.1-1.6.6-.8.8-1.9.8-3.4v-5.1c0-1.6-.3-2.8-.8-3.4-.8-1.1-1.7-1.6-3.1-1.6-1.4.1-2.5.5-3.1 1.6m-3.9-6.5-2 7.8-2.2-7.8h-3.1c.6 1.9 1.3 3.7 1.9 5.6.9 2.8 1.6 4.8 1.9 6.2v8.1h3v-8.1l3.6-11.8c-.1 0-3.1 0-3.1 0z" fill="#33333e"/><path d="m29.1 25.9c-5.4 0-11.1 0-16.5.6-2.3.3-4.2 2-4.8 4.4-.8 3.3-.8 7-.8 10.4s0 7 .8 10.5c.5 2.3 2.5 4.1 4.8 4.4 5.4.5 10.9.5 16.5.5 5.4 0 11.1 0 16.5-.6 2.3-.3 4.2-2 4.8-4.4.8-3.3.8-7 .8-10.5 0-3.4 0-7-.8-10.5-.5-2.3-2.5-4.1-4.8-4.4-5.1-.6-16.2-.4-16.5-.4" fill="#33333e"/><g fill="#fff"><path d="m24.9 36.2v11.2c-.6.8-1.1 1.3-1.7 1.3-.3 0-.6-.2-.6-.6 0-.2 0-.5 0-1.1v-10.8h-2.6v11.7c0 1.1.2 1.7.3 2.2.3.8.9 1.1 1.7 1.1.9 0 2-.6 3.1-1.9v1.6h2.6v-14.7zm17.6 4.2c0-1.4.5-2 1.4-2s1.4.6 1.4 2v1.4h-2.6v-1.4zm-1.8-3c-.6.8-.8 1.9-.8 3.4v5.2c0 1.6.3 2.6.8 3.4.8.9 1.9 1.6 3.3 1.6s2.5-.5 3.3-1.6c.3-.5.5-.9.6-1.6 0-.3 0-.8 0-1.7v-.5h-2.6v1.9c-.2.8-.5 1.1-1.3 1.1-.9 0-1.4-.6-1.4-2v-2.6h5.3v-3.1c0-1.6-.3-2.6-.8-3.4-.8-.9-1.9-1.6-3.1-1.6-1.5.1-2.5.6-3.3 1.5m-30.4-6.2v2.8h3.1v17h3v-17.2h3.1v-2.8h-9.2zm22.3 16.8v-8.9c.5-.5.9-.6 1.4-.6.8 0 1.1.6 1.1 2v6.2c0 1.4-.3 2-1.1 2-.5 0-1-.4-1.4-.7m-2.7-16.8v19.8h2.6v-1.4c.9 1.1 1.9 1.6 2.8 1.6 1.1 0 1.7-.6 2.2-1.7.2-.6.3-1.6.3-3v-5.9c0-1.4-.2-2.3-.3-3-.3-1.1-1.1-1.7-2.2-1.7-.9 0-1.9.5-2.8 1.6v-6.4h-2.6z"/><path clip-path="url(#a)" d="m10.3 31.2h37.4v20h-37.4z"/></g></svg>