<svg height="53" viewBox="0 0 70 53" width="70" xmlns="http://www.w3.org/2000/svg"><g fill="#373636" fill-rule="evenodd" transform="translate(12.902718 4.986748)"><path d="m22.7064429 28.2193978c-3.9800369 0-7.2341515-3.0923379-7.2341515-6.8745092 0-3.7821714 3.2541146-6.8745093 7.2341515-6.8745093s7.2341514 3.0668501 7.2341514 6.8745093c0 3.7821713-3.2541145 6.8745092-7.2341514 6.8745092m-.0268213-17.6846709c-6.2930762 0-11.3756988 4.8299426-11.3756988 10.8101617s5.0826226 10.8101616 11.3756988 10.8101616c6.2924932 0 11.3756988-4.8299425 11.3756988-10.8101616s-5.1100269-10.8101617-11.3756988-10.8101617"/><path d="m40.5362035 30.1360822c-.0536424 4.4980467-3.872752 8.1267371-8.6055324 8.1777127l-9.2509912.153481-9.2509911-.153481c-4.73336353-.0509756-8.55189-3.679666-8.60553245-8.1777127l-.16151044-8.7910828.16151044-8.7910828c.05364245-4.49804673 3.87216892-8.12673707 8.60553245-8.17771272l9.2509911-.15348102 9.2509912.15348102c4.7327804.05097565 8.55189 3.67966599 8.6055324 8.17771272l.1615105 8.7910828zm4.1147261-17.658629c-.0810467-6.61907698-5.70126-11.96043824-12.6666161-12.03690171l-9.3046336-.15348103h-.0268212l-9.3052166.15348103c-6.96477308.07646347-12.5855694 5.41782473-12.66603308 12.03690171l-.16151044 8.8420584v.0254878l.16151044 8.8420584c.08046368 6.6190769 5.70126 11.9604382 12.66603308 12.0369017l9.3052166.153481h.0268212l9.3046336-.153481c6.9653561-.0770176 12.5855694-5.4178248 12.6666161-12.0369017l.1609274-8.8420584z"/><path d="m34.1357841 7.92831994c-1.3982022 0-2.5550134 1.09874682-2.5550134 2.42799226 0 1.3286913 1.1299899 2.4274381 2.5550134 2.4274381 1.3982022 0 2.5550134-1.073259 2.5550134-2.4274381 0-1.35473326-1.1568112-2.42799226-2.5550134-2.42799226"/></g></svg>