<svg height="53" viewBox="0 0 70 53" width="70" xmlns="http://www.w3.org/2000/svg"><path d="m36.4680819 3.87858183c-12.9552359 0-19.4838724 8.81767877-19.4838724 16.17036177 0 4.4454088 1.7736994 8.4026705 5.5776491 9.8926.6168882.2443506 1.1824663 0 1.362635-.6593589.1282754-.4643217.4110644-1.5880023.565578-2.0761495.1795856-.659913.1026204-.879884-.3859924-1.4411702-1.104918-1.2217533-1.7987715-2.8092014-1.7987715-5.0809422 0-6.546492 5.1403466-12.40869142 13.4176105-12.40869142 7.3256935 0 11.335467 4.25037162 11.335467 9.91697962 0 7.4745813-3.4704336 13.7767227-8.6370183 13.7767227-2.8529623 0-4.986416-2.2473611-4.2925625-4.9828695.822712-3.273523 2.4162427-6.8152223 2.4162427-9.1844818 0-2.1249087-1.2081213-3.8835685-3.6756742-3.8835685-2.9042725 0-5.24355 2.8579607-5.24355 6.69277 0 2.4423983.8740222 4.1035395.8740222 4.1035395s-2.9818208 12.0175088-3.4960887 14.118592c-1.0279527 4.1766785-.1539305 9.3307597-.0769652 9.8438407.0513101.3174896.4629577.3906286.6425433.1462779.2571339-.3418693 3.7269844-4.3966495 4.9094507-8.4758095.3340992-1.1480602 1.928213-7.1083323 1.928213-7.1083323.9509875 1.7099005 3.7013294 3.2242097 6.656912 3.2242097 8.7652937 0 14.7032802-7.5964796 14.7032802-17.7334302-.0513102-7.6939982-6.8889739-14.85108987-17.2991085-14.85108987" fill="#373636" fill-rule="evenodd"/></svg>