<svg height="47" viewBox="0 0 96 47" width="96" xmlns="http://www.w3.org/2000/svg"><g fill="#363636" fill-rule="evenodd"><path d="m5.13061453 24.6526816 2.15832402.7877095v-2.3972626l.3072067.0892737v2.4051397l7.00011175 2.5101676.6826815.2205587c.2275778.0723802.4648775.109569.7036872.1102793.1892455.0098221.3756892-.0489076.5251397-.165419.1436504-.1404191.2160457-.3382995.1969273-.5382682-.0011498-.2684277-.0855508-.5298873-.2415642-.748324-.1611832-.23433-.3498236-.4485338-.5618994-.6380447-.1984357-.1828534-.4138409-.3463856-.6432961-.4883799-.1694676-.1052987-.3447984-.200854-.5251397-.2862011l.1102793-.2625698c.1172812.0595158.2967039.1549162.5382682.2862011.2623665.1456476.5065145.3219278.7273184.5251397.2550045.2367195.4672935.5156265.6275419.8244692.1838113.365169.274036.770278.2625698 1.1789386.0351399.4556592-.1111354.9067532-.4069832 1.2550838-.2534698.2719136-.6103309.4236272-.9820112.417486-.3395981-.0076644-.6764021-.0633564-1.000391-.165419-.3745997-.1102793-.7159404-.2240596-1.0240224-.3413408l-5.98921785-2.158324v1.9824023l-.3072067-.0866481v-1.9824022l-2.15832402-.7877095v-1.5412849z"/><path d="m.3098324 19.653352-.3072067-.0892738v-3.4790503l9.97765363 3.6759777v-.0393855c-.29407821-.2205586-.60566108-.4770019-.9347486-.7693296-.33222817-.2957217-.63797266-.6199163-.91374302-.9688827-.27539676-.3421922-.51062214-.7148526-.70106145-1.1106704-.17417167-.3685412-.26387637-.7713153-.26256984-1.1789385-.02886442-.5339862.14882978-1.0586072.49625699-1.4651397.30867601-.3493508.75483123-.5460429 1.22094972-.5382681.2508475.0001729.50001213.0409615.73782123.1207821l.86910614.2967039 4.0724581 1.4310056c.2503166.0875233.496257.1680447.7378212.2415642.2313114.0718258.4719871.108989.71419.1102794.1674803.0018002.3330175-.0359854.4831285-.1102794.1573938-.0974187.2419709-.2789501.2153072-.4621229.0017283-.259166-.075175-.5127639-.2205586-.7273184-.1484864-.2237295-.3249632-.4275602-.5251397-.6065363-.1995845-.1791413-.4168872-.3374996-.6485475-.4726257-.2275605-.1330354-.4218622-.2354376-.582905-.3072067l.1102793-.2415643c.1470391.0735196.3413408.1759218.5829051.3072067.2589634.1459308.4996008.322222.7168156.5251397.2451172.2265197.4501842.4928406.6065363.7877095.1793291.3385504.26968.717121.2625698 1.1001676.0142225.4177855-.0924491.8307964-.3072067 1.1894413-.2340118.3386013-.6364286.5195877-1.0450279.47-.200176-.000963-.399474-.0265367-.5934078-.0761452-.2048045-.0507635-.4253631-.112905-.661676-.1864246l-5.25139665-1.8379888c-.28225196-.1040916-.57903343-.1634479-.87960893-.1759218-.19886293.002418-.39186607.0676714-.55139665.1864246-.19369811.1665671-.29207869.4184214-.26256983.6721787.02293968.3993761.1476769.7862423.36234636 1.1237989.27350003.4663064.60622907.8952357.98988827 1.2760894.44991715.4412655.94445141.834605 1.47564243 1.1736872.5730176.3785516 1.1902853.6854218 1.8379889.913743l4.6002234 1.6515642v1.5202793l-16.4211173-5.9235754v2.0034078z"/><path d="m15.1397765 4.74988827c.3031091.20432899.576952.44902082.8139665.72731843.2940685.34239357.5388728.72418236.7273185 1.13430168.2254686.50869587.3348925 1.06119667.3203351 1.61743017.016879.54830905-.0880418 1.09353842-.3072067 1.59642458-.1839651.40267837-.4526484.76092287-.7877095 1.05027937-.3136773.266231-.6768452.4678918-1.0686592.5934078-.3660678.1209032-.7487937.1838049-1.1343016.1864246-.7896956-.0124374-1.5672883-.1960854-2.2791062-.5382682-.7857277-.3597424-1.51321962-.8350017-2.15832401-1.41-.6412235-.56547537-1.18733882-1.2303885-1.61743017-1.96927374-.41244671-.67520285-.63639794-1.44860528-.64854749-2.23972067.00058134-.29599327.03404544-.59100579.09977654-.87960894.06019305-.27556465.16014022-.54091111.29670391-.7877095.12449232-.22594206.29757272-.42144221.50675978-.57240223.21975739-.1509803.48181001-.22821686.74832402-.22055866.37522729-.00746174.74308588.10473513 1.05027933.3203352.30844389.22124105.56993409.50147287.76932959.82446927.2185728.3499381.3990253.72228637.5382682 1.11067039.1412886.38448787.2553504.77844005.3413408 1.17893855.0805214.38160149.139162.7316946.1759217 1.05027933.0292349.22738512.0467627.45612264.052514.68530726 0 .25031657-.0070019.49275605-.0210056.72731844-.011138.20668108-.0330485.41264056-.0656424.6170391.4691247.16104283.9347486.29670391 1.3968715.40698324.4802244.11228146.9719694.16780106 1.4651396.16541896.7929609 0 1.3837431-.20567966 1.7723464-.61703907.3953856-.42221559.6069385-.98415297.5881564-1.5622905.0128713-.42985347-.0771513-.85656082-.2625698-1.24458101-.1722323-.34308622-.3904229-.66109682-.6485475-.94525139-.2336709-.25961146-.4941944-.49373054-.7772067-.69843576-.2573184-.17504655-.4594972-.32558659-.6065363-.45162011l.1549162-.26256983c.1801023.14652144.3685974.28241328.5645251.40698324zm-7.52262566-.08664805c-.22700026.23361856-.33940598.55546398-.30720671.87960894.00255429.46672968.14026493.92272518.39648045 1.31284916.2689699.42415741.59897661.80636357.97938548 1.13430168.38682035.33581292.8074326.63059347 1.25508379.87960894.39748715.22651023.81391555.41803215 1.24458105.57240223.0619291-.3713465.0917971-.74733232.0892737-1.12379888.0033891-.50885417-.0782561-1.01469941-.2415642-1.49664804-.1496462-.44313535-.3656613-.86100058-.6406704-1.23932961-.2481246-.34463475-.56229764-.6364944-.92424584-.85860336-.32994944-.20667145-.71084497-.31757659-1.1001676-.32033519-.27380866-.00893062-.54125802.083648-.75094972.25994413z"/><path d="m15.0058659 32.9236313h5.17v-31.85234638h-5.17v-.65117319h8.1396648c.4656239 0 .9391248-.00787709 1.4205028-.02363128s.9706332-.03938548 1.4677654-.07089386c.4971322 0 .9785102-.00787709 1.4441341-.02363128.4656238-.01575419.9154934-.02363129 1.3496089-.02363129 2.2651024 0 4.1275978.27132216 5.587486.81396648 1.2700094.43228383 2.4411261 1.11335246 3.4449162 2.00340782.7759358.69872718 1.3675596 1.5780462 1.7224581 2.56005587.2888637.79993924.4458253 1.64150133.4647486 2.49178771.0087235.98770553-.2228645 1.9627183-.6748044 2.8410056-.4520736.8711379-1.0691804 1.6460884-1.8169833 2.2817318-.7842563.6637075-1.6710123 1.1957611-2.6256983 1.575419-.9989065.4038456-2.048449.6688816-3.1193296.7877095v.0918995c1.1624677.1040968 2.3083668.3464985 3.4134078.722067 1.1347766.3734555 2.203467.9237513 3.1665922 1.6305587.9402371.691022 1.7255115 1.5711016 2.3053631 2.5836871.6135032 1.0857546.9245162 2.3162054.9006145 3.5630726.0168555 1.3222246-.2518301 2.6325148-.7877094 3.8413967-.5352556 1.1763898-1.3457905 2.2066698-2.3631285 3.0037989-1.1963041.9091745-2.5554473 1.5811706-4.00419 1.9797765-1.8383158.5092702-3.7406562.7498265-5.6478771.7141899-.4358659 0-.8629795-.007877-1.2813408-.0236312-.4183612-.0157542-.8603538-.0393855-1.3259776-.0708939-.4656239-.0315084-.9470019-.0551397-1.4441341-.0708938-.4971322-.0157542-1.0222719-.0236313-1.575419-.0236313h-8.1396648v-.6511732zm9.8253632-17.4635196h4.2851396c.7994244.0081115 1.5956827-.1015952 2.3631285-.3255866.7030757-.2110743 1.3374009-.6052621 1.8379888-1.1421787.5622302-.6345688.9686121-1.3915899 1.1868157-2.210838.3076684-1.1538272.4491311-2.34565122.4201117-3.53944136 0-1.61392924-.2091806-2.91014898-.6275419-3.88865922-.3377224-.86857181-.9004983-1.63162709-1.6305587-2.21083799-.6601953-.49240512-1.4246742-.82658392-2.2344692-.97675977-.8057988-.15376509-1.6241884-.23199997-2.4445252-.23368715-.5583985 0-1.1246741.00787709-1.6988268.02363128-.4911452.00871162-.9813056.04729312-1.4677653.11553073v14.38882678zm0 17.4635196c.3728491.0315084.7842085.0700186 1.2340782.1155307.4498696.0455121 1.0940409.0691434 1.9325139.0708939 1.2627401.0226773 2.5230878-.1185382 3.7494972-.4201118.9732643-.2416076 1.8598398-.7499109 2.5600559-1.4677653.7147888-.7849888 1.2196664-1.7378437 1.4677654-2.7701118.3404789-1.4172657.4966845-2.8725366.4647486-4.3297765 0-2.4839106-.5251397-4.4400559-1.575419-5.8684358-1.0502794-1.4283798-2.6178213-2.1425698-4.7026257-2.1425698h-5.1306145v16.8044693z"/><path d="m41.3179888 32.9236313h3.5867039v-32.27245812h-3.5867039v-.65117318h7.5908939v32.9236313h3.5867039v.6511732h-11.1775978z"/><path d="m51.2352514 23.6102793c-.0120834-1.4725082.3310787-2.9262188 1.0003911-4.2378771 1.279858-2.5306517 3.4297593-4.5146023 6.0548603-5.587486 2.4201594-1.0558094 5.1707345-1.0558094 7.5908938 0 2.625101 1.0728837 4.7750024 3.0568343 6.0548604 5.587486.6690195 1.3117658 1.0121645 2.7654037 1.000391 4.2378771.0071624 1.4271571-.311648 2.8371073-.9321229 4.1223464-1.2177507 2.5468093-3.325837 4.5596254-5.9262011 5.6583799-2.5530926 1.1190658-5.457913 1.1190658-8.0110056 0-2.5924895-1.1030007-4.6925803-3.1153154-5.9051955-5.6583799-.6190134-1.2855462-.9360417-2.6955588-.9268715-4.1223464zm4.6579888 0c0 2.2038362.1750466 3.9543017.5251397 5.2513967.3500931 1.2970949.7999627 2.2983612 1.3496089 3.0037989.4917233.6517457 1.1761068 1.1321921 1.9561453 1.3732402 1.5534862.434501 3.196402.434501 4.7498882 0 .7800385-.2410481 1.4644221-.7214945 1.9561453-1.3732402.5583985-.7001863 1.0082682-1.7014526 1.3496089-3.0037989.3413408-1.3023464.5163874-3.0528119.5251397-5.2513967.0192828-1.5684642-.110839-3.1352008-.3886034-4.6789944-.1834056-1.0873626-.5699969-2.1304465-1.139553-3.0746927-.4609089-.7458452-1.1337439-1.3373183-1.932514-1.6988268-1.7679943-.6840971-3.7275923-.6840971-5.4955866 0-.7999131.3608013-1.4737801.9523778-1.9351396 1.6988268-.5707037.9439462-.958206 1.9870847-1.1421788 3.0746927-.2744974 1.5440979-.4011041 3.1108561-.3781006 4.6789944z"/><path d="m73.3567598 30.55c-.0202192-.748813.139139-1.4915841.4647486-2.1662011.2959805-.5816487.6813939-1.1132535 1.1421788-1.575419.426351-.4323706.9127157-.8011235 1.444134-1.0949162.5128864-.2800745.9706332-.5128864 1.3732403-.6984358-1.8012291-1.24108-2.7018436-2.918026-2.7018436-5.030838-.0158678-1.0319375.2569625-2.0477754.7877095-2.932905.5191863-.8590935 1.1994533-1.6097944 2.0034078-2.210838.8088269-.6090657 1.715371-1.0761002 2.680838-1.3811173.9096718-.2987361 1.8599504-.4554923 2.8173743-.4647486 1.2552269-.0336961 2.498166.2546657 3.6103352.8375978.7996306.4126485 1.5412421.9291279 2.2055866 1.5360335.3877985-.6408684.9024594-1.1957371 1.5124022-1.6305587.7263255-.5151387 1.6018851-.7771607 2.4917877-.7456983.5972944-.0046903 1.1873238.1311244 1.7224581.3964805.5251397.2643203.7877095.8305959.7877095 1.6988268.0366396.4791704-.1586397.9468645-.5251396 1.2577095-.3063986.2607774-.6927203.4090064-1.0949163.4201117-.3529283.0352273-.7008488-.1039409-.9321229-.3728492-.1860361-.2474269-.3494853-.5110547-.4883798-.7877095-.1400373-.2800744-.2870764-.5426443-.4411174-.7877095-.1465018-.2432974-.4147634-.3865047-.6984357-.3728491-.3548992.0174329-.692729.1575765-.9557542.3964804-.3223578.2618691-.6092229.5646221-.853352.9006146.404768.491089.7633816 1.018462 1.071285 1.5754189.4615187.856815.6862932 1.8211702.6511731 2.7937431.0079286.9014582-.2338074 1.7875208-.6984357 2.5600558-.4793079.7915317-1.1027352 1.4862079-1.8379888 2.0480447-.7980933.6089137-1.6964703 1.0736528-2.654581 1.3732402-.9994657.3268386-2.0441513.4943073-3.0956984.496257-.9656652.0193702-1.9272418-.1308206-2.8410056-.443743-.6418547-.2201919-1.2712085-.4752643-1.8852514-.7640782-.3500931.1557914-.7150651.330838-1.0949162.5251397-.3807158.1809172-.7363938.4103868-1.0581564.6826815-.3284354.2826185-.6040412.6213469-.8139665 1.0003911-.2217149.4062657-.3339188.8632251-.3255866 1.3259776-.0149109.4058421.0813277.8080471.2783241 1.1631844.1711607.2953475.4211897.5371937.722067.6984358.3137698.1616566.6515791.2715998 1.0003911.3255865.3844331.0637329.7735049.0953505 1.1631843.0945252h7.3519553c2.1723278 0 3.9035382.5198883 5.1936313 1.5596648s1.9342645 2.677337 1.932514 4.9126816c.0160256 1.2958348-.2879092 2.5756076-.8848603 3.7258659-.5907256 1.1144027-1.3934691 2.1026693-2.3631285 2.9092737-1.0010202.8350118-2.1450457 1.4817509-3.3766481 1.9088827-1.2559633.4468118-2.5792172.6750509-3.9122905.6748045-1.1236625.0107478-2.2436142-.130571-3.3293855-.4201118-.9279535-.2457631-1.813257-.6308702-2.6256983-1.1421787-.7065477-.4425431-1.3035463-1.0395417-1.7460894-1.7460894-.4194732-.686481-.6369687-1.4772911-.6275419-2.2817319-.0095511-.7647138.1575826-1.521308.4883799-2.2108379.3175895-.6559305.7426956-1.2540964 1.2577095-1.7697207.5202583-.5179221 1.1075025-.9638745 1.7460894-1.3259777.6268306-.3610774 1.2808612-.6727296 1.9561453-.9321229v-.0945251c-2.0497952 0-3.5630727-.3334637-4.5398325-1.0003911-.9767597-.6669274-1.4616387-1.80473-1.4546368-3.4134078zm6.9843575 4.4243017c-.4043575.2485661-.8157169.5050093-1.2340782.7693296-.4259105.2689093-.8039532.607018-1.1185475 1.000391-.3380529.427526-.6041152.9073251-.7877095 1.4205028-.4845022 1.5808071-.3857444 3.2829823.278324 4.7971509.3584487.6940705.8681062 1.2988402 1.4913967 1.7697206.6044917.4501062 1.2927391.7750375 2.0244134.9557542.7157499.1823233 1.4512301.2758017 2.1898324.2783241 1.0402761.0092502 2.0737395-.1686264 3.0510615-.5251397.8625258-.3148122 1.6625618-.779722 2.3631284-1.3732402.6444574-.5456004 1.1676711-1.2199647 1.5360336-1.9797766.3487235-.7266977.5282645-1.5229622.5251396-2.3289944 0-1.7382123-.4735009-2.9722905-1.4205028-3.7022346-.9470018-.7299441-2.2432216-1.0949162-3.8886592-1.0949162h-5.0098324zm7.5436313-15.1345252c-.0004751-.7242852-.046956-1.4478089-.139162-2.1662011-.0833368-.6952061-.280258-1.3720115-.582905-2.0034078-.2982978-.6095874-.7671385-1.1194745-1.349609-1.4677654-.6056611-.3728491-1.4205028-.5592737-2.4445251-.5592737-1.575419 0-2.770987.481378-3.5867039 1.4441341-.815717.962756-1.2191993 2.5460521-1.210447 4.7498882-.0073537.8431437.0629618 1.6851729.2100559 2.515419.1178143.6910702.3799543 1.3495517.7693296 1.932514.3716518.5430016.8884328.9706197 1.4913967 1.2340782.749888.3029715 1.5547657.4460609 2.3631285.4201117 1.6139292 0 2.7631098-.504134 3.4475419-1.5124022.684432-1.0082681 1.0283985-2.538175 1.0318994-4.5897207z"/></g></svg>