<svg height="53" viewBox="0 0 70 53" width="70" xmlns="http://www.w3.org/2000/svg"><g fill="#363636" fill-rule="evenodd" transform="translate(4.156666 7.203081)"><path d="m19.9363348 16.4404219v6.4212692h11.177455c-.4507133 2.7554554-3.3788916 8.0801941-11.177455 8.0801941-6.7292127 0-12.21940126-5.2975887-12.21940126-11.825796s5.49018856-11.82579597 12.21940126-11.82579597c3.8290218 0 6.391032 1.55143273 7.8551212 2.88954347l5.3496687-4.89643253c-3.4354494-3.04967348-7.8836916-4.89587844-13.2047899-4.89587844-10.895832 0-19.70835437 8.37385818-19.70835437 18.72856347 0 10.3541513 8.81252237 18.7285635 19.70835437 18.7285635 11.3745327 0 18.9200436-7.5986959 18.9200436-18.3008113 0-1.2306186-.141103-2.1670191-.3096103-3.1034195z"/><path d="m62.1685145 16.4404219h-5.6307085v-5.3513348h-5.6312916v5.3513348h-5.6307085v5.3507806h5.6307085v5.3513348h5.6312916v-5.3513348h5.6307085z"/></g></svg>