<svg height="53" viewBox="0 0 70 53" width="70" xmlns="http://www.w3.org/2000/svg"><path d="m57.586883 13.0037767c-1.6652484.7020233-3.4552737 1.1763185-5.3339258 1.3896405 1.9171347-1.0920978 3.3899699-2.8219453 4.0832403-4.88258046-1.7946899 1.01120166-3.781793 1.74591586-5.8977546 2.14153126-1.6938188-1.71544135-4.1071462-2.7870381-6.7787737-2.7870381-5.1286851 0-9.2871415 3.9517208-9.2871415 8.8254359 0 .6914958.0822129 1.3652608.240808 2.0113217-7.7186827-.3684652-14.5621772-3.8819063-19.1421933-9.2210512-.7999722 1.3032035-1.2576823 2.8191749-1.2576823 4.4365435 0 3.0618633 1.6395933 5.7635726 4.1316351 7.346034-1.5223962-.0459889-2.9544165-.4427124-4.2062681-1.1037336-.0011661.0365695-.0011661.0736931-.0011661.1108166 0 4.2758595 3.2010551 7.8430466 7.4498874 8.6536702-.7795648.2016863-1.5999445.3097325-2.4465624.3097325-.5988131 0-1.1807171-.0554083-1.7474613-.1584678 1.1818832 3.506238 4.6115019 6.0577907 8.6755009 6.1287134-3.1783154 2.3675971-7.1828413 3.7782928-11.5342939 3.7782928-.7492451 0-1.4885781-.0415563-2.2150835-.1235606 4.1100616 2.5044557 8.9915249 3.9655729 14.236241 3.9655729 17.0822064 0 26.4235734-13.4481514 26.4235734-25.1104929 0-.3828714-.008746-.7635265-.0268212-1.1419653 1.8145143-1.2444707 3.3893868-2.7986738 4.6342416-4.5684153" fill="#363636" fill-rule="evenodd"/></svg>