<svg enable-background="new 0 0 74.3 69" viewBox="0 0 74.3 69" xmlns="http://www.w3.org/2000/svg"><path d="m62.1 34.9h-.5c0 6.5-2.6 12.4-6.9 16.7s-10.2 6.9-16.7 6.9-12.4-2.6-16.7-6.9-6.9-10.2-6.9-16.7 2.6-12.4 6.9-16.7 10.2-6.9 16.7-6.9 12.4 2.6 16.7 6.9 6.9 10.2 6.9 16.7h.5.5c0-13.6-11-24.6-24.6-24.6s-24.6 11-24.6 24.6 11 24.6 24.6 24.6 24.6-11 24.6-24.6z"/><path d="m40 31.9c0-4.8-3.4-8.7-8.3-8.7-4.8 0-8.5 3.9-8.5 8.7s4 8.7 8.8 8.7h1.6c.4 2.6-2.5 4.1-2.5 4.1v1.3c8.9-1.6 8.9-13.6 8.9-13.6z" fill="#c8c8c8"/><path d="m37.1 34.3c0-4.8 3-8.7 7.8-8.7s8.2 3.9 8.2 8.7-4.1 8.7-8.9 8.7c-.3 0-.2 0-.5 0-.4 2.6 3.6 4.1 3.6 4.1v1.3c-10.3-1.6-10.3-13.5-10.3-13.5v-.6z"/></svg>