<svg enable-background="new 0 0 74.3 69" viewBox="0 0 74.3 69" xmlns="http://www.w3.org/2000/svg"><path d="m61.3 33.2h-.5c0 6.5-2.6 12.4-6.9 16.7s-10.2 6.9-16.7 6.9-12.4-2.6-16.7-6.9-6.9-10.2-6.9-16.7 2.6-12.4 6.9-16.7 10.2-6.9 16.7-6.9 12.4 2.6 16.7 6.9 6.9 10.2 6.9 16.7h.5.5c0-13.6-11-24.6-24.6-24.6s-24.6 11-24.6 24.6 11 24.6 24.6 24.6 24.6-11 24.6-24.6z"/><path d="m52.2 41.6c-1.7 0-3.4 0-5 0-.5 0-.5-.3-.6-.7-.3-2.6-.7-5.2-1.2-7.9-.4 2.8-.9 5.7-1.3 8.5-1.8 0-3.6 0-5.5 0-.6-5.6-1.2-11.1-1.8-16.8h4.2c.3 3.5.5 6.9.8 10.4h.2c.4-3.5.8-6.9 1.3-10.4h4.5c.3 3.6.6 7.1 1 10.7h.1c.2-2.2.5-4.4.7-6.6.1-1.2.2-2.4.4-3.6 0-.2.3-.5.5-.5h3.8c-.7 5.7-1.4 11.2-2.1 16.9z"/><path d="m35.8 31.1v3.3c-.8 0-1.7 0-2.6 0v7.1c-1.5 0-2.9 0-4.4 0 0-5.6 0-11.1 0-16.8h7.4v3.3c-1 0-1.9 0-3 0v3.1z"/><path d="m21.1 24.8h4.3v13.5h2.7v3.3c-2.3 0-4.6 0-7 0 0-5.6 0-11.2 0-16.8z"/></svg>