<svg enable-background="new 0 0 74.3 69" viewBox="0 0 74.3 69" xmlns="http://www.w3.org/2000/svg"><path d="m61.3 34.5h-.5c0 6.5-2.6 12.4-6.9 16.7s-10.2 6.9-16.7 6.9-12.4-2.6-16.7-6.9-6.9-10.2-6.9-16.7 2.6-12.4 6.9-16.7 10.2-6.9 16.7-6.9 12.4 2.6 16.7 6.9 6.9 10.2 6.9 16.7h.5.5c0-13.6-11-24.6-24.6-24.6s-24.6 11-24.6 24.6 11 24.6 24.6 24.6 24.6-11 24.6-24.6z"/><path d="m48.3 46v-.8h-22.2c-.3 0-.7-.1-.9-.4-.2-.2-.4-.5-.4-.9v-19c0-.3.1-.7.4-.9.2-.2.5-.4.9-.4h22.2c.3 0 .7.1.9.4.2.2.4.5.4.9v19.1c0 .3-.1.7-.4.9-.2.2-.5.4-.9.4v.7.7c1.5 0 2.7-1.2 2.7-2.7v-19.1c0-1.5-1.2-2.7-2.7-2.8h-22.2c-1.5 0-2.7 1.2-2.8 2.8v19.1c0 1.5 1.2 2.7 2.8 2.7h22.2z"/><path d="m45.9 41.1v-.8h-6.2v-12.7h5.4v13.5h.8v-.8.8h.7v-15h-8.4v15.7h8.4v-.7z"/><path d="m27.8 28.6h8.1v-1.5h-8.1"/><path d="m27.8 33h8.1v-1.5h-8.1"/><path d="m27.8 37.4h8.1v-1.5h-8.1"/><path d="m27.8 41.8h8.1v-1.5h-8.1"/></svg>