<svg enable-background="new 0 0 74.3 69" viewBox="0 0 74.3 69" xmlns="http://www.w3.org/2000/svg"><path d="m61.3 34.5h-.5c0 6.5-2.6 12.4-6.9 16.7s-10.2 6.9-16.7 6.9-12.4-2.6-16.7-6.9-6.9-10.2-6.9-16.7 2.6-12.4 6.9-16.7 10.2-6.9 16.7-6.9 12.4 2.6 16.7 6.9 6.9 10.2 6.9 16.7h.5.5c0-13.6-11-24.6-24.6-24.6s-24.6 11-24.6 24.6 11 24.6 24.6 24.6 24.6-11 24.6-24.6z"/><path d="m37.8 20.7c1.4.4 2.5 1.1 2.9 2.6.4 1.7-.2 3.1-1.8 4.1-.3.2-.5.6-.5 1 0 .2.4.4.7.6.9.5 1.8.8 2.6 1.3 3.7 2.6 7.5 5.3 11.2 8 .7.5 1.3 1.1 1.7 1.8 1 1.6.1 3.5-1.8 3.9-.5.1-1.1.2-1.7.2-9 0-18 0-27 0-.6 0-1.2 0-1.8-.2-2-.5-2.9-2.5-1.8-4.3.4-.6.9-1.1 1.4-1.5 3.7-2.7 7.4-5.4 11.1-8 1.1-.7 2.3-1.2 3.6-1.8 0-.1 0-.3 0-.6.1-.8.4-1.4 1.4-1.8 1-.3 1.4-1.4 1.1-2.3-.3-.8-.8-1.3-1.7-1.3-1 0-1.6.6-1.8 1.7-.1.6-.3 1.1-1 .9-.7-.1-.7-.7-.6-1.2.3-1.7 1.5-2.6 3.1-3.1zm-.2 21.9h13.6c.4 0 .9 0 1.3-.1.8-.2 1.2-.8.7-1.5-.3-.5-.8-1-1.3-1.4-3.6-2.6-7.3-5.3-10.9-7.9-2.4-1.8-4.3-1.8-6.8 0-3.7 2.6-7.4 5.3-11 7.9-.7.5-1.5 1.1-1.2 2.1s1.3.9 2.1.9z"/></svg>