<svg enable-background="new 0 0 74.3 69" viewBox="0 0 74.3 69" xmlns="http://www.w3.org/2000/svg"><path d="m61.3 34.5h-.5c0 6.5-2.6 12.4-6.9 16.7s-10.2 6.9-16.7 6.9-12.4-2.6-16.7-6.9-6.9-10.2-6.9-16.7 2.6-12.4 6.9-16.7 10.2-6.9 16.7-6.9 12.4 2.6 16.7 6.9 6.9 10.2 6.9 16.7h.5.5c0-13.6-11-24.6-24.6-24.6s-24.6 11-24.6 24.6 11 24.6 24.6 24.6 24.6-11 24.6-24.6z"/><path d="m46.4 33.3c-3.9-.9-4.2-2.1-4.2-3.5s1-2.9 3.8-2.9c1.9 0 3.1.6 4.2 1.4l.2.2 1-1.2-.3-.2c-1.2-.8-2.7-1.6-5.2-1.6-3.3 0-5.5 1.8-5.5 4.5 0 2.6 1.5 4 5.2 4.9 3.9.9 4.4 2.8 4.4 4.1 0 2.9-2.5 3.3-4 3.3-1.7 0-3.2-.6-4.7-1.8l-.2-.2-1.1 1.2.2.2c1.6 1.3 3.6 2.1 5.7 2.1 3.6 0 5.7-1.8 5.7-4.8.1-3.1-1.6-4.8-5.2-5.7"/><path d="m31.1 35h-4.2v-7.9h4.5c3 0 4.4 1.3 4.4 3.9.1 2.7-1.5 4-4.7 4m.4-9.3h-6.1v17.6h1.6v-6.8h4.2c4 0 6.3-2 6.3-5.5 0-3.4-2.2-5.3-6-5.3"/></svg>