<svg enable-background="new 0 0 74.3 69" viewBox="0 0 74.3 69" xmlns="http://www.w3.org/2000/svg"><path d="m61.3 32.6h-.5c0 6.5-2.6 12.4-6.9 16.7s-10.2 6.9-16.7 6.9-12.4-2.6-16.7-6.9-6.9-10.2-6.9-16.7 2.6-12.4 6.9-16.7 10.2-6.9 16.7-6.9 12.4 2.6 16.7 6.9 6.9 10.2 6.9 16.7h.5.5c0-13.6-11-24.6-24.6-24.6s-24.6 11-24.6 24.6 11 24.6 24.6 24.6 24.6-11 24.6-24.6z"/><path d="m43.9 27h3.2c.8 0 1.3.3 1.3 1.1s-.6 1.1-1.3 1.1c-1 0-2 0-3 0-.3 0-.8.2-.9.4-.5 1.9-.9 3.9-1.4 6h2.8c.8 0 1.4.2 1.4 1.1s-.7 1.1-1.4 1.1c-.8 0-1.6 0-2.3 0-.7-.1-1 .2-1.1.9-.2 1.3-.6 2.6-.9 3.8-.2.8-.6 1.3-1.5 1.1-.7-.2-1-.8-.8-1.5.3-1.4.6-2.8 1-4.3-2 0-3.9 0-5.7 0-.3 0-.7.5-.8.8-.3 1.2-.6 2.5-.9 3.7-.2.8-.5 1.5-1.4 1.3s-1-.9-.8-1.7c.4-1.3.6-2.6.9-4.1-1.2 0-2.2 0-3.2 0-.8 0-1.3-.3-1.4-1.1 0-.9.6-1.2 1.4-1.2h3.7c.5-2.1 1-4.2 1.5-6.4-1 0-1.9 0-2.7 0s-1.4-.2-1.5-1.1c0-1 .7-1.1 1.5-1.2 1.1 0 2.4.3 3.1-.3.6-.5.7-1.9.9-2.9.1-.6.4-1.6.6-2.2s1.1-.5 1.1-.5.8 0 .8.5c0 .7-.3 2.3-.4 3-.2.7-.3 1.4-.5 2.3h5.7c.2 0 .6-.5.7-.8.3-1.2.6-2.5.9-3.7.2-.8.5-1.6 1.5-1.3.9.2 1 .9.7 1.8-.2 1.5-.4 2.8-.8 4.3zm-10.6 8.6h5.6c.3 0 .7-.2.7-.4.5-1.9.9-3.9 1.4-5.9-2 0-3.8 0-5.7 0-.3 0-.7.3-.7.6-.4 1.8-.8 3.6-1.3 5.7z"/></svg>