<?xml version="1.0" encoding="UTF-8"?>
<svg width="65" height="20" enable-background="new 0 0 283.8 71.8" version="1.1" viewBox="0 0 283.8 71.8" xml:space="preserve" xmlns="http://www.w3.org/2000/svg">
<style type="text/css">
	.st0{fill:#474C55;}
	.st1{fill:#878A8F;}
	.st2{fill:#FFFFFF;}
	.st3{fill:#006FCF;}
</style>
<path class="st0" d="m95.3 45.3 4.8-2.5c2.1 4.2 5.4 6.2 9.8 6.2 4.3 0 7.2-1.4 7.2-4.6 0-3.1-2.2-4.5-8.1-6.2-6.9-2-12.4-3.9-12.4-10.6 0-6 4.9-10 12.1-10 7 0 11.1 3.5 13.3 7.6l-4.4 3c-2.1-3.5-5.1-5.2-9-5.2s-6.2 1.4-6.2 4c0 3.3 2.5 4.4 8.3 6.1 6.7 2 12.1 4.2 12.1 10.8 0 5.8-4.9 10.4-13.4 10.4-6.9 0-11.8-3.6-14.1-9z"/>
<path class="st0" d="m125.7 47.5c0-5.5 4.7-9.2 16.6-10.5v-0.8c0-2.5-1.3-3.6-4.2-3.6-3.6 0-6.4 1.7-8.6 3.5l-2.9-3.7c2.7-2.5 7-4.6 12.3-4.6 6.8 0 9.2 3.3 9.2 9.2v10.5c0 3.1 0.2 4.9 0.7 6.2h-5.9c-0.3-1.1-0.6-1.8-0.6-3.3-2.6 2.6-5.6 3.7-9.4 3.7-4.1-0.1-7.2-2.4-7.2-6.6zm16.6-0.9v-5.6c-7.1 1-10.8 2.7-10.8 5.5 0 2 1.4 3.1 3.6 3.1 3-0.1 5.4-1.3 7.2-3z"/>
<path class="st0" d="m156.3 53.6v-20.7h-4.4v-4.7h4.4v-2.6c0-4.3 1.8-7.6 8.2-7.6 1.1 0 3.1 0.2 3.5 0.2v4.6c-0.4-0.1-1.3-0.2-2-0.2-2.1 0-3.8 0.6-3.8 3.3v2.2h5.6v4.7h-5.6v20.8h-5.9z"/>
<path class="st0" d="m169.9 40.9c0-9.7 6.9-13.2 12.1-13.2 5.7 0 11.2 3.4 11.2 13.8v1.4h-17.4c0.2 4.6 3.1 6.6 6.8 6.6 3.3 0 5.2-1.1 7.1-3l3.1 3.1c-2.6 2.9-6.1 4.6-10.7 4.6-6.3 0-12.2-3.9-12.2-13.3zm17.9-2.5c-0.3-3.9-2.2-5.9-5.8-5.9-2.9 0-5.5 1.6-6.1 5.9h11.9z"/>

	<path class="st1" d="m198.5 53.6v-35.5h4.2v18.3l16.1-18.3h5.1l-12.2 13.5 13.9 22h-4.9l-11.8-18.8-6.2 6.8v12h-4.2z"/>
	<path class="st1" d="m226.8 41c0-9.2 6.1-13.2 11.5-13.2 6 0 10.5 4.2 10.5 13.4v0.8h-17.9c0.1 5.7 3.4 8.8 7.6 8.8 3.6 0 5.7-1.5 7.6-4.1l2.4 2.1c-2.4 3.4-5.6 5.4-10.3 5.4-6 0-11.4-4.4-11.4-13.2zm18-2.2c-0.3-4.5-2.5-7.6-6.7-7.6-3.4 0-6.6 2.3-7.2 7.6h13.9z"/>
	<path class="st1" d="m250.7 62.8 1-3.3c0.7 0.2 2 0.4 3.7 0.4 2.6 0 3.8-1.1 4.8-3.6l1-2.5-9.8-25.5h4.4l7.4 20.5h0.1l7.4-20.5h4.2l-10.9 28.2c-1.7 4.5-3.7 6.9-8.6 6.9-2.2 0-3.6-0.3-4.7-0.6z"/>
	<path class="st1" d="m276.3 31.9c0-2.2 1.7-3.8 3.8-3.8s3.8 1.6 3.8 3.8c0 2.1-1.7 3.8-3.8 3.8-2.2 0-3.8-1.6-3.8-3.8zm6.8 0c0-1.8-1.3-3.1-3-3.1s-3 1.3-3 3.1 1.3 3.1 3 3.1 3-1.3 3-3.1zm-4.6-2.1h1.6c1 0 1.6 0.4 1.6 1.4 0 0.6-0.3 1-0.7 1.2l0.8 1.6h-1l-0.7-1.5h-0.5v1.5h-1l-0.1-4.2zm1.6 1.9c0.4 0 0.7-0.2 0.7-0.5 0-0.4-0.2-0.5-0.7-0.5h-0.5v1h0.5z"/>


	<polygon class="st2" points="71.8 71.8 36.3 71.8 0 71.8 0 37.5 0 0 35.7 0 71.8 0 71.8 37.7"/>
	
		<path class="st3" d="M69,51.6H44.8l-1.3-1.7v1.7H38v-3.3c-0.8,0.3-1.7,0.5-2.6,0.5H35v2.8h-7.9l-1.2-1.7l-1.2,1.7H12V39.1h12.7    l1.2,1.7l1.2-1.7h44.6V0H0v28.1l2.5-5.7h5.1L8.7,25v-2.6H15l0.8,2.3l0.8-2.3h27.2v1c1-0.7,2.3-1,3.6-1h8.4L57,25v-2.6h5.2l1.2,2    v-2H69v12.5h-5.3L62.5,33v1.8h-7.8L54.1,33h-1.5l-0.7,1.8h-4.6c-1.1,0-2.4-0.2-3.5-0.9v0.9H36l-1.3-1.7v1.7H6.5L5.8,33H4.3    l-0.7,1.8H0v36.9h71.8v-21C71,51.3,70.1,51.6,69,51.6L69,51.6z"/>
		<path class="st3" d="m69.1 47.9h-4.4v1.8h4.3c1.9 0 3-1.1 3-2.7s-1-2.5-2.7-2.5h-2c-0.5 0-0.9-0.3-0.9-0.8s0.4-0.8 0.9-0.8h3.7l0.8-1.8h-4.4c-1.8 0-3 1.1-3 2.7s1.1 2.5 2.7 2.5h2c0.5 0 0.9 0.3 0.9 0.8-0.1 0.4-0.4 0.8-0.9 0.8m-8 0h-4.4v1.8h4.3c1.9 0 3-1.1 3-2.7s-1-2.5-2.7-2.5h-2c-0.5 0-0.9-0.3-0.9-0.8s0.4-0.8 0.9-0.8h3.7l0.8-1.8h-4.4c-1.8 0-3 1.1-3 2.7s1.1 2.5 2.7 2.5h2c0.5 0 0.9 0.3 0.9 0.8 0 0.4-0.4 0.8-0.9 0.8m-5.5-5.1v-1.8h-6.9v8.7h6.9v-1.8h-4.8v-1.7h4.7v-1.7h-4.7v-1.7h4.8zm-11.2 0c0.7 0 1.1 0.4 1.1 1 0 0.5-0.4 1-1.1 1h-2.4v-2h2.4zm-2.5 3.7h1l2.6 3.2h2.5l-2.8-3.2c1.5-0.3 2.3-1.3 2.3-2.7 0-1.6-1.1-2.7-3-2.7h-4.7v8.7h2l0.1-3.3zm-5.2-2.6c0 0.6-0.4 1.1-1.1 1.1h-2.5v-2.2h2.5c0.7 0 1.1 0.5 1.1 1.1m-5.6-2.9v8.7h2v-2.9h2.6c1.9 0 3.1-1.2 3.1-2.9s-1.1-2.9-3-2.9h-4.7zm-3 8.7h2.5l-3.5-4.4 3.5-4.3h-2.5l-2.1 2.8-2.1-2.8h-2.5l3.5 4.3-3.5 4.3h2.5l2.2-2.8 2 2.9zm-7.2-6.9v-1.8h-6.9v8.7h6.9v-1.8h-4.8v-1.7h4.7v-1.7h-4.7v-1.7h4.8z"/>
		<path class="st3" d="m60.7 28.1-0.1-1.5 0.8 1.4 3 4.8h2.4v-8.6h-1.9v4.6l0.1 1.5-0.8-1.4-2.9-4.6h-2.5v8.6h1.9v-4.8zm-8.2-0.7 0.6-1.7 0.6 1.7 0.8 2.1h-3l1-2.1zm3.5 5.5h2.3l-3.7-8.6h-2.7l-3.7 8.6h2.1l0.7-1.8h4.2l0.8 1.8zm-9 0 0.9-1.8h-0.6c-1.4 0-2.3-0.9-2.3-2.5v-0.1c0-1.4 0.8-2.4 2.2-2.4h2.2v-1.8h-2.4c-2.7 0-4.1 1.8-4.1 4.2v0.2c0.1 2.6 1.6 4.2 4.1 4.2m-7.3 0h2v-8.6h-2v8.6zm-4.3-6.8c0.7 0 1.1 0.5 1.1 1s-0.4 1-1.1 1h-2.4v-2h2.4zm-2.4 3.7h1l2.6 3.2h2.5l-2.8-3.2c1.5-0.3 2.3-1.3 2.3-2.7 0-1.6-1.1-2.7-3-2.7h-4.7v8.6h2l0.1-3.2zm-3.5-3.7v-1.8h-6.9v8.6h6.9v-1.7h-4.8v-1.7h4.7v-1.7h-4.7v-1.7h4.8zm-17.1 1.2-0.1-2 0.6 2 1.8 5.7h1.9l1.8-5.7 0.6-2-0.1 2v5.7h2.1v-8.6h-3.2l-1.5 4.5-0.5 1.9-0.5-1.9-1.5-4.5h-3.2v8.6h1.9l-0.1-5.7zm-8 0.1 0.6-1.6 0.6 1.7 0.9 2.1h-3l0.9-2.2zm3.5 5.5h2.3l-3.7-8.6h-2.8l-3.7 8.6h2.1l0.7-1.8h4.2l0.9 1.8z"/>
	

</svg>
