<?xml version="1.0" encoding="UTF-8"?>
<svg viewBox="0 0 191 140" xmlns="http://www.w3.org/2000/svg">
<path d="m190.61 126.68v-113.74c0-3.4314-1.3619-6.7222-3.786-9.1485-2.4241-2.4263-5.712-3.7894-9.1402-3.7894h-164.76c-7.139 0-12.926 5.7925-12.926 12.938v113.74c0 7.1454 5.7873 12.938 12.926 12.938h164.76c3.4283 0 6.7161-1.3631 9.1402-3.7894 2.4241-2.4263 3.786-5.7171 3.786-9.1485zm-185.89-56.869c0-4.2659 3.4551-7.7241 7.7172-7.7241 4.2621 0 7.7172 3.4582 7.7172 7.7241 0 4.2659-3.4551 7.7241-7.7172 7.7241-4.2621 0-7.7172-3.4582-7.7172-7.7241zm22.187 56.772v-113.45h148.17v113.45z" fill-rule="evenodd"/>
</svg>
