<?xml version="1.0" encoding="UTF-8"?>
<svg viewBox="0 0 78 140" xmlns="http://www.w3.org/2000/svg">
<path d="m67.805 0h-57.747c-5.5421 0-9.9895 4.597-9.9895 10.169v119.38c0 5.6418 4.4474 10.169 9.9895 10.169h57.747c5.5421 0 9.9895-4.5274 9.9895-10.169v-119.38c0-5.6418-4.4474-10.169-9.9895-10.169zm-43.105 6.1294h28.532c0.75263 0 1.3 1.1144 1.3 2.4378 0 1.393-0.61579 2.4378-1.3 2.4378h-28.532c-0.75263 0-1.3-1.1144-1.3-2.4378 0-1.3234 0.54737-2.4378 1.3-2.4378zm14.232 123.56c-3.4895 0-6.4316-2.9254-6.4316-6.4776 0-3.5522 2.8737-6.4776 6.4316-6.4776 3.4895 0 6.3632 2.9254 6.3632 6.4776 0 3.5522-2.8737 6.4776-6.3632 6.4776zm31.405-22.289h-62.742v-90.269h62.742z" fill-rule="evenodd"/>
</svg>
