<?xml version="1.0" encoding="UTF-8"?>
<svg width="43" height="20" enable-background="new 0 0 65 36.81" version="1.1" viewBox="0 0 65 36.81" xml:space="preserve" xmlns="http://www.w3.org/2000/svg">
<style type="text/css">
	.st0{fill-rule:evenodd;clip-rule:evenodd;fill:#3A57A7;}
	.st1{fill-rule:evenodd;clip-rule:evenodd;fill:#F8981D;}
</style>
<path class="st0" d="m55.65 24.49c-0.09 0.72-0.21 1.42-0.36 2.09-0.62-0.2-1.33-0.53-2.34-0.46-0.6 0.04-1.31 0.27-1.32 0.81-0.01 0.6 0.98 0.96 1.53 1.22 0.99 0.47 2.05 1.11 2.14 2.39 0.06 0.99-0.4 1.85-0.92 2.34-1.39 1.31-4.46 1.45-6.57 0.61 0.13-0.7 0.25-1.41 0.36-2.14 0.81 0.35 1.93 0.81 3.16 0.66 0.56-0.07 1.24-0.39 1.22-0.97-0.02-0.7-1.33-1.11-1.99-1.48-0.76-0.42-1.63-1.12-1.68-2.19-0.03-0.71 0.25-1.38 0.61-1.83 1.09-1.33 3.87-1.81 6.16-1.05z"/>
<polygon class="st0" points="30.71 10.86 33.51 10.86 31.79 21.75 28.98 21.75"/>
<path class="st0" d="m20.98 10.86h4.3c2.73 0 3.44 1.57 3.15 3.45-0.25 1.57-1.38 2.62-2.84 2.99l2.72 4.44h-3.52l-2.04-4.28-0.68 4.28h-2.81l1.72-10.88zm2.47 2.16-0.43 2.73h0.81c0.79 0 1.53-0.61 1.66-1.37 0.12-0.75-0.42-1.37-1.21-1.37h-0.83v0.01z"/>
<polygon class="st0" points="43.52 10.86 46.33 10.86 44.6 21.75 41.79 21.75"/>
<polygon class="st0" points="48.46 10.86 54.62 10.86 54.25 13.22 50.89 13.22 50.6 15.09 53.78 15.09 53.41 17.45 50.22 17.45 49.91 19.38 53.27 19.38 52.89 21.75 46.73 21.75"/>
<polygon class="st0" points="13.16 10.86 19.32 10.86 18.94 13.22 15.59 13.22 15.29 15.09 18.48 15.09 18.1 17.45 14.92 17.45 14.61 19.38 17.96 19.38 17.59 21.75 11.43 21.75"/>
<polygon class="st0" points="35.64 10.86 41.87 10.86 41.49 13.22 38.07 13.22 37.77 15.09 40.88 15.09 40.51 17.45 37.39 17.45 36.71 21.75 33.91 21.75"/>
<path class="st0" d="m56.27 10.86h3.66c4.36 0 5.35 3.3 5.01 5.45-0.49 3.07-3.23 5.44-6.74 5.44h-3.66l1.73-10.89zm2.43 2.36h0.58c2.14 0 2.98 1.51 2.75 2.97-0.31 1.96-1.72 3.18-3.56 3.18h-0.75l0.98-6.15z"/>
<path class="st0" d="m0 9.37h5.19l0.62 7.91c3.43-5.94 6.92-11.66 10.44-17.28h1.69c-3.72 7.18-7.4 14.4-10.96 21.75h-3.81l-0.93-8.72c-0.23-2.17-0.66-3.09-2.24-3.32v-0.34z"/>
<polygon class="st1" points="1.97 4.88 6.39 6.75 6.78 11.68 7.1 11.68 11.12 4.88 11.12 4.54 1.96 4.54"/>
<path class="st0" d="m22.43 29.55c0.67 0 1.13 0.62 1.02 1.37-0.11 0.76-0.74 1.37-1.41 1.37s-1.13-0.61-1.02-1.37c0.1-0.76 0.74-1.37 1.41-1.37zm-2.27-5.24h1.82l-0.61 4.29c0.52-0.5 1.15-0.81 1.86-0.81 1.46 0 2.41 1.4 2.16 3.14-0.26 1.73-1.63 3.14-3.09 3.14-0.72 0-1.23-0.32-1.58-0.87l-0.1 0.68h-1.82l1.36-9.57z"/>
<polygon class="st0" points="25.54 27.93 27.72 27.93 28.69 30.98 30.59 27.93 32.69 27.93 27.16 36.81 25.06 36.81 27.39 33.07"/>
<polygon class="st0" points="43.52 33.87 45.12 24.3 47.73 24.3 46.13 33.87"/>
<path class="st0" d="m41.34 24.28c-0.9 2.12-1.67 4.37-2.6 6.46l-0.27-1.26v-0.02l0.05 0.22c-0.2-0.66-0.54-1.28-0.98-1.85-0.01-0.01-0.02-0.03-0.03-0.04-0.08-0.1-0.16-0.19-0.24-0.29-0.05-0.06-0.1-0.12-0.15-0.17-0.63-0.69-1.4-1.29-2.21-1.76l2.32 8.28h2.8c1.32-3.23 2.74-6.35 4.07-9.57h-2.76z"/>
<path class="st1" d="m36.41 24.29h-4.27v0.21c2.46 0.48 5.56 2.54 6.37 5.21l-0.92-4.46c-0.12-0.69-0.6-0.96-1.18-0.96z"/>
<path class="st0" d="m64.46 33.9h-2.39c-0.15-0.46-0.2-1.02-0.36-1.48h-3.26l-0.61 1.48h-2.75l3.56-8.19c0.16-0.36 0.44-0.85 0.56-1.07 0.18-0.33 0.88-0.36 1.18-0.36h1.98l2.09 9.62zm-3.97-6.96-1.33 3.56h2.15l-0.82-3.56z"/>
</svg>
