<svg viewBox="0 0 127 41" xmlns="http://www.w3.org/2000/svg"><path d="m114.15 9.36-.82-1.28h-.86l1.21 1.28zm.71 4h-1.93l.62-1.82c.14-.39.3-.9.35-1.12.06.23.22.74.34 1.1zm1.33 2-1.94-5.6h-.69l-1.94 5.6h.64l.49-1.42h2.31l.48 1.42h.66zm-10.73 0v-5.64h-.62v5.6h.62zm-3.54-2.36v-3.28h-.62v3.28c0 1.21-.38 1.79-1.35 1.79s-1.43-.6-1.43-1.81v-3.26h-.63v3.28c0 1.55.69 2.36 2 2.36s2.03-.78 2.03-2.36zm-6.4 2.29v-.54h-2.76v-5h-.63v5.6h3.39zm-10.22-4a1 1 0 0 1 -1.22 1h-1.48v-2h1.57a1 1 0 0 1 1.14 1.04zm.62 0a1.54 1.54 0 0 0 -1.74-1.58h-2.18v5.6h.6v-2.37h1.33l1.2 2.38h.72l-1.23-2.43a1.53 1.53 0 0 0 1.31-1.59zm-6.82 1.71v-3.28h-.63v3.28c0 1.21-.38 1.79-1.35 1.79s-1.43-.6-1.43-1.81v-3.26h-.62v3.28c0 1.55.69 2.36 2 2.36s2.03-.78 2.03-2.36zm-7.29-.5c0 1.41-.72 2.31-1.69 2.31s-1.71-.92-1.71-2.33.71-2.31 1.68-2.31 1.72.95 1.72 2.36zm.62 0c0-1.69-.93-2.88-2.32-2.88s-2.33 1.21-2.33 2.89.92 2.88 2.31 2.88 2.34-1.19 2.34-2.88zm-7.54-1.1a1.06 1.06 0 0 1 -1.26 1.14h-1.36v-2.25h1.45a1 1 0 0 1 1.18 1.13zm.62 0a1.59 1.59 0 0 0 -1.78-1.67h-2.09v5.6h.62v-2.2h1.36a1.69 1.69 0 0 0 1.9-1.74zm-10.7-.06a1 1 0 0 1 -1.22 1h-1.48v-2.05h1.57a1 1 0 0 1 1.14 1.04zm.62 0a1.54 1.54 0 0 0 -1.73-1.62h-2.22v5.6h.62v-2.38h1.33l1.2 2.38h.72l-1.23-2.43a1.53 1.53 0 0 0 1.32-1.59zm-6.59 4v-.59h-2.84v-2.13h1.6v-.62h-1.6v-1.71h2.76v-.57h-3.41v5.6h3.5zm-6.63-3.9a1.06 1.06 0 0 1 -1.21 1.11h-1.41v-2.26h1.41a1 1 0 0 1 1.22 1.13zm.62 0a1.59 1.59 0 0 0 -1.78-1.67h-2.05v5.6h.62v-2.2h1.36a1.69 1.69 0 0 0 1.86-1.78zm-7 0a1.06 1.06 0 0 1 -1.26 1.14h-1.37v-2.29h1.45a1 1 0 0 1 1.18 1.13zm.62 0a1.59 1.59 0 0 0 -1.78-1.67h-2.09v5.6h.62v-2.2h1.36a1.69 1.69 0 0 0 1.9-1.78zm-7.18 1.14c0 1.41-.72 2.31-1.69 2.31s-1.71-.92-1.71-2.33.71-2.31 1.68-2.31 1.73.87 1.73 2.28zm.62 0c0-1.69-.93-2.88-2.32-2.88s-2.33 1.21-2.33 2.89.92 2.88 2.31 2.88 2.36-1.27 2.36-2.96zm-7.32 2.81v-5.67h-.57v2.39h-2.82v-2.39h-.62v5.6h.62v-2.64h2.82v2.64h.62zm-6.77-1.47c0-.83-.38-1.25-1.62-1.7s-1.33-.66-1.33-1.13a.9.9 0 0 1 1.15-.89 2 2 0 0 1 1.34.52l.4-.49a2.51 2.51 0 0 0 -1.7-.6 1.51 1.51 0 0 0 -1.75 1.43c0 .81.41 1.2 1.62 1.63 1 .37 1.34.66 1.34 1.18a1 1 0 0 1 -1.21 1 2.13 2.13 0 0 1 -1.49-.67l-.42.46a2.66 2.66 0 0 0 1.88.78 1.63 1.63 0 0 0 1.81-1.59z"/><path d="m75.94 21.34-2.69 5.36-2.69-5.36h-2.06v9.68l2.06.02v-5.04l2.69 5.02 2.67-5.01v5.01h2.07l.01-9.68z"/><path d="m54 27.59h-2.3v3.41h-2.13v-9.66h4.55c2 0 3.59 1 3.59 3.07 0 2.24-1.61 3.18-3.76 3.18m.1-4.37h-2.4v2.49h2.43a1.23 1.23 0 0 0 1.49-1.25 1.26 1.26 0 0 0 -1.51-1.24"/><path d="m11.54 21.34v1.91h2.99v7.77h2.09v-7.77h2.99v-1.91z"/><path d="m34.3 31.14c-2.71 0-4.55-1.84-4.55-4.95s1.88-5 4.59-5 4.54 1.84 4.54 4.95-1.89 5-4.58 5m0-8c-1.45 0-2.41 1.08-2.41 3s1 3.07 2.45 3.07 2.41-1.08 2.41-3-1-3.07-2.45-3.07"/><path d="m93 23.83c-.2.47-1.16 3.43-1.16 3.43h2.32s-.9-2.7-1.16-3.43m2.48 7.17-.59-1.68h-3.68l-.58 1.68h-2.21l3.24-9.7h2.78l3.23 9.7z"/><path d="m114.65 21.33v6.33l-4.27-6.33h-2.07v9.69h2.07v-4.07-2.23l4.27 6.3h2.07v-9.69z"/></svg>