<svg enable-background="new 0 0 127 41" viewBox="0 0 127 41" xmlns="http://www.w3.org/2000/svg"><path d="m22.8 15.5c-.8 0-1.4-.3-1.9-.8l.4-.5c.4.4.9.7 1.5.7.7 0 1.2-.4 1.2-1 0-.5-.3-.8-1.3-1.2-1.2-.4-1.6-.8-1.6-1.6 0-.9.7-1.4 1.8-1.4.8 0 1.2.2 1.7.6l-.4.5c-.4-.3-.8-.5-1.3-.5-.8 0-1.1.4-1.1.8 0 .5.2.7 1.3 1.1 1.2.4 1.6.9 1.6 1.7-.1.9-.8 1.6-1.9 1.6z"/><path d="m30.8 15.4v-2.6h-2.8v2.6h-.6v-5.6h.6v2.4h2.8v-2.4h.6v5.6z"/><path d="m36.4 15.5c-1.4 0-2.3-1.2-2.3-2.9s.9-2.9 2.3-2.9 2.3 1.2 2.3 2.9-.9 2.9-2.3 2.9zm0-5.2c-1 0-1.7.9-1.7 2.3s.7 2.3 1.7 2.3 1.7-.9 1.7-2.3-.8-2.3-1.7-2.3z"/><path d="m43.4 13.2h-1.4v2.2h-.6v-5.6h2.1c1 0 1.8.5 1.8 1.7 0 1.1-.8 1.7-1.9 1.7zm0-2.8h-1.4v2.3h1.4c.9 0 1.3-.4 1.3-1.1-.1-.8-.5-1.2-1.3-1.2z"/><path d="m51.9 10.4v1.9h1.5v.6h-1.5v2.6h-.6v-5.7h3.3v.6z"/><path d="m59 15.5c-1.4 0-2.3-1.2-2.3-2.9s.9-2.9 2.3-2.9 2.3 1.2 2.3 2.9-1 2.9-2.3 2.9zm-.1-5.2c-1 0-1.7.9-1.7 2.3s.7 2.3 1.7 2.3 1.7-.9 1.7-2.3-.7-2.3-1.7-2.3z"/><path d="m66.6 13 1.2 2.4h-.7l-1.2-2.4h-1.3v2.4h-.6v-5.6h2.2c1 0 1.7.5 1.7 1.6 0 .8-.5 1.4-1.3 1.6zm-.4-2.6h-1.6v2.1h1.5c.8 0 1.2-.3 1.2-1 0-.8-.4-1.1-1.1-1.1z"/><path d="m77.5 15.4v-2.6h-2.8v2.6h-.6v-5.6h.6v2.4h2.8v-2.4h.6v5.6z"/><path d="m81.1 15.4v-5.6h.6v5.6z"/><path d="m88.9 15.4v-4.4c-.1.2-.2.6-.3.9l-1.5 3.6-1.5-3.6c-.1-.3-.3-.7-.3-.9v4.4h-.6v-5.6h.7l1.3 3.4c.1.3.3.9.4 1.1.1-.2.3-.8.4-1.1l1.3-3.4h.7v5.6z"/><path d="m99.6 15.4-.5-1.4h-2.3l-.5 1.4h-.6l1.9-5.6h.7l1.9 5.6zm-1.3-3.8c-.1-.4-.3-.9-.3-1.1-.1.2-.2.7-.4 1.1l-.6 1.8h1.9z"/><path d="m104.1 10.4v5h-.6v-5h-1.6v-.6h3.9v.6z"/><path d="m75.3 21.5-2.7 5.4-2.7-5.4h-2v9.7h2v-5l2.7 5 2.7-5v5h2.1v-9.7z"/><path d="m53.3 27.8h-2.3v3.4h-2.1v-9.7h4.6c2 0 3.6 1 3.6 3.1 0 2.2-1.6 3.2-3.8 3.2m.1-4.4h-2.4v2.5h2.4c1 0 1.5-.4 1.5-1.3 0-.8-.5-1.2-1.5-1.2"/><path d="m10.9 21.5v1.9h3v7.8h2.1v-7.8h3v-1.9z"/><path d="m33.7 31.3c-2.7 0-4.6-1.8-4.6-4.9s1.9-5 4.6-5 4.5 1.8 4.5 4.9-1.8 5-4.5 5m0-8c-1.4 0-2.4 1.1-2.4 3s1 3.1 2.5 3.1c1.4 0 2.4-1.1 2.4-3s-1.1-3.1-2.5-3.1"/><path d="m92.4 24c-.2.5-1.2 3.4-1.2 3.4h2.3c.1 0-.8-2.7-1.1-3.4m2.4 7.2-.6-1.7h-3.7l-.5 1.7h-2.2l3.2-9.7h2.8l3.2 9.7z"/><path d="m114 21.5v6.3l-4.3-6.3h-2v9.7h2v-4.1-2.2l4.3 6.3h2.1v-9.7z"/></svg>