<svg viewBox="0 0 127 41" xmlns="http://www.w3.org/2000/svg"><path d="m116.84 15.56v-5.56h-.62v5.6h.62zm-3.3 0v-.56h-2.88v-2.14h1.6v-.57h-1.6v-1.76h2.76v-.53h-3.42v5.6h3.5zm-6.74-1.62a1 1 0 0 1 -1.16 1.06h-1.42v-2.16h1.39a1.06 1.06 0 0 1 1.19 1.1zm-.26-2.55a.84.84 0 0 1 -1 .89h-1.35v-1.75h1.4a.81.81 0 0 1 .95.86zm.89 2.52a1.33 1.33 0 0 0 -1.07-1.4 1.13 1.13 0 0 0 .81-1.14 1.33 1.33 0 0 0 -1.52-1.4h-2v5.6h2a1.56 1.56 0 0 0 1.78-1.66zm-10.27 1.65v-5.56h-.6v4.61c-.07-.14-.28-.51-.4-.7l-2.42-3.91h-.61v5.6h.6v-4.6c.07.14.28.51.4.7l2.45 3.83h.58zm-6.67 0v-.56h-2.87v-2.14h1.6v-.57h-1.6v-1.76h2.76v-.53h-3.38v5.6h3.5zm-6.63-3.9a1.06 1.06 0 0 1 -1.26 1.14h-1.36v-2.27h1.45a1 1 0 0 1 1.18 1.13zm.62 0a1.59 1.59 0 0 0 -1.77-1.66h-2.1v5.6h.62v-2.2h1.36a1.69 1.69 0 0 0 1.9-1.76zm-7 0a1.06 1.06 0 0 1 -1.26 1.14h-1.37v-2.27h1.45a1 1 0 0 1 1.18 1.13zm.62 0a1.59 1.59 0 0 0 -1.78-1.66h-2.09v5.6h.62v-2.2h1.36a1.69 1.69 0 0 0 1.9-1.76zm-7.18 1.14c0 1.41-.72 2.31-1.69 2.31s-1.71-.92-1.71-2.33.71-2.31 1.68-2.31 1.73.89 1.73 2.3zm.62 0c0-1.69-.93-2.88-2.32-2.88s-2.33 1.21-2.33 2.89.92 2.88 2.31 2.88 2.35-1.25 2.35-2.93zm-7.32 2.81v-5.61h-.61v2.39h-2.78v-2.39h-.63v5.6h.62v-2.68h2.78v2.64h.62zm-6.77-1.47c0-.83-.38-1.25-1.62-1.7s-1.33-.66-1.33-1.13a.9.9 0 0 1 1.09-.82 2 2 0 0 1 1.34.52l.4-.49a2.51 2.51 0 0 0 -1.7-.6 1.51 1.51 0 0 0 -1.75 1.43c0 .81.41 1.2 1.62 1.63 1 .37 1.34.66 1.34 1.18a1 1 0 0 1 -1.21 1 2.13 2.13 0 0 1 -1.49-.67l-.42.46a2.66 2.66 0 0 0 1.88.78 1.63 1.63 0 0 0 1.87-1.64zm-9.87 1.47v-5.61h-.58v4.61c-.07-.14-.28-.51-.4-.7l-2.43-3.91h-.61v5.6h.6v-4.6c.07.14.28.51.4.7l2.44 3.86h.58zm-6.94 0v-5.61h-.64v2.39h-2.76v-2.39h-.62v5.6h.62v-2.68h2.76v2.64h.62zm-7 0v-5.61h-.64v5.6h.62zm-7.49-4a1 1 0 0 1 -1.22 1h-1.46v-2.08h1.53a1 1 0 0 1 1.18 1.04zm.62 0a1.54 1.54 0 0 0 -1.71-1.61h-2.22v5.6h.62v-2.42h1.33l1.21 2.38h.72l-1.23-2.43a1.53 1.53 0 0 0 1.31-1.58zm-9.15-2.51a.44.44 0 1 0 -.43.44.44.44 0 0 0 .43-.44zm1.55 0a.44.44 0 1 0 -.88 0 .44.44 0 1 0 .88 0zm.83 4.18v-3.28h-.65v3.33c0 1.21-.38 1.79-1.35 1.79s-1.43-.6-1.43-1.81v-3.31h-.63v3.33c0 1.55.69 2.36 2 2.36s2.06-.86 2.06-2.41zm-6.53-2.74v-.54h-3.31v5.6h.62v-2.6h1.54v-.61h-1.54v-1.86h2.66z"/><path d="m75.33 21.59-2.69 5.36-2.69-5.36h-2.06v9.68l2.06.01v-5.03l2.69 5.02 2.67-5.01v5.01h2.06l.02-9.68z"/><path d="m53.35 27.84h-2.35v3.43h-2v-9.68h4.55c2 0 3.59 1 3.59 3.07 0 2.24-1.61 3.18-3.76 3.18m.1-4.37h-2.48v2.53h2.43a1.23 1.23 0 0 0 1.57-1.3 1.26 1.26 0 0 0 -1.51-1.24"/><path d="m10.93 21.59v1.9h2.99v7.78h2.09v-7.78h2.99v-1.9z"/><path d="m33.69 31.39c-2.71 0-4.55-1.84-4.55-4.95s1.88-5 4.59-5 4.54 1.84 4.54 4.95-1.89 5-4.58 5m0-8c-1.45 0-2.41 1.08-2.41 3s1 3.07 2.45 3.07 2.41-1.08 2.41-3-1-3.07-2.45-3.07"/><path d="m92.44 24.08c-.2.47-1.16 3.43-1.16 3.43h2.32s-.9-2.7-1.16-3.43m2.43 7.2-.59-1.68h-3.68l-.6 1.68h-2.2l3.2-9.69h2.78l3.24 9.7h-2.16z"/><path d="m114.04 21.57v6.33l-4.27-6.33h-2.08v9.7h2.08v-4.07-2.23l4.27 6.3h2.07v-9.7z"/></svg>