<svg viewBox="0 0 27 32" xmlns="http://www.w3.org/2000/svg"><g fill="#373636"><ellipse cx="13.5" cy="8.06" rx="7.19" ry="7.25"/><path d="m13.5 16.12a8.06 8.06 0 1 1 8-8.06 8 8 0 0 1 -8 8.06zm0-14.51a6.45 6.45 0 1 0 6.39 6.45 6.43 6.43 0 0 0 -6.39-6.45z"/><path d="m13.68 18.57c4.84 0 11.64 3.44 12.52 12.62h-25.4c.88-9.19 7.68-12.62 12.52-12.62z"/><path d="m26.2 32h-25.4a.8.8 0 0 1 -.59-.26.81.81 0 0 1 -.21-.62c.88-9.17 7.52-13.35 13.32-13.35h.36c5.79 0 12.43 4.18 13.32 13.35a.81.81 0 0 1 -.2.62.8.8 0 0 1 -.6.26zm-24.5-1.61h23.6c-1.26-8.68-8.08-11-11.62-11h-.36c-3.54-.01-10.32 2.31-11.62 11z"/></g></svg>