<svg height="40" viewBox="0 0 40 40" width="40" xmlns="http://www.w3.org/2000/svg"><g fill="none" fill-rule="evenodd"><ellipse cx="19.927273" cy="19.927273" fill="#373636" fill-rule="nonzero" rx="19.927273" ry="19.927273"/><g transform="translate(10.909091 9.454545)"><g fill="#fff" fill-rule="nonzero" transform="translate(0 6.545455)"><path d="m.65454546 13.3090909v-11.92727272c0-.21818182.21818181-.43636363.43636363-.43636363h15.85454541c.2181819 0 .4363637.21818181.4363637.43636363v11.92727272c0 .2181818-.2181818.4363636-.4363637.4363636h-15.85454541c-.21818182-.0727272-.43636363-.2181818-.43636363-.4363636z"/><path d="m16.9454545 1.30909091v11.99999999h-15.92727268v-11.99999999zm0-.8h-15.78181814c-.5090909 0-.87272727.36363636-.87272727.87272727v11.85454542c0 .5090909.36363637.8727273.87272727.8727273h15.70909094c.5090909 0 .8727272-.3636364.8727272-.8727273v-11.92727269c0-.43636364-.3636363-.8-.8-.8z"/></g><path d="m13.7454545 9.96363636s.509091-9.89090909-4.9454545-9.89090909c-5.45454545 0-5.01818182 9.81818182-5.01818182 9.81818182" stroke="#fff" stroke-linecap="round" stroke-linejoin="round" stroke-width="1.7"/></g></g></svg>