<svg height="24" viewBox="0 0 24 24" width="24" xmlns="http://www.w3.org/2000/svg"><g fill="#373636" transform="translate(1 1)"><path d="m1.54814815 21.6740741c-.16296296 0-.32592593-.0814815-.48888889-.162963-.24444444-.2444444-.24444444-.7333333 0-.9777778l19.47407404-19.55555552c.2444445-.24444445.7333334-.24444445.9777778 0 .2444445.24444444.2444445.73333333 0 .97777778l-19.47407406 19.55555554c-.16296297.0814815-.32592593.162963-.48888889.162963z"/><path d="m21.0222222 21.6740741c-.1629629 0-.3259259-.0814815-.4888889-.162963l-19.55555552-19.47407406c-.24444445-.24444445-.24444445-.73333334 0-.97777778.24444444-.24444444.73333333-.24444444.97777778 0l19.47407404 19.47407404c.2444445.2444445.2444445.7333334 0 .9777778-.0814815.0814815-.2444444.162963-.4074074.162963z"/></g></svg>