<svg height="40" viewBox="0 0 40 40" width="40" xmlns="http://www.w3.org/2000/svg"><g fill="none" fill-rule="nonzero"><ellipse cx="19.927273" cy="19.927273" fill="#373636" rx="19.927273" ry="19.927273"/><g><g transform="translate(17.925134 24.727273)"><path d="m5.45454545 5.46853147c-2.50267379 0-4.62032085-1.0937063-4.62032085-2.44475525s2.11764706-2.44475524 4.62032085-2.44475524c2.5026738 0 4.62032085 1.09370629 4.62032085 2.44475524s-2.11764705 2.44475525-4.62032085 2.44475525z" fill="#fff"/><path d="m5.45454545.83636364c2.5026738 0 4.29946525 1.09370629 4.29946525 2.12307692s-1.73262033 2.18741259-4.29946525 2.18741259-4.29946524-1.0937063-4.29946524-2.12307693 1.79679145-2.18741258 4.29946524-2.18741258zm0-.64335665c-2.75935828 0-4.94117647 1.22237763-4.94117647 2.76643357s2.18181819 2.76643357 4.94117647 2.76643357c2.75935829 0 4.94117645-1.22237763 4.94117645-2.76643357 0-1.47972028-2.18181816-2.76643357-4.94117645-2.76643357z" fill="#373636"/></g><g transform="translate(16 8)"><path d="m7.18716578 20.1370629c-.12834225 0-.19251337-.0643356-.2566845-.1286713l-5.06951871-7.9776224c-.32085562-.386014-1.02673797-1.6727272-1.09090909-1.8013986-.32085562-.83636361-.51336899-1.67272724-.51336899-2.50909088 0-3.86013986 2.88770054-6.81958042 6.67379679-6.81958042 3.85026742 0 6.86631012 3.02377622 6.86631012 6.81958042 0 .83636364-.1283422 1.60839161-.4491978 2.38041958-.0641711.193007-.7700535 1.4797203-1.0909091 1.9300699l-4.74866311 7.9132867c-.06417112.1286714-.19251337.193007-.32085561.193007zm0-15.76223773c-1.79679145 0-3.20855615 1.47972028-3.20855615 3.21678322s1.47593582 3.21678321 3.20855615 3.21678321c1.73262032 0 3.20855612-1.47972027 3.20855612-3.21678321s-1.41176468-3.21678322-3.20855612-3.21678322z" fill="#fff"/><path d="m6.99465241 1.15804196c3.72192509 0 6.54545459 2.89510489 6.54545459 6.4979021 0 .83636363-.1925134 1.54405594-.4491979 2.31608391 0 0-.7700535 1.41538463-1.0909091 1.80139863l-4.87700535 8.041958-5.06951871-7.9776224c-.32085562-.3860139-1.09090909-1.8013986-1.09090909-1.8013986-.2566845-.70769227-.44919787-1.47972024-.44919787-2.31608388.12834225-3.66713287 2.75935829-6.56223776 6.48128343-6.56223776zm.19251337 10.03636364c1.98930481 0 3.52941172-1.60839161 3.52941172-3.53846154 0-1.9944056-1.60427803-3.53846154-3.52941172-3.53846154s-3.52941177 1.60839161-3.52941177 3.53846154 1.60427808 3.53846154 3.52941177 3.53846154zm-.19251337-10.67972028c-3.97860963 0-6.99465241 3.08811188-6.99465241 7.14125874 0 .9006993.12834225 1.73706293.51336898 2.57342654v.0643357c.12834225.2573427.77005348 1.4153846 1.09090909 1.8657343l5.06951872 7.9776223c.12834225.193007.32085562.3216784.51336899.3216784.19251336 0 .44919786-.1286714.51336898-.3216784l4.81283424-7.9776223c.3850267-.4503497.9625668-1.6727273 1.0909091-1.93007v-.0643356c.3208556-.83636367.513369-1.67272731.513369-2.50909094.0641711-3.98881119-3.0802139-7.14125874-7.12299469-7.14125874zm.19251337 10.03636368c-1.60427808 0-2.88770054-1.28671334-2.88770054-2.89510494 0-1.60839161 1.28342246-2.8951049 2.88770054-2.8951049 1.60427807 0 2.88770052 1.28671329 2.88770052 2.8951049 0 1.6083916-1.28342245 2.89510494-2.88770052 2.89510494z" fill="#373636"/></g></g><g fill="#fff"><path d="m14.1066667 16.5368421h-7.7226667c-.21333333 0-.384-.168421-.384-.3789474 0-.2105263.17066667-.3789473.384-.3789473h7.7226667c.2133333 0 .384.168421.384.3789473 0 .2105264-.1706667.3789474-.384.3789474z"/><path d="m14.1066667 19.2315789h-5.24800003c-.21333334 0-.384-.168421-.384-.3789473s.17066666-.3789474.384-.3789474h5.24800003c.2133333 0 .384.1684211.384.3789474s-.1706667.3789473-.384.3789473z"/><path d="m14.1066667 22.3052632h-2.6453334c-.2133333 0-.384-.1684211-.384-.3789474s.1706667-.3789474.384-.3789474h2.6453334c.2133333 0 .384.1684211.384.3789474s-.1706667.3789474-.384.3789474z"/></g></g></svg>