<svg height="40" viewBox="0 0 40 40" width="40" xmlns="http://www.w3.org/2000/svg"><g fill="none"><ellipse cx="19.927273" cy="19.927273" fill="#373636" rx="19.927273" ry="19.927273"/><g transform="translate(13.818182 25.454546)"><path d="m6.18181818 6.18181818c-2.83636363 0-5.23636363-1.23636363-5.23636363-2.76363636s2.4-2.76363636 5.23636363-2.76363636c2.83636364 0 5.23636362 1.23636363 5.23636362 2.76363636s-2.39999998 2.76363636-5.23636362 2.76363636z" fill="#fff"/><path d="m6.18181818.94545455c2.83636364 0 4.87272732 1.23636363 4.87272732 2.4 0 1.16363636-1.96363641 2.47272727-4.87272732 2.47272727s-4.87272727-1.23636364-4.87272727-2.4c0-1.16363637 2.03636364-2.47272727 4.87272727-2.47272727zm0-.72727273c-3.12727273 0-5.6 1.38181818-5.6 3.12727273 0 1.74545454 2.47272727 3.12727272 5.6 3.12727272s5.60000002-1.38181818 5.60000002-3.12727272c0-1.67272728-2.47272729-3.12727273-5.60000002-3.12727273z" fill="#373636"/></g><g transform="translate(11.636364 6.545455)"><path d="m8.14545455 22.7636364c-.14545455 0-.21818182-.0727273-.2909091-.1454546l-5.74545454-9.0181818c-.36363636-.4363636-1.16363636-1.8909091-1.23636364-2.0363636-.36363636-.9454546-.58181818-1.89090913-.58181818-2.83636367 0-4.36363637 3.27272727-7.70909091 7.56363636-7.70909091 4.36363635 0 7.78181815 3.41818182 7.78181815 7.70909091 0 .94545454-.1454545 1.81818177-.5090909 2.69090907-.0727272.2181818-.8727272 1.6727273-1.2363636 2.1818182l-5.38181819 8.9454545c-.07272727.1454546-.21818182.2181819-.36363636.2181819zm0-17.81818185c-2.03636364 0-3.63636364 1.67272727-3.63636364 3.63636363 0 1.96363632 1.67272727 3.63636362 3.63636364 3.63636362 1.96363635 0 3.63636365-1.6727273 3.63636365-3.63636362 0-1.96363636-1.6-3.63636363-3.63636365-3.63636363z" fill="#fff"/><path d="m7.92727273 1.30909091c4.21818177 0 7.41818177 3.27272727 7.41818177 7.34545454 0 .94545455-.2181818 1.74545455-.5090909 2.61818185 0 0-.8727272 1.6-1.2363636 2.0363636l-5.52727273 9.0909091-5.74545454-9.0181818c-.36363637-.4363637-1.23636364-2.0363637-1.23636364-2.0363637-.29090909-.8-.50909091-1.67272723-.50909091-2.61818177.14545455-4.14545455 3.12727273-7.41818182 7.34545455-7.41818182zm.21818182 11.34545459c2.25454545 0 3.99999995-1.8181819 3.99999995-4.00000005 0-2.25454545-1.8181818-4-3.99999995-4-2.18181819 0-4 1.81818182-4 4 0 2.18181815 1.81818181 4.00000005 4 4.00000005zm-.21818182-12.07272732c-4.50909091 0-7.92727273 3.49090909-7.92727273 8.07272727 0 1.01818182.14545454 1.96363635.58181818 2.90909095v.0727272c.14545455.2909091.87272727 1.6 1.23636364 2.1090909l5.74545454 9.0181819c.14545455.2181818.36363637.3636363.58181819.3636363.21818181 0 .5090909-.1454545.58181818-.3636363l5.45454547-9.0181819c.4363636-.5090909 1.0909091-1.890909 1.2363636-2.1818181v-.0727273c.3636364-.9454546.5818182-1.8909091.5818182-2.83636365.0727273-4.5090909-3.4909091-8.07272727-8.07272727-8.07272727zm.21818182 11.34545452c-1.81818182 0-3.27272728-1.4545454-3.27272728-3.27272725 0-1.81818181 1.45454546-3.27272727 3.27272728-3.27272727 1.81818181 0 3.27272725 1.45454546 3.27272725 3.27272727 0 1.81818185-1.45454544 3.27272725-3.27272725 3.27272725z" fill="#373636"/></g></g></svg>