<svg height="40" viewBox="0 0 40 40" width="40" xmlns="http://www.w3.org/2000/svg"><g fill="#373636"><path d="m22.1090909 29.4545455h-2.1818182c-.4363636 0-.8727272-.3636364-.8727272-.8727273v-9.3090909h-1.309091c-.4363636 0-.8727272-.3636364-.8727272-.8727273s.3636363-.8727273.8727272-.8727273h2.1818182c.4363637 0 .8727273.3636364.8727273.8727273v9.3090909h1.3090909c.4363636 0 .8727273.3636364.8727273.8727273s-.4363637.8727273-.8727273.8727273z"/><ellipse cx="19.636364" cy="12.363636" rx="1.963636" ry="1.963636"/><path d="m19.9272727 1.23636364c10.3272728 0 18.6909091 8.36363636 18.6909091 18.69090906 0 10.3272728-8.4363636 18.6909091-18.6909091 18.6909091-10.3272727 0-18.69090906-8.3636363-18.69090906-18.6909091 0-10.3272727 8.36363636-18.69090906 18.69090906-18.69090906zm0-1.23636364c-10.98181815 0-19.9272727 8.94545455-19.9272727 19.9272727 0 10.9818182 8.94545455 19.9272728 19.9272727 19.9272728 10.9818182 0 19.9272728-8.9454546 19.9272728-19.9272728 0-10.98181815-8.9454546-19.9272727-19.9272728-19.9272727z"/></g></svg>