<svg height="24" viewBox="0 0 37 24" width="37" xmlns="http://www.w3.org/2000/svg"><g fill="#373636"><path d="m35.9966102 24h-35.43220342c-.31355932 0-.56440678-.2526316-.56440678-.5684211v-22.86315785c0-.31578947.25084746-.56842105.56440678-.56842105h35.49491522c.3135594 0 .5644068.25263158.5644068.56842105v22.86315785c-.0627119.3157895-.3135593.5684211-.6271186.5684211zm-34.86779664-1.1368421h34.36610174v-21.72631579h-34.36610174z"/><path d="m.564407 6.631579h35.494915v6.063158h-35.494915z"/><path d="m18.2491525 20.4h-9.28135589c-.31355932 0-.56440678-.2526316-.56440678-.5684211 0-.3157894.25084746-.568421.56440678-.568421h9.28135589c.3135594 0 .5644068.2526316.5644068.568421 0 .3157895-.2508474.5684211-.5644068.5684211z"/><path d="m6.64745763 20.4h-4.01355932c-.31355933 0-.56440678-.2526316-.56440678-.5684211 0-.3157894.25084745-.568421.56440678-.568421h3.95084745c.31355932 0 .56440678.2526316.56440678.568421 0 .3157895-.18813559.5684211-.50169491.5684211z"/></g></svg>