<svg viewBox="0 0 150 150" xmlns="http://www.w3.org/2000/svg"><path d="m148.25 73.49-12.46-19.49a5.85 5.85 0 0 0 -4.91-2.73h-14.16v-2.2a7.52 7.52 0 0 0 -7.56-7.51h-65.22a7.66 7.66 0 0 0 -7.72 7.51v6.22h-35.32a1.72 1.72 0 1 0 0 3.43h35.32v9.67h-23.4a1.72 1.72 0 1 0 0 3.43h23.4v11.55h-10.79a1.72 1.72 0 1 0 0 3.43h10.79v7.2a7.66 7.66 0 0 0 7.72 7.51h5.06a.13.13 0 0 0 0 .06 13.18 13.18 0 0 0 -.29 2.76 13.35 13.35 0 1 0 26.7 0 13.18 13.18 0 0 0 -.29-2.76s0 0 0-.06h27s0 0 0 .06a13.89 13.89 0 0 0 -.28 2.76 13.35 13.35 0 1 0 26-4.38h15.52a5.92 5.92 0 0 0 5.81-6v-17.31a5.84 5.84 0 0 0 -.92-3.15zm-76.68 28a10 10 0 0 1 .39 2.76 9.88 9.88 0 0 1 -19.75 0 10 10 0 0 1 .39-2.76.14.14 0 0 0 0-.06 7.33 7.33 0 0 1 .62-1.58.41.41 0 0 0 0-.08 9.87 9.87 0 0 1 1.14-1.72s0 0 .06 0h-.05l.05-.06a9.88 9.88 0 0 1 15.19 0v.06s0 0 .06 0a10 10 0 0 1 1.14 1.73v.08a7.54 7.54 0 0 1 .62 1.58s.13.06.14.08zm2.31-3.49v-.06a13 13 0 0 0 -1.73-2.49l-.3-.33a13.49 13.49 0 0 0 -2-1.76 13.36 13.36 0 0 0 -15.45 0 13.93 13.93 0 0 0 -2 1.76l-.3.33a13 13 0 0 0 -1.77 2.55.21.21 0 0 0 0 .06h-6.39a4.26 4.26 0 0 1 -4.29-4.06v-8.28a1.74 1.74 0 0 0 0-1.27v-13.71a1.68 1.68 0 0 0 .12-.63 1.61 1.61 0 0 0 -.12-.63v-11.84a1.74 1.74 0 0 0 0-1.27v-7.3a4.26 4.26 0 0 1 4.29-4.07h65.22a4.11 4.11 0 0 1 4.12 4.08v42a11.2 11.2 0 0 0 -1.18.24l-.41.1-.33.09-.32.11a13.46 13.46 0 0 0 -5.2 3.22l-.14.15-.27.28c-.3.34-.58.68-.85 1a3.15 3.15 0 0 0 -.22.29v.08.07a4.26 4.26 0 0 0 -.75 1.23h-29.73zm51.21 6.25a9.88 9.88 0 0 1 -19.75 0 10 10 0 0 1 .39-2.76.14.14 0 0 0 0-.06 7.35 7.35 0 0 1 .61-1.56s0-.07 0-.09q.19-.36.42-.72a10.27 10.27 0 0 1 .72-1s0 0 .06 0c.11-.14.23-.27.35-.41a9.45 9.45 0 0 1 1-.92 2.11 2.11 0 0 1 .31-.21h-.07l.07-.06.14-.1a9.85 9.85 0 0 1 3.8-1.7h.13c.23 0 .46-.08.7-.11h.12c.24 0 .49 0 .74-.06h.32a9.17 9.17 0 0 1 1.49.11 9.71 9.71 0 0 1 4.36 1.71l.14.1.07.06h-.07a10.41 10.41 0 0 1 2.86 3.37s0 .06 0 .06a9.9 9.9 0 0 1 1.09 4.38zm20.64-10.25a2.52 2.52 0 0 1 -2.38 2.52h-17.35a.21.21 0 0 0 0-.06l-.07-.1a13.33 13.33 0 0 0 -9.17-5.36v-36h14.16a2.27 2.27 0 0 1 2 1l12.48 19.44a2.23 2.23 0 0 1 .38 1.23zm-55.31-34.43a11.81 11.81 0 0 1 7.69 3.35 11.4 11.4 0 0 1 0 16.19 10.37 10.37 0 0 1 -14.59.59l-5.1-5a1.19 1.19 0 0 1 0-1.63 1.17 1.17 0 0 1 1.62 0l5.12 5c3.23 2.85 7.71 3.18 11.42-.53a9.07 9.07 0 0 0 0-13 8.36 8.36 0 0 0 -6-2.69 9.5 9.5 0 0 0 -6.65 3.15l-13.63 13.61a13.78 13.78 0 0 1 -8.11 3.86 10.68 10.68 0 0 1 -7.69-3.35 11.42 11.42 0 0 1 0-16.2 10.37 10.37 0 0 1 14.6-.59l5.13 5a1.14 1.14 0 1 1 -1.59 1.67c-1.7-1.65-3.4-3.32-5.12-4.95-3.22-2.84-7.69-3.17-11.39.54a9 9 0 0 0 0 12.93 8.34 8.34 0 0 0 6 2.7 9.59 9.59 0 0 0 6.56-3.22l13.63-13.58a11.84 11.84 0 0 1 8.1-3.85z"/></svg>