<svg height="40" viewBox="0 0 40 40" width="40" xmlns="http://www.w3.org/2000/svg"><g fill="none"><ellipse cx="19.927273" cy="19.927273" fill="#373636" rx="19.927273" ry="19.927273"/><g transform="translate(3 13)"><path d="m30.5066667 12h-10.6666667c-.6826667 0-1.2373333-.5052632-1.2373333-1.1789474v-7.19999997c0-.63157895.5546666-1.17894737 1.2373333-1.17894737h8.064c.4266667 0 .8106667.21052632 1.024.54736842l2.6026667 3.83157895c.128.16842105.2133333.42105263.2133333.63157895v3.41052632c0 .6315789-.5546667 1.1368421-1.2373333 1.1368421z" fill="#fff" stroke="#373636"/><g transform="translate(8.106667)"><path d="m1.23733333 12c-.42666666 0-.81066666-.3368421-.81066666-.8v-10.10526316c0-.42105263.34133333-.8.81066666-.8h14.46399997c.4266667 0 .8106667.33684211.8106667.8v10.10526316c0 .4210526-.3413333.8-.8106667.8z" fill="#fff"/><path d="m15.7013333.71578947c.256 0 .4266667.16842106.4266667.42105264v10.10526319c0 .2526315-.1706667.4210526-.4266667.4210526h-14.46399997c-.256 0-.42666666-.1684211-.42666666-.4210526v-10.10526319c0-.25263158.17066666-.42105264.42666666-.42105264zm0-.71578947h-14.46399997c-.64 0-1.152.50526316-1.152 1.13684211v10.10526319c0 .6315789.512 1.1368421 1.152 1.1368421h14.46399997c.64 0 1.152-.5052632 1.152-1.1368421v-10.10526319c0-.63157895-.512-1.13684211-1.152-1.13684211z" fill="#373636"/></g><g fill="#fff"><path d="m8.10666667 3.53684211h-7.72266667c-.21333333 0-.384-.16842106-.384-.37894737 0-.21052632.17066667-.37894737.384-.37894737h7.72266667c.21333333 0 .384.16842105.384.37894737 0 .21052631-.17066667.37894737-.384.37894737z"/><path d="m8.10666667 6.23157895h-5.248c-.21333334 0-.384-.16842106-.384-.37894737 0-.21052632.17066666-.37894737.384-.37894737h5.248c.21333333 0 .384.16842105.384.37894737 0 .21052631-.17066667.37894737-.384.37894737z"/><path d="m8.10666667 9.30526316h-2.64533334c-.21333333 0-.384-.16842105-.384-.37894737s.17066667-.37894737.384-.37894737h2.64533334c.21333333 0 .384.16842105.384.37894737s-.17066667.37894737-.384.37894737z"/></g><g transform="translate(21.76 10.105263)"><ellipse cx="2.901333" cy="2.821053" fill="#fff" rx="2.432" ry="2.4"/><path d="m2.90133333.8c1.152 0 2.048.92631579 2.048 2.02105263 0 1.13684211-.93866666 2.02105263-2.048 2.02105263-1.10933333 0-2.048-.92631579-2.048-2.02105263-.04266666-1.1368421.896-2.02105263 2.048-2.02105263zm0-.71578947c-1.536 0-2.77333333 1.22105263-2.77333333 2.7368421 0 1.51578948 1.23733333 2.73684211 2.77333333 2.73684211s2.77333334-1.22105263 2.77333334-2.73684211c0-1.51578947-1.23733334-2.7368421-2.77333334-2.7368421z" fill="#373636"/></g><g transform="translate(10.666667 10.105263)"><ellipse cx="2.901333" cy="2.821053" fill="#fff" rx="2.432" ry="2.4"/><path d="m2.90133333.8c1.152 0 2.048.92631579 2.048 2.02105263 0 1.13684211-.93866666 2.02105263-2.048 2.02105263-1.152 0-2.048-.92631579-2.048-2.02105263-.04266666-1.1368421.896-2.02105263 2.048-2.02105263zm0-.71578947c-1.536 0-2.77333333 1.22105263-2.77333333 2.7368421 0 1.51578948 1.23733333 2.73684211 2.77333333 2.73684211s2.77333334-1.22105263 2.77333334-2.73684211c0-1.51578947-1.23733334-2.7368421-2.77333334-2.7368421z" fill="#373636"/></g></g></g></svg>