<svg height="52" viewBox="0 0 34 52" width="34" xmlns="http://www.w3.org/2000/svg"><g fill="none" fill-rule="evenodd"><path d="m17 50.83c-5.68 0-10.48-2.51-10.48-5.49s4.8-5.49 10.48-5.49 10.48 2.51 10.48 5.49-4.8 5.49-10.48 5.49z" fill="#fff"/><path d="m17 40.7c5.68 0 9.63 2.44 9.63 4.64s-3.95 4.66-9.63 4.66-9.63-2.44-9.63-4.64 4-4.64 9.63-4.64zm0-1.7c-6.26 0-11.33 2.84-11.33 6.34s5.07 6.34 11.33 6.34 11.33-2.84 11.33-6.34-5.07-6.34-11.33-6.34z" fill="#373636"/><path d="m17 46c-.2909281.0017856-.5625591-.1453478-.72-.39l-11.57-18.32c-.91554954-1.3613204-1.74709771-2.77729-2.49-4.24-.73356657-1.8181296-1.11368931-3.7594707-1.12-5.72 0-9 6.63-15.73 15.43-15.73 4.2094116-.07000041 8.2695008 1.55890828 11.263303 4.51883974 2.9938023 2.95993146 4.6687997 7.00122466 4.646697 11.21116026-.0049227 1.9017358-.3714327 3.7851896-1.08 5.55-.7498826 1.505589-1.5949276 2.9618721-2.53 4.36l-11.1 18.32c-.1469015.2668876-.4253995.4347494-.73.44zm0-36c-4.0427244 0-7.32 3.2772756-7.32 7.32s3.2772756 7.32 7.32 7.32 7.32-3.2772756 7.32-7.32c.015986-1.9526798-.747843-3.8310217-2.122056-5.2183762-1.3742131-1.3873544-3.2452005-2.16902519-5.197944-2.1716238z" fill="#fff"/><path d="m16.53 2.45c3.9855903-.07561484 7.8327349 1.46191258 10.6683751 4.26366065s4.4193131 6.63012805 4.3916249 10.61633935c.0038659 1.7944544-.3355672 3.5730836-1 5.24-.7252719 1.4408956-1.5367436 2.8367605-2.43 4.18l-11.16 18.37-11.6-18.32c-.88066287-1.3316368-1.68205315-2.7140351-2.4-4.14-.66486807-1.6981675-1.00410884-3.5063208-1-5.33-.05-8.33 6-14.88 14.53-14.88zm.47 23c4.5121664 0 8.17-3.6578336 8.17-8.17s-3.6578336-8.17-8.17-8.17-8.17 3.6578336-8.17 8.17c.01652562 4.5004463 3.6695234 8.1400303 8.17 8.14zm-.47-24.7c-9.28 0-16.28 7.13-16.28 16.58.00420446 2.0339637.39092683 4.0489909 1.14 5.94l.08.18c.75343565 1.4940158 1.59837569 2.940099 2.53 4.33l11.57 18.22c.3125078.4931244.8561928.791396 1.44.79.5873551.0048481 1.1356016-.2938517 1.45-.79l11.07-18.28c.9366958-1.4024433 1.7850093-2.8619432 2.54-4.37l.08-.17c.7479117-1.8599527 1.1348025-3.8453132 1.14-5.85.0220565-4.4353495-1.7425026-8.69280701-4.8956938-11.81213338s-7.4294534-4.83781268-11.8643062-4.76786662zm.47 23c-3.5732823 0-6.47-2.8967177-6.47-6.47s2.8967177-6.47 6.47-6.47 6.47 2.8967177 6.47 6.47c-.0219671 3.5592777-2.9106587 6.434575-6.47 6.44z" fill="#373636"/></g></svg>