<svg viewBox="0 0 32 32" xmlns="http://www.w3.org/2000/svg"><g fill="#373636"><path d="m24.2.83c-5.32 0-8.23 6-8.23 6s-2.8-6-8.12-6-10.85 8.54-3.44 18.5c3.29 4.41 11.59 11.84 11.59 11.84s8.32-7.43 11.61-11.84c7.39-9.96 1.9-18.5-3.41-18.5z"/><path d="m16 32a.8.8 0 0 1 -.53-.21c-.34-.31-8.36-7.54-11.66-12-5.48-7.24-3.73-12.88-2.72-14.97 1.41-2.93 4.06-4.82 6.75-4.82 4.21 0 6.93 3.33 8.16 5.22 1.21-1.89 4-5.22 8.2-5.22 2.68 0 5.31 1.88 6.71 4.79 1 2.09 2.76 7.74-2.7 15-3.3 4.43-11.38 11.66-11.72 12a.79.79 0 0 1 -.49.21zm-8.16-30.35c-2.08 0-4.16 1.53-5.31 3.9-.87 1.81-2.37 6.73 2.52 13.28 2.73 3.66 9 9.53 10.91 11.24 1.88-1.71 8.24-7.59 11-11.24 4.91-6.57 3.41-11.5 2.53-13.31-1.13-2.35-3.2-3.87-5.27-3.87-4.74 0-7.48 5.51-7.51 5.57a.91.91 0 0 1 -.73.46.8.8 0 0 1 -.72-.47c-.05-.06-2.68-5.56-7.42-5.56z"/></g></svg>