<svg viewBox="0 0 100 100" xmlns="http://www.w3.org/2000/svg"><g fill="#373636"><path d="m74.41 34.7v30.6h-48.82v-30.6zm.26-1.7h-49.34a1.43 1.43 0 0 0 -1.43 1.43v31.14a1.43 1.43 0 0 0 1.43 1.43h49.34a1.43 1.43 0 0 0 1.43-1.43v-31.14a1.43 1.43 0 0 0 -1.43-1.43z"/><path d="m74.41 34.7v1.66l-24.41 18.83-24.41-18.83v-1.66zm.26-1.7h-49.34a1.43 1.43 0 0 0 -1.43 1.43v2.06a1.43 1.43 0 0 0 .56 1.13l24.67 19a1.43 1.43 0 0 0 1.75 0l24.67-19a1.43 1.43 0 0 0 .56-1.13v-2.06a1.43 1.43 0 0 0 -1.44-1.43z"/></g></svg>