<svg height="518" viewBox="0 0 587 518" width="587" xmlns="http://www.w3.org/2000/svg" xmlns:xlink="http://www.w3.org/1999/xlink"><filter id="a" height="200%" width="200%" x="-50%" y="-50%"><feOffset dx="0" dy="2" in="SourceAlpha" result="shadowOffsetOuter1"/><feGaussianBlur in="shadowOffsetOuter1" result="shadowBlurOuter1" stdDeviation="2"/><feColorMatrix in="shadowBlurOuter1" result="shadowMatrixOuter1" type="matrix" values="0 0 0 0 0   0 0 0 0 0   0 0 0 0 0  0 0 0 0.5 0"/><feMerge><feMergeNode in="shadowMatrixOuter1"/><feMergeNode in="SourceGraphic"/></feMerge></filter><g fill="none" fill-rule="evenodd" filter="url(#a)" transform="translate(92 58)"><ellipse cx="202" cy="201" fill="#363636" rx="202" ry="201"/><g fill="#fff" transform="translate(86.86 86.43)"><path d="m122.513 121.9065 103.929.1005v-14.874l-103.929.1005.101-103.4145h-14.948l.101 103.4145-103.929-.1005v14.874l103.929-.1005-.101 103.4145h14.948z"/><path d="m.606 125.223v-21.306h103.828v-103.314h21.412v103.314h103.828v21.306h-103.828v103.314h-21.412v-103.314zm6.565-14.7735v8.241h103.828v103.314h8.282v-103.314h103.828v-8.241h-103.828v-103.314h-8.282v103.314z"/></g></g></svg>