<svg height="400" viewBox="0 0 400 400" width="400" xmlns="http://www.w3.org/2000/svg"><g fill="none" fill-rule="evenodd"><circle cx="200" cy="200" fill="#c7c7c7" r="149.596774"/><g fill="#fff" transform="translate(133.870968 133.870968)"><path d="m73.8709677 66.1290323 54.4354843-54.3548388-7.822581-7.8225806-54.3548387 54.4354839-54.3548388-54.4354839-7.8225806 7.8225806 54.4354839 54.3548388-54.4354839 54.3548387 7.8225806 7.822581 54.3548388-54.4354843 54.3548387 54.4354843 7.822581-7.822581z"/><path d="m11.7741935 131.693548-11.20967737-11.209677 54.35483867-54.3548387-54.35483867-54.3548388 11.20967737-11.20967737 54.3548388 54.35483867 54.3548387-54.35483867 11.209677 11.20967737-54.3548383 54.3548388 54.3548383 54.3548387-11.209677 11.209677-54.3548387-54.3548383zm-4.35483866-11.209677 4.35483866 4.354839 54.3548388-54.354839 54.3548387 54.354839 4.354839-4.354839-54.354839-54.3548387 54.354839-54.3548388-4.354839-4.35483866-54.3548387 54.35483866-54.3548388-54.35483866-4.35483866 4.35483866 54.35483866 54.3548388z"/></g></g></svg>