<svg height="402" viewBox="0 0 400 402" width="400" xmlns="http://www.w3.org/2000/svg"><g fill="#363636" fill-rule="evenodd"><path d="m396.3 193.9h-43.8c-3.7-78.5-66.2-142-145.2-145.7v-43.8h-14.6v43.8c-78.5 3.7-142 66.7-145.2 145.7h-43.8v14.6h43.8c3.7 78.5 66.2 141.6 145.2 145.2v43.8h14.6v-43.8c78.5-3.7 142-66.2 145.2-145.2h43.8zm-189 146.6v-58.9h-14.6v59.4c-70.8-4.1-127.9-61.2-131.5-132h58.9v-14.6h-58.9c3.7-71.2 60.7-127.9 131.5-132v59.4h14.6v-59.8c70.8 4.1 127.9 61.2 131.5 132h-58.9v14.6h58.9c-3.2 70.7-60.7 127.8-131.5 131.9z"/><path d="m211 401.2h-22v-43.8c-78.5-5.5-140.2-67.1-145.2-145.2h-43.8v-21.9h43.8c5-77.2 68-140.2 145.2-145.7v-43.8h22v43.8c78.5 5.5 140.2 67.1 145.2 145.7h43.8v21.9h-43.8c-5 78.5-66.7 140.2-145.2 145.2zm-14.7-7.3h7.8v-43.4h3.7c77.6-3.7 138.4-64.4 142-142v-3.7h43.4v-7.8h-43.4v-3.7c-3.7-77.2-64.4-138.4-142-142.5h-3.7v-43.2h-7.8v43.4h-3.7c-76.3 3.2-138.4 65.8-142 142.5v3.7h-43.4v7.8h43.4v3.7c3.7 77.2 64.4 137.9 142 142h3.7zm0-49.3h-3.7c-73.1-4.1-131.1-62.1-134.7-135.2v-3.7h58.9v-7.7h-58.8v-3.7c3.7-73.1 61.6-131.1 134.7-135.2h3.7v59.4h7.8v-59.8h3.7c73.1 4.1 131.1 62.1 134.7 135.2v3.7h-58.9v7.8h58.9v3.7c-3.7 73.1-61.6 131.1-134.7 135.2h-3.7v-58.9h-7.8v59.2zm-131-132c5 66.2 57.5 118.7 123.7 124.2v-58.9h22v58.4c65.3-5.5 118.7-58.9 123.7-124.2h-58.4v-21.9h58.4c-5-65.3-58.4-118.7-123.7-124.2v59.4h-22v-58.9c-66.2 5.5-118.7 58-123.7 124.2h58.9v21.9z"/></g></svg>