<svg viewBox="0 0 410.46 128.37" xmlns="http://www.w3.org/2000/svg"><g fill="#231f20" transform="translate(-110.48 -802.56)"><path d="m139.58 840.12h-21.84v-29.79h20.49c9.54 0 15.89 6.12 15.89 15.19 0 8.53-6.06 14.6-14.54 14.6zm-1.94-36.21h-27v42.62h28.36a23.73 23.73 0 0 0 15.89-5.65 19.56 19.56 0 0 0 6.89-15.19c0-13.18-9.25-21.78-24.14-21.78z"/><path d="m218.27 825.17c0 9.54-7.77 16.13-20 16.13s-20.07-6.54-20.07-16.13c0-9.3 8.18-16.13 20.07-16.13a23.4 23.4 0 0 1 13.6 4 14.44 14.44 0 0 1 6.4 12.13zm7.36 0c0-6.77-2.94-12.48-8.65-16.84-4.71-3.59-11.42-5.77-18.66-5.77a31.32 31.32 0 0 0 -18.72 5.77c-5.77 4.36-8.71 10-8.71 16.84a20.22 20.22 0 0 0 8.6 16.9c4.65 3.53 11.42 5.71 18.84 5.71s14-2.12 18.72-5.65a20.32 20.32 0 0 0 8.58-16.96z"/><path d="m268.43 823.87h-25.49v-13.54h24.84c5.95 0 8.83 2.3 8.83 7 0 4.18-2.88 6.54-8.18 6.54zm15.78 22.66-11.42-16.6c6.36-1.06 11.07-5.06 11.07-12.6 0-8.24-5.42-13.42-14.36-13.42h-33.62v42.62h7.06v-16.24h21.55l11.51 16.25h8.18z"/><path d="m341.67 825.17c0 9.54-7.77 16.13-20 16.13s-20.07-6.54-20.07-16.13c0-9.3 8.18-16.13 20.07-16.13a23.41 23.41 0 0 1 13.6 4 14.44 14.44 0 0 1 6.4 12.13zm7.36 0c0-6.77-2.94-12.48-8.65-16.84-4.71-3.59-11.42-5.77-18.66-5.77a31.32 31.32 0 0 0 -18.72 5.77c-5.77 4.36-8.71 10-8.71 16.84a20.22 20.22 0 0 0 8.6 16.9c4.65 3.53 11.42 5.71 18.84 5.71s14-2.12 18.72-5.65a20.32 20.32 0 0 0 8.55-16.96z"/><path d="m380.54 810.33v36.21h-7.06v-36.21h-20.38v-6.42h47.8v6.42z"/><path d="m451.86 846.54v-18.9h-34.14v18.9h-7.06v-42.63h7.06v17.31h34.14v-17.31h7.06v42.62h-7.06z"/><path d="m497.62 829.7v16.84h-7.06v-16.84l-23.31-25.79h8.75l18.13 19.9 18-19.9h8.77z"/><path d="m143 907.27h-25.46v-13.54h25c5.77 0 8.65 2.3 8.65 7 .02 4.27-2.8 6.54-8.19 6.54zm1.23-20h-33.75v42.62h7.06v-16.21h25.37c10.13 0 15.54-4.65 15.54-13.07 0-8.06-5.45-13.3-14.19-13.3z"/><path d="m177.77 929.93v-42.62h43v6.42h-35.93v10.89h25v6.38h-25v12.48h37.56v6.42h-44.63z"/><path d="m273.46 907.27h-25.46v-13.54h24.84c5.95 0 8.83 2.3 8.83 7-.03 4.18-2.91 6.54-8.21 6.54zm15.78 22.67-11.42-16.6c6.36-1.06 11.07-5.06 11.07-12.6 0-8.24-5.42-13.42-14.37-13.42h-33.61v42.62h7.09v-16.26h21.55l11.54 16.25h8.18z"/><path d="m348.84 929.93-20.49-22.43-12.84 9.5v13h-7.06v-42.69h7.06v22.08l29.85-22.08h10.19l-21.78 16.13 24.13 26.49z"/><path d="m373.53 929.93v-42.62h7.06v42.62z"/><path d="m441.14 929.93-32.61-35v35h-7.06v-42.62h8.77l32.55 35v-35h7.06v42.62z"/><path d="m489.49 892.49c-8.83 0-13.48 2.24-13.48 5.77 0 1.94 1.24 3.24 3.71 4.12 4.65 1.65 11.66 1.12 20.31 2.24 10.6 1.35 15.66 5 15.66 12.13 0 9-8.12 14.19-23.25 14.19-10.83 0-19.19-2.29-25.37-7.18l3.89-5.12a39.88 39.88 0 0 0 21.55 6.12c10.12 0 15.54-2.95 15.54-7.54 0-6.07-7.24-6.07-19.78-6.89-13.13-.88-19.72-2.94-19.72-11.13 0-7.95 7.65-13 21.49-13 9.18 0 16.89 2.12 23.08 6.3l-4.3 4.77a41.52 41.52 0 0 0 -19.33-4.78z"/></g></svg>