<svg height="35" viewBox="0 0 35 35" width="35" xmlns="http://www.w3.org/2000/svg"><g fill="none"><ellipse cx="17.436364" cy="17.436364" fill="#373636" rx="17.436364" ry="17.436364"/><g transform="translate(4.454545 8.909091)"><path d="m13.3 3.69090909h8.5909091c.3181818 0 .5727273.12727273.7636364.38181818l2.8 4.26363637c.0636363.12727272.1272727.31818181.1272727.50909091v3.75454545c0 .5090909-.3818182.8909091-.8909091.8909091h-11.3909091c-.5090909 0-.8909091-.3818182-.8909091-.8909091v-8.01818182c0-.44545454.3818182-.89090909.8909091-.89090909z" fill="#fff" stroke="#373636" stroke-linecap="round" stroke-linejoin="round" stroke-width="1.7"/><path d="m2.29090909 13.8090909c-.63636364 0-1.20909091-.5090909-1.20909091-1.1454545v-10.5636364c0-.63636364.50909091-1.20909091 1.20909091-1.20909091h15.08181821c.6363636 0 1.1454545.50909091 1.1454545 1.20909091v10.5c0 .6363636-.5090909 1.1454545-1.1454545 1.1454545h-15.08181821z" fill="#fff"/><path d="m17.3090909 1.46363636c.3818182 0 .6363636.25454546.6363636.63636364v10.5c0 .3818182-.2545454.6363636-.6363636.6363636h-15.01818181c-.38181818 0-.63636364-.2545454-.63636364-.6363636v-10.5c0-.38181818.25454546-.63636364.63636364-.63636364zm0-1.08181818h-15.01818181c-.95454545 0-1.71818182.76363637-1.71818182 1.71818182v10.5c0 .9545455.76363637 1.7181818 1.71818182 1.7181818h15.08181821c.9545454 0 1.7181818-.7636363 1.7181818-1.7181818v-10.5c-.0636364-.95454545-.8272727-1.71818182-1.7818182-1.71818182z" fill="#373636"/><g transform="translate(14.636364 10.818182)"><ellipse cx="3.754545" cy="3.818182" fill="#fff" rx="2.736364" ry="2.736364"/><path d="m3.75454545 1.65454545c1.20909091 0 2.22727273.95454546 2.22727273 2.22727273 0 1.20909091-.95454545 2.22727273-2.22727273 2.22727273-1.27272727 0-2.22727272-.95454546-2.22727272-2.22727273.06363636-1.27272727 1.01818182-2.22727273 2.22727272-2.22727273zm0-1.08181818c-1.78181818 0-3.3090909 1.46363637-3.3090909 3.30909091 0 1.78181818 1.46363636 3.30909091 3.3090909 3.30909091 1.84545455 0 3.30909091-1.46363636 3.30909091-3.30909091 0-1.84545454-1.46363636-3.30909091-3.30909091-3.30909091z" fill="#373636"/></g><g transform="translate(3.181818 10.818182)"><circle cx="3.372727" cy="3.818182" fill="#fff" r="2.736364"/><path d="m3.37272727 1.65454545c1.20909091 0 2.22727273.95454546 2.22727273 2.22727273 0 1.20909091-.95454545 2.22727273-2.22727273 2.22727273-1.20909091 0-2.22727272-.95454546-2.22727272-2.22727273.06363636-1.27272727 1.01818181-2.22727273 2.22727272-2.22727273zm0-1.08181818c-1.78181818 0-3.30909091 1.46363637-3.30909091 3.30909091 0 1.78181818 1.46363637 3.30909091 3.30909091 3.30909091 1.78181818 0 3.30909091-1.46363636 3.30909091-3.30909091 0-1.84545454-1.46363636-3.30909091-3.30909091-3.30909091z" fill="#373636"/></g></g></g></svg>