<svg height="41" viewBox="0 0 30 41" width="30" xmlns="http://www.w3.org/2000/svg"><g fill="none"><path d="m15.2727273 40.2869565c-.2727273 0-.5454546-.0891304-.6363637-.3565217l-10.54545451-16.3108696c-.72727273-.8913043-2.09090909-3.4760869-2.27272727-3.7434782-.72727273-1.7826087-1-3.3869566-1-5.0804348 0-8.02173916 6-13.99347829 13.99999998-13.99347829 8.0909091 0 14.4545455 6.15 14.4545455 13.99347829 0 1.6934782-.2727273 3.2086956-1 4.9021739-.1818182.3565217-1.5454546 3.0304348-2.2727273 3.9217391l-10.0909091 16.3108696c-.1818182.2673913-.3636364.3565217-.6363636.3565217zm0-32.0869565c-3.6363637 0-6.63636366 2.9413043-6.63636366 6.5065217s2.99999996 6.5065218 6.63636366 6.5065218c3.6363636 0 6.6363636-2.9413044 6.6363636-6.5065218s-3-6.5065217-6.6363636-6.5065217z" fill="#fff"/><path d="m14.8181818 1.51521739c7.7272727 0 13.7272727 5.8826087 13.7272727 13.28043481 0 1.6934782-.3636363 3.2086956-.9090909 4.6347826 0 0-1.5454545 2.9413043-2.1818181 3.7434782l-10.1818182 16.4-10.54545457-16.4c-.63636364-.8021739-2.18181818-3.6543478-2.18181818-3.6543478-.63636364-1.5152174-.90909091-3.0304348-.90909091-4.723913-.09090909-7.39782611 5.45454545-13.28043481 13.18181816-13.28043481zm.4545455 20.50000001c4.0909091 0 7.4545454-3.2978261 7.4545454-7.3086957 0-4.0108695-3.3636363-7.30869561-7.4545454-7.30869561s-7.45454548 3.29782611-7.45454548 7.30869561c0 4.0108696 3.27272728 7.3086957 7.45454548 7.3086957zm-.4545455-22.0152174c-8.45454544 0-14.8181818 6.32826087-14.8181818 14.7956522 0 1.7826087.36363636 3.5652174 1 5.2586956 0 .0891305 0 .0891305.09090909.1782609.27272727.5347826 1.54545455 2.9413043 2.36363636 3.8326087l10.54545455 16.2217391c.2727273.4456522.8181818.7130435 1.2727273.7130435.5454545 0 1-.2673913 1.2727272-.7130435l10.0909091-16.2217391c.7272728-.9804348 2.0909091-3.3869565 2.2727273-3.9217391 0-.0891305.0909091-.0891305.0909091-.1782609.7272727-1.7826087 1-3.476087 1-5.2586957 0-8.19999996-6.6363636-14.7065217-15.1818182-14.7065217zm.4545455 20.5c-3.2727273 0-5.90909094-2.5847826-5.90909094-5.7934783 0-3.2086956 2.63636364-5.79347822 5.90909094-5.79347822 3.2727272 0 5.9090909 2.58478262 5.9090909 5.79347822-.0909091 3.2086957-2.7272727 5.7934783-5.9090909 5.7934783z" fill="#373636"/></g></svg>