<svg height="35" viewBox="0 0 35 35" width="35" xmlns="http://www.w3.org/2000/svg"><g fill="none"><ellipse cx="17.436364" cy="17.436364" fill="#373636" rx="17.436364" ry="17.436364"/><g fill="#fff" transform="translate(7.636364 12.727273)"><path d="m16.2272727 7.57272727.8272728-3.18181818h-1.5909091l-.8272728 3.18181818zm-2.1636363 0 .8272727-3.18181818h-10.62727274l2.86363637 3.18181818zm2.3545454-7.06363636-.8272727 3.18181818h1.5909091l.8272727-3.18181818zm-16.16363635 0 2.73636364 3.18181818h12.02727271l.8272727-3.18181818zm14.19090905 7.76363636-.8272727 3.18181823h1.5909091l.8272727-3.18181823zm-6.0454545 0 2.8636364 3.18181823h1.7818181l.8272728-3.18181823z"/><path d="m7.12727273 7.57272727-2.86363637-3.18181818v.7l2.67272728 2.48181818zm-6.87272728-7.06363636v.82727273l2.54545455 2.35454545h.19090909zm8.14545455 8.4 2.6727273 2.48181819h.1909091l-2.8636364-3.18181819z"/></g></g></svg>