<svg height="535pt" preserveAspectRatio="xMidYMid meet" viewBox="0 0 535 535" width="535pt" xmlns="http://www.w3.org/2000/svg"><g transform="matrix(.1 0 0 -.1 0 535)"><path d="m0 2675v-2675h2675 2675v2675 2675h-2675-2675zm1456 724c152-57 218-213 150-354-34-67-88-109-180-137-124-38-265-12-352 65-60 52-83 104-84 183 0 106 63 197 166 238 96 39 204 40 300 5zm1444 4c187-63 250-274 124-413-19-20-62-50-96-66-56-26-74-29-163-29-93 0-105 2-167 33-77 38-121 85-144 155-74 222 186 408 446 320zm-2165-21c65-30 93-56 121-117 30-63 32-152 5-210-23-51-98-118-148-133-22-6-120-12-233-12l-195-2-3 252-2 251 202-3c187-3 207-5 253-26zm1505 6c107-54 108-216 2-270-19-9-36-18-38-21-3-3 22-44 55-93 34-48 61-90 61-93s-21-6-46-6h-47l-69 98-70 97h-124-124v-95-95h-45-45v250 250h223c211 0 225-1 267-22zm1460-18v-40h-120-120v-210-210h-40-40v210 209l-122 3-122 3 1 33c1 17 2 34 2 37 1 3 127 5 281 5h280zm200-60v-100h200 200v100 100h45 45v-249-249l-41-4c-22-2-42-2-45 1-2 2-4 53-4 113v108h-200-200v-110-110h-45-45v243c0 134 3 247 7 250 3 4 24 7 45 7h38zm790-12c56-62 105-114 109-115 3-2 53 49 109 112l104 115h49c27 0 49-3 49-6s-61-72-135-154l-135-148v-95-95l-40-4-40-4v99 98l-135 148c-74 82-135 151-135 155 0 3 22 6 49 6h49zm181-872c68-15 149-50 149-64 0-5-11-19-25-32-24-22-26-23-62-7-64 27-115 37-193 37-92 0-143-21-148-62-5-42 36-57 187-68 184-14 247-41 271-116 23-69-21-144-105-180-99-42-325-25-422 32-36 21-42 28-34 43 23 43 38 45 99 18 153-69 360-48 370 37 7 58-25 72-193 86-162 13-209 25-240 62-29 34-33 93-11 136 39 75 202 111 357 78zm-4107-22c101-52 103-217 4-271-27-15-64-18-220-21l-188-4v-94-94h-45-45v248c0 137 3 252 7 256s107 6 228 4c199-3 224-5 259-24zm814-16 3-38-213-2-213-3v-60-60l148-3 147-3v-39-40h-150-150v-70-70h225 225v-40-40h-265-265v255 255l253-2 252-3zm687 31c91-25 140-123 106-212-11-27-60-77-76-77-5 0-17-4-25-10-12-7-3-25 48-99 34-49 62-92 62-95s-21-6-47-6l-48 1-65 94-65 94-127 1h-128v-95-95h-45-45v255 255h208c118 0 224-5 247-11zm433-121 3-127 174 129 174 130h55c31 0 56-3 55-7 0-5-56-48-124-98l-124-90 23-25c13-14 76-83 141-155l118-130-53-3-52-3-72 78c-39 43-94 102-122 132l-52 55-70-53-71-52-3-77-3-77-42-3-43-3v256 256l43-3 42-3zm762-123v-255h-40-40v255 255h40 40zm539 50 191-204 2 202 3 202 43 3 42 3v-255-256h-53-53l-190 205-189 205-3-205-2-205h-40-40v255 255h49 48z"/><path d="m1245 3341c-99-26-155-81-163-161-6-67 2-94 44-140 88-97 313-90 386 12 23 33 35 117 24 162-9 38-51 82-101 105-50 24-143 34-190 22z"/><path d="m2715 3344c-131-33-197-111-180-213 9-56 38-96 92-128 43-25 57-28 138-28 74 0 98 4 132 22 141 76 134 259-13 324-42 19-135 31-169 23z"/><path d="m360 3155v-177l153 4c181 4 216 16 255 89 43 79 18 179-56 229-33 24-45 25-194 28l-158 3z"/><path d="m1840 3251v-79l173 5c199 6 217 12 217 71 0 75-20 82-224 82h-166z"/><path d="m360 2271v-81h166c203 0 224 7 224 81 0 24-7 42-21 55-19 17-41 19-195 22l-174 3z"/><path d="m1900 2270v-81l174 3c199 3 216 10 216 78s-17 75-216 78l-174 4z"/></g></svg>