<svg viewBox="0 0 72 20" xmlns="http://www.w3.org/2000/svg"><g fill="none" fill-rule="evenodd"><path d="m69.55 2.12v15.76h-67.1v-15.76zm0-1.7h-67.1c-.45086803 0-.88326968.17910663-1.20208153.49791847-.31881184.31881185-.49791847.7512135-.49791847 1.20208153v15.76c0 .9388841.76111593 1.7 1.7 1.7h67.1c.9388841 0 1.7-.7611159 1.7-1.7v-15.76c0-.45086803-.1791066-.88326968-.4979185-1.20208153-.3188118-.31881184-.7512135-.49791847-1.2020815-.49791847z" fill="#373636"/><g stroke="#373636" stroke-width="1.7"><path d="m8.44 2.12v5.56"/><path d="m63.56 2.12v5.56"/><path d="m55.69 2.12v5.56"/><path d="m47.81 2.12v5.56"/><path d="m39.94 2.12v5.56"/><path d="m32.06 2.12v5.56"/><path d="m24.19 2.12v5.56"/><path d="m16.31 2.12v5.56"/></g></g></svg>