<svg height="17" viewBox="0 0 12 17" width="12" xmlns="http://www.w3.org/2000/svg"><g fill="#363636" fill-rule="evenodd" stroke="#363636" transform="translate(1 1)"><path d="m7.0552764.0056391h-4.06532665c-.13567839 0-.24623116.12406015-.24623116.27631579v1.2406015h-2.46733668c-.13567839 0-.24623116.12406015-.24623116.27631579v1.52255639c0 .15225564.11055277.27631579.24623116.27631579h.44723618l.66331658 11.14849624c.01005026.1409775.11557789.2537594.24120604.2537594h6.77386936c.13065326 0 .23618086-.1127819.241206-.2537594l.6633166-11.14849624h.4472362c.1356784 0 .24623113-.12406015.24623113-.27631579v-1.52255639c0-.15225564-.11055273-.27631579-.24623113-.27631579h-2.46733674v-1.2462406c.0150754-.15225564-.09547733-.27067669-.23115573-.27067669zm-3.81909549.54699248h3.57788942v.96992481h-3.57788942zm4.94974876 13.89473682h-6.32160806l-.64321608-10.85526314h7.6080402zm1.3366834-12.37781952v.9755639h-8.99497488v-.9755639h2.46733668 4.06532666z"/><path d="m6.75376887 13.4774436h.0100502c.13065326 0 .24120606-.118421.24120606-.2650375l.24623114-8.36278204c.00502513-.15225564-.10050247-.27631579-.23618087-.28195489-.1356784-.00563909-.2462312.11278196-.25125633.2650376l-.241206 8.36278203c-.00502513.1466165.10050251.2763157.2311558.2819548z"/><path d="m3.28643216 13.4774436h.01005025c.1356784-.0056391.24120603-.1296992.2361809-.2819548l-.24623115-8.36278203c-.00502513-.15225564-.12060301-.27067669-.25125628-.2650376-.13567839.0056391-.24120603.12969925-.23618091.28195489l.24623116 8.36278204c0 .1466165.11055276.2650375.24120603.2650375z"/></g></svg>