<svg height="268" viewBox="0 0 200 268" width="200" xmlns="http://www.w3.org/2000/svg"><g fill="#363636" fill-rule="evenodd" stroke="#363636" transform="translate(0 1)"><path d="m140.4.1h-80.9c-2.7 0-4.9 2.2-4.9 4.9v22h-49.1c-2.7 0-4.9 2.2-4.9 4.9v27c0 2.7 2.2 4.9 4.9 4.9h8.9l13.2 197.7c.2 2.5 2.3 4.5 4.8 4.5h134.8c2.6 0 4.7-2 4.8-4.5l13.2-197.7h8.9c2.7 0 4.9-2.2 4.9-4.9v-27c0-2.7-2.2-4.9-4.9-4.9h-49.1v-22.1c.3-2.7-1.9-4.8-4.6-4.8zm-76 9.7h71.2v17.2h-71.2zm98.5 246.4h-125.8l-12.8-192.5h151.4zm26.6-219.5v17.3h-179v-17.3h49.1 80.9z"/><path d="m100 239c2.7 0 4.9-2.2 4.9-4.9v-148.3c0-2.7-2.2-4.9-4.9-4.9s-4.9 2.2-4.9 4.9v148.3c0 2.7 2.2 4.9 4.9 4.9z"/><path d="m134.4 239h.2c2.6 0 4.8-2.1 4.8-4.7l4.9-148.3c.1-2.7-2-4.9-4.7-5s-4.9 2-5 4.7l-4.8 148.3c-.1 2.6 2 4.9 4.6 5z"/><path d="m65.4 239h.2c2.7-.1 4.8-2.3 4.7-5l-4.9-148.3c-.1-2.7-2.4-4.8-5-4.7-2.7.1-4.8 2.3-4.7 5l4.9 148.3c0 2.6 2.2 4.7 4.8 4.7z"/></g></svg>