<svg viewBox="0 0 127 41" xmlns="http://www.w3.org/2000/svg"><path d="m20.64 10.53v1.86h1.54v.61h-1.54v2.61h-.64v-5.61h3.29v.57z"/><path d="m27.83 15.65c-1.33 0-2-.81-2-2.36v-3.29h.62v3.31c0 1.21.46 1.81 1.43 1.81s1.35-.58 1.35-1.79v-3.33h.62v3.31c-.02 1.52-.68 2.34-2.02 2.34zm-.78-6.11a.45.45 0 0 1 -.45-.44.44.44 0 1 1 .88 0 .44.44 0 0 1 -.43.44zm1.54 0a.44.44 0 0 1 -.44-.44.44.44 0 1 1 .88 0 .44.44 0 0 1 -.44.44z"/><path d="m35.35 13.13 1.23 2.43h-.72l-1.2-2.38h-1.33v2.38h-.62v-5.56h2.21a1.54 1.54 0 0 1 1.74 1.58 1.53 1.53 0 0 1 -1.31 1.55zm-.45-2.6h-1.57v2.09h1.49c.83 0 1.22-.34 1.22-1s-.4-1.09-1.14-1.09z"/><path d="m44.45 15.65a2.66 2.66 0 0 1 -1.88-.78l.42-.46a2.13 2.13 0 0 0 1.49.67c.74 0 1.21-.37 1.21-1s-.31-.82-1.33-1.18c-1.21-.43-1.62-.82-1.62-1.63s.7-1.43 1.75-1.43a2.5 2.5 0 0 1 1.7.6l-.4.49a2 2 0 0 0 -1.34-.52c-.77 0-1.09.38-1.09.82s.21.73 1.33 1.13 1.62.86 1.62 1.7-.69 1.59-1.86 1.59z"/><path d="m49.08 15.56v-5.56h.62v5.6z"/><path d="m52.66 15.56v-5.56h3.34v.57h-2.72v1.76h1.6v.57h-1.6v2.1h2.88v.57z"/><path d="m63.9 15.65a2.66 2.66 0 0 1 -1.9-.77l.42-.46a2.12 2.12 0 0 0 1.49.67c.74 0 1.21-.37 1.21-1s-.31-.82-1.33-1.18c-1.21-.43-1.62-.82-1.62-1.63s.7-1.43 1.75-1.43a2.51 2.51 0 0 1 1.7.6l-.4.49a2 2 0 0 0 -1.34-.52c-.77 0-1.09.38-1.09.82s.21.76 1.34 1.16 1.62.86 1.62 1.7-.69 1.55-1.85 1.55z"/><path d="m71.9 15.56v-2.64h-2.79v2.64h-.62v-5.56h.62v2.39h2.79v-2.39h.62v5.6z"/><path d="m77.5 15.65c-1.39 0-2.31-1.19-2.31-2.88s.94-2.89 2.33-2.89 2.32 1.19 2.32 2.88-.94 2.89-2.34 2.89zm0-5.21c-1 0-1.68.9-1.68 2.31s.74 2.33 1.71 2.33 1.69-.9 1.69-2.31-.75-2.32-1.72-2.32z"/><path d="m84.5 13.36h-1.36v2.2h-.62v-5.56h2.09a1.59 1.59 0 0 1 1.78 1.67 1.69 1.69 0 0 1 -1.89 1.69zm.09-2.83h-1.45v2.27h1.36c.86 0 1.26-.39 1.26-1.13a1 1 0 0 0 -1.18-1.14z"/><path d="m90.88 13.36h-1.36v2.2h-.62v-5.56h2.1a1.59 1.59 0 0 1 1.78 1.67 1.69 1.69 0 0 1 -1.9 1.69zm.12-2.83h-1.48v2.27h1.37c.86 0 1.26-.39 1.26-1.13a1 1 0 0 0 -1.15-1.14z"/><path d="m95.28 15.56v-5.56h3.38v.57h-2.75v1.76h1.6v.57h-1.6v2.1h2.88v.57z"/><path d="m104.87 15.56-2.45-3.83c-.12-.19-.33-.56-.4-.7v4.53h-.6v-5.56h.58l2.42 3.9c.12.19.33.56.4.7v-4.6h.6v5.6z"/><path d="m1.2 21.71v1.9h2.98v7.73h2.07v-7.73h2.98v-1.9z"/><path d="m23.86 31.49c-2.71 0-4.56-1.84-4.56-5s1.88-5 4.59-5 4.55 1.84 4.55 5-1.88 5-4.58 5m0-8c-1.45 0-2.42 1.09-2.42 3s1 3.07 2.46 3.07 2.42-1.09 2.42-3-1-3.07-2.46-3.07"/><path d="m44 27.92h-2.25v3.41h-2.08v-9.62h4.53c2 0 3.57 1 3.57 3.05 0 2.23-1.6 3.16-3.75 3.16m.1-4.35h-2.37v2.48h2.42c1 0 1.48-.41 1.48-1.25s-.59-1.22-1.51-1.22"/><path d="m62.27 31.49a5 5 0 0 1 -4-1.75l1.5-1.24a3.48 3.48 0 0 0 2.65 1.1c1.23 0 1.81-.32 1.81-1s-.36-.89-2.31-1.31-3.25-1-3.25-2.87c0-1.75 1.66-2.82 3.7-2.82a5.14 5.14 0 0 1 3.78 1.51l-1.5 1.35a3.28 3.28 0 0 0 -2.36-1c-1.11 0-1.48.44-1.48.87 0 .6.44.8 2.09 1.16s3.47.88 3.47 3c0 1.83-1.24 3.07-4.08 3.07"/><path d="m84.01 31.34v-4.05h-4.25v4.05h-2.08v-9.63h2.08v3.68h4.25v-3.68h2.07v9.63z"/><path d="m101.88 31.49c-2.71 0-4.56-1.84-4.56-5s1.88-5 4.59-5 4.55 1.84 4.55 5-1.88 5-4.58 5m0-8c-1.45 0-2.42 1.09-2.42 3s1 3.07 2.46 3.07 2.42-1.09 2.42-3-1-3.07-2.46-3.07"/><path d="m122.05 27.92h-2.28v3.41h-2.07v-9.62h4.53c2 0 3.57 1 3.57 3.05 0 2.23-1.6 3.16-3.75 3.16m.1-4.35h-2.39v2.48h2.42c1 0 1.48-.41 1.48-1.25s-.59-1.22-1.51-1.22"/></svg>