<svg viewBox="0 0 127 41" xmlns="http://www.w3.org/2000/svg"><path d="m1.15 21.71v1.9h2.97v7.73h2.08v-7.73h2.98v-1.9z"/><path d="m23.8 31.49c-2.71 0-4.56-1.84-4.56-5s1.88-5 4.59-5 4.55 1.84 4.55 5-1.88 5-4.58 5m0-8c-1.45 0-2.42 1.09-2.42 3s1 3.07 2.46 3.07 2.42-1.09 2.42-3-1-3.07-2.46-3.07"/><path d="m44 27.92h-2.31v3.41h-2.07v-9.62h4.53c2 0 3.57 1 3.57 3.05 0 2.23-1.6 3.16-3.75 3.16m.1-4.35h-2.38v2.48h2.42c1 0 1.48-.41 1.48-1.25s-.59-1.22-1.51-1.22"/><path d="m62.22 31.49a5 5 0 0 1 -4-1.75l1.5-1.24a3.48 3.48 0 0 0 2.65 1.1c1.23 0 1.81-.32 1.81-1s-.36-.89-2.31-1.31-3.25-1-3.25-2.87c0-1.75 1.66-2.82 3.7-2.82a5.14 5.14 0 0 1 3.78 1.51l-1.5 1.35a3.28 3.28 0 0 0 -2.36-1c-1.11 0-1.48.44-1.48.87 0 .6.44.8 2.09 1.16s3.47.88 3.47 3c0 1.83-1.24 3.07-4.08 3.07"/><path d="m83.95 31.34v-4.05h-4.25v4.05h-2.07v-9.63h2.07v3.68h4.25v-3.68h2.08v9.63z"/><path d="m101.83 31.49c-2.71 0-4.56-1.84-4.56-5s1.88-5 4.59-5 4.55 1.84 4.55 5-1.88 5-4.58 5m0-8c-1.45 0-2.42 1.09-2.42 3s1 3.07 2.46 3.07 2.42-1.09 2.42-3-1-3.07-2.46-3.07"/><path d="m122 27.92h-2.28v3.41h-2.07v-9.62h4.53c2 0 3.57 1 3.57 3.05 0 2.23-1.6 3.16-3.75 3.16m.1-4.35h-2.39v2.48h2.42c1 0 1.48-.41 1.48-1.25s-.59-1.22-1.51-1.22"/><path d="m21.29 15.57a2.8 2.8 0 0 1 -2-.81l.44-.49a2.23 2.23 0 0 0 1.56.7c.78 0 1.27-.39 1.27-1s-.33-.86-1.4-1.24c-1.27-.45-1.69-.86-1.69-1.71s.74-1.5 1.84-1.5a2.63 2.63 0 0 1 1.79.63l-.42.51a2 2 0 0 0 -1.41-.55c-.81 0-1.14.4-1.14.86s.22.76 1.39 1.18 1.7.91 1.7 1.78-.71 1.64-1.93 1.64z"/><path d="m29.42 15.48v-2.77h-2.91v2.77h-.65v-5.87h.65v2.51h2.92v-2.51h.65v5.87z"/><path d="m35.05 15.57c-1.46 0-2.42-1.25-2.42-3s1-3 2.44-3 2.43 1.25 2.43 3-.99 3-2.45 3zm0-5.46c-1 0-1.76.95-1.76 2.42s.77 2.47 1.79 2.47 1.77-.95 1.77-2.42-.78-2.47-1.85-2.47z"/><path d="m42.14 13.17h-1.43v2.31h-.65v-5.87h2.2a1.67 1.67 0 0 1 1.87 1.75 1.77 1.77 0 0 1 -1.99 1.81zm.09-3h-1.52v2.37h1.43c.9 0 1.33-.41 1.33-1.19a1.1 1.1 0 0 0 -1.24-1.15z"/><path d="m50.59 10.2v1.95h1.61v.6h-1.61v2.73h-.65v-5.87h3.45v.6z"/><path d="m57.73 15.57c-1.46 0-2.42-1.25-2.42-3s1-3 2.44-3 2.43 1.25 2.43 3-.99 3-2.45 3zm0-5.46c-1 0-1.76.95-1.76 2.42s.77 2.47 1.79 2.47 1.77-.95 1.77-2.42-.78-2.47-1.81-2.47z"/><path d="m65.5 12.93 1.29 2.55h-.79l-1.22-2.48h-1.39v2.5h-.65v-5.89h2.32a1.61 1.61 0 0 1 1.83 1.66 1.6 1.6 0 0 1 -1.39 1.66zm-.5-2.73h-1.61v2.19h1.56c.87 0 1.28-.36 1.28-1.1s-.42-1.09-1.23-1.09z"/><path d="m76.46 15.48v-2.77h-2.92v2.77h-.65v-5.87h.65v2.51h2.92v-2.51h.65v5.87z"/><path d="m79.92 15.48v-5.87h3.55v.6h-2.9v1.79h1.68v.6h-1.68v2.24h3v.6z"/><path d="m88.87 12.93 1.29 2.55h-.75l-1.26-2.48h-1.39v2.5h-.66v-5.89h2.32a1.61 1.61 0 0 1 1.83 1.66 1.6 1.6 0 0 1 -1.38 1.66zm-.47-2.73h-1.64v2.19h1.56c.87 0 1.28-.36 1.28-1.1s-.42-1.09-1.2-1.09z"/><path d="m100 15.48-.46-1.48h-2.43l-.51 1.49h-.67l2-5.87h.72l2 5.87zm-1.35-4c-.13-.39-.3-.91-.36-1.16-.06.23-.23.76-.37 1.17l-.65 1.91h2z"/><path d="m104.59 10.2v5.27h-.65v-5.27h-1.73v-.6h4.11v.6z"/></svg>