<svg viewBox="0 0 127 41" xmlns="http://www.w3.org/2000/svg"><path d="m38.75 13.36h-1.36v2.2h-.62v-5.56h2.1a1.59 1.59 0 0 1 1.78 1.67 1.69 1.69 0 0 1 -1.9 1.69zm.09-2.83h-1.45v2.27h1.37c.86 0 1.26-.39 1.26-1.13a1 1 0 0 0 -1.18-1.14z"/><path d="m45.23 15.65c-1.39 0-2.31-1.19-2.31-2.88s.94-2.89 2.33-2.89 2.32 1.19 2.32 2.88-.95 2.89-2.34 2.89zm0-5.21c-1 0-1.68.9-1.68 2.31s.74 2.33 1.71 2.33 1.69-.9 1.69-2.31-.76-2.32-1.73-2.32z"/><path d="m52.22 15.65c-1.33 0-2-.81-2-2.36v-3.29h.62v3.31c0 1.21.46 1.81 1.43 1.81s1.35-.58 1.35-1.79v-3.33h.62v3.31c-.02 1.52-.68 2.34-2.02 2.34z"/><path d="m59.74 13.13 1.26 2.43h-.72l-1.28-2.38h-1.28v2.38h-.62v-5.56h2.21a1.54 1.54 0 0 1 1.74 1.58 1.53 1.53 0 0 1 -1.31 1.55zm-.45-2.6h-1.57v2.09h1.49c.83 0 1.22-.34 1.22-1s-.43-1.09-1.14-1.09z"/><path d="m67.26 15.56v-5.56h3.38v.57h-2.76v1.76h1.6v.57h-1.6v2.1h2.88v.57z"/><path d="m73.39 15.56v-5.56h.61v5h2.77v.57z"/><path d="m79.43 15.56v-5.56h.62v5h2.77v.57z"/><path d="m85.47 15.56v-5.56h3.38v.57h-2.75v1.76h1.6v.57h-1.6v2.1h2.9v.57z"/><path d="m1.2 21.71v1.9h2.98v7.73h2.07v-7.73h2.98v-1.9z"/><path d="m23.86 31.49c-2.71 0-4.56-1.84-4.56-5s1.88-5 4.59-5 4.55 1.84 4.55 5-1.88 5-4.58 5m0-8c-1.45 0-2.42 1.09-2.42 3s1 3.07 2.46 3.07 2.42-1.09 2.42-3-1-3.07-2.46-3.07"/><path d="m44 27.92h-2.25v3.41h-2.08v-9.62h4.53c2 0 3.57 1 3.57 3.05 0 2.23-1.6 3.16-3.75 3.16m.1-4.35h-2.37v2.48h2.42c1 0 1.48-.41 1.48-1.25s-.59-1.22-1.51-1.22"/><path d="m62.27 31.49a5 5 0 0 1 -4-1.75l1.5-1.24a3.48 3.48 0 0 0 2.65 1.1c1.23 0 1.81-.32 1.81-1s-.36-.89-2.31-1.31-3.25-1-3.25-2.87c0-1.75 1.66-2.82 3.7-2.82a5.14 5.14 0 0 1 3.78 1.51l-1.5 1.35a3.28 3.28 0 0 0 -2.36-1c-1.11 0-1.48.44-1.48.87 0 .6.44.8 2.09 1.16s3.47.88 3.47 3c0 1.83-1.24 3.07-4.08 3.07"/><path d="m84.01 31.34v-4.05h-4.25v4.05h-2.08v-9.63h2.08v3.68h4.25v-3.68h2.07v9.63z"/><path d="m101.88 31.49c-2.71 0-4.56-1.84-4.56-5s1.88-5 4.59-5 4.55 1.84 4.55 5-1.88 5-4.58 5m0-8c-1.45 0-2.42 1.09-2.42 3s1 3.07 2.46 3.07 2.42-1.09 2.42-3-1-3.07-2.46-3.07"/><path d="m122.05 27.92h-2.28v3.41h-2.07v-9.62h4.53c2 0 3.57 1 3.57 3.05 0 2.23-1.6 3.16-3.75 3.16m.1-4.35h-2.39v2.48h2.42c1 0 1.48-.41 1.48-1.25s-.59-1.22-1.51-1.22"/></svg>