<svg height="18" viewBox="0 0 18 18" width="18" xmlns="http://www.w3.org/2000/svg"><g fill="none" fill-rule="evenodd" transform="translate(-41 1)"><path d="m55 8h-1.1139241v1.07317073h-.6075949v-1.07317073h-1.113924v-.58536585h1.113924v-1.07317074h.6075949v1.07317074h1.1139241zm-5.6708861 4c-1.6202531 0-2.3291139-.8780488-2.3291139-1.6585366 0-.2926829.1012658-.87804877.9113924-1.36585364.5063291-.29268293 1.0126582-.48780488 1.8227848-.48780488-.1012658-.09756098-.2025316-.29268293-.2025316-.58536586 0-.09756097 0-.19512195.1012658-.29268292h-.2025317c-1.113924 0-1.8227848-.87804878-1.8227848-1.65853659 0-.97560975.7088608-1.95121951 2.329114-1.95121951h2.4303797l-.3037975.19512195-.4050633.3902439-.1012658.09756098h-.4050633c.2025317.19512195.5063291.58536585.5063291 1.17073171 0 .7804878-.4050632 1.1707317-.9113924 1.46341463-.1012658.09756098-.2025316.19512195-.2025316.3902439s.1012658.29268293.2025316.29268293c.1012659.09756098.2025317.09756098.3037975.19512195.5063291.29268293 1.1139241.68292683 1.1139241 1.56097561 0 1.07317074-.8101266 2.24390244-2.8354431 2.24390244zm.8101266-3.02439024h-.2025316c-.2025317 0-.7088608.09756097-1.0126583.19512195-.4050633.09756097-.9113924.3902439-.9113924.97560979 0 .5853658.607595 1.1707317 1.721519 1.1707317.9113924 0 1.4177215-.5853659 1.4177215-1.0731708.1012659-.39024386-.2025316-.68292679-1.0126582-1.26829264zm.4050633-2.73170732c0-.58536585-.3037975-1.65853659-1.2151899-1.65853659-.3037974 0-.7088607.19512195-.7088607.97560976 0 .68292683.3037974 1.56097561 1.113924 1.56097561 0 0 .8101266 0 .8101266-.87804878z" fill="#000" fill-rule="nonzero"/><circle cx="50" cy="8" r="8" stroke="#000" stroke-width=".2838"/></g></svg>