<svg height="18" viewBox="0 0 18 18" width="18" xmlns="http://www.w3.org/2000/svg"><g fill="none" fill-rule="evenodd"><circle cx="9" cy="9" r="8" stroke="#000" stroke-width=".2838"/><g fill="#000" fill-rule="nonzero" transform="translate(5 5)"><path d="m4.3 8.6c-.6 0-1.1 0-1.7 0-.5 0-.9-.1-1.4-.4s-.9-.8-1-1.4c-.1-.4-.1-.8-.1-1.1 0-.8 0-1.6 0-2.4 0-.4 0-.9.2-1.3.3-.8.8-1.3 1.6-1.4.4-.1.8-.1 1.1-.1h2.4c.4 0 .9 0 1.3.2.8.3 1.3.8 1.4 1.7.1.4.1.8.1 1.1v2.4c0 .4 0 .9-.2 1.3-.3.8-.8 1.3-1.6 1.4-.4.1-.8.1-1.1.1-.2-.1-.6-.1-1-.1zm3.4-4.2c0-.3 0-.6 0-1 0-.3 0-.6-.1-.9-.1-.7-.5-1.2-1.2-1.3-.4-.1-.7-.1-1.1-.1-.7 0-1.4 0-2 0-.4 0-.7 0-1.1.1-.6.1-1 .4-1.2 1v.6 2.2c0 .5 0 .9.1 1.4.1.7.5 1.2 1.2 1.3.4.1.7.1 1.1.1h2c.3 0 .6 0 .9-.1.3 0 .6-.1.8-.3.4-.3.5-.7.6-1.2 0-.5 0-1.2 0-1.8z"/><path d="m4.3 6.6c-1.2 0-2.1-.9-2.1-2.1s.9-2.1 2.1-2.1 2.1.9 2.1 2.1c0 1.1-.9 2.1-2.1 2.1zm0-.8c.7 0 1.4-.6 1.4-1.4 0-.7-.6-1.4-1.4-1.4s-1.4.6-1.4 1.4c.1.8.7 1.4 1.4 1.4z"/><path d="m6.5 1.8c.3 0 .5.2.5.5s-.2.5-.5.5-.5-.2-.5-.5.3-.5.5-.5z"/></g></g></svg>