<svg enable-background="new 0 0 24 24" viewBox="0 0 24 24" xmlns="http://www.w3.org/2000/svg"><path d="m12 2.2c3.2 0 3.6 0 4.9.1 3.3.1 4.8 1.7 4.9 4.9.1 1.3.1 1.6.1 4.8s0 3.6-.1 4.8c-.1 3.2-1.7 4.8-4.9 4.9-1.3.1-1.6.1-4.9.1-3.2 0-3.6 0-4.8-.1-3.3-.1-4.8-1.7-4.9-4.9-.1-1.3-.1-1.6-.1-4.8s0-3.6.1-4.8c.1-3.2 1.7-4.8 4.9-4.9 1.2-.1 1.6-.1 4.8-.1zm0-2.2c-3.3 0-3.7 0-4.9.1-4.4.2-6.8 2.6-7 7-.1 1.2-.1 1.6-.1 4.9s0 3.7.1 4.9c.2 4.4 2.6 6.8 7 7 1.2.1 1.6.1 4.9.1s3.7 0 4.9-.1c4.4-.2 6.8-2.6 7-7 .1-1.2.1-1.6.1-4.9s0-3.7-.1-4.9c-.2-4.4-2.6-6.8-7-7-1.2-.1-1.6-.1-4.9-.1zm0 5.8c-3.4 0-6.2 2.8-6.2 6.2s2.8 6.2 6.2 6.2 6.2-2.8 6.2-6.2-2.8-6.2-6.2-6.2zm0 10.2c-2.2 0-4-1.8-4-4s1.8-4 4-4 4 1.8 4 4-1.8 4-4 4zm6.4-11.8c-.8 0-1.4.6-1.4 1.4s.6 1.4 1.4 1.4 1.4-.6 1.4-1.4-.6-1.4-1.4-1.4z" fill="#363636"/></svg>