<svg height="18" viewBox="0 0 18 18" width="18" xmlns="http://www.w3.org/2000/svg" xmlns:xlink="http://www.w3.org/1999/xlink"><mask id="a" fill="#fff"><path d="m4.3 6.8c-.5 0-.9-.2-1.2-.5l-.6 1.8-.1.1c-.1.2-.3.3-.5.3-.3 0-.6-.3-.6-.6v-.1l.1-.1 1-3.2s-.1-.3-.1-.9c0-1 .5-1.2 1-1.2.4 0 .8.2.8.7 0 .7-.5 1.1-.5 1.7 0 .4.3.7.7.7 1.3 0 1.8-1 1.8-1.9 0-1.2-1.1-2.3-2.4-2.3s-2.4 1-2.4 2.3c0 .4.1.7.3 1.1.1.1.1.2.1.3 0 .3-.2.6-.6.6-.2 0-.4-.1-.5-.3-.3-.5-.5-1.1-.5-1.7 0-1.9 1.6-3.4 3.5-3.4s3.5 1.5 3.5 3.4c.1 1.7-.8 3.2-2.8 3.2z" fill="#fff" fill-rule="evenodd"/></mask><g fill="none" fill-rule="evenodd"><g fill="#000" fill-rule="nonzero" transform="translate(5 5)"><path d="m4.3 6.8c-.5 0-.9-.2-1.2-.5l-.6 1.8-.1.1c-.1.2-.3.3-.5.3-.3 0-.6-.3-.6-.6v-.1l.1-.1 1-3.2s-.1-.3-.1-.9c0-1 .5-1.2 1-1.2.4 0 .8.2.8.7 0 .7-.5 1.1-.5 1.7 0 .4.3.7.7.7 1.3 0 1.8-1 1.8-1.9 0-1.2-1.1-2.3-2.4-2.3s-2.4 1-2.4 2.3c0 .4.1.7.3 1.1.1.1.1.2.1.3 0 .3-.2.6-.6.6-.2 0-.4-.1-.5-.3-.3-.5-.5-1.1-.5-1.7 0-1.9 1.6-3.4 3.5-3.4s3.5 1.5 3.5 3.4c.1 1.7-.8 3.2-2.8 3.2z"/><path d="m-2-1.2h11.3v11.3h-11.3z" mask="url(#a)"/></g><circle cx="9" cy="9" r="8" stroke="#000" stroke-width=".2838"/></g></svg>