<svg height="18" viewBox="0 0 18 18" width="18" xmlns="http://www.w3.org/2000/svg"><g fill="none" fill-rule="evenodd" transform="translate(1 -30)"><path d="m11.4216867 38.5337635c-.2891566.1920962-.4819277.2881443-.6746987.2881443-.4819278.1920962-.6746988.5762885-.2891567.9604809.4819277.5762886 1.060241 1.1525772 1.5421687 1.6328177-.6746988 0-1.060241.960481-2.02409639.7683848-.19277108 0-.57831325.1920962-.77108433.3841924-.77108434.5762885-1.44578314.5762885-2.21686747 0-.48192771-.3841924-.86746988-.4802405-1.44578314-.3841924-.09638554 0-.28915662 0-.28915662 0-.28915663-.6723367-.96385542-.4802405-1.25301205-.6723367.48192771-.4802405 1.06024096-.8644329 1.54216867-1.4407215.48192772-.6723367.38554217-.8644328-.38554216-1.2486252-.19277109-.0960481-.28915663-.1920962-.48192771-.2881443.09638554-.0960481.09638554-.0960481.09638554-.0960481.96385542.0960481.96385542.0960481.96385542-1.1525772 0-1.0565291.48192771-1.7288657 1.34939759-2.1130581.96385542-.3841924 2.02409638-.0960481 2.69879518.5762885.48192767.5762886.48192767 1.1525772.48192767 1.8249139-.0963855.8644329-.0963855.8644329.7710844.7683848.0963855.0960481.1927711.0960481.3855421.1920962z" fill="#000" fill-rule="nonzero"/><circle cx="8" cy="39" r="8" stroke="#000" stroke-width=".2838"/></g></svg>