<svg height="18" viewBox="0 0 18 18" width="18" xmlns="http://www.w3.org/2000/svg"><g fill="none" fill-rule="evenodd" transform="translate(1 1)"><path d="m10.3287671 6.42645967c-.0958904 2.63339495-1.63013696 4.45651453-4.02739724 4.55779893-.95890411.1012844-1.63013698-.3038532-2.30136986-.7089909.76712329.1012844 1.7260274-.1012844 2.20547945-.60770655-.76712329 0-1.15068493-.40513768-1.34246575-1.01284421.19178082.10128442.38356164 0 .57534246 0-.67123287-.30385326-1.15068493-.70899095-1.15068493-1.62055074.19178082.10128442.38356165.20256884.57534247.20256884-.47945206-.30385326-.76712329-1.31669747-.38356165-2.02568842.67123288.81027537 1.53424658 1.4179819 2.87671233 1.62055074-.38356164-1.62055074 1.63013699-2.43082611 2.49315069-1.31669748.38356163-.10128442.67123283-.20256884.95890413-.30385326-.0958904.40513768-.2876713.60770653-.5753425.81027537.2876712-.10128442.5753425-.10128442.7671233-.20256884-.0958904.20256884-.3835616.40513768-.6712329.60770652z" fill="#000" fill-rule="nonzero"/><circle cx="8" cy="8" r="8" stroke="#000" stroke-width=".2838"/></g></svg>