<svg height="407" viewBox="0 0 407 407" width="407" xmlns="http://www.w3.org/2000/svg"><g fill="none" fill-rule="evenodd"><path d="m203.2 397.2c-106.9 0-193.9-87-193.9-193.9s87-193.9 193.9-193.9 193.9 87 193.9 193.9-86.9 193.9-193.9 193.9" fill="#fff"/><g fill="#222"><path d="m203.2 397.2c-106.9 0-193.9-87-193.9-193.9s87-193.9 193.9-193.9 193.9 87 193.9 193.9-86.9 193.9-193.9 193.9zm0 9.3c112.2 0 203.2-91 203.2-203.2s-91-203.2-203.2-203.2-203.2 91-203.2 203.2 91 203.2 203.2 203.2z"/><path d="m102.6 234.9h27.3l73.9-75.1 73.9 75.1h27.3l-101.2-102.8z"/></g></g></svg>