<svg height="30" viewBox="0 0 39 30" width="39" xmlns="http://www.w3.org/2000/svg"><path d="m37.5 15.4c-.8-6.7-3.8-10.2-3.8-10.2h-6.8v-1.9h-23.5v21.2h2.7v.6c0 2.6 2.1 4.7 4.7 4.7s4.7-2.1 4.7-4.7v-.6h9.9v.6c0 2.6 2.1 4.7 4.7 4.7s4.7-2.1 4.7-4.7v-.6h2.7zm-26.7 13.2c-2 0-3.6-1.6-3.6-3.6s1.6-3.6 3.6-3.6 3.6 1.6 3.6 3.6-1.6 3.6-3.6 3.6zm19.3 0c-2 0-3.6-1.6-3.6-3.6s1.6-3.6 3.6-3.6 3.6 1.6 3.6 3.6-1.6 3.6-3.6 3.6zm5.5-13.2h-8.7v-8.7h6.4s2.5 3.5 2.6 7.9c.1.2.1.8-.3.8z"/><circle cx="8.7" cy="8.6" fill="#fff" r="7.6"/><path d="m8.7 1v-.6c-4.5 0-8.1 3.6-8.1 8.1s3.6 8.1 8.1 8.1 8.1-3.6 8.1-8.1-3.6-8.1-8.1-8.1v1.2c1.9 0 3.7.8 4.9 2.1 1.3 1.3 2.1 3 2.1 4.9s-.8 3.7-2.1 4.9c-1.3 1.3-3 2.1-4.9 2.1s-3.7-.8-4.9-2.1c-1.3-1.3-2.1-3-2.1-4.9s.8-3.7 2.1-4.9c1.3-1.3 3-2.1 4.9-2.1z"/><path d="m6.4 12.2 2.9-2.9v-6.2h-1.1v5.8l-2.6 2.5z" fill="#1d1d1b"/></svg>