<svg height="20" viewBox="0 0 15 20" width="15" xmlns="http://www.w3.org/2000/svg"><path d="m7.5 10.2396299c-1.30819016 0-2.36823775-1.0941676-2.36823775-2.44346128 0-1.34974286 1.06004759-2.44391044 2.36823775-2.44391044s2.36823775 1.09416758 2.36823775 2.44391044c0 1.34929368-1.06004759 2.44346128-2.36823775 2.44346128m0-10.2396299c-4.14223938 0-7.5 3.37862421-7.5 7.65198644 0 .06153569.00740074.09522312.00870676.09522312h-.00870676c0 1.22173063.18893662 1.90805578.50237985 2.69993484.23987114.6459003.56071511 1.3057246.95034246 1.8550543.54460762.834999 1.19326097 1.6731421 1.86150453 2.5225144 2.00864871 2.553956 4.1862085 5.1752869 4.1862085 5.1752869s2.17668911-2.5997709 4.18490246-5.1532778c.6691143-.8502706 1.3173323-1.656523 1.8628106-2.491522.389192-.5484313.7096006-1.2630539.9494718-1.9080558.3130078-.79232822.5023798-1.47820421.5023798-2.69993484h-.0087068c.0013061 0 .0087068-.00494082.0087068-.06647652 0-4.2738114-3.3577606-7.68073304-7.5-7.68073304" fill-rule="evenodd"/></svg>