<svg enable-background="new 0 0 595.3 841.9" viewBox="0 0 595.3 841.9" xmlns="http://www.w3.org/2000/svg"><g fill="#232323"><path d="m295 169.2v10.8c66.6 0 126.8 27 170.4 70.6s70.6 103.8 70.6 170.4-27 126.8-70.6 170.4c-43.6 43.7-103.8 70.6-170.4 70.6s-126.8-27-170.4-70.6c-43.7-43.6-70.6-103.8-70.6-170.4s27-126.8 70.6-170.4c43.6-43.7 103.8-70.6 170.4-70.6v-10.8-10.7c-145 0-262.5 117.5-262.5 262.5s117.5 262.5 262.5 262.5 262.5-117.5 262.5-262.5-117.5-262.5-262.5-262.5z"/><path d="m291.6 565.4-22.9-94.8-97.6 2 225.4-167.8z"/></g></svg>