<svg xmlns="http://www.w3.org/2000/svg" xmlns:xlink="http://www.w3.org/1999/xlink" width="24" height="24"><defs><path id="a" d="M13.798 5.063v5.062H0V0h13.798z"/></defs><g fill="none" fill-rule="evenodd" transform="translate(1 1)"><circle cx="11" cy="11" r="11" fill="#232323" fill-rule="nonzero" stroke="#FFF"/><g transform="translate(4.4 6.16)"><mask id="b" fill="#fff"><use xlink:href="#a"/></mask><path fill="#FFF" fill-rule="nonzero" d="M12.446 4.152H9.74V1.298h1.88s.874 1.303.874 2.805l-.048.05zm-1.242 5.175c-.615 0-1.114-.48-1.114-1.069s.5-1.068 1.114-1.068c.614 0 1.113.48 1.113 1.068 0 .59-.5 1.07-1.113 1.07zm-8.193 0c-.614 0-1.114-.479-1.114-1.068 0-.59.5-1.069 1.114-1.069.615 0 1.114.48 1.114 1.069 0 .59-.5 1.068-1.114 1.068zM11.905.52H9.74V0H0v8.045h1.055c-.006 0-.02.156-.02.22 0 1.046.886 1.86 1.976 1.86 1.09 0 1.879-.812 1.879-1.858a1.31 1.31 0 0 0-.02-.222h4.378c-.007 0-.02.156-.02.22 0 1.045.886 1.86 1.976 1.86 1.089 0 1.975-.82 1.975-1.865 0-.064-.013-.152-.02-.215h.64V4.152h-.485C12.987 1.557 11.904.52 11.904.52z" mask="url(#b)"/></g></g></svg>