<svg height="545" viewBox="0 0 379 545" width="379" xmlns="http://www.w3.org/2000/svg"><path d="m189.5 544.7c0 .1.215507.3.215507.3s28.881621-41.15357 64.051587-96.557187c54.747557-86.2444 124.732906-207.019222 124.732906-260.842813 0-130.1-95.685291-186.7-189-186.9-93.3147092.2-189 56.8-189 186.9 0 53.013874 67.934234 170.979713 122.321776 256.927354 36.303034 57.369021 66.57047 100.472646 66.57047 100.472646zm-59.3-364.5c0-33.6 27.2-60.8 60.8-60.8s60.8 27.2 60.8 60.8-27.3 60.8-60.9 60.8c-33.5 0-60.7-27.2-60.7-60.8z" fill-rule="evenodd"/></svg>