<svg height="20" viewBox="0 0 20 20" width="20" xmlns="http://www.w3.org/2000/svg"><g fill="none" fill-rule="evenodd"><circle cx="10" cy="10" fill="#232323" r="9" stroke="#fff"/><g fill="#fff" transform="translate(3.891892 6.766296)"><path d="m9.67148282 4.26405723.49558918-1.92412158h-.95632346l-.49558922 1.92412158z"/><path d="m8.36360425 4.26405723.49516588-1.92412158h-6.44407094l1.73921899 1.92412158z"/><path d="m9.81279348.00004177-.49601256 1.92412157h.95660568l.4968593-1.92412157z"/><path d="m0 .00004177 1.66414682 1.92412157h7.29963968l.49530699-1.92412157z"/><path d="m8.60614945 4.67995483-.49474254 1.92412158h.95604127l.49615367-1.92412158z"/><path d="m4.93452764 4.67995483 1.72736548 1.92412158h1.09616658l.49685924-1.92412158z"/><path d="m4.15396051 4.26405723-1.73921899-1.92412158v.40776732l1.62378847 1.51635426z"/><path d="m0 .00004177v.48684271l1.53954395 1.43727886h.12728402z"/><path d="m4.93452764 5.09330476 1.61828506 1.51078557h.10908042l-1.72736548-1.92412157z"/></g></g></svg>