<svg height="1024pt" preserveAspectRatio="xMidYMid meet" viewBox="0 0 1024 1024" width="1024pt" xmlns="http://www.w3.org/2000/svg"><g transform="matrix(.1 0 0 -.1 0 1024)"><path d="m1947 5970c-314-68-564-308-660-635-17-57-21-97-21-220 0-134 3-159 27-238 117-381 450-627 847-627 428 0 780 289 866 710 21 104 15 270-15 378-122 454-581 731-1044 632zm368-175c131-33 277-127 361-233 174-218 205-513 80-760-122-241-385-394-651-379-256 15-480 166-589 398-51 106-66 177-66 299 0 129 16 196 74 315 143 291 474 441 791 360z"/><path d="m4750 5974c-229-62-359-248-331-474 12-89 47-155 122-224 62-58 64-59 435-236 102-49 165-105 193-169 33-79 37-129 13-208-28-91-89-160-180-205-59-30-76-33-152-33-74 0-92 4-140 29-30 15-72 44-93 65-41 38-90 125-102 179-3 17-9 32-12 32s-43-10-89-22c-97-25-96-25-59-123 79-211 263-335 495-335 253 0 453 151 514 387 22 85 20 197-4 274-44 141-139 220-405 340-204 92-277 137-320 198-26 37-30 51-30 109 0 77 18 122 70 174 60 59 119 83 210 83 116 0 187-39 266-145l26-35 72 48 71 47-16 32c-25 47-121 139-180 170-105 57-257 73-374 42z"/><path d="m7881 5975c-98-22-159-44-239-86-223-118-373-307-444-556-32-112-31-313 1-432 80-299 312-535 611-621 114-33 305-38 433-11 310 65 571 310 659 616 33 116 33 345 0 459-23 79-84 213-124 270-40 58-163 178-222 218-194 133-460 189-675 143zm375-189c227-73 394-246 466-485 32-104 29-271-6-379-76-232-231-391-460-469-70-24-97-27-201-28-98 0-134 4-195 23-239 75-425 272-484 513-33 137-16 312 44 446 94 208 299 366 525 404 84 14 223 2 311-25z"/><path d="m152 5878 3-83 203-3 202-2v-761-760l93 3 92 3 3 758 2 757h205 205v85 85h-505-506z"/><path d="m3282 5118 3-843h90 90l3 366 2 366 144 7c221 10 327 46 424 143 167 166 173 475 13 655-46 52-105 89-189 121-51 18-83 21-320 25l-262 4zm433 662c190-28 273-123 263-305-5-101-34-165-96-212-64-49-129-65-279-70l-133-5v301 301h88c48 0 118-5 157-10z"/><path d="m5662 5118 3-843h90 90l3 413 2 412h435 435l2-412 3-413 88-3 87-3v846 845h-90-90v-340-340h-435-435v340 340h-95-95z"/><path d="m9192 5118 3-843h90 90l3 366 2 366 144 7c220 10 327 46 422 140 201 201 163 594-72 731-108 63-136 68-422 73l-262 4zm433 662c191-28 274-126 263-311-6-96-36-160-96-206-64-49-129-65-279-70l-133-5v301 301h88c48 0 118-5 157-10z"/></g></svg>