<svg height="518" viewBox="0 0 570 518" width="570" xmlns="http://www.w3.org/2000/svg"><path d="m569.1 187.6c0-50.6-18.4-96.9-49-130.9-30.4-34-73.6-55.9-121.7-55.7-44.1 0-83.9 18.4-113.7 47.4-29.8-29.3-69.9-47.4-113.7-47.4-47.9 0-91.3 21.9-121.7 55.7-30.4 34-49 80.3-49 130.9 0 35.4 9 68.7 24.8 97.1 28.6 66 86.8 121.5 139.2 162.7 26.4 20.6 51.5 37.4 71.2 49.2 9.8 6 18.1 10.5 25.1 14.1 3.4 1.8 6.5 3.1 9.6 4.5l5.1 1.8c2 .4 4 1.3 9.4 1.3 5.6-.2 7.6-.9 9.8-1.6 3.8-1.1 6.5-2.2 9.8-3.8 12.1-5.6 30.7-15.9 53.7-30.7 34.2-22.2 77.2-54.2 115.5-92.9 38-38.7 71.8-84.1 85-136.3l.2-.4.4-2.7c6.4-19.3 10-40.4 10-62.3zm-110.4 133.6c-32.9 40.3-77.7 76.8-115.3 102.5-18.8 13-35.6 23.3-48.1 30-4 2.2-7.6 4.3-10.5 5.6-1.3-.7-2.7-1.3-4.3-2.2-21.7-11.9-64.7-39.2-105.6-74.5-41.2-35.4-80.6-79.2-98-121.5l-.7-1.6-.9-1.6c-11.4-20.1-18.1-44.3-18.1-70.5 0-36.7 13.4-69.6 34.5-92.9s48.8-36.9 79.4-36.9c36 0 68.7 19.2 90.2 50.8l23.5 34.9 23.5-34.9c21.5-31.6 54.2-50.8 90.2-50.8 30.4 0 58.4 13.7 79.4 36.9s34.5 56.2 34.5 92.9c0 16.3-2.7 32-7.4 46.3l-.4 1.6-.9 4.5c-6.9 26.6-23.2 54.8-45 81.4z" fill="#232323" fill-rule="evenodd" transform="translate(0 -1)"/></svg>