<svg enable-background="new 0 0 531 85" viewBox="0 0 531 85" xmlns="http://www.w3.org/2000/svg"><g fill="#ed1c24"><path d="m335.8 11.3v29.2h-35v-29.2h-5.8v64.9h5.8v-30.1h35v30.1h5.8v-64.9z"/><path d="m259.1 39.7c-14.2-3.3-15.4-7.8-15.4-12.9 0-5.2 3.7-10.8 14-10.8 7.1 0 11.4 2.1 15.6 5.2l.8.6 3.8-4.5-1-.7c-4.4-3.1-9.8-6-19-6-12.2 0-20.1 6.4-20.1 16.4 0 9.6 5.5 14.8 19 18 14.4 3.3 16 10.1 16 14.9 0 10.6-9.3 12.1-14.9 12.1-6.4 0-11.9-2.1-17.3-6.5l-.8-.6-3.9 4.2.9.7c5.9 4.9 13.1 7.6 21 7.6 13.1 0 20.9-6.6 20.9-17.7.1-10.5-6.2-16.9-19.6-20"/><path d="m34.6 10.2v5.7h25.5v60.5h5.9v-60.5h25.5v-5.7z"/><path d="m473.1 45.9h-15.4v-29h16.6c10.9 0 16.3 4.7 16.3 14.3-.1 9.9-5.8 14.7-17.5 14.7m1.4-34.3h-22.6v64.9h5.8v-25.2h15.4c14.8 0 23.3-7.4 23.3-20.3 0-12.5-7.8-19.4-21.9-19.4"/><path d="m203 46h-15.4v-29h16.6c10.9 0 16.2 4.7 16.2 14.3-.1 9.9-5.7 14.7-17.4 14.7m1.3-34.3h-22.6v64.9h5.8v-25.2h15.5c14.8 0 23.3-7.4 23.3-20.3 0-12.5-7.8-19.4-22-19.4"/><g stroke="#ed1c24" stroke-miterlimit="10"><path d="m409.6 78.6c0-.2-.1-.3-.1-.4-.1-.5-.1-.9-.2-1.4 0-.8-.5-1.6-.4-2.5 0 0 0-.1-.1-.1 0-.3-.1-.6-.1-.9 0-.2.1-.5 0-.6-.2-.2-.2-.3-.2-.5s-.1-.4-.1-.5c0-.2 0-.5 0-.7 0-.1 0-.2 0-.2-.3-.2-.1-.4-.1-.7 0-.2.2-.5-.1-.7 0 0 0-.1 0-.2 0-.4-.1-.8-.1-1.2 0-.3 0-.7 0-1 0-.1 0-.2 0-.2-.2-.1-.2-.3-.1-.5 0-.3.1-.5 0-.8-.2-.7-.2-1.4-.2-2.1 0-.2 0-.5 0-.7-.1-.5-.2-1-.2-1.6 0-.3 0-.7-.1-1 0-.2-.1-.3-.1-.5 0-.4.2-.8.1-1.2-.1-.3 0-.6-.1-.9 0-.1 0-.3 0-.4s0-.2 0-.3.1-.2.1-.3c0-.2.1-.3.3-.3.1 0 .1 0 .2-.1.3-.2.7 0 .9.2.1.2.3.4.5.5 1 .4 2.1.8 3.2 1.1.6.2 1.2.4 1.8.6.2.1.5.1.7.2.4.1.7.2 1.1.3.1 0 .2.1.3.2.3.1.7.1 1 .2.9.3 1.8.5 2.6.8.4.1.8.4 1.3.4.3 0 .7.2 1 .3.1 0 .1 0 .2.1.3.2.7.4 1 .4.6.1 1 .4 1.5.5.8.2 1.6.5 2.3.8.6.2 1.3.5 1.9.7.5.2 1.1.3 1.5.7.3.2.8.2 1.1.3 0 0 0 0 .1-.1-.1-.1-.2-.3-.3-.4-.4-.4-.6-.9-1-1.2-.1 0-.1-.2-.2-.2-.1-.4-.6-.6-.8-1-.2-.3-.5-.5-.7-.7-.3-.3-.6-.7-.9-1.1-.1-.2-.3-.3-.4-.4-.2-.4-.5-.5-.8-.7-.1-.1-.3-.2-.3-.4-.2-.4-.6-.7-.8-1.1 0 0 0 0-.1-.1-.2-.2-.4-.4-.6-.7-.3-.3-.5-.5-.8-.8-.1-.1-.2-.2-.3-.3-.2-.2-.4-.5-.7-.8-.2-.2-.4-.5-.7-.7-.2-.2-.2-.4-.5-.6-.3-.1-.5-.4-.8-.6-.1-.1-.2-.3-.4-.5 0 0 0 0-.1 0 0-.1-.1-.2-.1-.3-.3 0-.3 0-.4-.3-.1-.1-.2-.1-.3-.2-.4-.3-.8-.6-1.1-1-.1-.1-.3-.2-.4-.3-.2-.2-.3-.4-.6-.5-.2-.1-.4-.2-.5-.4-.4-.4-.5-.9-1-1.2-.1-.1-.2-.2-.2-.3-.1-.1-.3-.2-.4-.3-.2-.2-.5-.5-.7-.7-.2-.1-.4-.2-.5-.4s-.3-.3-.5-.3c-.1 0-.3-.1-.4-.2-.2-.4-.6-.6-1-.8-.2-.1-.4-.2-.5-.3-.1-.3-.3-.4-.5-.5 0-.2 0-.3 0-.4-.1-.3-.1-.5-.2-.8 0-.1.1-.2.2-.2.2-.1.4-.1.6-.2.4-.2.9-.4 1.3-.6s.8-.4 1.2-.6c.8-.4 1.6-.8 2.4-1.2.8-.5 1.6-1.1 2.4-1.6.4-.3.8-.6 1.2-.9.6-.4 1.1-.9 1.7-1.3.3-.2.6-.5.9-.7s.6-.5.9-.7c.6-.5 1.1-1 1.6-1.5.6-.5 1.3-.9 1.9-1.5.5-.4 1-.7 1.5-1 .1 0 .1-.1.2-.2-.2 0-.3-.1-.4 0-.2 0-.3.1-.5.1-.1 0-.3.1-.4.1s-.2.1-.3.1c-.4.1-.9.1-1.3.2-.3 0-.6.1-.8.1-.3 0-.7-.1-1-.1-.7 0-1.4.1-2.1.2-.2 0-.3 0-.5 0-.3 0-.6 0-.8 0-.3 0-.6.1-.9.1-.2 0-.5 0-.7 0-.1 0-.2 0-.2 0-.2.2-.3.2-.6.1-.1 0-.2 0-.3 0-.3 0-.6.1-.9.1-.2 0-.4 0-.6.1-.1 0-.3 0-.4-.1-.1 0-.2 0-.3 0-.5 0-.9.2-1.4.1-.3 0-.7.1-1.1.1s-.7 0-1.1 0c-.3 0-.7-.1-.8 0-.3.3-.5 0-.8.1-.7 0-1.4 0-2.1 0h-.1c-.2 0-.4.2-.5.1-.4-.1-.8 0-1.2 0s-.8.4-1.3.3c-.1 0-.3 0-.4 0-.2 0-.3 0-.5 0-.1 0-.3.1-.4.1-.3 0-.6 0-.9 0-.7.1-1.5.2-2.2.4-.4.1-.7.1-1.1 0-.3-.1-.3-.2-.3-.4 0-.1 0-.2 0-.2-.3-.1-.6-.3-.9-.4-.1-.2-.3-.4 0-.7v-.1c0-.5 0-1-.1-1.5 0-.3-.1-.5-.1-.8v-.1c-.1-.2-.1-.4-.2-.7s-.1-.7-.1-1c-.1-.6-.2-1.2-.3-1.8-.1-.4-.1-.8-.1-1.2-.1-.8-.2-1.5-.2-2.3 0-.4 0-.7-.1-1.1-.1-.5-.1-.9-.2-1.4 0-.3 0-.6-.1-.9-.1-.4-.2-.8-.3-1.2 0-.1 0-.2-.1-.4-.1-.4-.2-.8-.3-1.2-.1-.5 0-1-.1-1.4 0-.2 0-.4-.1-.6-.2-.4-.3-.9-.4-1.3 0-.4.1-.8-.1-1.1-.3-.6-.2-1.3-.3-1.9-.1-.3-.2-.7-.3-1 0 0-.2-.1-.2-.1-.1.2-.3.4-.4.6h.1c-.3.2-.3.2-.2.5 0 .1 0 .2-.1.3-.3.2-.5.6-.4 1v.3c-.1.5-.3 1-.4 1.5 0 .1-.1.2-.2.3 0 .1-.1.1-.1.2 0 .3 0 .5-.1.8 0 .2-.1.4-.2.6-.2.2-.3.6-.4.8v.1c.2.1.1.3 0 .4-.1.3-.3.5-.4.8-.1.1-.1.3-.1.4 0 .3.1.6-.2.9 0 0 0 .1-.1.1 0 .1-.1.3-.1.4s-.1.2-.1.3c-.2.6-.3 1.2-.5 1.8-.2.7-.3 1.5-.5 2.2-.3.7-.4 1.5-.6 2.3-.1.6-.3 1.3-.4 1.9-.1.5-.2 1-.3 1.4-.1.2-.2.4-.2.7-.1.2-.1.5-.1.7v.8.3c-.1.4-.1.8-.2 1.3 0 .1-.1.2-.1.3.1.5-.1 1-.2 1.5v.3c.1.3 0 .5 0 .8-.1.3-.2.7-.2 1v.5 1.4.6c-.1.7-.4 1-.9 1.1-.3.1-.5 0-.7-.3 0-.1-.1-.2-.2-.2v.1c-.2 0-.3 0-.5-.1-.3-.2-.7-.5-1.1-.6-.6-.2-1.1-.6-1.8-.8-.4-.1-.8-.3-1.2-.5-.2-.1-.5-.2-.6-.4-.1-.3-.3-.3-.5-.2 0 0-.1 0-.2 0-.3-.1-.5-.2-.8-.3-.4-.2-.9-.4-1.3-.6-.3-.2-.7-.4-1-.6-.2-.1-.4-.3-.6-.3-.6-.1-1.1-.4-1.6-.6-.1 0-.1 0-.2 0-.2 0-.3-.1-.5-.1-.3-.1-.5-.2-.7-.3-.3-.1-.6-.2-.8-.3-.3-.2-.6-.3-1-.5-.5-.2-1-.4-1.5-.6-.4-.2-.9-.2-1.2-.6 0 0-.1-.1-.2-.1-.4 0-.7-.2-1-.4-.2 0-.4 0-.6-.1s-.3-.2-.5-.3h-.1c-.2.3-.3 0-.4-.1-.1 0-.3.1-.3.1-.3-.4-.6.1-.9.1.1.1.2.2.3.3.4.3.7.5 1.1.8s.7.7 1.3.8c.1 0 .1.1.2.1.3.3.6.6.9.8s.6.3.9.5.5.4.7.6c.3.3.7.6 1.1.9.5.4 1 .8 1.5 1.2.2.2.3.4.6.6.5.3 1 .9 1.5 1.2.1 0 .1.1.1.2.1.1.2.2.3.3.2.2.4.3.6.5.1.1.3.4.4.4.4-.1.5.3.7.4.6.5 1.2.9 1.9 1.3.4.2.7.5 1.1.7.1.1.1.1.2.2s.2.1.3.2c.2.1.4.2.6.4.3.3.6.6.9.9.1.1.3.2.4.3.2.2.4.4.6.6s.3.5.6.6c.3.2.5.4.8.6.1.1.2.2.3.1.4 0 .7.2 1 .5s.6.6 1 .7c.3.1.3.2.4.4.2.2.2.3.2.5v.3c0 .1-.1.3-.2.4-.3.3-.6.5-.6 1 0 .1-.1.1-.1.2-.1.2-.2.3-.3.5s-.2.5-.3.6c-.2.1-.2.2-.2.4 0 .1 0 .2-.1.3-.2.6-.6 1.1-.8 1.7-.2.5-.5.9-.7 1.3s-.4.8-.7 1.3c-.1.1-.1.3-.2.5-.2.5-.5.9-.7 1.4-.3.5-.5 1-.7 1.5s-.5 1-.8 1.5c-.2.3-.3.7-.4 1.1-.1.3-.3.6-.5.9-.1.2-.1.4-.2.6-.4 1-.9 1.9-1.3 2.9-.1.2-.2.3-.2.4-.2.5-.5 1.1-.7 1.6-.2.4-.3.8-.5 1.1-.1.4-.3.8-.4 1.2s-.2.7-.3 1.1c0 0 .1.1.1.1.3-.2.7-.4 1-.7.2-.2.4-.4.5-.6.2-.2.4-.3.6-.5.6-.6 1.2-1.1 1.8-1.7.3-.3.6-.6.9-.9.4-.4.8-.8 1.2-1.2.2-.2.4-.4.5-.6.2-.3.6-.5.5-.9 0 0 .1-.1.2-.1.1-.1.1-.1.2-.2.6-.8 1.2-1.5 1.8-2.3.4-.5.8-1 1.2-1.5.2-.3.4-.5.6-.8.1-.1.2-.3.3-.4 0-.1.1-.3.1-.4.2-.3.4-.5.5-.8 0-.1.1-.1.1-.1.3-.3.6-.6.9-.8v-.1c.2-.5.5-.9 1-1 .3 0 .6-.1.8.2.3.4.7.6.9 1.1.1.3.4.4.7.6.4.3.4.9.9 1.2 0 0 0 .1.1.1.1.1.1.1.2.2.2.2.4.4.5.6 0 .1.1.1.1.2.3.4.6.8.9 1.1.2.2.3.4.5.6 0 .1.1.1.1.2.1.1.1.2.1.3.3.3.7.7 1 1 .2.2.3.4.5.7.1.2.2.4.4.6.1.1.1.2.2.3.2.2.4.4.6.6.2.3.4.6.6.9s.4.6.6.9c.1.2.2.3.4.5.2.3.6.5.5 1 0 0 0 .1.1.1.5.3.7.9 1.1 1.3.5.5.9 1.1 1.3 1.7.2.3.5.7.7 1s.5.6.7.9c.1.2.2.4.3.6.3.5.7.9 1.1 1.3.6.8 1.2 1.6 1.7 2.4.1-.2.2-.2.3-.1m-48.3-51.9c-.1 0-.2.1-.2.1.4.1.9.1 1.3.2.2 0 .4.2.5.3.1 0 .1.1.2.1h.1c.8.4 1.6.4 2.4.8.9.4 1.8.7 2.7 1.1.4.1.8.3 1.1.5.4.2.9.5 1.3.7.3.1.6.2.8.4.7.3 1.5.7 2.2 1 .1.1.3.1.4.1.6.2 1.1.4 1.7.6.1 0 .2.1.2.1.3.3.7.4 1.1.5.3.1.6.2.8.3.3.1.6.4.9.5.5.1.9.6 1.4.7.6.1 1.1.5 1.7.7.2.1.4.1.6.2.4.2.8.4 1.2.6.3.1.6.2.9.3s.6.2.9.3c.2.1.4.2.6.3s.3 0 .3-.2c0-.3.1-.7.4-1 .1-.1.1-.4.1-.6 0-.1 0-.2.1-.2.2-.1.2-.3.2-.5s-.1-.5.2-.6v-.1c-.3-.4 0-.7 0-1 .1-.5.3-.9.4-1.3 0-.1 0-.3 0-.4 0-.2 0-.5 0-.7 0-.3-.1-.6.1-.9.1-.1.1-.2.1-.3.2-.2.2-.4.1-.6 0 0 0-.2.1-.2.1-.2.2-.4.1-.7 0-.1 0-.2 0-.3s.1-.1.1-.2c-.2-.4.1-.6.2-.9-.1-.2-.3-.4.1-.5.1 0 .1-.2.1-.3.1-.2.1-.5.2-.7s.2-.5 0-.7c.1 0 .2-.1.3-.1v-.1c-.1-.2-.1-.3.1-.5.1-.1.1-.4.1-.6s.1-.3-.2-.3c.1-.1.2-.2.2-.3 0-.2.2-.4.1-.6 0 0 0-.1.1-.2 0-.1.1-.3.1-.4 0 0 0-.1.1-.1.4-.1.3-.5.5-.7 0-.1 0-.2-.1-.3-.1-.2-.3-.3 0-.5 0 0 0-.1.1-.1.1-.1.1-.3.2-.4h.1c0-.1-.1-.2-.1-.3.3-.1.3-.2.3-.5 0-.2.1-.5.2-.7 0-.1.1-.3.1-.4 0-.2 0-.3.2-.4 0 0 .1-.1.1-.1 0-.1 0-.3.1-.4-.2-.4-.1-.7.6-1-.1-.1-.1-.2-.2-.4.3-.2.3-.4.2-.7v-.1c0-.2.1-.4.2-.7.1 0 .4 0 .4-.3 0-.2.1-.4.2-.7-.1 0-.1 0-.2.1-.1-.1-.1-.2-.2-.2.2-.2.3-.3.5-.5-.1 0-.2 0-.3 0 0-.1 0-.1 0-.2.2-.3.2-.6.2-1 0-.1.1-.3.2-.4.1-.2.1-.4.2-.5s.2-.2.3-.2c0-.1-.1-.2-.1-.3.3-.2.3-.5.3-.9 0-.2 0-.6.3-.7 0 0 .1-.1.1-.1 0-.1.1-.2.1-.3-.2-.1-.2-.4-.1-.6.1-.1 0-.2.1-.3.1-.2.2-.4.3-.6.1-.3.2-.6.2-.9 0-.2 0-.4.2-.6.1-.2.1-.5.1-.7 0-.3.1-.4.4-.5.5-.3.8-.1 1.1.2.1 0 .1.1.2.1.1.1.3.1.4.2v.7.2c0 .3.1.7.1 1v.3c.2.7.3 1.4.3 2.1 0 .5-.1 1 .2 1.5.1.2.1.5.1.7.1.6.1 1.2.2 1.8v1.1c0 .2.1.3.1.5v.6c.1.3 0 .5-.2.6.1.2.1.3.2.4.3.5.3 1.1.3 1.7 0 .3-.1.5.1.7v.3c0 .3.1.6.1.9v.4c.2.1.2.2.2.4 0 .3.1.6.1.8.1.3.1.6.2.9.1.4.2.9.2 1.3 0 .3.2.7 0 1.1 0 .1 0 .3.1.3.2.2.1.4.2.7 0 .2 0 .4.1.5-.1 0-.2.1-.3.2.6.3.5.8.6 1.3 0 .3 0 .6.1.9.1.5.1 1.1.2 1.6 0 .3.1.5.1.8v.2c-.2.3-.1.6.1.8 0 0 0 .1.1.2 0 .5.4.8.9.7.3 0 .6 0 .9-.1.6-.1 1.2 0 1.7 0 .4 0 .7-.1 1.1-.1h.2c.5.2 1 0 1.5-.1.6 0 1.2-.2 1.8-.2.8 0 1.6.1 2.4.1.5 0 1-.1 1.6-.1.4 0 .7 0 1.1.1h.1c.5-.3 1-.3 1.5-.2.2 0 .5-.1.7-.1.6 0 1.2 0 1.7.1h.1c.6-.1 1.2.1 1.9-.2.3-.1.7-.2 1 0 .1.1.3 0 .4 0 .6 0 1.2 0 1.8-.1.5 0 1-.1 1.5-.2.3-.1.6 0 1-.1.4 0 .8 0 1.2-.1.7-.1 1.5-.2 2.2-.3.6-.1 1.3-.3 1.9-.4.5-.1.9-.3 1.3-.5.8-.3 1.6-.2 1.9.7.1.3-.1.9-.3 1-.5.3-.9.7-1.4 1.1-.2.1-.4.3-.5.4-.4.3-.8.6-1.3.9s-.9.6-1.4.9c-.3.2-.6.4-.9.6-.2.2-.4.3-.6.5-.1 0-.1.1-.2.1-.2-.1-.3.1-.4.2 0 .1-.1.2-.1.2-.4 0-.5.4-.7.6-.2.1-.4.2-.5.3s-.2.2-.3.3c-.2.2-.4.6-.6.7-.4.2-.7.6-1.1.8-.2.2-.5.3-.8.5-.1.1-.2.2-.3.2-.2.2-.4.3-.6.4-.1.1-.2.2-.3.4 0 0-.1 0-.2 0-.4.7-1 1.1-1.7 1.3-.3.1-.4.4-.6.5-.4.2-.8.4-1.2.7-.2.1-.3.2-.5.3-.5.3-.9.6-1.4.9-.3.2-.7.3-1.1.5-.2.1-.5.3-.7.4s-.2.2-.1.3c.2.2.4.4.6.5.1.1.1.2.2.3s.2.1.3.2c.3.3.5.6.8.9.4.4.8.8 1.2 1.2.1.1.2.2.3.4.4.3.7.6 1.1.9.2.1.3.3.4.5.2.2.5.3.6.7 0 0 .1.1.1.1.5.1.6.6 1 .8.1.1.2.1.3.2.2.2.5.5.7.7s.4.3.6.5c.4.4.9.8 1.3 1.2.2.2.3.4.6.5 0 0 0 .2.1.3.4.3.8.7 1.2 1 .4.4.8.9 1.2 1.3.3.3.7.6 1 .9s.6.7.9 1 .7.6 1 .9c.2.2.3.3.4.5.1.3.4.4.6.6.1.1.3.2.3.5 0 .1.3.3.4.4.2.2.5.3.6.5.2.3.4.6.6.9.2.2.4.5.6.7s.3.4.4.7c0 .1 0 .1.1.2.4.4.8.8 1.2 1.1.5.3.6.8.7 1.3.1.3-.2.5-.5.6-.4.1-.7 0-1-.2-.3-.1-.6-.3-1-.5-.1-.1-.3-.1-.4-.2-.3-.1-.6-.2-.9-.3-.6-.2-1.2-.6-1.8-.7-.3-.1-.6-.3-.9-.5-.3-.1-.6-.2-.9-.3-.6-.2-1.3-.4-1.9-.7-.3-.1-.6-.3-.9-.5-.2-.1-.4-.1-.6-.1s-.3-.1-.5-.1c-.4-.1-.8-.3-1.3-.4-.1-.1-.3-.1-.4-.2 0 0-.1-.1-.1-.1-.4.1-.7-.3-1-.3s-.5-.2-.7-.3c-.3-.1-.6-.2-.9-.3-.5-.2-1.1-.4-1.6-.5-.2-.1-.5-.1-.7-.1-.4-.1-.8-.2-1.3-.3-.1 0-.2-.2-.4-.3-.4 0-.8 0-1.2-.3 0 0-.1 0-.2 0-.4 0-.8-.2-1.1-.4-.2-.1-.4 0-.6-.1s-.4-.2-.6-.3-.4-.2-.6-.2-.4-.1-.7-.1c-.5-.1-1-.3-1.4-.5-.2-.1-.3.1-.3.3v.4c.1.5 0 .9-.1 1.4 0 .2 0 .4.1.6.1.3.1.5 0 .8v.1c.1.4.1.7.2 1.1v1c0 .4.1.8.1 1.2.1.7.1 1.4.2 2.1 0 .4.1.8.1 1.1v.1c-.1.2-.1.3 0 .5.1.3 0 .7.1 1.1 0 .1 0 .1.1.2.1.2.1.4.2.6.1.5.1.9.1 1.4 0 1 .3 1.9.5 2.8 0 .3 0 .6.1.9 0 .2.1.4.1.6 0 .3 0 .5.1.8v.2c0 .1 0 .3.1.4v.1c.3.4.2.9.3 1.4s.3 1 .5 1.5c.1.2 0 .4-.2.6-.1.2-.3.1-.4 0-.6-.4-1.2-.8-1.7-1.3-.4-.5-.8-1.1-1.2-1.6-.2-.3-.3-.6-.5-.9-.2-.2-.4-.4-.5-.7-.2-.3-.4-.5-.5-.8 0 0 0-.1 0-.2-.5-.3-.8-.8-1-1.3-.1-.3-.4-.6-.6-.9s-.5-.6-.6-1c0-.2-.2-.3-.4-.5-.3-.3-.5-.6-.8-.9-.4-.5-.7-1-1.1-1.5-.6-.8-1.2-1.7-1.9-2.5-.2-.3-.4-.6-.6-.9s-.4-.5-.6-.8c-.3-.4-.5-.8-.8-1.1 0 0 0 0 0-.1-.5-.3-.7-.9-1.1-1.3-.3-.3-.6-.6-.8-.9-.3-.4-.7-.6-.9-1s-.5-.7-.8-1.1c-.1-.2-.3-.5-.5-.7-.1-.2-.4-.3-.6-.4-.4-.3-.7-.6-1.1-.9-.2-.1-.3-.2-.5 0-.4.4-.8.8-1.2 1.2-.1.1-.1.2-.2.3-.4.5-.7 1-1.1 1.5-.4.6-.9 1.1-1.4 1.6-.4.5-.7 1-1.1 1.5-.2.3-.4.5-.6.8-.3.4-.6.7-.8 1.1 0 0 0 0-.1.1-.6.4-.9 1-1.4 1.5-.1.1-.3.2-.4.3-.2.2-.3.4-.4.5-.4.4-.8.8-1.2 1.2-.3.3-.5.6-.8.8-.1.1-.2.1-.3.2-.2.2-.3.3-.5.5s-.4.4-.7.7h-.1c-.3.3-.5.5-.8.7-.4.3-.9.7-1.4.8s-.5.5-.8.7c-.2.1-.2.1-.4 0-.1-.1-.2-.1-.2-.1-.2-.1-.4-.1-.3-.4-.2 0-.3 0-.5 0s-.3-.1-.2-.3c0-.1.1-.3.1-.4-.1-.6.2-1.2.4-1.8.1-.2.3-.4.4-.6.2-.5.3-1 .5-1.5.1-.4.3-.7.4-1 0-.1.1-.1.1-.2 0-.3 0-.6.3-.7 0 0 .1-.1.1-.1-.1-.4.2-.6.3-.9.2-.4.2-.8.4-1.2.1-.1.2-.3.3-.4s.1-.4.4-.4c0 0 .1-.1.1-.1.1-.3.1-.7.3-1s.3-.5.3-.9.3-.7.7-1c0-.1-.1-.2-.1-.3.4-.1.4-.5.5-.8.2-.3.3-.7.4-1 0-.1.1-.1.2-.2.3-.1.3-.3.1-.5.2-.1.3-.3.5-.4h-.1c.1-.2.2-.4.3-.5-.1 0-.2.1-.3.1v-.1c.1-.1.1-.2.2-.3.2 0 .5.1.4-.3 0 0 0 0 0-.1.1-.2.3-.5.4-.7-.2-.3-.2-.6.1-.8.3-.1.5-.4.6-.7 0-.1.1-.2.2-.3.1-.2.2-.5.3-.7v-.1c-.3-.2-.1-.3.1-.3h.1c.6-.2.5-.6.4-1 0-.1 0-.3.2-.3 0 0 .1 0 .1-.1.1-.3.2-.7.3-1s.1-.5.2-.8c.1-.4.3-.7.5-1 .1-.3.2-.5.6-.6 0 0 .1-.1.1-.1 0-.1-.1-.2-.2-.3.1 0 .1-.1.2-.1-.4-.6-.8-1.1-1.3-1.5-.3-.3-.6-.6-.9-.9-.1-.1-.2-.2-.3-.3s-.2-.3-.2-.4c-.2-.2-.5-.4-.7-.5-.3-.2-.7-.5-1-.7-.5-.4-1-.9-1.6-1.3 0 0-.1-.1-.1-.1-.4-.3-.8-.5-1.2-.8-.3-.2-.5-.5-.8-.7s-.7-.4-1-.7c-.4-.3-.8-.6-1.2-1-.2-.2-.5-.4-.7-.6-.4-.4-.8-.7-1.2-1.1s-.9-.7-1.4-1c-.2-.2-.4-.4-.6-.5-.3-.2-.7-.5-1-.7-.2-.1-.2-.3-.4-.5-.1-.1-.2-.2-.3-.2-.5-.4-1.1-.7-1.6-1-.3-.2-.6-.4-1-.6-.1-.1-.2-.2-.3-.3s-.3-.2-.5-.3c-.4-.2-.7-.4-1-.7-.1-.2-.4-.2-.5-.3-.2-.1-.3-.2-.5-.3s-.4-.2-.6-.3c-.5-.4-1.1-.8-1.6-1.2-.1-.1-.3-.2-.5-.3-.1-.1-.2-.2-.2-.3 0 0 0-.1-.1-.1-.4-.2-.7-.4-1.1-.6-.2-.1-.4-.1-.6-.2-.1 0-.2 0-.3-.2-.1-.3-.1-.6-.4-.8-.1 0-.1-.3-.1-.4s0-.1 0-.2 0-.3 0-.4c.1-.3.3-.3.6-.4 0-.2.2.2.5.4z" stroke-width="2.75"/><path d="m116.1 12.2s-.1 0-.1.1c0 .3 0 .5.1.8.1.5.3 1 .4 1.5.2.7.3 1.5.4 2.2.1.6.1 1.1.2 1.7.1.8.2 1.6.2 2.4 0 .2 0 .4.1.5.3.5.5 1.1.6 1.7 0 .6.2 1.3.4 1.9.1.4.2.9.2 1.3.1.4.2.8.2 1.1-.1.4.1.6.1.9.2.8.3 1.7.4 2.5v.3c.2.7.4 1.4.6 2.1.1.3.2.6.3.9.1.6.3 1.2.4 1.7v.2c0 .4.1.8.1 1.2 0 .1.1.1.1.1.1.2.2.3.3.5.1.5.2 1 .3 1.4.1.3.2.7.3 1 .2.4.4.9.6 1.3.1.1 0 .3.1.5 0 .1 0 .3.1.4.4.6.1 1.6-.7 1.7-.7.1-1.5.2-2.2.3-.8.1-1.5.4-2.3.5-.5.1-1 .1-1.4.2-.3.1-.7.1-1 .2-.2 0-.4.1-.6.1s-.5 0-.7.1c-.8.5-1.7.7-2.6.9-.7.2-1.4.1-2 .5-.1.1-.4.1-.5.1s-.2 0-.3 0c-.3.1-.6.2-.8.4-.1.1-.3.1-.4.1-.4.2-.7.4-1.1.5-.4.2-.9.4-1.3.6v.1c.6.1 1.1.1 1.7.2.5.1 1 .2 1.5.3h.3c.3 0 .7-.1 1 0 .5 0 .9.2 1.4.2.4.1.7.1 1.1.1h2.9c.6 0 1.3 0 1.9.1.5.1 1 .2 1.5.2.2 0 .4.1.5 0 .3-.2.6-.1 1-.1.5 0 1 0 1.4-.1s.7-.3 1.1-.1.9.4.9 1v.1c.2.4.2.7.1 1.1-.2.7-.3 1.5-.4 2.2s-.1 1.4-.2 2.1c-.1 1-.4 2.1-.4 3.1 0 .8-.4 1.6-.3 2.4 0 .6-.2 1.3-.3 1.9-.1.5 0 1-.1 1.5v.4c0 .4-.1.8-.1 1.1 0 .2 0 .4-.1.7 0 .1-.1.2-.1.3 0 .5-.1 1-.1 1.5 0 .4-.1.8-.1 1.2 0 .8-.1 1.6-.1 2.5 0 .5-.1 1 0 1.5.2.6 0 1.3.1 1.9.1.3.1.7.2 1.1.2-.1.2-.2.2-.2.3-.4.5-.9.8-1.3.1-.1.2-.2.2-.3.1-.2.3-.3.3-.5.3-.8.8-1.5 1.4-2.2 0-.2 0-.4.1-.5.2-.3.3-.6.5-.9.1-.1.2-.3.2-.4.2-.2.4-.5.5-.7.3-.6.4-1.2.7-1.8.4-.8.9-1.5 1.3-2.3.4-.7.7-1.5 1.1-2.2.2-.5.5-1 .8-1.5.2-.3.3-.6.5-1 .3-.5.6-1 .9-1.5s.5-.9.8-1.4c.1-.1.1-.2.1-.3-.1-.5 0-1 .4-1.5 0-.1 0-.1.1-.2.1-.4.2-.8.3-1.2.1-.3.2-.7.4-1 .1-.2.2-.4.1-.6-.1-.5.2-.9.4-1.2.3-.4.8-.6 1.4-.5.1 0 .3-.1.4-.1v-.1c-.2 0-.3-.1-.5-.1 0 0 0-.1-.1-.1.2-.1.4-.3.6-.3.8-.2 1.6.4 2.4.4.8.1 1.4.8 2.3.6.4-.1 1 .2 1.4.3.9.2 1.7.5 2.6.7.3.1.6.3 1 .4h.6c.3 0 .6.4 1 .2 0 0 .1 0 .1.1 1 .2 1.9.4 2.9.6.6.1 1.2.1 1.8.2 1.2.2 2.4.6 3.7.6.3 0 .6.2.9.1.5-.1.9 0 1.3.1h1.2.6c.3 0 .7 0 1 .1h.5c.5 0 1 .1 1.5.1-.1-.3-.2-.5-.3-.7-.1-.1-.2-.3-.3-.3-.4 0-.5-.7-1.1-.6-.2-.4-.6-.5-.8-.8-.4-.4-.8-.8-1.2-1.2s-.8-.8-1.2-1.1c-.2-.2-.5-.4-.7-.6-.5-.4-.9-.7-1.4-1.1-.3-.3-.6-.5-1-.8-.1-.1-.2-.1-.2-.2-.3-.2-.8-.3-1-.6s-.4-.4-.7-.6c-.5-.3-1-.5-1.3-.9-.2-.2-.5-.4-.8-.6s-.6-.2-.9-.4c-.2-.1-.3-.4-.5-.6-.5-.4-1-.7-1.6-1 0 0 0 0-.1 0-.5-.2-1.1-.5-1.4-1 0-.1-.1-.1-.2-.1-.6-.1-1.1-.5-1.6-.6-.7-.2-1.4-.7-2.1-1-.2-.1-.4-.4-.7-.4-.4-.1-.8-.2-1.1-.5-.1-.1-.3-.1-.4-.2-.5-.2-1-.2-1.2-.7s-.5-.9-1.1-1.2c-.1-.1-.3-.3-.2-.4.2-.2 0-.3-.1-.5-.3-.3-.2-.8.3-.9.5-.2 1-.4 1.5-.6.7-.4 1.4-.8 2.1-1.2.2-.1.3-.3.5-.3s.3-.1.4-.3c.3-.3.6-.5.9-.8.4-.3.8-.5 1.2-.8s.7-.7 1.1-1c.3-.3.7-.5 1-.8.5-.5 1-1 1.6-1.4.4-.3.8-.5 1.3-.8.7-.7 1.4-1.5 2.2-2.3-.4-.4-.7-.1-1 .1-.6.3-1.2.7-1.8 1-.2.1-.4.1-.5.2-.6.4-1.1.9-1.8 1-.3.1-.6.2-.8.4-.8.4-1.7.7-2.5 1.1-.2.1-.5.1-.7.2-.6.4-1.1.8-1.7 1.1-.2.1-.4.1-.6.2-.6.3-1.2.7-1.8 1-.2.1-.5.2-.7.2-.3 0-.4 0-.4.4 0 .1-.1.2-.2.3-.2.2-.4.3-.5.4-.3.3-.8.5-1.1.3s-.5-.4-.8-.6c-.2-.1-.5-.5-.8-.2 0 0-.2-.1-.3-.2-.1-.2-.1-.4-.2-.6-.2-.4-.4-.8-.6-1.2s-.4-.7-.7-1.1-.5-.8-.8-1.2c-.2-.2-.4-.4-.5-.6-.3-.5-.7-1-.9-1.6-.1-.4-.5-.6-.7-1s-.6-.7-.8-1.1c-.3-.4-.5-.9-.7-1.3-.3-.5-.8-.9-1-1.4-.3-.7-.9-1.2-1.3-1.9-.2-.3-.4-.6-.6-.8-.3-.3-.6-.6-.8-.9-.4-.5-.8-1.1-1.3-1.7-.3-.3-.7-.6-.9-.9s-.4-.5-.7-.7c-.2-.1-.4-.2-.5-.4-.5-.7-1.1-1.2-1.8-1.7-.2-.1-.4-.2-.5-.4-.2-.4-.4-.4-.7-.2-.1.1-.3.1-.5 0 .3.4.2.3.1.2m4.6 44.5c-.1-.5-.3-.9 0-1.4.2-.5 0-.9 0-1.3-.1-.3-.1-.7-.5-.7-.1 0-.1-.1-.1-.1-.6 0-1.3 0-1.9-.1-.9-.1-1.7-.3-2.6-.4-.5-.1-1-.1-1.5-.1-1.1.1-2.1 0-3.2-.2-.3 0-.6 0-.9 0-1.1-.1-2.3-.3-3.4-.4-.8-.1-1.7-.1-2.5-.2-.7-.1-1.4 0-2-.2-.5-.2-1-.1-1.5-.2-.3 0-.6-.2-.9-.2-.8-.1-1.5-.3-2.3-.4-.2 0-.4-.1-.5-.2.1-.2.2-.3.2-.5 0-.3 0-.5 0-.8s-.3-.5 0-.7c-.2-.2-.1-.7.2-.8.4-.1.8-.3 1.2-.3.7.1 1.3-.1 1.9-.2.7-.2 1.5-.3 2.2-.5.2-.1.5-.1.8-.1v-.1c.1.1.1.2.2.3h.1c.5-.2.9-.5 1.4-.7h.3c.4 0 .9.3 1.2.1s.6-.1.9-.4c.1-.1.2-.1.3-.1.4 0 .5-.2.7-.5-.1 0-.3 0-.4-.1v-.1c.3 0 .6.1.9.1.5.1.9-.1 1.1-.5 0-.1.2-.2.3-.2s.3.1.4.2c.1.3.3.3.5.1.3-.2.6-.3.7-.7.1 0 .3 0 .4.1.4.2.5.1.6-.1.4-.2.7-.2.9-.4.4-.3.8-.4 1.2-.4.2 0 .4 0 .6-.1.5-.3.9-.4 1.4-.1 0 0 .2-.1.2-.1.1-.1.1-.2.2-.4.3.4.5.2.6-.1v.1c0 .1 0 .2-.1.3 0 0 .1 0 .1.1.1-.1.2-.2.3-.3s.2-.2.3-.2c.2-.1.3-.2.3-.5 0-.1.1-.3.1-.4v-.1c0-.4-.1-.8-.1-1.2 0-.3 0-.5 0-.8-.2-.6 0-1.3-.4-1.9-.2-.3 0-.7-.1-1.1 0-.4-.2-.7-.2-1.1-.1-.3-.1-.6-.1-.9 0-.1 0-.1 0-.2 0-.4-.4-.7-.2-1.1v-.1c-.5-.7-.5-1.6-.7-2.4-.1-.2 0-.4 0-.6 0-.1 0-.3 0-.4-.3-.7-.2-1.5-.3-2.3 0-.2-.1-.3-.1-.5s0-.4 0-.6v-.1c-.4-.5-.3-1.1-.4-1.7s-.3-1.2-.4-1.8c-.2-.8-.3-1.6-.4-2.4 0-.1 0-.1 0-.2-.4-.7-.4-1.6-.4-2.4 0-.4 0-.8-.1-1.2-.1-.6-.4-1.2-.5-1.8-.1-.5-.1-1-.2-1.5 0-.1-.1-.2-.1-.3-.1-.3-.2-.6-.3-1-.2-.5-.4-1.1-.6-1.6s-.4-1.1-.7-1.6c-.1-.2-.3-.3-.5-.6.3 0 .4 0 .6-.1 0-.4-.1-.6-.5-.8.1-.1.1-.2.2-.2.1-.2.3-.4.3-.7-.1-.4 0-.5.5-.5h.1c.5-.3.7.1.9.4s.4.6.6.8c.3.4.7.8 1 1.2.6.7 1.2 1.5 1.9 2.2.2.3.6.4.8.7.5.6 1.1 1.2 1.6 1.7.4.5 1 .9 1.4 1.4.6.6 1.1 1.3 1.6 2 .1.2.3.3.4.5.6.7 1.2 1.4 1.8 2.1.3.4.6.7.9 1.1.2.2.3.6.5.8.2.3.5.5.7.8.3.4.7.8 1 1.2.1.1.1.2.2.3.1.4.3.6.5.9.4.4.7 1 1 1.6.2.4.6.7.8 1.1.4.6.8 1.2 1 2 .1.4.5.8.8 1.2s.7.9 1.1 1.3c.2.2.5.3.7.2.4-.1.8-.2 1.3-.4.2-.1.4-.3.6-.4.5-.3 1-.5 1.5-.8.1 0 .1-.1.2-.1.3-.1.6-.1.9-.3.2-.1.4-.2.7-.1 0 0 .2 0 .2-.1.4-.2.7-.6 1.3-.5.3.1.6-.2.9-.3.1 0 .1-.2.2-.4.2.1.5.3.6-.3 0-.2.4-.3.6-.4.5-.2 1-.5 1.6-.4.3.1.6.1.9-.1.6-.4 1.2-.8 1.8-1.1.1 0 0-.2.1-.4.4.2.8.1 1.1-.1.2-.1.3-.1.2-.4-.1-.2.1-.3.4-.2.2.1.4.1.7.2-.1-.2-.1-.3-.1-.5.1 0 .2 0 .2.1.3.1.5.4.7-.1.4 0 .5-.6.9-.4.1 0 .2-.2.3-.3h.6c.1 0 .2 0 .3.1.2.3.3.2.5 0 .4-.4.8-.6 1.4-.7.1 0 .2-.2.3-.3.2-.2.3-.4.5-.5.5-.2 1-.3 1.5-.5.7-.2 1.4.2 1.6.9.2.8-.1 1.7-1 2.2s-1.8 1.1-2.6 1.8c-.7.6-1.4 1.1-2.1 1.7-.3.2-.6.4-.9.7-.4.3-.7.7-1.1 1-.3.2-.6.4-.9.6-.1.1-.3.2-.3.3-.1.2-.3.4-.5.3-.3 0-.3.1-.3.3 0 .1-.2.2-.3.3-.4.2-.9.4-1.3.7-.1.1-.1.4-.1.6-.6.7-1.4 1.2-2.1 1.8s-1.4 1.3-2.4 1.5c-.5.9-1.6 1-2.3 1.9.2.2.4.4.7.5.3.2.7.3 1 .4s.5.3.7.5c.7.3 1.5.6 2.1.9.8.4 1.5 1 2.3 1.5.1.1.2.1.3.2.9.6 1.8 1.2 2.7 1.9.7.6 1.3 1.2 2 1.8 0 0 .1 0 .1.1.3.2.7.3.8.6.2.4.6.5.9.7.6.4 1.2.8 1.8 1.3.4.4.8.9 1.2 1.3.1.1.4.1.6.2.1.1.3.1.4.2.2.2.3.3.4.5.4.4.8.8 1.2 1.2.2.1.4.2.6.3.5.4.9.9 1.4 1.3 0 0 .1.1.1.1.3-.1.3.1.2.2 0 .3 0 .5.3.4.1 0 .1.1.2.1.2.2.4.4.7.4h.1c.3.4.7.5 1 .8.5.4 1.1.8 1.7 1 .4.1.8.4 1 .7.2.4.7.9.2 1.5v.1c-.1.2-.2.6-.3.6-.5.2-1 .2-1.5-.1-.1 0-.2-.1-.2-.1-.4 0-.9 0-1.3 0-.5-.1-.9-.2-1.4-.2-.4-.1-.8-.1-1.2-.2-1.2-.1-2.4-.2-3.6-.3-.2 0-.5-.1-.6-.2-.2 0-.4.1-.6.1-.5 0-1 0-1.5 0-.1 0-.3 0-.4 0-.6-.3-1.3-.2-1.9-.3-.8 0-1.6-.2-2.5-.3-.4-.1-.7-.1-1.1-.2-.8-.2-1.6-.4-2.4-.5-.3-.1-.7-.1-1-.1-.6 0-1.2-.2-1.8-.5-.1-.1-.3-.1-.4-.1-.6 0-1.1-.1-1.7-.4-.5-.2-1.1-.3-1.6-.4-1.1-.2-2.2-.3-3.3-.6-.4-.1-.8-.2-1.2-.1-.2 0-.4.1-.5.3-.2.4-.4.8-.5 1.2-.6.3-.4 1-.6 1.5s-.4 1-.6 1.5c-.3.5-.6.9-.9 1.4 0 .1-.1.2-.1.2-.2.3-.1.8-.5 1-.1.1-.1.4-.2.5-.4.6-.7 1.1-1 1.8-.1.3-.4.5-.6.8-.3.5-.5 1-.8 1.5-.2.4-.3.7-.7.8-.1.3-.3.5-.4.8 0 0 .1.1.1.2-.2.3-.4.7-.6 1-.2.7-.9 1.1-1 1.9 0 .1-.1.2-.2.3s-.2.3-.2.4c.1.3-.1.5-.4.6-.1.1-.2.2-.2.2.1.4-.2.7-.4 1-.1.1-.3.2-.3.3-.2.7-.5 1.3-1 1.8-.1.1-.1.3-.1.4-.1.3-.1.7-.5.8-.3.5-.7.9-.8 1.4-.2.7-.4 1.3-1 1.8-.1 0-.1.1-.1.2-.2.6-.4 1.2-.7 1.8-.1.3-.6.5-.8.3s-.3-.4-.5-.6c-.1-.1-.2-.2-.2-.3-.2-.3-.4-.5-.4-.9 0-.1-.1-.4-.2-.4-.3-.1-.3-.4-.3-.7 0-.4 0-.7 0-1.1 0-.2 0-.4.1-.6s.2-.5.1-.7c-.1-.1 0-.3 0-.5 0-.1 0-.2 0-.2 0-.4-.2-.9-.1-1.3.3-1-.1-2.1 0-3.1.1-.7.2-1.4.3-2 0-.4.1-.9.1-1.3 0-.7 0-1.5.5-2.2 0-.1 0-.2 0-.3 0-.2-.1-.4-.1-.6s.1-.4.1-.6c0-.6-.1-1.2 0-1.7.1-.8.3-1.6.5-2.4.1-.5.1-.9.1-1.4.1-.4.2-.8.2-1.3 0-.2 0-.3 0-.5-.4-.6-.3-1-.1-1.3" stroke-width="2"/></g></g></svg>