<svg xmlns="http://www.w3.org/2000/svg" width="24" height="24" viewBox="0 0 24 24">
  <path fill="#FFB200" fill-rule="evenodd" d="M12,0 C18.627417,0 24,5.372583 24,12 C24,18.627417 18.627417,24 12,24 C5.372583,24 0,18.627417 0,12 C0,5.372583 5.372583,0 12,0 Z M12,15.3333333 C11.2636203,15.3333333 10.6666667,15.930287 10.6666667,16.6666667 C10.6666667,17.4030463 11.2636203,18 12,18 C12.7363797,18 13.3333333,17.4030463 13.3333333,16.6666667 C13.3333333,15.930287 12.7363797,15.3333333 12,15.3333333 Z M13.3333333,6 L10.6666667,6 L10.6666667,14 L13.3333333,14 L13.3333333,6 Z"/>
</svg>
