<svg width="48" height="11" viewBox="0 0 48 11" fill="none" xmlns="http://www.w3.org/2000/svg">
<path fill-rule="evenodd" clip-rule="evenodd" d="M0 10.3397H2.41284V0H0V10.3397ZM12.2893 10.3397H10.0108V0H12.2893V10.3397ZM21.3547 3.18406H19.1768V3.64571C18.562 3.23158 17.8198 2.98717 17.0186 2.98717C14.8998 2.98717 13.182 4.67764 13.182 6.76188C13.182 8.84611 14.8998 10.5366 17.0186 10.5366C17.8198 10.5366 18.562 10.2922 19.1768 9.87805V10.3397H21.3547V3.18406ZM42.1445 3.18406H44.3209V10.3397H42.1445V9.87805C41.5099 10.3058 40.7573 10.5366 39.9863 10.5366C37.8675 10.5366 36.1496 8.84611 36.1496 6.76188C36.1496 4.67764 37.8675 2.98717 39.9863 2.98717C40.7875 2.98717 41.5296 3.23158 42.1445 3.64571V3.18406ZM40.1642 4.92205C41.2539 4.92205 42.1367 5.74353 42.1367 6.76188C42.1367 7.77345 41.2553 8.60171 40.1657 8.60171C39.076 8.60171 38.1918 7.77345 38.1918 6.76188C38.1918 5.74353 39.0746 4.92205 40.1642 4.92205ZM45.6645 8.19439C45.9206 7.94319 46.2695 7.80062 46.6339 7.80062C46.9983 7.80062 47.3465 7.94319 47.6032 8.19439C47.8593 8.44558 48.0021 8.79182 48 9.14485C48 9.88486 47.3873 10.4891 46.6339 10.4891C46.2695 10.4891 45.9206 10.3465 45.6645 10.0953C45.4085 9.83734 45.2657 9.49788 45.2671 9.14485C45.2657 8.79182 45.4085 8.44558 45.6645 8.19439ZM24.7221 3.18407V4.11416C25.1589 3.55746 25.9707 3.18407 26.855 3.18407V5.2683H26.8289C25.9679 5.2683 24.727 5.87253 24.727 6.99951V10.3397H22.4929V3.18407H24.7221ZM19.1697 6.76188C19.1697 5.74353 18.2862 4.92205 17.1966 4.92205C16.1069 4.92205 15.2241 5.74353 15.2241 6.76188C15.2241 7.77345 16.1083 8.60171 17.198 8.60171C18.2876 8.60171 19.1697 7.77345 19.1697 6.76188ZM32.2814 2.99395C31.4119 2.99395 30.5889 3.25872 30.0381 3.99194V3.18404H27.87V10.3397H30.0648V6.57856C30.0648 5.49232 30.8055 4.95598 31.6989 4.95598C32.6556 4.95598 33.2064 5.51947 33.2064 6.56499V10.3397H35.3808V5.79104C35.3808 4.12772 34.0344 2.99395 32.2814 2.99395ZM5.97231 5.86573C7.55437 4.31783 8.44142 2.23359 8.44142 0H8.43861H6.07712C6.08838 1.88056 5.18374 3.65929 3.63967 4.79306L2.70337 5.47875L6.32755 10.3397H9.30737L5.97231 5.86573Z" fill="#0A0B09"/>
</svg>
