<svg width="70" height="14" viewBox="0 0 70 14" fill="none" xmlns="http://www.w3.org/2000/svg">
<path d="M55.5882 3.07373L50.8031 13.0882H48.8208L50.6088 9.3456L47.7998 3.07373H49.8356L51.6411 7.26869L53.6121 3.07373H55.5882Z" fill="black"/>
<path fill-rule="evenodd" clip-rule="evenodd" d="M31.8291 3.07409V13.0782H33.6048V9.33568C34.1127 9.94231 34.8386 10.2919 35.7228 10.2919C37.629 10.2919 39.1456 8.69821 39.1456 6.61102C39.1456 4.52382 37.6578 2.94043 35.765 2.94043C34.8437 2.94043 34.0716 3.34142 33.5523 3.98917V3.07409H31.8291ZM35.475 4.59589C36.5258 4.59589 37.3812 5.48012 37.3812 6.63168C37.3812 7.77295 36.5258 8.66746 35.475 8.66746C34.4252 8.66746 33.5698 7.79351 33.5698 6.63168C33.5698 5.44927 34.4252 4.59589 35.475 4.59589Z" fill="black"/>
<path fill-rule="evenodd" clip-rule="evenodd" d="M45.3754 9.26371V10.1891H47.0987V3.07409H45.3754V3.96861C44.8562 3.34142 44.1015 2.94043 43.205 2.94043C41.2987 2.94043 39.7832 4.5341 39.7832 6.63158C39.7832 8.73934 41.2401 10.3022 43.1628 10.3022C44.0841 10.3022 44.8562 9.90118 45.3754 9.26371ZM43.4579 4.59589C44.5087 4.59589 45.3641 5.42871 45.3641 6.63168C45.3641 7.82436 44.5087 8.66746 43.4579 8.66746C42.4081 8.66746 41.5527 7.79351 41.5527 6.63168C41.5527 5.44927 42.4081 4.59589 43.4579 4.59589Z" fill="black"/>
<path d="M28.7201 3.76297C28.7201 3.76297 29.157 2.94043 30.2366 2.94043C30.6962 2.94043 30.9913 3.10494 30.9913 3.10494V4.91453C30.9913 4.91453 30.3425 4.50326 29.7472 4.59579C29.1509 4.67805 28.7735 5.22298 28.7735 5.97355V10.1788H26.9917V3.07409H28.7139V3.76297H28.7201Z" fill="black"/>
<path d="M68.9692 2.67287L66.9283 1.48019L64.8575 0.277223C63.489 -0.514472 61.7771 0.482858 61.7771 2.08681V2.35414C61.7771 2.50836 61.8542 2.64203 61.9838 2.714L62.9461 3.26921C63.2114 3.43372 63.5414 3.22809 63.5414 2.91963V2.28217C63.5414 1.96343 63.8777 1.76808 64.1491 1.9223L66.0368 3.02245L67.9194 4.1226C68.1909 4.27683 68.1909 4.67781 67.9194 4.83204L66.0368 5.92191L64.1491 7.03234C63.8777 7.18656 63.5414 6.99121 63.5414 6.67247V6.35374C63.5414 4.74979 61.8306 3.74217 60.4621 4.54415L58.3913 5.74712L56.3494 6.92952C54.9747 7.7315 54.9747 9.757 56.3494 10.559L58.3913 11.7414L60.4621 12.9443C61.8306 13.736 63.5414 12.7387 63.5414 11.1348V10.8674C63.5414 10.7132 63.4654 10.5795 63.3348 10.5076L62.3734 9.95236C62.1082 9.79813 61.7771 9.99348 61.7771 10.3019V10.9394C61.7771 11.2581 61.4409 11.4638 61.1705 11.2993L59.2817 10.1991L57.4002 9.10925C57.1287 8.95502 57.1287 8.55404 57.4002 8.38953L59.2817 7.29966L61.1705 6.19951C61.4409 6.04529 61.7771 6.24064 61.7771 6.55938V6.86783C61.7771 8.48206 63.489 9.47939 64.8575 8.67742L66.9283 7.47445L68.9692 6.29205C70.3439 5.47979 70.3439 3.47485 68.9692 2.67287Z" fill="black"/>
<path d="M7.18592 7.53637C6.80858 9.16089 5.42157 10.2919 3.62843 10.2919C1.55769 10.2919 0 8.7085 0 6.6213C0 4.5341 1.58133 2.94043 3.65825 2.94043C5.41026 2.94043 6.77876 4.06114 7.17461 5.6651H5.35063C5.02675 5.02763 4.38311 4.60607 3.66956 4.60607C2.6311 4.60607 1.76435 5.46974 1.76435 6.6213C1.76435 7.77286 2.6311 8.63652 3.66956 8.63652C4.41293 8.63652 5.05657 8.21497 5.36296 7.53637H7.18592Z" fill="black"/>
<path d="M8.00635 10.1785V0.143555H9.76967V10.1785H8.00635Z" fill="black"/>
<path fill-rule="evenodd" clip-rule="evenodd" d="M14.2299 8.73934C13.2922 8.73934 12.5488 8.15328 12.4244 7.09426H17.7822C17.811 6.95031 17.8234 6.79609 17.8234 6.64186C17.8234 4.50326 16.313 2.94043 14.2248 2.94043C12.153 2.94043 10.584 4.49297 10.584 6.64186C10.584 8.78047 12.0646 10.2919 14.1826 10.2919C15.9356 10.2919 17.2682 9.3254 17.6876 7.82426H15.8822C15.546 8.38976 14.9733 8.73934 14.2299 8.73934ZM14.2063 4.50322C15.0741 4.50322 15.8175 5.05843 15.9408 5.98379H12.443C12.626 5.03787 13.3395 4.50322 14.2063 4.50322Z" fill="black"/>
<path fill-rule="evenodd" clip-rule="evenodd" d="M24.1242 9.25343V10.1685H25.8474V3.06381H24.1242V3.95832C23.605 3.33114 22.8503 2.94043 21.9537 2.94043C20.0475 2.94043 18.5371 4.5341 18.5371 6.6213C18.5371 8.72906 19.9951 10.2919 21.9126 10.2919C22.838 10.2919 23.605 9.90118 24.1242 9.25343ZM22.2016 4.5856C23.2513 4.5856 24.1068 5.4287 24.1068 6.62139C24.1068 7.81407 23.2513 8.65717 22.2016 8.65717C21.1508 8.65717 20.2953 7.79351 20.2953 6.62139C20.2953 5.43898 21.1508 4.5856 22.2016 4.5856Z" fill="black"/>
</svg>
