<?xml version="1.0" encoding="utf-8"?>
<!-- Generator: Adobe Illustrator 23.0.0, SVG Export Plug-In . SVG Version: 6.00 Build 0)  -->
<svg version="1.1" id="master-artboard" xmlns="http://www.w3.org/2000/svg" xmlns:xlink="http://www.w3.org/1999/xlink" x="0px"
	 y="0px" viewBox="0 0 45 25" style="enable-background:new 0 0 45 25;" xml:space="preserve">
<style type="text/css">
	.st0{fill:#FFFFFF;fill-opacity:0;}
	.st1{fill:#B5FBE5;}
	.st2{clip-path:url(#SVGID_2_);}
</style>
<rect id="ee-background" y="0" class="st0" width="45" height="25"/>
<g>
	<path class="st1" d="M8.7,2.9h27.6c0.9,0,1.7,0.3,2.3,1c0.6,0.6,1,1.5,1,2.3v12.5c0,0.4-0.1,0.9-0.2,1.3c-0.2,0.4-0.4,0.8-0.7,1.1
		c-0.3,0.3-0.7,0.6-1.1,0.7c-0.4,0.2-0.8,0.3-1.3,0.3H8.7c-0.4,0-0.9-0.1-1.3-0.3c-0.4-0.2-0.8-0.4-1.1-0.7
		c-0.3-0.3-0.5-0.7-0.7-1.1c-0.2-0.4-0.2-0.8-0.2-1.3V6.2c0-0.9,0.3-1.7,1-2.3C7,3.3,7.8,2.9,8.7,2.9L8.7,2.9z"/>
	<g>
		<defs>
			<rect id="SVGID_1_" x="8.3" y="9.8" width="28.4" height="5.4"/>
		</defs>
		<clipPath id="SVGID_2_">
			<use xlink:href="#SVGID_1_"  style="overflow:visible;"/>
		</clipPath>
		<g class="st2">
			<path d="M30.8,11.1l-1.9,4.1h-0.8l0.7-1.5l-1.1-2.5h0.8l0.7,1.7l0.8-1.7H30.8z"/>
			<path d="M23.5,12.5c0-0.5-0.3-0.8-0.8-0.8s-0.8,0.3-0.8,0.8c0,0.5,0.3,0.8,0.8,0.8S23.5,13,23.5,12.5z M21.2,15.1v-4.1h0.7v0.4
				c0.2-0.3,0.5-0.4,0.9-0.4c0.8,0,1.4,0.6,1.4,1.5S23.6,14,22.8,14c-0.4,0-0.7-0.1-0.9-0.4v1.5L21.2,15.1L21.2,15.1z"/>
			<path d="M26.7,12.5c0-0.5-0.3-0.8-0.8-0.8c-0.4,0-0.8,0.3-0.8,0.8c0,0.5,0.3,0.8,0.8,0.8C26.3,13.4,26.7,13,26.7,12.5z M26.7,14
				v-0.4c-0.2,0.3-0.5,0.4-0.9,0.4c-0.8,0-1.4-0.6-1.4-1.5c0-0.8,0.6-1.5,1.4-1.5c0.4,0,0.7,0.2,0.9,0.4v-0.4h0.7V14H26.7z"/>
			<path d="M20,11.4c0,0,0.2-0.3,0.6-0.3c0.2,0,0.3,0.1,0.3,0.1v0.7c0,0-0.3-0.2-0.5-0.1c-0.2,0-0.4,0.3-0.4,0.6V14h-0.7v-2.9h0.7
				L20,11.4L20,11.4z"/>
			<path d="M36.2,10.9l-0.8-0.5L34.6,10c-0.6-0.3-1.2,0.1-1.2,0.7v0.1c0,0.1,0,0.1,0.1,0.1l0.4,0.2c0.1,0.1,0.2,0,0.2-0.1v-0.3
				c0-0.1,0.1-0.2,0.2-0.1l0.8,0.4l0.8,0.4c0.1,0.1,0.1,0.2,0,0.3l-0.8,0.4l-0.8,0.4c-0.1,0.1-0.2,0-0.2-0.1v-0.1
				c0-0.6-0.7-1.1-1.2-0.7L32,12.2l-0.8,0.5c-0.6,0.3-0.6,1.1,0,1.5l0.8,0.5l0.8,0.5c0.6,0.3,1.2-0.1,1.2-0.7v-0.1
				c0-0.1,0-0.1-0.1-0.1l-0.4-0.2c-0.1-0.1-0.2,0-0.2,0.1v0.3c0,0.1-0.1,0.2-0.2,0.1L32.3,14l-0.8-0.4c-0.1-0.1-0.1-0.2,0-0.3
				l0.8-0.4l0.8-0.4c0.1-0.1,0.2,0,0.2,0.1v0.1c0,0.6,0.7,1.1,1.2,0.7l0.8-0.5l0.8-0.5C36.8,12.1,36.8,11.3,36.2,10.9z"/>
			<path d="M11.2,12.9c-0.2,0.7-0.7,1.1-1.4,1.1c-0.8,0-1.5-0.6-1.5-1.5C8.3,11.7,9,11,9.8,11c0.7,0,1.3,0.5,1.4,1.1h-0.7
				c-0.1-0.3-0.4-0.4-0.7-0.4c-0.4,0-0.8,0.4-0.8,0.8c0,0.5,0.4,0.8,0.8,0.8c0.3,0,0.6-0.2,0.7-0.4H11.2z"/>
			<path d="M11.6,14V9.9h0.7V14H11.6z"/>
			<path d="M13.4,12.7c0.1,0.4,0.4,0.7,0.7,0.7c0.3,0,0.5-0.1,0.7-0.4h0.7c-0.2,0.6-0.7,1-1.4,1c-0.9,0-1.5-0.6-1.5-1.5
				c0-0.9,0.6-1.5,1.5-1.5c0.8,0,1.5,0.6,1.5,1.5c0,0.1,0,0.1,0,0.2H13.4z M14.8,12.3c-0.1-0.4-0.4-0.6-0.7-0.6
				c-0.4,0-0.6,0.2-0.7,0.6H14.8z"/>
			<path d="M18.1,14v-0.4c-0.2,0.3-0.5,0.4-0.9,0.4c-0.8,0-1.4-0.6-1.4-1.5c0-0.8,0.6-1.5,1.4-1.5c0.4,0,0.7,0.2,0.9,0.4v-0.4h0.7
				V14L18.1,14L18.1,14z M18.1,12.5c0-0.5-0.3-0.8-0.8-0.8s-0.8,0.3-0.8,0.8c0,0.5,0.3,0.8,0.8,0.8S18.1,13,18.1,12.5z"/>
		</g>
	</g>
</g>
</svg>