<svg height="380" viewBox="0 0 290 380" width="290" xmlns="http://www.w3.org/2000/svg"><g fill="none" fill-rule="evenodd"><rect fill="#a9afb7" height="175" rx="12" width="290" y="205"/><rect fill="#a9afb7" height="175" rx="12" width="290"/><g fill="#000"><path d="m54.3884766 247 5.625-14.453125h3.0078125l5.625 14.453125h-3.0859375l-1.5039062-3.857422h-5.9765625l-1.5039063 3.857422zm4.4335938-5.78125h4.4921875l-2.2460938-5.761719zm11.725 5.78125v-10.722656h2.7734375v2.021484c.8463584-1.510424 2.0507734-2.265625 3.6132812-2.265625.8072957 0 1.4713516.198566 1.9921875.595703.5208359.397138.8398432.953773.9570313 1.669922 1.0026091-1.510424 2.2135345-2.265625 3.6328125-2.265625 1.9596452 0 2.9394531 1.080718 2.9394531 3.242188v7.724609h-2.7734375v-6.777344c0-1.269537-.4231729-1.904297-1.2695313-1.904297-.8658897 0-1.7089802.624994-2.5292968 1.875v6.806641h-2.7734375v-6.777344c0-1.276048-.4264281-1.914062-1.2792969-1.914062-.8528689 0-1.689449.628249-2.5097656 1.884765v6.806641zm27.9749999-.361328c-1.3737047.403648-2.675775.605469-3.90625.605469-1.7903735 0-3.2031198-.507808-4.2382812-1.523438s-1.5527344-2.402335-1.5527344-4.160156c0-1.660165.4736281-2.996414 1.4208985-4.008789.9472703-1.012375 2.1988854-1.518555 3.7548828-1.518555 1.5690182 0 2.7148401.494787 3.4375 1.484375.7226598.989588 1.0839843 2.555328 1.0839843 4.697266h-6.6503906c.1953135 2.044281 1.3183491 3.066406 3.3691406 3.066406.970057 0 2.063796-.224607 3.28125-.673828zm-6.6894531-6.054688h3.8476563c0-1.829436-.5891868-2.74414-1.7675782-2.74414-1.1979226 0-1.891275.914704-2.0800781 2.74414zm9.5277348 6.416016v-10.722656h2.890625v2.021484c.748701-1.510424 1.888013-2.265625 3.417968-2.265625.182293 0 .361328.019531.53711.058594v2.578125c-.410159-.14974-.791014-.22461-1.142578-.22461-1.15235 0-2.089841.582677-2.8125 1.748047v6.806641zm8.941796 0v-10.722656h2.890625v10.722656zm0-12.529297v-2.412109h2.890625v2.412109zm14.264063 12.294922c-1.197923.319012-2.307938.478516-3.330078.478516-1.712248 0-3.064774-.502925-4.057617-1.508789-.992844-1.005865-1.489258-2.374666-1.489258-4.106446 0-1.751311.511062-3.12174 1.533203-4.111328 1.02214-.989588 2.434887-1.484375 4.238281-1.484375.8724 0 1.87825.139973 3.017578.419922v2.089844c-1.184901-.384117-2.132158-.576172-2.841797-.576172-.865889 0-1.562497.332028-2.089843.996094-.527347.664065-.791016 1.546218-.791016 2.646484 0 1.126308.284828 2.027991.854492 2.705078.569665.677087 1.329748 1.015625 2.280274 1.015625.865889 0 1.757808-.1888 2.675781-.566406zm7.838281-.917969c-.963546.930994-1.995437 1.396485-3.095703 1.396485-.937505 0-1.699216-.286456-2.285156-.859375-.585941-.57292-.878906-1.3151-.878906-2.226563 0-1.184902.473628-2.097978 1.420898-2.739258.94727-.641279 2.303051-.961914 4.067383-.961914h.771484v-.976562c0-1.113287-.634759-1.669922-1.904297-1.669922-1.126307 0-2.265619.319007-3.417968.957031v-1.992187c1.3086-.494795 2.60416-.742188 3.886718-.742188 2.806004 0 4.208985 1.116525 4.208985 3.349609v4.746094c0 .839848.270179 1.259766.810547 1.259766.097656 0 .224608-.013021.380859-.039063l.068359 1.621094c-.611982.182293-1.152341.273438-1.621093.273438-1.184902 0-1.946613-.465491-2.285157-1.396485zm0-1.552734v-2.177734h-.683594c-1.868498 0-2.802734.585931-2.802734 1.757812 0 .397137.13509.730793.405274 1.000977.270183.270183.603839.405273 1.000976.405273.677087 0 1.370439-.328773 2.080078-.986328zm6.353906 2.705078v-10.722656h2.890625v2.021484c.944016-1.510424 2.161451-2.265625 3.652344-2.265625.957036 0 1.712237.302731 2.265625.908203s.830078 1.432287.830078 2.480469v7.578125h-2.890625v-6.865234c0-1.217454-.403641-1.826172-1.210937-1.826172-.917974 0-1.800126.64778-2.646485 1.943359v6.748047zm19.426563 0v-14.453125h9.033203v1.982422h-6.025391v4.033203h4.941407v1.933594h-4.941407v4.453125h6.484375v2.050781zm10.719141 0 3.68164-5.380859-3.52539-5.341797h3.291015l2.304688 3.398437 2.207031-3.398437h2.34375l-3.359375 5.263672 3.603516 5.458984h-3.291016l-2.402344-3.544922-2.460937 3.544922zm12.808984 3.857422v-14.580078h2.890625v2.021484c.742191-1.510424 1.910799-2.265625 3.505859-2.265625 1.289069 0 2.303056.472001 3.041992 1.416016s1.108399 2.24283 1.108399 3.896484c0 1.796884-.416663 3.229161-1.25 4.296875-.833338 1.067714-1.949863 1.601563-3.349609 1.601563-1.126308 0-2.145178-.442704-3.056641-1.328125v4.941406zm2.890625-6.660156c.703128.781254 1.451819 1.171875 2.246094 1.171875.709639 0 1.276039-.343421 1.699218-1.030274.42318-.686852.634766-1.603184.634766-2.749023 0-2.194022-.706373-3.291016-2.119141-3.291016-.852868 0-1.673173.550125-2.460937 1.650391zm10.211328 2.802734v-10.722656h2.890625v2.021484c.748702-1.510424 1.888013-2.265625 3.417969-2.265625.182292 0 .361327.019531.537109.058594v2.578125c-.410158-.14974-.791014-.22461-1.142578-.22461-1.152349 0-2.08984.582677-2.8125 1.748047v6.806641zm17.672266-.361328c-1.373705.403648-2.675775.605469-3.90625.605469-1.790374 0-3.20312-.507808-4.238282-1.523438-1.035161-1.01563-1.552734-2.402335-1.552734-4.160156 0-1.660165.473628-2.996414 1.420898-4.008789.947271-1.012375 2.198886-1.518555 3.754883-1.518555 1.569019 0 2.71484.494787 3.4375 1.484375s1.083985 2.555328 1.083985 4.697266h-6.650391c.195314 2.044281 1.318349 3.066406 3.369141 3.066406.970057 0 2.063796-.224607 3.28125-.673828zm-6.689453-6.054688h3.847656c0-1.829436-.589187-2.74414-1.767578-2.74414-1.197923 0-1.891275.914704-2.080078 2.74414zm9.244531 6.074219v-2.119141c1.432299.598962 2.656245.898438 3.671875.898438 1.184902 0 1.777344-.403642 1.777344-1.210938 0-.520835-.488277-.97656-1.464844-1.367187l-.976563-.390625c-1.061203-.42969-1.819659-.891925-2.27539-1.386719-.455732-.494794-.683594-1.106767-.683594-1.835937 0-1.01563.387366-1.80501 1.162109-2.368164.774744-.563154 1.858717-.844727 3.251953-.844727.872401 0 1.910802.126952 3.115235.380859v2.03125c-1.15886-.403647-2.119137-.605468-2.88086-.605468-1.197922 0-1.796875.37109-1.796875 1.113281 0 .488284.442704.901691 1.328125 1.240234l.839844.322266c1.256517.475263 2.130532.957029 2.62207 1.445313.491539.488283.737305 1.116532.737305 1.884765 0 1.00912-.41829 1.827796-1.254883 2.456055-.836592.628258-1.925449.942383-3.266601.942383-1.289069 0-2.591139-.195311-3.90625-.585938zm11.158594 0v-2.119141c1.432298.598962 2.656244.898438 3.671875.898438 1.184901 0 1.777343-.403642 1.777343-1.210938 0-.520835-.488276-.97656-1.464843-1.367187l-.976563-.390625c-1.061203-.42969-1.819659-.891925-2.275391-1.386719-.455731-.494794-.683593-1.106767-.683593-1.835937 0-1.01563.387366-1.80501 1.162109-2.368164s1.858717-.844727 3.251953-.844727c.8724 0 1.910801.126952 3.115235.380859v2.03125c-1.15886-.403647-2.119137-.605468-2.88086-.605468-1.197923 0-1.796875.37109-1.796875 1.113281 0 .488284.442704.901691 1.328125 1.240234l.839844.322266c1.256517.475263 2.130531.957029 2.62207 1.445313.491539.488283.737305 1.116532.737305 1.884765 0 1.00912-.41829 1.827796-1.254883 2.456055-.836593.628258-1.925449.942383-3.266601.942383-1.289069 0-2.59114-.195311-3.90625-.585938z"/><path d="m30.5423438 308v-1.351562h2.3125v-8.53125l-2.3125.578124v-1.390624l4.6328125-1.15625v10.5h2.3125v1.351562zm9.333125 0v-1.828125l.125-.171875c.6197948-.828129 1.2552051-1.526039 1.90625-2.09375l.9453125-.835938c1.5572994-1.375006 2.3359375-2.580723 2.3359375-3.617187 0-1.208339-.6874931-1.8125-2.0625-1.8125-.8489626 0-1.8333277.286455-2.953125.859375v-1.695312c1.1770892-.437503 2.3150987-.65625 3.4140625-.65625 1.2291728 0 2.213538.290361 2.953125.871093s1.109375 1.358068 1.109375 2.332031c0 .671879-.1796857 1.283852-.5390625 1.835938s-.992183 1.192705-1.8984375 1.921875l-.78125.625c-1.0885471.875004-1.734374 1.687496-1.9375 2.4375h5.109375v1.828125zm10.864375-.085938v-1.734374c1.145839.44271 2.0911421.664062 2.8359375.664062.6927118 0 1.2486958-.177082 1.6679687-.53125.419273-.354168.6289063-.825518.6289063-1.414062 0-1.52605-1.1171763-2.289063-3.3515625-2.289063h-.7109375v-1.382813l.6015625-.007812c2.0937605 0 3.140625-.684889 3.140625-2.054688 0-1.04688-.6458269-1.570312-1.9375-1.570312-.8489626 0-1.7552035.216144-2.71875.648438v-1.578126c1.0156301-.34896 2.0859319-.523437 3.2109375-.523437 1.1927143 0 2.1262987.244789 2.8007812.734375.6744826.489586 1.0117188 1.166662 1.0117188 2.03125 0 1.36459-.851554 2.328122-2.5546875 2.890625 1.9479264.447919 2.921875 1.489575 2.921875 3.125 0 1.036464-.3906211 1.856768-1.171875 2.460937-.7812539.60417-1.8437433.90625-3.1875.90625-1.1406307 0-2.2031201-.124998-3.1875-.375zm15.005.085938v-3.085938h-5.3984375v-1.734374l5.3046875-6.742188h2.1171875v6.742188h1.3515625v1.734374h-1.3515625v3.085938zm-3.546875-4.820312h3.59375v-4.53125zm14.9709375 4.773437v-1.679687c.9843799.38021 1.8046842.570312 2.4609375.570312.6614616 0 1.1861959-.196613 1.5742187-.589844s.5820313-.925778.5820313-1.597656c0-1.656258-1.1900923-2.484375-3.5703125-2.484375-.2812514 0-.5624986.023437-.84375.070313v-5.804688h6.640625v1.828125h-4.953125l-.1171875 2.492187c1.666675 0 2.9674432.341143 3.9023437 1.023438s1.4023438 1.635411 1.4023438 2.859375c0 1.130214-.4088501 2.02083-1.2265625 2.671875-.8177125.651045-1.9374929.976562-3.359375.976562-.6041697 0-1.4348906-.111978-2.4921875-.335937zm11.66125-6.085937c.7239619-.875005 1.651036-1.3125 2.78125-1.3125 1.0312551 0 1.8854132.33984 2.5625 1.019531.6770867.679691 1.015625 1.537755 1.015625 2.574219 0 1.213547-.3906211 2.207027-1.171875 2.980468-.7812539.773442-1.7864522 1.160156-3.015625 1.160156-1.4375072 0-2.5598918-.511713-3.3671875-1.535156-.8072957-1.023442-1.2109375-2.446605-1.2109375-4.269531 0-2.005218.4596308-3.563797 1.3789062-4.675781.9192754-1.111985 2.2096271-1.667969 3.8710938-1.667969.7812539 0 1.7499942.140624 2.90625.421875v1.6875c-1.0520886-.442711-1.9947875-.664062-2.828125-.664062-.927088 0-1.6458308.374996-2.15625 1.125-.5104193.750003-.765625 1.802076-.765625 3.15625zm4.046875 2.664062c0-.786462-.1731754-1.408852-.5195313-1.867188-.3463559-.458335-.8164033-.6875-1.4101562-.6875-.5677112 0-1.045571.208332-1.4335938.625-.3880228.416669-.5820312.932289-.5820312 1.546876 0 .807295.1901022 1.45833.5703125 1.953124.3802102.494795.8776011.742188 1.4921875.742188.5729195 0 1.0299462-.209633 1.3710937-.628906.3411476-.419273.5117188-.980465.5117188-1.683594zm5.5753125 3.46875c.1093755-.869796.3242171-1.632809.6445312-2.289062.3203141-.656254 1.040359-1.802076 2.160156-3.4375l2.71875-3.960938h-6.0156247v-1.875h7.9062497v1.875c-1.515632 1.911468-2.70312 3.725252-3.5625 5.441406-.859379 1.716155-1.289062 3.131505-1.289062 4.246094zm11.4581252-6.195312c-1.114589-.734379-1.671875-1.619787-1.671875-2.65625 0-.895838.351559-1.621091 1.054687-2.175782.703129-.55469 1.624995-.832031 2.765625-.832031 1.072922 0 1.930987.236977 2.574219.710937.643232.473961.964844 1.106767.964844 1.898438 0 1.020838-.651035 1.986975-1.953125 2.898438 1.645841.859379 2.46875 1.940097 2.46875 3.242187 0 1.01563-.401038 1.835934-1.203125 2.460937-.802088.625004-1.85416.9375-3.15625.9375-1.244798 0-2.248694-.286455-3.011719-.859374-.763025-.57292-1.144531-1.328121-1.144531-2.265626 0-1.359381.770825-2.479162 2.3125-3.359374zm2.53125-.8125c.770837-.598962 1.15625-1.23958 1.15625-1.921876 0-.447918-.158853-.805988-.476563-1.074218-.31771-.268231-.736976-.402344-1.257812-.402344-.484378 0-.876301.117186-1.175781.351562-.299481.234377-.449219.541665-.449219.921876 0 .375001.148436.704425.445312.988281.296877.283855.882808.662758 1.757813 1.136719zm-1.390625 1.585937c-.838546.69792-1.257813 1.434892-1.257813 2.210937 0 .60417.209634 1.101561.628907 1.492188.419272.390627.951819.585938 1.597656.585938.567711 0 1.042967-.153645 1.425781-.460938s.574219-.690102.574219-1.148438c0-.395835-.128905-.734373-.386719-1.015624-.257814-.281252-.759111-.632811-1.503906-1.054688zm12.650625 5.335937v-1.671874c.98438.401043 1.903641.601562 2.757812.601562.911463 0 1.631508-.378902 2.160156-1.136719.528649-.757816.792969-1.790358.792969-3.097656-.734378.880213-1.640619 1.320313-2.71875 1.320313-1.01563 0-1.869788-.351559-2.5625-1.054688s-1.039062-1.570307-1.039062-2.601562c0-1.203132.391923-2.191403 1.175781-2.964844.783858-.773442 1.78515-1.160156 3.003906-1.160156 1.427091 0 2.545569.507807 3.355469 1.523437s1.214844 2.416658 1.214844 4.203125c0 2.00001-.476558 3.569005-1.429688 4.707031-.95313 1.138027-2.268221 1.707031-3.945312 1.707031-.713545 0-1.635411-.124998-2.765625-.375zm1.703125-8c0 .802088.173175 1.434894.519531 1.898438s.816403.695312 1.410156.695312c.562503 0 1.036457-.210935 1.421875-.632812.385419-.421877.578125-.940101.578125-1.554688 0-.817712-.1888-1.47656-.566406-1.976562s-.873695-.75-1.488281-.75c-.57292 0-1.028644.208331-1.367188.625-.338543.416669-.507812.981767-.507812 1.695312zm10.528437 1.890626c-1.114589-.734379-1.671875-1.619787-1.671875-2.65625 0-.895838.351559-1.621091 1.054688-2.175782.703128-.55469 1.624994-.832031 2.765625-.832031 1.072922 0 1.930986.236977 2.574218.710937.643233.473961.964844 1.106767.964844 1.898438 0 1.020838-.651035 1.986975-1.953125 2.898438 1.645842.859379 2.46875 1.940097 2.46875 3.242187 0 1.01563-.401037 1.835934-1.203125 2.460937-.802087.625004-1.85416.9375-3.15625.9375-1.244798 0-2.248694-.286455-3.011719-.859374-.763024-.57292-1.144531-1.328121-1.144531-2.265626 0-1.359381.770826-2.479162 2.3125-3.359374zm2.53125-.8125c.770837-.598962 1.15625-1.23958 1.15625-1.921876 0-.447918-.158852-.805988-.476562-1.074218-.31771-.268231-.736977-.402344-1.257813-.402344-.484377 0-.8763.117186-1.175781.351562-.299481.234377-.449219.541665-.449219.921876 0 .375001.148436.704425.445313.988281.296876.283855.882808.662758 1.757812 1.136719zm-1.390625 1.585937c-.838546.69792-1.257812 1.434892-1.257812 2.210937 0 .60417.209633 1.101561.628906 1.492188s.95182.585938 1.597656.585938c.567711 0 1.042967-.153645 1.425781-.460938.382815-.307293.574219-.690102.574219-1.148438 0-.395835-.128905-.734373-.386719-1.015624-.257813-.281252-.75911-.632811-1.503906-1.054688zm8.270625 5.421875c.109376-.869796.324217-1.632809.644531-2.289062.320315-.656254 1.040359-1.802076 2.160157-3.4375l2.71875-3.960938h-6.015625v-1.875h7.90625v1.875c-1.515633 1.911468-2.703121 3.725252-3.5625 5.441406-.85938 1.716155-1.289063 3.131505-1.289063 4.246094zm11.247188-6.132812c.723962-.875005 1.651036-1.3125 2.78125-1.3125 1.031255 0 1.885413.33984 2.5625 1.019531.677086.679691 1.015625 1.537755 1.015625 2.574219 0 1.213547-.390621 2.207027-1.171875 2.980468-.781254.773442-1.786452 1.160156-3.015625 1.160156-1.437507 0-2.559892-.511713-3.367188-1.535156-.807295-1.023442-1.210937-2.446605-1.210937-4.269531 0-2.005218.459631-3.563797 1.378906-4.675781.919275-1.111985 2.209627-1.667969 3.871094-1.667969.781254 0 1.749994.140624 2.90625.421875v1.6875c-1.052089-.442711-1.994788-.664062-2.828125-.664062-.927088 0-1.645831.374996-2.15625 1.125-.510419.750003-.765625 1.802076-.765625 3.15625zm4.046875 2.664062c0-.786462-.173176-1.408852-.519532-1.867188-.346355-.458335-.816403-.6875-1.410156-.6875-.567711 0-1.045571.208332-1.433594.625-.388022.416669-.582031.932289-.582031 1.546876 0 .807295.190102 1.45833.570313 1.953124.38021.494795.877601.742188 1.492187.742188.57292 0 1.029946-.209633 1.371094-.628906s.511719-.980465.511719-1.683594zm10.314687 3.421875v-1.679687c.98438.38021 1.804684.570312 2.460938.570312.661461 0 1.186196-.196613 1.574218-.589844.388023-.393231.582032-.925778.582032-1.597656 0-1.656258-1.190093-2.484375-3.570313-2.484375-.281251 0-.562498.023437-.84375.070313v-5.804688h6.640625v1.828125h-4.953125l-.117187 2.492187c1.666675 0 2.967443.341143 3.902343 1.023438.934901.682295 1.402344 1.635411 1.402344 2.859375 0 1.130214-.40885 2.02083-1.226562 2.671875-.817713.651045-1.937493.976562-3.359375.976562-.60417 0-1.434891-.111978-2.492188-.335937zm14.59875.046875v-3.085938h-5.398437v-1.734374l5.304687-6.742188h2.117188v6.742188h1.351562v1.734374h-1.351562v3.085938zm-3.546875-4.820312h3.59375v-4.53125zm9.41125 4.734374v-1.734374c1.145839.44271 2.091142.664062 2.835938.664062.692712 0 1.248696-.177082 1.667968-.53125.419273-.354168.628907-.825518.628907-1.414062 0-1.52605-1.117177-2.289063-3.351563-2.289063h-.710937v-1.382813l.601562-.007812c2.093761 0 3.140625-.684889 3.140625-2.054688 0-1.04688-.645827-1.570312-1.9375-1.570312-.848962 0-1.755203.216144-2.71875.648438v-1.578126c1.01563-.34896 2.085932-.523437 3.210938-.523437 1.192714 0 2.126298.244789 2.800781.734375s1.011719 1.166662 1.011719 2.03125c0 1.36459-.851554 2.328122-2.554688 2.890625 1.947927.447919 2.921875 1.489575 2.921875 3.125 0 1.036464-.390621 1.856768-1.171875 2.460937-.781254.60417-1.843743.90625-3.1875.90625-1.14063 0-2.20312-.124998-3.1875-.375zm10.005.085938v-1.828125l.125-.171875c.619795-.828129 1.255205-1.526039 1.90625-2.09375l.945313-.835938c1.557299-1.375006 2.335937-2.580723 2.335937-3.617187 0-1.208339-.687493-1.8125-2.0625-1.8125-.848962 0-1.833328.286455-2.953125.859375v-1.695312c1.177089-.437503 2.315099-.65625 3.414063-.65625 1.229173 0 2.213538.290361 2.953125.871093s1.109375 1.358068 1.109375 2.332031c0 .671879-.179686 1.283852-.539063 1.835938s-.992183 1.192705-1.898437 1.921875l-.78125.625c-1.088547.875004-1.734374 1.687496-1.9375 2.4375h5.109375v1.828125z"/><path d="m36.6662891 352.654297c-.839848.375002-1.8417911.5625-3.0058594.5625-1.4218821 0-2.5292929-.400387-3.3222656-1.201172s-1.1894531-1.917962-1.1894531-3.351563c0-1.460944.39941-2.584957 1.1982422-3.37207.7988321-.787113 1.9384691-1.180664 3.4189453-1.180664.9453172 0 1.8847609.111327 2.8183593.333984v1.41211c-1.058599-.371096-1.9453089-.556641-2.6601562-.556641-.9140671 0-1.6191382.290036-2.1152344.870117s-.7441406 1.403315-.7441406 2.469727c0 1.04688.2665989 1.863278.7998047 2.449219.5332058.58594 1.2744093.878906 2.2236328.878906.8515667 0 1.7109332-.214842 2.578125-.644531zm4.6326562-.345703c-.5781279.558596-1.1972623.83789-1.8574218.83789-.5625028 0-1.0195295-.171873-1.3710938-.515625-.3515642-.343751-.5273437-.789059-.5273437-1.335937 0-.710941.2841768-1.258787.852539-1.643555.5683622-.384767 1.3818307-.577148 2.4404297-.577148h.4628906v-.585938c0-.667972-.3808555-1.001953-1.1425781-1.001953-.6757846 0-1.3593715.191404-2.0507812.574219v-1.195313c.7851601-.296876 1.5624961-.445312 2.3320312-.445312 1.6836022 0 2.5253906.669915 2.5253906 2.009766v2.847656c0 .503909.1621078.755859.4863282.755859.058594 0 .1347651-.007812.2285156-.023437l.0410156.972656c-.3671893.109375-.6914048.164062-.9726562.164062-.7109411 0-1.1679678-.279294-1.3710938-.83789zm0-.931641v-1.306641h-.4101562c-1.1210994 0-1.6816406.351559-1.6816406 1.054688 0 .238282.0810538.438476.243164.600586s.3623035.243164.600586.243164c.406252 0 .8222635-.197264 1.2480468-.591797zm3.8123438 1.623047v-6.433594h1.734375v1.212891c.449221-.906255 1.1328079-1.359375 2.0507812-1.359375.1093756 0 .2167964.011719.3222657.035156v1.546875c-.246095-.089844-.4746084-.134765-.6855469-.134765-.6914097 0-1.2539041.349605-1.6875 1.048828v4.083984zm9.4139062 0v-1.212891c-.4453147.906255-1.1464796 1.359375-2.1035156 1.359375-.7734414 0-1.3808572-.2832-1.8222656-.849609-.4414085-.566409-.6621094-1.345698-.6621094-2.337891 0-1.07813.249021-1.937496.7470703-2.578125.4980494-.640628 1.166988-.960937 2.006836-.960937.6718783 0 1.2832003.265622 1.8339843.796875v-3.46875h1.7402344v9.251953zm0-4.751953c-.4179708-.468752-.865232-.703125-1.3417968-.703125-.4257834 0-.7656238.205076-1.0195313.615234-.2539075.410159-.3808594.960934-.3808594 1.652344 0 1.316413.4218708 1.974609 1.265625 1.974609.5156276 0 1.0078102-.330074 1.4765625-.990234zm7.6774219 4.751953v-8.671875h1.8046875v3.521484h3.5859375v-3.521484h1.8046875v8.671875h-1.8046875v-3.955078h-3.5859375v3.955078zm11.9744531.146484c-1.0039112 0-1.8017548-.303708-2.3935547-.911132-.5917998-.607425-.8876953-1.4248-.8876953-2.452149 0-1.039068.2978486-1.859372.8935547-2.460937.5957061-.601566 1.4052683-.902344 2.4287109-.902344 1.0273489 0 1.8388643.300778 2.4345704.902344.5957061.601565.8935546 1.417963.8935546 2.449218 0 1.054693-.2988251 1.880857-.8964843 2.478516-.5976593.597659-1.4218698.896484-2.4726563.896484zm.0292969-1.083984c.9960987 0 1.4941406-.763664 1.4941406-2.291016 0-.699222-.1318346-1.251951-.3955078-1.658203s-.6259743-.609375-1.0869141-.609375c-.4570335 0-.8173814.203123-1.0810546.609375s-.3955079.962887-.3955079 1.669922c0 .699222.1308581 1.253904.3925782 1.664063.26172.410158.6191383.615234 1.0722656.615234zm4.8435937.9375v-9.251953h1.734375v9.251953zm7.8611719 0v-1.212891c-.4453147.906255-1.1464796 1.359375-2.1035156 1.359375-.7734414 0-1.3808572-.2832-1.8222656-.849609-.4414085-.566409-.6621094-1.345698-.6621094-2.337891 0-1.07813.2490209-1.937496.7470703-2.578125.4980494-.640628 1.166988-.960937 2.0068359-.960937.6718784 0 1.2832004.265622 1.8339844.796875v-3.46875h1.7402344v9.251953zm0-4.751953c-.4179708-.468752-.865232-.703125-1.3417969-.703125-.4257833 0-.7656237.205076-1.0195312.615234-.2539075.410159-.3808594.960934-.3808594 1.652344 0 1.316413.4218708 1.974609 1.265625 1.974609.5156276 0 1.0078102-.330074 1.4765625-.990234zm9.050625 4.535156c-.8242229.242189-1.605465.363281-2.34375.363281-1.0742241 0-1.9218719-.304684-2.5429687-.914062-.6210969-.609378-.9316407-1.441401-.9316407-2.496094 0-.996099.2841769-1.797848.8525391-2.405273s1.3193313-.911133 2.2529297-.911133c.9414109 0 1.6289041.296872 2.0625.890625s.6503906 1.533197.6503906 2.818359h-3.9902344c.1171881 1.226569.7910095 1.839844 2.0214844 1.839844.5820342 0 1.2382776-.134764 1.96875-.404297zm-4.0136719-3.632812h2.3085938c0-1.097662-.3535121-1.646485-1.0605469-1.646485-.7187536 0-1.134765.548823-1.2480469 1.646485zm5.7166407 3.849609v-6.433594h1.734375v1.212891c.449221-.906255 1.1328074-1.359375 2.0507814-1.359375.109375 0 .216796.011719.322265.035156v1.546875c-.246095-.089844-.474608-.134765-.685546-.134765-.69141 0-1.2539045.349605-1.6875004 1.048828v4.083984zm9.2301564 0v-8.671875h1.58789l4.019532 5.923828v-5.923828h1.447265v8.671875h-1.617187l-3.990235-5.923828v5.923828zm12.285-.691406c-.578128.558596-1.197263.83789-1.857422.83789-.562503 0-1.01953-.171873-1.371094-.515625-.351564-.343751-.527344-.789059-.527344-1.335937 0-.710941.284177-1.258787.852539-1.643555.568363-.384767 1.381831-.577148 2.44043-.577148h.462891v-.585938c0-.667972-.380856-1.001953-1.142578-1.001953-.675785 0-1.359372.191404-2.050782.574219v-1.195313c.785161-.296876 1.562497-.445312 2.332032-.445312 1.683602 0 2.52539.669915 2.52539 2.009766v2.847656c0 .503909.162108.755859.486328.755859.058594 0 .134766-.007812.228516-.023437l.041016.972656c-.36719.109375-.691405.164062-.972657.164062-.710941 0-1.167967-.279294-1.371093-.83789zm0-.931641v-1.306641h-.410156c-1.1211 0-1.681641.351559-1.681641 1.054688 0 .238282.081054.438476.243164.600586s.362303.243164.600586.243164c.406252 0 .822263-.197264 1.248047-.591797zm3.812344 1.623047v-6.433594h1.664062v1.212891c.507815-.906255 1.230464-1.359375 2.167969-1.359375.484377 0 .882811.119139 1.195312.357422.312502.238282.503906.572263.574219 1.001953.601566-.906255 1.328121-1.359375 2.179688-1.359375 1.175787 0 1.763671.648431 1.763671 1.945312v4.634766h-1.664062v-4.066406c0-.761723-.253904-1.142578-.761719-1.142578-.519534 0-1.025388.374996-1.517578 1.125v4.083984h-1.664062v-4.066406c0-.765629-.255857-1.148438-.767579-1.148438-.511721 0-1.013669.37695-1.505859 1.13086v4.083984zm16.785-.216797c-.824223.242189-1.605466.363281-2.34375.363281-1.074225 0-1.921872-.304684-2.542969-.914062s-.931641-1.441401-.931641-2.496094c0-.996099.284177-1.797848.852539-2.405273s1.319331-.911133 2.25293-.911133c.941411 0 1.628904.296872 2.0625.890625s.650391 1.533197.650391 2.818359h-3.990235c.117188 1.226569.79101 1.839844 2.021485 1.839844.582034 0 1.238277-.134764 1.96875-.404297zm-4.013672-3.632812h2.308593c0-1.097662-.353512-1.646485-1.060546-1.646485-.718754 0-1.134766.548823-1.248047 1.646485z"/><path d="m234.862891 283v-.844727h1.445312v-5.332031l-1.445312.361328v-.86914l2.895507-.722657v6.5625h1.445313v.844727zm5.833203 0v-1.142578l.078125-.107422c.387371-.517581.784503-.953774 1.191406-1.308594l.59082-.522461c.973312-.859379 1.459961-1.612952 1.459961-2.260742 0-.755212-.429683-1.132812-1.289062-1.132812-.530602 0-1.14583.179034-1.845703.537109v-1.05957c.73568-.273439 1.446936-.410157 2.133789-.410157.768233 0 1.383461.181476 1.845703.544434s.693359.848793.693359 1.45752c0 .419924-.112303.802407-.336914 1.147461-.22461.345053-.620114.74544-1.186523 1.201171l-.488282.390625c-.680342.546878-1.083983 1.054686-1.210937 1.523438h3.193359v1.142578zm6.790234-.053711v-1.083984c.71615.276694 1.306964.415039 1.772461.415039.432945 0 .780435-.110676 1.042481-.332032.262045-.221355.393066-.515948.393066-.883789 0-.95378-.698235-1.430664-2.094727-1.430664h-.444336v-.864257l.375977-.004883c1.3086 0 1.962891-.428056 1.962891-1.28418 0-.6543-.403642-.981445-1.210938-.981445-.530601 0-1.097002.13509-1.699219.405273v-.986328c.634769-.2181 1.303708-.327148 2.006836-.327148.745447 0 1.328937.152993 1.750489.458984.421551.305991.632324.729164.632324 1.269531 0 .852869-.532221 1.455077-1.59668 1.806641 1.217454.279949 1.826172.930984 1.826172 1.953125 0 .64779-.244138 1.16048-.732422 1.538086s-1.152339.566406-1.992187.566406c-.712895 0-1.37695-.078124-1.992188-.234375zm9.378125.053711v-1.928711h-3.374023v-1.083984l3.315429-4.213867h1.323243v4.213867h.844726v1.083984h-.844726v1.928711zm-2.216797-3.012695h2.246094v-2.832032z"/></g><path d="m35 75h219v33h-219z" fill="#d8d8d8"/><path d="m115.472 93.128c0 .1280006-.069333.2826658-.208.464-.170667.2240011-.378665.3999994-.624.528-.085334.074667-.175999.1173333-.272.128-.192001.1280006-.378666.1973333-.56.208-.074667.074667-.202666.1439997-.384.208l-.288-.016-.288.24-.304-.064-.096.016-.24.032c-.160001.0213334-.293333.032-.4.032-.021333 0-.058666-.0053333-.112-.016h-.128l-.224.08-.32.032-.368-.016-.176.08.048.048c-.245335 0-.437333.0213331-.576.064l-.08-.016-.656-.048-.928-.032-.304-.048c-.096.0426669-.207999.064-.336.064-.149334 0-.303999-.0479995-.464-.144l-.304.112-.16-.144c-.448002-.0106667-.709333-.053333-.784-.128l-.064-.032c.032 0-.058666.0106666-.272.032l-.624-.416-.288-.064c-.181334-.0853338-.335999-.2346656-.464-.448-.106667-.1813342-.16-.3573325-.16-.528 0-.1173339.053333-.3253318.16-.624l.32-.352.384.016c.085334-.1173339.207999-.176.368-.176.341335 0 .512.2719973.512.816-.224001.0533336-.357333.0959998-.4.128-.053334.0640003-.133333.133333-.24.208v.048l.144.08.192.208.624-.032.528.16.832-.016.304.192.144-.08c.064 0 .144.0159998.24.048l.416.048.032.08h.256c.245335-.074667.384-.112.416-.112.053334 0 .117333.0159998.192.048.096001-.0213334.218666-.032.368-.032.106667 0 .202666.0106666.288.032.074667-.0426669.16-.064.256-.064.117334 0 .218666.0213331.304.064l.352-.096.176-.192.608.064c.309335-.0960005.554666-.144.736-.144h.08c.074667-.0533336.138666-.08.192-.08.032 0 .069333.0106666.112.032l.16-.064v-.128h.336c.074667-.0960005.207999-.1493333.4-.16.149334-.1386674.272-.2133333.368-.224l.128-.192c0-.0960005-.34133-.3039984-1.024-.624l-.128-.096c-.224001-.0213334-.399999-.0586664-.528-.112-.074667 0-.144-.0053333-.208-.016h-.032c-.053334 0-.261331-.0639994-.624-.192-.117334-.0853338-.239999-.128-.368-.128-.042667 0-.106666.0106666-.192.032h-.32l-.048-.048c-.170667-.0320002-.303999-.0799997-.4-.144l-.192.064-.496-.24h-.32l-.208-.128h-.32l-.048-.08h-.256l-.224-.256h-.112c-.330668 0-.586666-.0639994-.768-.192l-.032-.032c-.234668-.074667-.405333-.1919992-.512-.352l-.272-.256-.176-.416-.192-.256.08-.656.384-.448c.064-.0106667.112-.0799994.144-.208.032-.0106667.085333-.0373331.16-.08l.816-.448c.106667.0213334.181333.032.224.032.149334 0 .303999-.0533328.464-.16h.096v.032l.16-.144h.08c.341335-.1280006.623999-.192.848-.192h.08l.144.016.24-.144c.064-.0106667.149333-.016.256-.016h.096c.074667 0 .205332-.0106666.392-.032s.333333-.0373333.44-.048l.288-.016.432-.224c.032.0213334.101333.1013326.208.24h.352c.064 0 .181333.0319997.352.096h.112c.256001 0 .469333.0533328.64.16.565336.1386674.848.4213312.848.848 0 .3626685-.29333.581333-.88.656l-.128-.192c-.032-.0106667-.088-.0319998-.168-.064s-.141333-.0533333-.184-.064h-.352l-.16-.176-.256.032-.144.16-.384-.272-.416.064-.496-.112c-.309335.0213334-.570666.0853328-.784.192l-.032.016c-.032.0213334-.066666.0399999-.104.056-.037333.0160001-.061333.024-.072.024l-.224-.096-.448.208-.832.224-.192-.048-.352.224h-.16l-.096.144-.336.224.032.096.176.176.16.048.256.16.496.176.24.016.432.256.128-.048c.309335.0640003.517333.1493328.624.256l.048.048h.032l.32.192.112-.112.384.016.064.032h.224l.224.176h.112c.181334 0 .341333.0266664.48.08.010667 0 .064-.0053333.16-.016.192001 0 .405332.0853325.64.256l.192-.048.144.064h.272l.464.32.48.048.192.256c.362669.2240011.599999.4186658.712.584s.168.4026651.168.712c0 .0213334.005333.0533331.016.096zm4.024-8.944c0 .1280006-.085332.2453328-.256.352v.032c-.202668.2453346-.378666.3839998-.528.416l-.24.288-.16.208-.368.096-.16.224-.256.128-.416.368-.256-.24.048-.4.176-.288c.010667-.1493341.095999-.2773328.256-.384v-.064l.096-.064.016-.24.256-.064v-.144l.192-.032c.042667-.2133344.133333-.3679995.272-.464l.048-.032.096-.096.128-.384c.704004.1706675 1.056.4319982 1.056.784zm1.632 8.48c0 .2453346-.042666.3999997-.128.464l-.08.064-.08.224-.256.08c-.074667.1706675-.186666.3039995-.336.4l-.144.048-.208.224-.192.048c-.074667.192001-.229332.2933333-.464.304-.021333.0320002-.069333.0959995-.144.192-.160001.1066672-.325332.1706666-.496.192l-.08.016-.112.144h-.32l-.256.192-.656-.48-.304-.624-.016-.784-.064-.192.192-1.408.064-.064c-.032-.1600008-.048-.3146659-.048-.464 0-.0960005.032-.2933318.096-.592l.08-.368c-.021333-.0640003-.064-.133333-.128-.208l.096-.304.032-.368.032-.048c-.042667-.0960005-.069333-.2026661-.08-.32.010667-.0213334.021333-.0506665.032-.088s.016-.0666666.016-.088c-.032-.0960005-.048-.1866662-.048-.272 0-.2560013.143999-.3733334.432-.352l.192.016c.128001-.0640003.208-.096.24-.096.213334 0 .357333.1173322.432.352v.064c.042667.1280006.064.2506661.064.368 0 .0960005-.010667.1653331-.032.208l-.112.8.112.224c0 .192001-.063999.3626659-.192.512l.064.192-.208.608c-.021333.266668-.048.4693326-.08.608v.4l-.096.224.016.16-.032.368.032.288.24.192.192-.032.032-.048.128.016.208-.064.176-.176.064-.096.112-.016.032-.08.048-.064.096.064.16-.16.096.016.032-.112h.032l.048-.128.144-.064.304-.144c.245335-.1706675.485332-.256.72-.256h.064c.117334.074667.197333.1706661.24.288zm8.472.352-.128.592.032.192-.032.048c.042667.0960005.064.1919995.064.288 0 .0640003-.016.1279997-.048.192v.032c0 .1280006-.048.6506621-.144 1.568l-.032.304v.064l-.032.064-.016.064.016.096-.048.048-.048.096h-.064l.016.08-.032.096c0 .074667-.026666.149333-.08.224l-.08.256c-.032.1173339-.085333.2239995-.16.32-.074667.1386674-.207999.3253322-.4.56l-.272.208-.304.256-.24.112-.192.144-.128.032c-.213334.1173339-.453332.1866666-.72.208l-.096-.016-.144.064v.032c-.181334.0426669-.335999.064-.464.064h-.624l-.384-.08-.336.064-.16-.144-.48-.048-.32-.288-.24-.128c-.426669-.1600008-.672-.4426646-.736-.848l.032-.064-.048-.256c.128001-.2026677.245333-.3093333.352-.32.085334-.0533336.170666-.08.256-.08l.296.048c.197334.0320002.402666.0533333.616.064l-.032.24.192.128v.192l-.128.16.736.224.368-.08v.112l.112-.032h.032c.010667 0 .079999.0106666.208.032l.016.064.16-.08c.128001-.0640003.383998-.096.768-.096.064-.0426669.117333-.0853331.16-.128.010667 0 .037333.0053333.08.016h.096c.064 0 .128-.0639994.192-.192.010667.0320002.032.048.064.048.021333 0 .048-.0106666.08-.032s.053333-.032.064-.032h.032l.512-.448.24-.368.016-.208.176-.224.016-.208.096-.192.08-.432.128-.4c-.010667-.0640003-.016-.1599994-.016-.288 0-.2346678.032-.4693322.096-.704l-.064-.256v-.784l-.128-.272v-.448l-.128-.336.016-.512-.016-.08-.112.032-.096.24-.24.208-.288.464-.416.288-.448.464c-.256001.266668-.554665.5013323-.896.704l-.16.192-.24.144-.224.112-.208.208-.256.128c-.085334.0853338-.207999.1439998-.368.176-.234668.1600008-.501332.24-.8.24h-.176c-.053334.0106667-.128.016-.224.016-.085334 0-.149333-.0053333-.192-.016l-.288-.016-.416-.4-.304-.4-.128-.336-.112-.64.064-.464.16-.544-.032-.176.144-.496.144-.288c.042667-.1386674.064-.303999.064-.496l.352-.656c.032-.0853338.111999-.1759995.24-.272l.16-.272.192-.208c.042667-.1386674.127999-.2613328.256-.368.085334-.0426669.146666-.1226661.184-.24s.237332-.2239995.6-.32l-.08.016.08-.032c.032-.0533336.106666-.1599992.224-.32l.192.032.144-.096c.170668-.1493341.351999-.224.544-.224h.112l.416-.16.24.08h.288l.176.096c.106667.0106667.192.0586662.256.144l.224.224.064.032.032.064.144.224.016.08-.048.256.032.176-.208.32-.464.064-.24-.384-.224-.08-.112-.112h-.16c-.053334.0213334-.165332.0746662-.336.16l-.016.128h-.4c-.106667.1600008-.223999.2453333-.352.256-.064.0426669-.128.0799998-.192.112l-.128.304-.112.016-.016.144h-.224l-.208.336-.176.112-.064.224-.24.336-.032.32-.192.192-.176.688-.128.128.016.176-.192.608.048.192-.016.192c.074667.1066672.112.2186661.112.336l.112.032.048.096c.181334 0 .298666.0213331.352.064.096-.074667.357331-.1546662.784-.24.064-.1493341.154666-.2586663.272-.328s.357332-.199999.72-.392l.048.016c0-.0853338.032-.165333.096-.24.160001-.0640003.256-.1066666.288-.128.085334-.0533336.133333-.1226662.144-.208l.256-.064.16-.144.4-.544.112.064c.010667-.0320002.127999-.1759987.352-.432l.384-.448.032-.208c.128001-.1173339.277332-.4586638.448-1.024l-.08-.336-.128-.224.096-.24-.128-.176-.032-.224-.048-.16.16-.288c.170668-.0853338.293333-.128.368-.128.096 0 .223999.0479995.384.144l.112.208.208.16.032.352c.032.0960005.069333.239999.112.432.053334.0960005.08.2079994.08.336v.112l.032.096.176.256-.048.288.096.128c.032.074667.048.1546662.048.24 0 .074667-.005333.1333331-.016.176l.144.048-.112.4.064.304c.053334.1066672.08.2026662.08.288s-.026666.1919994-.08.32l.096.08zm4.504-1.312.292172-.3296299c-.054543.0606622-.115476.1282694-.182798.2028215-.00443.004906-.008888.0098422-.013374.0148084v.032l.032-.112.208-.24.144-.272v-.16l.24-.08.032-.208.064-.064.016-.08v-.112l.224-.224v-.08c-.010667-.0320002-.016-.0533333-.016-.064 0-.192001.106666-.2986666.32-.32.096-.192001.239999-.3039998.432-.336l.096-.144.032-.032c.096-.1386674.239999-.2346664.432-.288l.144-.176h.384l.192.224.176.096.016.048.112.032.032.336.272.16-.112.352.176.384v.448l.128.608.032.576.144.336.096.416c.064.0640003.112.1546661.144.272l.288.08v.32l.16.176v.048l.064.016.064.096.064-.08c-.021333 0 .005333.0053333.08.016.117334 0 .239999-.1066656.368-.32l.192-.048.048-.08c.032-.0853338.096-.1493331.192-.192l.112.016.064-.064.016-.08.048-.064c.106667-.074667.176-.1866659.208-.336l.176-.192.032-.144.112-.256.304-.112.432.144.144.464c0 .0106667.005333.0213333.016.032v.048c0 .0853338-.069333.1973326-.208.336l-.176.272-.064.32-.144.048-.032.096c-.170668.0533336-.293333.1866656-.368.4-.117334.1493341-.245333.2559997-.384.32-.053334.0533336-.101333.0906666-.144.112l-.08.144-.144.032-.416.224-.544.064-.144-.032-.24.048-.096-.112c-.149334-.074667-.256-.149333-.32-.224-.128001-.0320002-.224-.1333325-.288-.304-.181334-.2133344-.272-.3839994-.272-.512v-.048l-.112-.192-.032-.032-.096-.288-.144-.304.032-.368-.16-.208-.24-1.376c-.032-.1813342-.048-.3359994-.048-.464l-.032-.08-.08-.112-.144.192-.576.608-.208.336-.112.224-.176.256-.128.128.016.08-.224.496-.128.16-.16.032-.144.144c0 .2133344-.101332.3519997-.304.416l-.032.032c-.096.2346678-.202666.3786664-.32.432l-.144.224c-.234668.2133344-.389333.3466664-.464.4-.032.1066672-.090666.197333-.176.272-.021333.0320002-.058666.0746664-.112.128-.032.1813342-.181332.309333-.448.384l-.176.048c-.213334-.0106667-.389333-.1333322-.528-.368l-.24-.4.08-.384-.032-.208.032-.032.016-.208-.176-.384.128-.192-.064-.208.112-.224.032-.368-.064-.064.128-.224-.048-.112-.016-.256.064-.48c-.021333-.1066672-.032-.1759998-.032-.208 0-.0213334.005333-.0426666.016-.064v-.064l-.08-.128.048-.512-.016-.176.048-.256-.064-.432.288-.48c.330668.0533336.559999.1253329.688.216s.192.2533322.192.488v.144l.112.192-.048.336.064.64-.112.304.048.336v.272l-.128.176.096.288-.096.176-.016.176.096.176-.128.336-.048.144v.144l.08.16.272-.272c0-.1600008.053333-.2666664.16-.32.010667-.1066672.053333-.1866664.128-.24l-.048-.048.208-.192.048-.064v-.144l.256-.192.064-.16zm14.232-3.184-.16.208.128.384-.208.24-.08.336-.048.08.032.08c0 .1493341-.037333.261333-.112.336l-.032.048v.064c.032.074667.048.1439997.048.208 0 .0533336-.005333.0906666-.016.112l.016.064-.064.176.048.192-.128.128.048.224.096.112-.144.128v.256l-.112.256.08.256-.096.128.16.112-.224.368-.016.048.16.032-.112.368v.064c0 .074667-.005333.1333331-.016.176l.016.048.256.032.208.32-.112.24.176-.016c.064.1280006.101333.2399995.112.336l-.24.24c-.074667.074667-.181333.149333-.32.224l-.272.144-.08-.08-.16.096-.496-.576v-.272c-.064-.2133344-.096-.4106658-.096-.592v-.096l-.096-.944.128-.672-.096-.384-.272.448-.144.416-.128.064-.224.352-.4.368-.112.192-.352.304-.08.208-.512.32-.544.608-.304.064-.208.16c-.266668-.0106667-.469333-.111999-.608-.304-.480002-.2346678-.730667-.5706645-.752-1.008l.08-.048-.016-.096-.016-.192-.096-.208.096-.224.032-.336.112-.528v-.064c-.010667-.0213334-.016-.0426666-.016-.064 0-.0426669.010667-.0959997.032-.16-.010667-.0213334-.016-.0639997-.016-.128 0-.074667.032-.1973325.096-.368l.112-.048c-.064-.0533336-.096-.1119997-.096-.176 0-.0426669.005333-.0746666.016-.096-.010667-.0320002-.016-.0693331-.016-.112 0-.1280006.063999-.2239997.192-.288.032-.1066672.090666-.2133328.176-.32l-.08-.128.192-.24v-.064c0-.2026677.069333-.3893325.208-.56l-.016-.288.064-.064v-.048c-.010667-.0213334-.016-.0373333-.016-.048 0-.0640003.021333-.1173331.064-.16v-.096c.042667-.1066672.154666-.2666656.336-.48s.314666-.3999992.4-.56l.08.08.176-.08.08-.032.528-.24 1.232.064v.112l.384.08c.245335 0 .405333.0799992.48.24 0-.0320002.005333-.0693331.016-.112v-.064l.336.304.304.064.576-.144.208.4zm-1.52.832-.064-.112-.128-.032-.496-.4-.32-.048h-.256l-.032-.032-.128.048-.144-.08h-.416l.048.064-.368.128-.064.08-.048.016c-.192001.1600008-.325333.2933328-.4.4l-.112.384-.064.144.16.224-.272.208.032.064c-.117334.2026677-.176.399999-.176.592l-.128.16v.288l-.128.144-.032.144-.048.032v.224l-.048.08c0 .1280006-.010667.229333-.032.304l.032.08-.144.304.064.096-.112.16.112.304-.176.224.032.304v.048l.064.032.08-.016c.053334-.0533336.106666-.1013331.16-.144l-.032-.128.224-.032.048-.112.944-.768.096-.032.112-.272c.064-.0213334.154666-.0639997.272-.128l.096-.256h.128l-.048-.272.224-.032c.021333-.0426669.056-.0959997.104-.16s.098666-.1226664.152-.176l.816-1.088.128-.24-.016-.064.112-.176.032-.176.144-.128zm8.216-.096c0 .0960005-.095999.1866662-.288.272-.042667.0533336-.122666.1013331-.24.144-.149334.0640003-.256.1173331-.32.16l-.336-.112c-.170668.1280006-.389332.192-.656.192l-.192-.048-.144.128h-.432l-.272.176c-.117334-.0426669-.229333-.064-.336-.064-.032.0213334-.106666.0426666-.224.064-.053334 0-.112-.0159998-.176-.048l-.048.608.016.448-.048.56.032.608.048.288v.224l.224.48c-.032.0320002-.048.0693331-.048.112 0 .074667.117332.1333331.352.176l.032.192.112.048.192.128.128.096c.106667-.0213334.181333-.032.224-.032.096 0 .192.0159998.288.048.042667-.0213334.133333-.0959994.272-.224.096-.0853338.186666-.128.272-.128h.048c.021333.0106667.037333.016.048.016.096-.2026677.266665-.3359997.512-.4.224001 0 .410666.0693326.56.208v.112c0 .3626685-.127999.5919995-.384.688-.096.2240011-.298665.3679997-.608.432l-.192.176h-.208l-.368.096c-.085334.0213334-.207999.032-.368.032-.085334 0-.176-.0213331-.272-.064h-.208l-.56-.304-.144-.048-.336-.448-.192-.208-.352-.8-.128-.752.032-.192-.128-.176.08-.224-.08-.352.112-.112.032-.208-.048-.192.032-.288-.064-.256.08-.08v-.256l-.112-.048-.304.064-.288-.208h-.048c-.320002 0-.48-.170665-.48-.512v-.048l-.192-.304.304-.288.4.064.208-.032.304.08h.336v-.32l-.208-.448.208-.112-.08-.24.016-.496-.128-.208c-.074667-.1173339-.112-.2239995-.112-.32 0-.1173339.026666-.213333.08-.288l.048-.224.128-.128c.288001-.0533336.48-.08.576-.08.341335 0 .528.1546651.56.464l-.048.08c.064.0960005.096.1866662.096.272 0 .0106667-.005333.0373331-.016.08l-.032.096-.016.112.064.208-.016.08.032.224-.144.192.08.32-.064.384.128.144-.128.288.496-.064.88.08.704-.112.24.016.08-.016h.624c.330668 0 .496.1173322.496.352zm9.496 4.816c0 .1280006-.095999.2826658-.288.464l-.128.048-.112.144-.288.08c-.053334.074667-.106666.112-.16.112-.010667 0-.021333-.0053333-.032-.016h-.048c-.234668.1173339-.517332.176-.848.176h-.128l-.4-.08-.272-.128-.608-.512-.128-.432-.256-.208c.032-.0426669.048-.1119995.048-.208 0-.0640003-.042666-.1706659-.128-.32l.048-.384v-.064c0-.1280006-.037333-.2933323-.112-.496l.096-.48-.208.416-.24.032-.032.336c-.085334.0426669-.186666.064-.304.064l-.176.384-.208.24c-.085334.0960005-.16.1493333-.224.16l-.048.032-.576.592h-.064l-.304.352-.288.144-.16.208-.368.112-.528.208-.32-.16c-.213334 0-.362666-.095999-.448-.288l-.144-.08c0-.0320002.005333-.0746664.016-.128v-.112l-.256-.224.064-.096-.192-.448.064-.064-.032-.032v-.096c-.010667-.0320002-.016-.0586666-.016-.08 0-.1173339.016-.2293328.048-.336l.016-.416-.064-.336c.053334-.0853338.08-.1599997.08-.224 0-.074667-.032-.1439997-.096-.208l.176-.128v-.192l-.064-.528.176-1.024c0-.1706675-.048-.4213317-.144-.752.032-.341335.255998-.5279998.672-.56l.128.048.224.032.288.32-.096.416-.032.688.048.528-.096.192.048.128-.08.256v.16l-.032.048c.010667.0320002.016.0799997.016.144 0 .1386674-.021333.2826659-.064.432l.08.112-.064.24.032.192v.224c.053334.0640003.08.1439995.08.24 0 .0853338-.021333.1706662-.064.256v.064c.053334.1813342.08.2986664.08.352l.144.144c.064-.0426669.138666-.0959997.224-.16.032-.1066672.106666-.1759998.224-.208v-.16c.064 0 .165333-.0159998.304-.048l.032-.144.272-.112.048-.048c.074667-.074667.197332-.1439997.368-.208v-.064l.304-.224c.074667-.2026677.207999-.3359997.4-.4.117334-.1173339.197333-.1866666.24-.208l.208-.272v-.048l.064-.032.144-.064.08-.224.336-.144.064-.016.112-.112v-.144l.096-.032c.032-.1706675.117333-.2986662.256-.384l.24-.544.08-.288.032-.064h.064l.112-.08-.096-.032c.117334-.192001.208-.3946656.272-.608l.464-.016.368.304.16.256-.176.688-.24.32-.192.624-.16.096v.24l-.096.176.048.288-.128.112.064.512.032.72h.08v.416l.224.272.208.112.016.08c.074667.0106667.165333.0373331.272.08l.4.032.24-.064.432-.208c.085334-.0426669.191999-.064.32-.064.320002 0 .48.1386653.48.416zm6.92-5.024-.128.528-.592.08-.32.208-.208-.096-.224.128-.24.096-.16.112v.064l-.336.16-.224.288h-.112c-.170668.1813342-.293333.2933331-.368.336l-.224.368-.08.032c-.032.0853338-.069333.2133325-.112.384l-.224.08-.096.192-.128.16-.032.24-.128.048v.24l-.048.048c.032.0533336.069333.1119997.112.176l-.24.096-.032.208-.16.272.096.208-.208.288c.021333.1066672.032.1813331.032.224v.064c-.010667.0320002-.016.0586666-.016.08l.032.144.272.288-.208.368-.192.144-.448.224-.592-.24v-.368l-.064-.144.048-.24c-.021333-.1706675-.032-.2986662-.032-.384 0-.0320002.005333-.0746664.016-.128v-.112l-.016-.16c-.074667-.074667-.112-.1599995-.112-.256 0-.0853338.037333-.1813328.112-.288 0-.0533336-.010667-.213332-.032-.48l.048-.048-.048-.208.032-.192-.032-.112.048-.368-.096-.16.064-.176-.064-.208c.010667-.0640003.016-.1493328.016-.256 0-.1600008-.021333-.2666664-.064-.32l.064-.096-.064-.288-.144-.208.08-.256-.064-.096-.064-.384v-.128c-.053334-.0640003-.08-.1439995-.08-.24 0-.2133344.234664-.3946659.704-.544l.4.08.08.304.16.208-.048.432c.032.2133344.069333.4479987.112.704l.048.256c.010667.0213334.021333.0799995.032.176 0 .0640003-.026666.133333-.08.208l.048.32-.032.352-.064.16.048.064.032.16c.064-.074667.101333-.1546662.112-.24l.064-.24c.032-.0640003.08-.1119998.144-.144l.064-.24.224-.128.032-.192.176-.192.128-.24c.138667-.1493341.271999-.2453331.4-.288l.032-.048.144-.224.16-.032.048-.048.064-.096.176-.096.096-.112.096.016.128-.064.064-.096.192-.096.272-.176.384-.128c.149334-.0213334.229333-.032.24-.032v.016c-.010667 0-.016.0053333-.016.016h.016c.042667 0 .106666-.0213331.192-.064.053334-.0426669.128-.064.224-.064.042667 0 .117333.0106666.224.032.277335.0106667.432.1386654.464.384zm5.096 4.64c0 .1280006-.095999.287999-.288.48-.053334.1706675-.133333.3093328-.24.416l-.096.016-.176.304-.288.048-.304.192-.16.288-.176-.032c-.117334.0533336-.213333.0853333-.288.096l-.096.144c-.032-.0106667-.08-.016-.144-.016-.138667 0-.271999.095999-.4.288l-.224-.192c-.042667.0106667-.106666.016-.192.016-.138667 0-.256-.0213331-.352-.064h-.272l-.128-.08c-.405335-.0640003-.661333-.2186654-.768-.464v-.048l-.192-.096-.096-.272-.192-.128v-.24l-.192-.704.032-.576.064-.256v-.336l.08-.256-.016-.112.112-.192-.032.032c0-.0960005.026666-.1973328.08-.304v-.08l-.048-.384c0-.1813342.079999-.3413326.24-.48.010667-.0213334.016-.0533331.016-.096s-.018666-.130666-.056-.264-.056-.2266664-.056-.28c0-.1280006.032-.2613326.096-.4.085334.1280006.207999.192.368.192h.048c.021333-.0426669.069333-.0906664.144-.144.085334-.266668.202666-.4906658.352-.672l.064-.064c0-.0426669.032-.1653323.096-.368h.128l.032-.08.128-.032c.053334-.0853338.088-.1359999.104-.152s.130666-.0826661.344-.2c.042667-.074667.106666-.1439997.192-.208.042667-.0213334.096-.0426666.16-.064l.064-.096c.288001-.0960005.469333-.144.544-.144.085334 0 .165333.0213331.24.064l.08-.016.112.064c.128001.0960005.255999.1759997.384.24l.272.208v.064c.245335.192001.368.4639982.368.816l-.048.16.048.528-.144.096-.16.416-.304.336-.016.256c-.341335.2453346-.655999.4426659-.944.592-.096.1493341-.245332.224-.448.224h-.048l-.304.192h-.256l-.384.16-.288-.144h-.032c-.021333.0853338-.042667.2133325-.064.384l-.128.096-.016.192-.096.272c.032.2560013.048.421333.048.496l-.064.048c0 .1386674-.005333.2399997-.016.304 0 .0106667-.005333.0266666-.016.048v.048c0 .0853338.042666.1546664.128.208.032.1280006.085333.2079998.16.24l.112.096.352.096v.048l.128.032.544.032.32-.048.16-.112.096-.032.16-.24.08-.016.4-.128c.042667-.074667.112-.1386664.208-.192l.048-.08c.213334-.0426669.336-.1546658.368-.336.149334-.1493341.341332-.224.576-.224h.064c.202668.2346678.304.4266659.304.576zm-1.584-4.608c0-.0320002-.016-.0959995-.048-.192l-.08-.016-.032.016h-.064c-.021333.0106667-.042667.016-.064.016-.010667 0-.026667-.0053333-.048-.016h-.048l-.16.112-.144.016-.08.032-.272.352-.176.128-.256.448-.144.096c-.032.1813342-.106666.3359994-.224.464l-.064.112c.117334-.074667.250666-.112.4-.112l.112-.048.048-.144.224.016.128-.192h.096l.176.064.08-.24h.112v-.176l.208-.048.048-.048.032-.144.208-.304c.021333-.0533336.032-.117333.032-.192z" fill="#000"/><path d="m232.62373 87v-.8447266h1.445313v-5.3320312l-1.445313.3613281v-.8691406l2.895508-.7226563v6.5625h1.445313v.8447266zm5.833204 0v-1.1425781l.078125-.1074219c.387371-.5175807.784503-.9537743 1.191406-1.3085938l.59082-.5224609c.973312-.8593793 1.459961-1.6129525 1.459961-2.2607422 0-.7552121-.429683-1.1328125-1.289062-1.1328125-.530602 0-1.14583.1790347-1.845704.5371094v-1.0595703c.735681-.2734389 1.446937-.4101563 2.13379-.4101563.768233 0 1.383461.1814761 1.845703.5444336.462242.3629576.693359.8487926.693359 1.4575196 0 .4199239-.112304.8024071-.336914 1.1474609-.224611.3450538-.620114.7454404-1.186523 1.2011719l-.488282.390625c-.680342.5468777-1.083983 1.0546851-1.210937 1.5234375h3.193359v1.1425781zm6.790234-.0537109v-1.0839844c.716149.2766941 1.306964.4150391 1.772461.4150391.432945 0 .780435-.110676 1.04248-.3320313.262046-.2213553.393067-.5159487.393067-.8837891 0-.9537808-.698235-1.430664-2.094727-1.430664h-.444336v-.8642578l.375977-.0048828c1.3086 0 1.96289-.4280557 1.96289-1.2841797 0-.6543002-.403641-.9814453-1.210937-.9814453-.530602 0-1.097002.1350897-1.699219.4052734v-.9863281c.634769-.2181001 1.303708-.3271485 2.006836-.3271485.745447 0 1.328937.1529933 1.750488.4589844.421552.3059911.632325.729164.632325 1.2695312 0 .8528689-.532222 1.4550764-1.59668 1.8066407 1.217454.2799493 1.826172.9309844 1.826172 1.953125 0 .6477897-.244138 1.1604799-.732422 1.5380859-.488284.3776061-1.15234.5664063-1.992188.5664063-.712894 0-1.37695-.0781243-1.992187-.234375z" fill="#000"/><path d="m0 23h290v36h-290z" fill="#d8d8d8"/><path d="m222.5 266.5h48v26h-48z" stroke="#d2000d"/><path d="m224.5 71.5h34v22h-34z" stroke="#d2000d"/></g></svg>