<svg viewBox="0 0 32 32" xmlns="http://www.w3.org/2000/svg"><path d="m4.4 15.1 10 15-13.9-14.4v-.8zm3.4-6.2-3.5 1.8-3.6 3.8 3.7.2zm2.7 5.8-2.2-5.8-3.4 5.9h5.6zm-5.6.4 10.2 15.3-5.3-15.3zm10.5-4.6-6.8-1.8 2.3 5.9zm11.7 4.6-10 15 13.9-14.4v-.8zm3.7-.6-3.6-3.8-3.5-1.8 3.4 5.8zm-4.2.2-3.4-5.9-2.2 5.9zm-4.9.4-5.3 15.3 10.2-15.3zm-1.1-.5 2.3-5.9-6.7 1.8zm-4.8.5h-5.5l5.5 16 5.5-16zm-4.4-.4h8.8l-4.4-4zm10.3-6.1h-12l6 1.7zm-5.7-7.8h-.4v5.8h.4zm-2.1 5.9-2.5-3.8-.4.1 2.5 3.8zm6.6-3.7-.4-.2-2.5 3.8.4.3z"/></svg>