<?xml version="1.0" encoding="UTF-8"?>
<svg width="50px" height="34px" viewBox="0 0 50 34" version="1.1" xmlns="http://www.w3.org/2000/svg" xmlns:xlink="http://www.w3.org/1999/xlink">
    <title>Icon Amex</title>
    <g id="Icon Amex" stroke="none" stroke-width="1" fill="none" fill-rule="evenodd">
        <rect id="Rectangle" x="0" y="0" width="50" height="34"></rect>
        <g id="icon-amex" transform="translate(8.000000, 6.000000)">
            <rect id="Rectangle" fill="#006FCF" x="0" y="0" width="34" height="21"></rect>
            <g id="Group" transform="translate(2.720000, 5.419355)" fill="#FFFFFF" fill-rule="nonzero">
                <polygon id="Path" points="2.51294531 2.48409148 3.52882812 2.48409148 3.02101953 1.19606855"></polygon>
                <polygon id="Path" points="7.91549219 6.80786605 7.91549219 7.40596648 9.62405859 7.40596648 9.62405859 8.05011026 7.91549219 8.05011026 7.91549219 8.74029738 9.80866797 8.74029738 10.6859609 7.77404864 9.85488672 6.80786605"></polygon>
                <polygon id="Path" points="21.2599609 1.19606855 20.7058008 2.48409148 21.7679688 2.48409148"></polygon>
                <polygon id="Path" points="12.85625 9.10791646 12.85625 6.48595955 11.655625 7.77404864"></polygon>
                <path d="M15.1188437,7.22205771 C15.072625,6.94606225 14.88775,6.80786605 14.6105703,6.80786605 L13.6411055,6.80786605 L13.6411055,7.63585247 L14.6570547,7.63585244 C14.9340352,7.6359186 15.1188437,7.49798702 15.1188437,7.22205771 Z" id="Path"></path>
                <path d="M18.3508359,7.54409652 C18.443207,7.49798702 18.4895586,7.35985698 18.4895586,7.22212387 C18.5357773,7.03828125 18.443207,6.9461284 18.3508359,6.90008506 C18.2587305,6.85404171 18.1200078,6.85404171 17.9816836,6.85404171 L17.0579727,6.85404171 L17.0579727,7.59013987 L17.9816172,7.59013987 C18.1199414,7.59013987 18.2586641,7.59013987 18.3508359,7.54409652 Z" id="Path"></path>
                <path d="M24.9998945,4.09600669e-14 L24.9998945,0.551990927 L24.7230469,4.09600669e-14 L22.5530234,4.09600669e-14 L22.5530234,0.551990927 L22.2758437,4.09600669e-14 L19.3206328,4.09600669e-14 C18.8127578,4.09600669e-14 18.3969883,0.0920866935 18.0277695,0.276061618 L18.0277695,4.09600669e-14 L15.9499844,4.09600669e-14 L15.9499844,0.0460433468 L15.9499844,0.276061618 C15.7191562,0.0921528478 15.4421094,4.09600669e-14 15.0726914,4.09600669e-14 L7.63851172,4.09600669e-14 L7.13037109,1.1500252 L6.6225625,3.90798505e-14 L4.96034766,3.90798505e-14 L4.26766406,3.90798505e-14 L4.26766406,0.551990927 L4.03676953,3.90798505e-14 L3.99055078,3.90798505e-14 L2.00507031,3.90798505e-14 L1.08142578,2.16192036 L0.0195234375,4.5078818 L1.42108547e-14,4.55399131 L0.0195234375,4.55399131 L2.37448828,4.55399131 L2.40397266,4.55399131 L2.42070703,4.5078818 L2.69788672,3.81802545 L3.29813281,3.81802545 L3.57517969,4.55399131 L6.25307812,4.55399131 L6.25307812,4.5078818 L6.25307812,4.00200038 L6.48410547,4.55392515 L7.82305469,4.55392515 L8.05381641,4.00200038 L8.05381641,4.5078818 L8.05381641,4.55399131 L9.11585156,4.55399131 L14.4260273,4.55399131 L14.4722461,4.55399131 L14.4722461,3.35792276 L14.5648164,3.35792276 C14.6570547,3.35792276 14.6570547,3.35792276 14.6570547,3.49598664 L14.6570547,4.50794796 L17.9816836,4.50794796 L17.9816836,4.23195249 C18.2587305,4.37014869 18.6740352,4.50794796 19.2281953,4.50794796 L20.6136289,4.50794796 L20.8906758,3.77211442 L21.5369414,3.77211442 L21.8139883,4.50794796 L24.4920195,4.50794796 L24.4920195,4.04804372 L24.4920195,3.81809161 L24.9077891,4.50794796 L24.9998945,4.50794796 L25.0462461,4.50794796 L27.0779453,4.50794796 L27.0779453,3.90798505e-14 L25.0000273,3.90798505e-14 L25.0000273,3.90798505e-14 L24.9998945,3.90798505e-14 L24.9998945,4.09600669e-14 Z M9.34687891,3.86413495 L8.88502344,3.86413495 L8.60804297,3.86413495 L8.60804297,3.58833795 L8.60804297,1.33406628 L8.56182422,1.43958228 L8.56182422,1.43832535 L7.48763672,3.86413495 L7.45363672,3.86413495 L7.20667187,3.86413495 L6.80710547,3.86413495 L5.69898437,1.33406628 L5.69898437,3.86413495 L4.12914062,3.86413495 L3.80594141,3.1741463 L2.23583203,3.1741463 L1.91256641,3.86413495 L1.10088281,3.86413495 L2.46685937,0.644077621 L3.62113281,0.644077621 L4.91399609,3.72600491 L4.91399609,0.644077621 L5.19097656,0.644077621 L6.13733203,0.644077621 L6.15911328,0.690187122 L6.16070703,0.690187122 L6.74328906,1.95333606 L7.16164844,2.89973853 L7.17645703,2.85204133 L8.09990234,0.644143775 L9.3468125,0.644143775 L9.34687891,3.86413495 L9.34687891,3.86413495 L9.34687891,3.86413495 Z M12.5330508,1.33406628 L10.7321797,1.33406628 L10.7321797,1.9320344 L12.486832,1.9320344 L12.486832,2.57597971 L10.7321797,2.57597971 L10.7321797,3.22018964 L12.5330508,3.22018964 L12.5330508,3.90997984 L9.94725781,3.90997984 L9.94725781,0.644143775 L12.5330508,0.644143775 L12.5330508,1.33406628 L12.5330508,1.33406628 Z M15.8264687,2.52021169 C15.8276641,2.52127016 15.8291914,2.52199786 15.8306523,2.52299017 C15.8481172,2.54138105 15.8630586,2.55983808 15.8758086,2.57750126 C15.9642617,2.69300655 16.0357812,2.8648091 16.0393672,3.11672442 C16.0396328,3.1210906 16.039832,3.12539063 16.0400977,3.1297568 C16.0400977,3.13227067 16.0405625,3.13445376 16.0405625,3.13703377 C16.0405625,3.13848916 16.0404297,3.13961379 16.0404297,3.14100302 C16.0414922,3.1663401 16.0421562,3.1922064 16.0421562,3.22018964 L16.0421562,3.86420111 L15.3496719,3.86420111 L15.3496719,3.4960528 C15.3496719,3.31207787 15.3496719,3.03601626 15.2109492,2.85204133 C15.1673203,2.808578 15.1231602,2.77993322 15.075082,2.75955771 C15.0058867,2.7149036 14.8747344,2.71417591 14.6570547,2.71417591 L13.8256484,2.71417591 L13.8256484,3.86420111 L13.0408594,3.86420111 L13.0408594,0.644143775 L14.7956445,0.644143775 C15.2109492,0.644143775 15.4881289,0.644143775 15.7190898,0.782141507 C15.9453359,0.91749307 16.082,1.14195439 16.0871797,1.49740108 C16.0764883,1.98694241 15.7610586,2.2555286 15.5342812,2.34609375 C15.5342812,2.34609375 15.6883437,2.37698778 15.8264687,2.52021169 Z M17.3813711,3.86413495 L16.5963164,3.86413495 L16.5963164,0.644077621 L17.3813711,0.644077621 L17.3813711,3.86413495 Z M26.3855273,3.86413495 L25.3695117,3.86413495 L23.8919727,1.42602067 L23.8919727,3.45000945 L23.887125,3.44524635 L23.887125,3.86611958 L23.1070508,3.86611958 L23.1070508,3.86420111 L22.3219961,3.86420111 L22.0449492,3.17421245 L20.4286875,3.17421245 L20.1516406,3.91004599 L19.2743477,3.91004599 C18.9051953,3.91004599 18.4431406,3.81815776 18.1662266,3.5421623 C17.8891797,3.26616683 17.7507891,2.89815083 17.7507891,2.30024887 C17.7507891,1.84027848 17.8430273,1.37997732 18.1662266,1.01209362 C18.3969219,0.735899698 18.8126914,0.644143775 19.3205,0.644143775 L20.0594687,0.644143775 L20.0594687,1.33406628 L19.3205,1.33406628 C19.0434531,1.33406628 18.9051953,1.37991116 18.7201211,1.51817351 C18.5818633,1.65610509 18.4894258,1.9320344 18.4894258,2.25400706 C18.4894258,2.62208921 18.5356445,2.85204133 18.7201211,3.03601626 C18.8589766,3.17421245 19.0435195,3.2202558 19.2743477,3.2202558 L19.5975469,3.2202558 L20.6594492,0.69031943 L21.1214375,0.69031943 L21.8139219,0.69031943 L23.1069844,3.77224672 L23.1069844,3.61506426 L23.1069844,2.57611202 L23.1069844,2.48422379 L23.1069844,0.690385585 L24.2612578,0.690385585 L25.6000742,2.94426033 L25.6000742,0.690385585 L26.3853945,0.690385585 L26.3853945,3.86426726 L26.3855273,3.86426726 L26.3855273,3.86413495 L26.3855273,3.86413495 Z" id="Shape"></path>
                <path d="M15.1680508,1.9852224 C15.1815313,1.97086694 15.19375,1.95459299 15.2041094,1.9359375 C15.2459453,1.86998173 15.2938906,1.75116872 15.2680586,1.5890247 C15.2669961,1.57413999 15.2642734,1.56037991 15.2610859,1.54708291 C15.2602227,1.54337828 15.2603555,1.54013672 15.2593594,1.53643208 L15.2588945,1.53649824 C15.235918,1.45770854 15.1772813,1.40928364 15.1187773,1.37991116 C15.026207,1.33406628 14.8876836,1.33406628 14.7492266,1.33406628 L13.825582,1.33406628 L13.825582,2.07016444 L14.7492266,2.07016444 C14.8876836,2.07016444 15.0262734,2.07016444 15.1187773,2.02405494 C15.1326563,2.01704259 15.1450078,2.00751638 15.1568945,1.99673324 L15.1570273,1.99732863 C15.1570938,1.99726247 15.1618086,1.99236706 15.1680508,1.9852224 Z" id="Path"></path>
                <path d="M29.1096445,8.46416961 C29.1096445,8.14219695 29.0174062,7.82009199 28.8789492,7.59013987 L28.8789492,5.52024005 L28.8768242,5.52024005 L28.8768242,5.38204385 C28.8768242,5.38204385 26.9414141,5.38204385 26.6533437,5.38204385 C26.3654062,5.38204385 26.0159766,5.65797316 26.0159766,5.65797316 L26.0159766,5.38204385 L23.8920391,5.38204385 C23.5686406,5.38204385 23.1533359,5.47413054 22.9683945,5.65797316 L22.9683945,5.38204385 L19.1821758,5.38204385 L19.1821758,5.52024005 L19.1821758,5.65790701 C18.9053281,5.4280872 18.3969883,5.3819777 18.166293,5.3819777 L15.6728047,5.3819777 L15.6728047,5.52017389 L15.6728047,5.65784085 C15.4419766,5.42802104 14.8876172,5.38191154 14.6104375,5.38191154 L11.8403672,5.38191154 L11.1937695,6.07196636 L10.593457,5.38191154 L10.4001484,5.38191154 L10.085582,5.38191154 L6.43788672,5.38191154 L6.43788672,5.52010774 L6.43788672,5.88349294 L6.43788672,10.0281218 L10.5012852,10.0281218 L11.1689336,9.36280872 L11.7476641,10.0281218 L11.7940156,10.0281218 L14.1353672,10.0281218 L14.2414844,10.0281218 L14.2877031,10.0281218 L14.3336562,10.0281218 L14.3336562,9.56815146 L14.3336562,8.97018334 L14.5646836,8.97018334 C14.8876172,8.97018334 15.3033867,8.97018334 15.6265859,8.83198715 L15.6265859,9.98188004 L15.6265859,10.074099 L17.7045039,10.074099 L17.7045039,9.98188004 L17.7045039,8.87803049 L17.7966094,8.87803049 C17.935332,8.87803049 17.935332,8.87803049 17.935332,9.01602823 L17.935332,9.98188004 L17.935332,10.074099 L24.2149062,10.074099 C24.6308086,10.074099 25.0461133,9.98188004 25.2769414,9.79790512 L25.2769414,9.98188004 L25.2769414,10.074099 L27.2626211,10.074099 C27.6779258,10.074099 28.0938281,10.0281218 28.370875,9.84401462 C28.7960078,9.5899162 29.063957,9.14013357 29.1038008,8.60368889 C29.1056602,8.58781187 29.1079844,8.57193485 29.1094453,8.55599168 L29.1067227,8.55341167 C29.1084492,8.52364226 29.1096445,8.49420363 29.1096445,8.46416961 Z M14.56475,8.1882403 L13.6410391,8.1882403 L13.6410391,8.32590726 L13.6410391,8.60203503 L13.6410391,8.87809665 L13.6410391,9.38411038 L12.1233242,9.38411038 L11.2399883,8.37201676 L11.2369336,8.37539063 L11.1937695,8.32590726 L10.1779531,9.38411038 L7.22280859,9.38411038 L7.22280859,6.16418536 L10.2241719,6.16418536 L11.0441562,7.05892137 L11.2165469,7.24627016 L11.2399219,7.22212387 L12.2097187,6.16425151 L14.6569219,6.16425151 C15.1318594,6.16425151 15.663707,6.28101373 15.86525,6.76241809 C15.8894883,6.85774635 15.9035664,6.96372543 15.9035664,7.08412613 C15.9035664,8.00406691 15.2571016,8.1882403 14.56475,8.1882403 Z M19.1821758,8.1421308 C19.2744141,8.27979776 19.3206328,8.46410345 19.3206328,8.74023122 L19.3206328,9.38404423 L18.5357773,9.38404423 L18.5357773,8.97018334 C18.5357773,8.78587765 18.5357773,8.46410345 18.3970547,8.32590726 C18.3049492,8.1882403 18.1200078,8.1882403 17.8431602,8.1882403 L17.0120859,8.1882403 L17.0120859,9.38411038 L16.2271641,9.38411038 L16.2271641,6.11814201 L17.9816836,6.11814201 C18.3508359,6.11814201 18.6740352,6.11814201 18.9053281,6.25600743 C19.1360234,6.39413747 19.3206328,6.62415575 19.3206328,6.99217175 C19.3206328,7.49805318 18.9975664,7.77404864 18.7666055,7.86620149 C18.9975664,7.9578251 19.1360234,8.05011026 19.1821758,8.1421308 Z M22.3683477,6.80786605 L20.5672773,6.80786605 L20.5672773,7.40590033 L22.3219961,7.40590033 L22.3219961,8.0500441 L20.5672773,8.0500441 L20.5672773,8.69412172 L22.3683477,8.69412172 L22.3683477,9.38404423 L19.7825547,9.38404423 L19.7825547,6.11807586 L22.3683477,6.11807586 L22.3683477,6.80786605 Z M24.307543,9.38411038 L22.8298711,9.38411038 L22.8298711,8.69418788 L24.307543,8.69418788 C24.4458008,8.69418788 24.5383711,8.69418788 24.6309414,8.60210118 C24.6771602,8.55599168 24.7230469,8.46416961 24.7230469,8.37208291 C24.7230469,8.27986391 24.6771602,8.18830645 24.6309414,8.14219695 C24.5845898,8.09621976 24.4920859,8.05017641 24.3536289,8.05017641 C23.614793,8.00413306 22.7375,8.05017641 22.7375,7.03828125 C22.7375,6.57824471 23.0145469,6.07216482 23.8457539,6.07216482 L25.3694453,6.07216482 L25.3694453,6.85404171 L23.938125,6.85404171 C23.799668,6.85404171 23.7071641,6.85404171 23.6147266,6.90008506 C23.5226211,6.94619456 23.5226211,7.03828125 23.5226211,7.13016948 C23.5226211,7.26823337 23.6147266,7.31427671 23.7070977,7.35992314 C23.799668,7.40603264 23.8919062,7.40603264 23.9841445,7.40603264 L24.3997812,7.40603264 C24.815418,7.40603264 25.0923984,7.49805318 25.2770742,7.68209425 C25.4156641,7.82015814 25.5080352,8.05017641 25.5080352,8.37208291 C25.5080352,9.06187311 25.0924648,9.38411038 24.307543,9.38411038 Z M28.2785703,9.06187311 C28.0940937,9.24611265 27.7706953,9.38411038 27.3087734,9.38411038 L25.8315,9.38411038 L25.8315,8.69418788 L27.308707,8.69418788 C27.4472969,8.69418788 27.5398672,8.69418788 27.6321055,8.60210118 C27.678125,8.55599168 27.7244766,8.46416961 27.7244766,8.37208291 C27.7244766,8.27986391 27.678125,8.18830645 27.6321055,8.14219695 C27.5858867,8.09621976 27.4936484,8.05017641 27.3550586,8.05017641 C26.6164883,8.00413306 25.7389297,8.05017641 25.7389297,7.0383474 C25.7389297,6.60113407 25.9900117,6.2061933 26.60925,6.08890184 C26.683293,6.07871409 26.7615195,6.07216482 26.8471836,6.07216482 L28.3710742,6.07216482 L28.3710742,6.85404171 L27.3550586,6.85404171 L26.9857734,6.85404171 L26.9395547,6.85404171 C26.8009648,6.85404171 26.7087266,6.85404171 26.6164883,6.90008506 C26.5700039,6.94619456 26.5237852,7.03828125 26.5237852,7.13016948 C26.5237852,7.26823337 26.5700039,7.31427671 26.7087266,7.35992314 C26.8009648,7.40603264 26.8933359,7.40603264 26.9857734,7.40603264 L27.0316602,7.40603264 L27.4012109,7.40603264 C27.6030195,7.40603264 27.7556211,7.43084047 27.8952734,7.47972845 C28.0231719,7.52583795 28.4465781,7.71450983 28.5412734,8.2070281 C28.5495078,8.2586284 28.5555508,8.31247795 28.5555508,8.37208291 C28.5555508,8.64814453 28.4631797,8.87809665 28.2785703,9.06187311 Z" id="Shape"></path>
            </g>
        </g>
    </g>
</svg>