<svg xmlns="http://www.w3.org/2000/svg" width="60" height="41" viewBox="0 0 60 41">
  <g fill="none" fill-rule="evenodd">
    <polygon fill="#FFF" points="0 0 60 0 60 40.8 0 40.8"/>
    <g fill-rule="nonzero" transform="translate(8 7)">
      <path fill="#000" d="M39.217811,0 L3.85759865,0 C3.71032829,0 3.56279769,0 3.41579017,0.000858795181 C3.29152251,0.00174361446 3.16754371,0.00312289157 3.04356492,0.0065060241 C2.77317455,0.0138187952 2.50046805,0.0297715663 2.23346082,0.07776 C1.96218564,0.126581205 1.7097519,0.20621494 1.46348588,0.331599036 C1.22138371,0.454719036 0.999736482,0.615756145 0.807655229,0.807918072 C0.615490699,1.00008 0.45445359,1.22136289 0.331359614,1.4637253 C0.205949494,1.70999133 0.126263711,1.96250313 0.0777808193,2.23398651 C0.029534747,2.50107181 0.0134752771,2.77372627 0.00618853012,3.04383036 C0.00285744578,3.16780916 0.00142872289,3.29178795 0.000619373494,3.41574072 C1.04096386e-06,3.56306313 1.04096386e-06,3.71028145 1.04096386e-06,3.8578641 L1.04096386e-06,23.7188819 C1.04096386e-06,23.8664646 1.04096386e-06,24.0134253 0.000619373494,24.1610339 C0.00142872289,24.2849867 0.00285744578,24.4089655 0.00618853012,24.5329443 C0.0134752771,24.8028116 0.029534747,25.075466 0.0777808193,25.3424733 C0.126263711,25.6140607 0.205949494,25.8664684 0.331359614,26.1127605 C0.45445359,26.3551229 0.615490699,26.576692 0.807655229,26.7685677 C0.999736482,26.9610419 1.22138371,27.122053 1.46348588,27.2448607 C1.7097519,27.3705831 1.96218564,27.4502429 2.23346082,27.4990381 C2.50046805,27.5467142 2.77317455,27.5629533 3.04356492,27.570266 C3.16754371,27.5730766 3.29152251,27.5747422 3.41579017,27.5753147 C3.56279769,27.5764598 3.71032829,27.5764598 3.85759865,27.5764598 L39.217811,27.5764598 C39.3648211,27.5764598 39.5123543,27.5764598 39.6593332,27.5753147 C39.7833146,27.5747422 39.907296,27.5730766 40.0318421,27.570266 C40.30166,27.5629533 40.5743144,27.5467142 40.8419748,27.4990381 C41.1128857,27.4502429 41.3653715,27.3705831 41.6116635,27.2448607 C41.8540259,27.122053 42.0750226,26.9610419 42.2674994,26.7685677 C42.459349,26.576692 42.6203835,26.3551229 42.7437924,26.1127605 C42.8694862,25.8664684 42.9490939,25.6140607 42.9973426,25.3424733 C43.0456173,25.075466 43.0612838,24.8028116 43.0685965,24.5329443 C43.0719797,24.4089655 43.0736478,24.2849867 43.0742203,24.1610339 C43.0753628,24.0134253 43.0753628,23.8664672 43.0753628,23.7188819 L43.0753628,3.8578641 C43.0753628,3.71028145 43.0753628,3.56306313 43.0742203,3.41574072 C43.0736478,3.29178795 43.0719797,3.16780916 43.0685965,3.04383036 C43.0612812,2.77372627 43.0456173,2.50107181 42.9973426,2.23398651 C42.9490965,1.96250313 42.8694862,1.70999133 42.7437924,1.4637253 C42.6203835,1.22136289 42.459349,1.00008 42.2674994,0.807918072 C42.0750226,0.615756145 41.8540259,0.454719036 41.6116635,0.331599036 C41.3653715,0.20621494 41.1128857,0.126581205 40.8419748,0.07776 C40.574317,0.0297715663 40.3016626,0.0138187952 40.0318421,0.0065060241 C39.907296,0.00312289157 39.7833146,0.00174361446 39.6593332,0.000858795181 C39.5123543,0 39.3648211,0 39.217811,0 L39.217811,0 Z"/>
      <path fill="#FFF" d="M39.217811,0.919171084 L39.6528012,0.920003855 C39.7706383,0.920836627 39.888478,0.922111807 40.0069683,0.925338795 C40.2130817,0.930907952 40.4541898,0.942072289 40.6789339,0.98235759 C40.8742968,1.01754217 41.0381419,1.07104771 41.1953821,1.15109783 C41.3506158,1.22997687 41.4928401,1.33334458 41.6170219,1.4573494 C41.7416773,1.58218699 41.8451777,1.72464289 41.9250977,1.88159422 C42.0047028,2.03760867 42.0578701,2.20067566 42.0928465,2.39746988 C42.1330277,2.61976771 42.14414,2.86153157 42.1497898,3.06891759 C42.1529621,3.18597398 42.1545236,3.30303036 42.1550987,3.42287133 C42.1561917,3.56779952 42.1561917,3.71264964 42.1561917,3.8578641 L42.1561917,23.7188819 C42.1561917,23.8640964 42.1561917,24.0086863 42.1550727,24.1567113 C42.1545236,24.2737417 42.1529647,24.3907981 42.1497638,24.5080627 C42.14414,24.7151364 42.1330303,24.9567701 42.0923546,25.1816964 C42.0578701,25.3757841 42.0047315,25.5388771 41.924684,25.6956723 C41.8449956,25.8522333 41.7416539,25.994533 41.6175424,26.1185899 C41.4926553,26.2435055 41.3508995,26.346561 41.1938206,26.4261687 C41.0377541,26.5058284 40.8741901,26.5592845 40.680753,26.5941022 C40.4514573,26.63496 40.2002467,26.6462024 40.0110515,26.6513292 C39.8920173,26.6540096 39.7735556,26.6556205 39.6522078,26.6561957 C39.5075893,26.6572887 39.3624555,26.6572887 39.2178136,26.6572887 L3.85759865,26.6572887 C3.85567287,26.6572887 3.85379913,26.6572887 3.85184733,26.6572887 C3.70887094,26.6572887 3.56560829,26.6572887 3.42002949,26.6561696 C3.30133359,26.6556205 3.18289793,26.6540357 3.0683919,26.6514333 C2.87487672,26.6462024 2.62350998,26.634986 2.3960854,26.5943624 C2.20098535,26.5592819 2.0374213,26.5058284 1.87929889,26.4251277 C1.72370342,26.3462227 1.58205166,26.2432713 1.45710998,26.1181214 C1.33313118,25.9943508 1.23010178,25.8524935 1.15044202,25.6956983 C1.07070419,25.5390593 1.0173548,25.3754718 0.982276916,25.179068 C0.941728771,24.9545841 0.930590458,24.7139133 0.925023904,24.5082448 C0.921846361,24.3904858 0.920519133,24.2727528 0.919764434,24.1556964 L0.919191904,23.8101224 L0.919191904,23.7188819 L0.919191904,3.8578641 L0.919191904,3.76662361 L0.91973841,3.42177831 C0.920519133,3.30401928 0.921846361,3.18628627 0.925023904,3.06863133 C0.930590458,2.8627547 0.941728771,2.62197976 0.982612627,2.39562217 C1.01738082,2.20098795 1.07070419,2.03740048 1.15085841,1.87998072 C1.22989359,1.72438265 1.33310516,1.58234313 1.45773716,1.45773976 C1.5818721,1.33355277 1.72398708,1.23031518 1.88057407,1.15068145 C2.03700492,1.07102169 2.20087865,1.01754217 2.3959813,0.982435663 C2.62077745,0.942046265 2.86204684,0.930907952 3.06867817,0.925312771 C3.18646323,0.922111807 3.30424829,0.920836627 3.42114853,0.92002988 L3.85759865,0.919171084 L39.217811,0.919171084"/>
      <g fill="#000" transform="translate(5.725 7.547)">
        <path d="M6.03399904 1.72813793C6.40282294 1.26681918 6.65310448.647404048 6.58709436.0144355663 6.04718805.0412820241 5.388336.370629976 5.00689301.832310458 4.66439769 1.22766853 4.3612612 1.87301928 4.44028858 2.47945359 5.04636116 2.53202487 5.65187422 2.17651229 6.03399904 1.72813793M6.58020839 2.59786063C5.70004482 2.54543248 4.9516907 3.09739576 4.53136771 3.09739576 4.11081311 3.09739576 3.46716173 2.62428029 2.77099894 2.6370321 1.86489976 2.65034082 1.02414448 3.16265639.564337735 3.97747865-.381406554 5.60752395.314756241 8.02545137 1.2344426 9.35303161 1.68106294 10.0098278 2.21931672 10.7330088 2.92854882 10.7070315 3.59865369 10.6807368 3.86130708 10.2731266 4.67584829 10.2731266 5.48979094 10.2731266 5.72638641 10.7070315 6.43573301 10.6938867 7.17134313 10.6807342 7.63123055 10.0367627 8.07784569 9.37932636 8.59020289 8.63061311 8.7999441 7.90766892 8.81313571 7.86798217 8.79994149 7.8548374 7.39467152 7.31574043 7.38164125 5.69924328 7.36837417 4.34572742 8.48493542 3.7019199 8.53748588 3.66199373 7.90695325 2.72943325 6.92175904 2.62428029 6.58020839 2.59786063"/>
        <path d="M3.83435133.245615422C5.74737224.245615422 7.07947807 1.56427981 7.07947807 3.48415287 7.07947807 5.41088067 5.71996106 6.7363946 3.78638111 6.7363946L1.66830072 6.7363946 1.66830072 10.1047402.137987566 10.1047402.137987566.245615422 3.83435133.245615422 3.83435133.245615422zM1.66829812 5.45186602L3.42422718 5.45186602C4.75659586 5.45186602 5.51489899 4.73454824 5.51489899 3.49100501 5.51489899 2.24759451 4.75659586 1.53699875 3.43107933 1.53699875L1.66829812 1.53699875 1.66829812 5.45186602 1.66829812 5.45186602zM7.47931749 8.06191113C7.47931749 6.80466101 8.4426827 6.03265359 10.150907 5.936976L12.1184874 5.8208721 12.1184874 5.26749831C12.1184874 4.46807711 11.5786878 3.98982188 10.6769997 3.98982188 9.82275614 3.98982188 9.28980867 4.39968058 9.1601306 5.04200993L7.76634766 5.04200993C7.84832096 3.74377446 8.95506853 2.787264 10.7315592 2.787264 12.473784 2.787264 13.5873837 3.70964125 13.5873837 5.15126169L13.5873837 10.1047428 12.1730469 10.1047428 12.1730469 8.922744 12.1390465 8.922744C11.7223356 9.7221652 10.8135325 10.2276989 9.87072636 10.2276989 8.46323913 10.2276989 7.47931749 9.35315913 7.47931749 8.06191113zM12.1184874 7.41285976L12.1184874 6.84578169 10.3488489 6.95503345C9.46745696 7.01657783 8.96877542 7.40600761 8.96877542 8.02092578 8.96877542 8.64941812 9.488016 9.05940694 10.2805851 9.05940694 11.3122141 9.05940694 12.1184874 8.34881118 12.1184874 7.41285976zM14.9226515 12.7489186L14.9226515 11.5532154C15.0317705 11.5804965 15.2776852 11.5804965 15.400774 11.5804965 16.0839586 11.5804965 16.452962 11.2935938 16.6783177 10.5557196 16.6783177 10.5420127 16.8082586 10.1184497 16.8082586 10.1115976L14.2120531 2.9170748 15.8106301 2.9170748 17.6282362 8.76565475 17.6553846 8.76565475 19.4729933 2.9170748 21.0307177 2.9170748 18.3385692 10.4804683C17.7239164 12.2228258 17.0133181 12.7830518 15.5238627 12.7830518 15.4007766 12.7830518 15.0317731 12.7693449 14.9226515 12.7489186z" transform="translate(10.41 .52)"/>
      </g>
    </g>
  </g>
</svg>
