<?xml version="1.0" encoding="UTF-8"?>
<svg width="50px" height="34px" viewBox="0 0 50 34" version="1.1" xmlns="http://www.w3.org/2000/svg" xmlns:xlink="http://www.w3.org/1999/xlink">
    <title>Icon Ideal</title>
    <g id="Icon Ideal" stroke="none" stroke-width="1" fill="none" fill-rule="evenodd">
        <rect id="Rectangle" x="0" y="0" width="50" height="34"></rect>
        <g id="icon_ideal" transform="translate(12.000000, 5.000000)" fill-rule="nonzero">
            <path d="M0,0 L13.4097524,0 C22.5113421,0 26,5.0800888 26,11.4884912 C26,19.172806 21.1282788,23.0285714 13.4097524,23.0285714 L0,23.0285714 L0,0 Z M1.3,1.32871985 L1.3,21.700664 L13.4097524,21.700664 C20.720911,21.700664 24.6988077,18.2186137 24.6988077,11.4884912 C24.6988077,4.57191744 20.3866707,1.32831364 13.4097524,1.32831364 L1.3,1.32831364 L1.3,1.32871985 Z" id="Shape" fill="#000000"></path>
            <polygon id="Path" fill="#000000" points="2.97142857 13.3714286 6.68571429 13.3714286 6.68571429 20.0571429 2.97142857 20.0571429"></polygon>
            <ellipse id="Oval" fill="#000000" cx="5.2" cy="9.28571429" rx="2.22857143" ry="2.6"></ellipse>
            <path d="M15.0041761,10.5813163 L15.0041761,11.7255471 L12.2814525,11.7255471 L12.2814525,7.13397001 L14.9172057,7.13397001 L14.9172057,8.27779374 L13.3822947,8.27779374 L13.3822947,8.80940718 L14.833761,8.80940718 L14.833761,9.95363797 L13.3822947,9.95363797 L13.3822947,10.5817234 L15.0041761,10.5813163 Z M15.4805548,11.7263612 L16.8129265,7.13234179 L18.3791781,7.13234179 L19.711158,11.7263612 L18.5652635,11.7263612 L18.3153214,10.8377608 L16.8752161,10.8377608 L16.6248822,11.7263612 L15.4805548,11.7263612 L15.4805548,11.7263612 Z M17.1980253,9.69475117 L17.9948627,9.69475117 L17.6293518,8.39706077 L17.5627528,8.39706077 L17.1980253,9.69475117 Z M20.2647132,7.13274884 L21.3663389,7.13274884 L21.3663389,10.5817234 L22.996839,10.5817234 C22.5494504,4.32366431 17.8123031,2.97142857 13.505307,2.97142857 L8.91506923,2.97142857 L8.91506923,7.13519117 L9.59437898,7.13519117 C10.8331203,7.13519117 11.6021428,8.00791647 11.6021428,9.41225521 C11.6021428,10.86137 10.8515329,11.7263612 9.59437898,11.7263612 L8.91506923,11.7263612 L8.91506923,20.0571429 L13.5056987,20.0571429 C20.5048613,20.0571429 22.9423845,16.6794029 23.0285714,11.7255471 L20.2647132,11.7255471 L20.2647132,7.13274884 L20.2647132,7.13274884 Z M8.91428571,8.2790149 L8.91428571,10.5817234 L9.59437898,10.5817234 C10.0656648,10.5817234 10.5013006,10.4400683 10.5013006,9.41184815 C10.5013006,8.40764419 10.016695,8.2790149 9.59437898,8.2790149 L8.91428571,8.2790149 L8.91428571,8.2790149 Z" id="Shape" fill="#D50072"></path>
        </g>
    </g>
</svg>