<?xml version="1.0" encoding="UTF-8"?>
<svg viewBox="0 0 24 16" xmlns="http://www.w3.org/2000/svg">
<g fill-rule="evenodd">
<path d="m23.25-8.8818e-16h-22.5c-0.41421 0-0.75 0.33579-0.75 0.75v14.062c0 0.41421 0.33579 0.75 0.75 0.75h22.5c0.41421 0 0.75004-0.33579 0.75004-0.75v-14.055c0.0019647-0.20021-0.076168-0.39291-0.21704-0.53518-0.14087-0.14228-0.33278-0.22231-0.533-0.22231zm0.06 14.812c0 0.033137-0.026863 0.06-0.06 0.06h-22.5c-0.033137 0-0.06-0.026863-0.06-0.06v-6.57h22.612l0.0075 6.57zm0-10.5h-22.612v-3.555c-2.3658e-4 -0.030416 0.022323-0.056199 0.052502-0.06h22.5c0.033137 0 0.06 0.026863 0.06 0.06v3.555zm-18.412 8.55c0 0.19468-0.15782 0.3525-0.3525 0.3525h-2.9175c-0.19261 0-0.34875-0.15614-0.34875-0.34875s0.15614-0.34875 0.34875-0.34875h2.9175c0.092792-0.0020176 0.18248 0.033438 0.24881 0.098358 0.066331 0.06492 0.10368 0.15383 0.10368 0.24664zm7.6875 0c0 0.19468-0.15782 0.3525-0.3525 0.3525h-6.3975c-0.19261 0-0.34875-0.15614-0.34875-0.34875s0.15614-0.34875 0.34875-0.34875h6.3975c0.092792-0.0020176 0.18248 0.033438 0.24881 0.098358 0.066331 0.06492 0.10368 0.15383 0.10368 0.24664z" fill="#231F20" fill-rule="nonzero"/>
<rect x="14.654" y="8.755" width="8.144" height="5.608" fill="#FFF9DE" stroke="#FFAF00"/>
</g>
</svg>
