<?xml version="1.0" encoding="UTF-8"?>
<svg width="50px" height="34px" viewBox="0 0 50 34" version="1.1" xmlns="http://www.w3.org/2000/svg" xmlns:xlink="http://www.w3.org/1999/xlink">
    <title>Icon Mastercard</title>
    <g id="Icon Mastercard" stroke="none" stroke-width="1" fill="none" fill-rule="evenodd">
        <rect id="Rectangle" x="0" y="0" width="50" height="34"></rect>
        <g id="icon-mastercard" transform="translate(9.000000, 4.000000)" fill-rule="nonzero">
            <g id="_Group_">
                <rect id="Rectangle" fill="#FF5F00" x="11.6649573" y="2.21625459" width="8.61538462" height="15.9824424"></rect>
                <path d="M12.2119658,10.2088874 C12.2087447,7.08961275 13.5955812,4.14214998 15.9726496,2.21625459 C11.9356692,-1.05870573 6.13840337,-0.581679437 2.65501481,3.31209221 C-0.828373751,7.20586386 -0.828373751,13.2090877 2.65501481,17.1028593 C6.13840337,20.996631 11.9356692,21.4736573 15.9726496,18.198697 C13.5963374,16.273413 12.2095856,13.3271713 12.2119658,10.2088874 L12.2119658,10.2088874 Z" id="_Path_" fill="#EB001B"></path>
                <path d="M31.9042735,10.2088874 C31.9041856,14.1002861 29.7516365,17.6500399 26.360822,19.3505547 C22.9700074,21.0510695 18.9362297,20.6037976 15.9726496,18.198697 C18.3479249,16.2717784 19.7347811,13.3259285 19.7347811,10.2074758 C19.7347811,7.08902304 18.3479249,4.14317311 15.9726496,2.21625459 C18.9362297,-0.188846016 22.9700074,-0.636117983 26.360822,1.06439682 C29.7516365,2.76491161 31.9041856,6.31466541 31.9042735,10.2060641 L31.9042735,10.2088874 Z" id="Path" fill="#F79E1B"></path>
                <path d="M31.0041195,17.1023966 L31.0041195,16.2797016 L31.159235,16.2797016 L31.159235,16.1094888 L30.7664957,16.1094888 L30.7664957,16.2797016 L30.9348126,16.2797016 L30.9348126,17.1023966 L31.0041195,17.1023966 Z M31.7664957,17.1023966 L31.7664957,16.1094888 L31.6476838,16.1094888 L31.50907,16.8187087 L31.3704561,16.1094888 L31.2648456,16.1094888 L31.2648456,17.1023966 L31.3506541,17.1023966 L31.3506541,16.3577158 L31.479367,17.0031058 L31.5684759,17.0031058 L31.6971888,16.3577158 L31.6971888,17.1094888 L31.7664957,17.1023966 Z" id="Shape" fill="#F79E1B"></path>
            </g>
            <path d="M5.67626669,25.2232847 L5.67626669,23.5124583 C5.6954696,23.2213883 5.59450701,22.9357128 5.39913635,22.728313 C5.20376569,22.5209131 4.93288014,22.4118454 4.65558764,22.4289349 C4.29016123,22.4037709 3.94065883,22.5895142 3.74349146,22.913669 C3.5637314,22.599179 3.23458477,22.4131826 2.88568672,22.4289349 C2.58190369,22.4128038 2.29270519,22.5668602 2.12560658,22.8338305 L2.12560658,22.4973679 L1.56097561,22.4973679 L1.56097561,25.2232847 L2.13103572,25.2232847 L2.13103572,23.7234602 C2.10648469,23.5347248 2.1634145,23.3443289 2.28628949,23.20423 C2.40916447,23.0641311 2.58515896,22.9889527 2.76624556,22.9992104 C3.14085649,22.9992104 3.33087652,23.2558343 3.33087652,23.7177575 L3.33087652,25.2346903 L3.90093663,25.2346903 L3.90093663,23.7234602 C3.87739303,23.5349394 3.93467095,23.3451604 4.05731812,23.2053213 C4.17996529,23.0654821 4.35534596,22.9899898 4.53614647,22.9992104 C4.92161569,22.9992104 5.10620658,23.2558343 5.10620658,23.7177575 L5.10620658,25.2346903 L5.67626669,25.2232847 Z M14.1104418,22.4973679 L13.1820581,22.4973679 L13.1820581,21.6704685 L12.611998,21.6704685 L12.611998,22.4973679 L12.0962294,22.4973679 L12.0962294,23.0391297 L12.6228563,23.0391297 L12.6228563,24.2937357 C12.6228563,24.9267415 12.8563095,25.3031233 13.5240942,25.3031233 C13.7735793,25.3040036 14.0182298,25.2308631 14.2298829,25.0921214 L14.0670086,24.5845762 C13.9155907,24.6794443 13.7437386,24.7324209 13.5675274,24.7385506 C13.2960702,24.7385506 13.1929164,24.5560624 13.1929164,24.2823302 L13.1929164,23.0391297 L14.1158709,23.0391297 L14.1104418,22.4973679 Z M18.9260924,22.4289349 C18.6456547,22.4202717 18.3831734,22.5734436 18.2420203,22.8281277 L18.2420203,22.4973679 L17.6828184,22.4973679 L17.6828184,25.2232847 L18.2474494,25.2232847 L18.2474494,23.6949465 C18.2474494,23.2444288 18.4320403,22.9935076 18.7903638,22.9935076 C18.9111308,22.9917724 19.0310418,23.0150255 19.1432582,23.0619407 L19.3169908,22.4916652 C19.188041,22.44321 19.0521856,22.4181407 18.9152341,22.4175294 L18.9260924,22.4289349 Z M11.6456104,22.7140726 C11.3260035,22.5144697 10.9585387,22.4154994 10.5869274,22.4289349 C9.93000094,22.4289349 9.50109857,22.7596947 9.50109857,23.3014564 C9.50109857,23.7462713 9.81598892,24.0200035 10.3969073,24.1055448 L10.6683645,24.1454641 C10.9778257,24.1910861 11.1244126,24.2766274 11.1244126,24.4306018 C11.1244126,24.6416038 10.9181051,24.7613616 10.5326359,24.7613616 C10.2225782,24.7707889 9.91851918,24.6703541 9.66940203,24.4762239 L9.39794484,24.938147 C9.72684614,25.1793709 10.120787,25.3033092 10.5217776,25.2917178 C11.2709995,25.2917178 11.705331,24.9210387 11.705331,24.4020881 C11.705331,23.8831374 11.3632949,23.6721354 10.798664,23.5865941 L10.5272068,23.5466748 C10.2828953,23.5124583 10.0874461,23.4611335 10.0874461,23.2786454 C10.0874461,23.0961572 10.272037,22.9592911 10.5814982,22.9592911 C10.867526,22.9627812 11.1479197,23.0432846 11.3958698,23.193104 L11.6456104,22.7140726 Z M26.7684908,22.4289349 C26.4880531,22.4202717 26.2255718,22.5734436 26.0844186,22.8281277 L26.0844186,22.4973679 L25.5252168,22.4973679 L25.5252168,25.2232847 L26.0898478,25.2232847 L26.0898478,23.6949465 C26.0898478,23.2444288 26.2744387,22.9935076 26.6327622,22.9935076 C26.7535292,22.9917724 26.8734402,23.0150255 26.9856565,23.0619407 L27.1593891,22.4916652 C27.0304394,22.44321 26.894584,22.4181407 26.7576325,22.4175294 L26.7684908,22.4289349 Z M19.4934379,23.8546236 C19.479859,24.2419647 19.6223,24.6173849 19.8857978,24.8887351 C20.1492955,25.1600853 20.5094539,25.3022421 20.8778696,25.2803123 C21.2168867,25.2984299 21.5500612,25.182453 21.8116824,24.9552553 L21.5402252,24.4762239 C21.3450396,24.6325681 21.1070291,24.7185699 20.8615822,24.7214423 C20.4287982,24.6846605 20.0954183,24.3050013 20.0954183,23.8489208 C20.0954183,23.3928403 20.4287982,23.0131812 20.8615822,22.9763994 C21.1070291,22.9792718 21.3450396,23.0652736 21.5402252,23.2216178 L21.8116824,22.7425864 C21.5500612,22.5153887 21.2168867,22.3994118 20.8778696,22.4175294 C20.5094539,22.3955996 20.1492955,22.5377564 19.8857978,22.8091066 C19.6223,23.0804568 19.479859,23.455877 19.4934379,23.8432181 L19.4934379,23.8546236 Z M24.7814241,23.8546236 L24.7814241,22.4973679 L24.2167931,22.4973679 L24.2167931,22.8281277 C24.0222678,22.5652165 23.7192057,22.4166599 23.4024215,22.4289349 C22.6528132,22.4289349 22.0451356,23.0672375 22.0451356,23.8546236 C22.0451356,24.6420097 22.6528132,25.2803123 23.4024215,25.2803123 C23.7192057,25.2925873 24.0222678,25.1440307 24.2167931,24.8811195 L24.2167931,25.2118792 L24.7814241,25.2118792 L24.7814241,23.8546236 Z M22.6803454,23.8546236 C22.7054538,23.407148 23.0664775,23.062827 23.4929228,23.0796399 C23.9193681,23.0964528 24.2548032,23.4682321 24.2479065,23.9164257 C24.2410097,24.3646193 23.8943111,24.7248175 23.4675713,24.7271451 C23.2502804,24.730033 23.0417158,24.637463 22.8922346,24.4717855 C22.7427535,24.3061081 22.6659418,24.0823815 22.6803454,23.8546236 L22.6803454,23.8546236 Z M15.8667698,22.4289349 C15.1171615,22.4399583 14.5179913,23.0871971 14.5284858,23.8745832 C14.5389803,24.6619694 15.1551655,25.2913357 15.9047738,25.2803123 C16.29533,25.3013694 16.6794055,25.1692633 16.9824589,24.9096332 L16.7110017,24.4705211 C16.4966488,24.6510928 16.231093,24.7514305 15.9563507,24.7556589 C15.5682663,24.7907166 15.2241167,24.494949 15.1799831,24.0884365 L17.1073292,24.0884365 C17.1073292,24.0143007 17.1073292,23.9401649 17.1073292,23.8603263 C17.1073292,23.0049131 16.6024188,22.4346376 15.8749135,22.4346376 L15.8667698,22.4289349 Z M15.8667698,22.9592911 C16.0374086,22.9554698 16.2024999,23.0230279 16.3257059,23.1470953 C16.4489119,23.2711628 16.5201342,23.4415705 16.5236962,23.6208106 L15.1664102,23.6208106 C15.1868587,23.2401014 15.4931031,22.9462852 15.8559115,22.9592911 L15.8667698,22.9592911 Z M30.0124043,23.8603263 L30.0124043,21.402439 L29.4694899,21.402439 L29.4694899,22.8281277 C29.2749645,22.5652165 28.9719024,22.4166599 28.6551183,22.4289349 C27.9055099,22.4289349 27.2978323,23.0672375 27.2978323,23.8546236 C27.2978323,24.6420097 27.9055099,25.2803123 28.6551183,25.2803123 C28.9719024,25.2925873 29.2749645,25.1440307 29.4694899,24.8811195 L29.4694899,25.2118792 L30.0124043,25.2118792 L30.0124043,23.8603263 Z M30.9543607,24.8269433 C30.9896537,24.8264891 31.0246922,24.8332689 31.0575145,24.8469029 C31.0886893,24.8602656 31.1172254,24.8796038 31.1416662,24.9039305 C31.1655189,24.9285154 31.1848449,24.9575154 31.1986722,24.9894718 C31.2264589,25.0567778 31.2264589,25.1331677 31.1986722,25.2004737 C31.1848449,25.2324302 31.1655189,25.2614301 31.1416662,25.286015 C31.1172254,25.3103417 31.0886893,25.3296799 31.0575145,25.3430426 C31.0250162,25.3581051 30.989882,25.3658745 30.9543607,25.3658536 C30.8493203,25.365022 30.7541645,25.3006089 30.7100492,25.2004737 C30.6825843,25.133098 30.6825843,25.0568475 30.7100492,24.9894718 C30.7238766,24.9575154 30.7432025,24.9285154 30.7670553,24.9039305 C30.791496,24.8796038 30.8200321,24.8602656 30.851207,24.8469029 C30.8865643,24.8321295 30.9244835,24.8253292 30.9625044,24.8269433 L30.9543607,24.8269433 Z M30.9543607,25.3088261 C30.9814547,25.308999 31.008279,25.3031694 31.0330833,25.2917178 C31.0564385,25.280765 31.0776197,25.2652876 31.0955185,25.2460958 C31.1659065,25.1654283 31.1659065,25.0416255 31.0955185,24.960958 C31.0776624,24.9417133 31.0564709,24.9262284 31.0330833,24.915336 C31.0082545,24.9039651 30.9814467,24.8981391 30.9543607,24.8982277 C30.9272982,24.8983779 30.9005357,24.9041941 30.8756381,24.915336 C30.851249,24.9258405 30.8291001,24.9413505 30.8104884,24.960958 C30.7401004,25.0416255 30.7401004,25.1654283 30.8104884,25.2460958 C30.8291458,25.2656447 30.8512828,25.2811465 30.8756381,25.2917178 C30.9030254,25.3041236 30.9326989,25.3099677 30.9625044,25.3088261 L30.9543607,25.3088261 Z M30.9706482,24.9695122 C30.995989,24.9682213 31.0209603,24.976292 31.041227,24.9923232 C31.0580852,25.0069781 31.0671814,25.0292724 31.0656582,25.0522021 C31.0664462,25.0713506 31.0595532,25.0899686 31.0466562,25.1035269 C31.030922,25.1185382 31.0108501,25.127574 30.9896502,25.1291893 L31.0683727,25.2232847 L31.0059376,25.2232847 L30.9326441,25.1291893 L30.908213,25.1291893 L30.908213,25.2232847 L30.8566361,25.2232847 L30.8566361,24.9723635 L30.9706482,24.9695122 Z M30.9109276,25.0179856 L30.9109276,25.0864186 L30.9706482,25.0864186 C30.9812753,25.0897467 30.9925959,25.0897467 31.003223,25.0864186 C31.0070948,25.0783479 31.0070948,25.068827 31.003223,25.0607562 C31.0070948,25.0526855 31.0070948,25.0431646 31.003223,25.0350938 C30.9925959,25.0317658 30.9812753,25.0317658 30.9706482,25.0350938 L30.9109276,25.0179856 Z M27.9248984,23.8603263 C27.9500069,23.4128507 28.3110305,23.0685298 28.7374758,23.0853427 C29.1639211,23.1021555 29.4993562,23.4739349 29.4924595,23.9221285 C29.4855627,24.3703221 29.1388641,24.7305202 28.7121243,24.7328478 C28.4948334,24.7357358 28.2862688,24.6431657 28.1367877,24.4774883 C27.9873065,24.3118109 27.9104948,24.0880843 27.9248984,23.8603263 L27.9248984,23.8603263 Z M8.86045959,23.8603263 L8.86045959,22.4973679 L8.29582863,22.4973679 L8.29582863,22.8281277 C8.10130331,22.5652165 7.79824115,22.4166599 7.48145704,22.4289349 C6.73184869,22.4289349 6.12417106,23.0672375 6.12417106,23.8546236 C6.12417106,24.6420097 6.73184869,25.2803123 7.48145704,25.2803123 C7.79824115,25.2925873 8.10130331,25.1440307 8.29582863,24.8811195 L8.29582863,25.2118792 L8.86045959,25.2118792 L8.86045959,23.8603263 Z M6.7593809,23.8603263 C6.78448934,23.4128507 7.14551299,23.0685298 7.5719583,23.0853427 C7.9984036,23.1021555 8.33383867,23.4739349 8.32694195,23.9221285 C8.32004522,24.3703221 7.9733466,24.7305202 7.54660677,24.7328478 C7.32837948,24.737348 7.11836292,24.6454836 6.96767779,24.4796157 C6.81699266,24.3137478 6.73945982,24.0890898 6.75395176,23.8603263 L6.7593809,23.8603263 Z" id="Shape" fill="#231F20"></path>
        </g>
    </g>
</svg>