<?xml version="1.0" encoding="UTF-8"?>
<svg width="50px" height="34px" viewBox="0 0 50 34" version="1.1" xmlns="http://www.w3.org/2000/svg" xmlns:xlink="http://www.w3.org/1999/xlink">
    <title>Icon Visa</title>
    <defs>
        <linearGradient x1="16.1481739%" y1="31.6635303%" x2="85.8318643%" y2="69.217403%" id="linearGradient-1">
            <stop stop-color="#222357" offset="0%"></stop>
            <stop stop-color="#254AA5" offset="100%"></stop>
        </linearGradient>
    </defs>
    <g id="Icon Visa" stroke="none" stroke-width="1" fill="none" fill-rule="evenodd">
        <rect id="Rectangle" x="0" y="0" width="50" height="34"></rect>
        <g id="icon_visa" transform="translate(8.000000, 12.000000)" fill="url(#linearGradient-1)" fill-rule="nonzero">
            <path d="M17.5839889,8.16366003 C17.5645907,6.49209598 18.9469702,5.55923374 19.9883491,5.00464949 C21.0583148,4.43555888 21.4176926,4.07067135 21.4136088,3.56183743 C21.4054411,2.78296446 20.5600865,2.43927846 19.7688427,2.42588801 C18.3885052,2.40245489 17.5860308,2.83317838 16.947931,3.15901064 L16.4507237,0.615956844 C17.0908654,0.293472172 18.2761996,0.0122745585 19.5054351,0 C22.3906672,0 24.2784217,1.55663015 24.2886313,3.9702436 C24.2998618,7.03328998 20.4120473,7.20290129 20.4385922,8.5720662 C20.4477809,8.98716754 20.8102216,9.43016549 21.6045283,9.5428678 C21.9975978,9.5997768 23.0828779,9.64329555 24.3131344,9.02399112 L24.7960482,11.4844709 C24.1344664,11.7478148 23.284007,12 22.2252718,12 C19.5095189,12 17.5993034,10.4221685 17.5839889,8.16366003 M29.4363101,11.7879858 C28.9094949,11.7879858 28.4653775,11.4521108 28.2673112,10.9365817 L24.1456969,0.180769968 L27.0288871,0.180769968 L27.6026665,1.9137065 L31.1259984,1.9137065 L31.4588313,0.180769968 L34,0.180769968 L31.7824756,11.7879858 L29.4363101,11.7879858 M29.8395892,8.65240842 L30.6716714,4.29384417 L28.3928894,4.29384417 L29.8395892,8.65240842 M14.088223,11.7879858 L11.8155666,0.180769968 L14.5629692,0.180769968 L16.8346045,11.7879858 L14.088223,11.7879858 M10.0237823,11.7879858 L7.16407425,3.88766969 L6.00732692,10.6051702 C5.8715393,11.3550307 5.3355354,11.7879858 4.74031592,11.7879858 L0.0653414337,11.7879858 L0,11.4509949 C0.959702118,11.2233587 2.0500871,10.8562395 2.71064802,10.4634555 C3.11494804,10.2235447 3.23031646,10.0137624 3.36304125,9.44355585 L5.55402082,0.180769968 L8.45763021,0.180769968 L12.9090144,11.7879858 L10.0237823,11.7879858" id="path-2" transform="translate(17.000000, 6.000000) scale(-1, 1) rotate(-180.000000) translate(-17.000000, -6.000000) "></path>
        </g>
    </g>
</svg>