<?xml version="1.0" encoding="UTF-8"?>
<svg width="50px" height="34px" viewBox="0 0 50 34" version="1.1" xmlns="http://www.w3.org/2000/svg" xmlns:xlink="http://www.w3.org/1999/xlink">
    <title>Icon PayPal</title>
    <g id="Icon PayPal" stroke="none" stroke-width="1" fill="none" fill-rule="evenodd">
        <rect id="Rectangle" x="0" y="0" width="50" height="34"></rect>
        <g id="icon_paypal" transform="translate(5.000000, 13.000000)">
            <path d="M2.39624854,9.63220183 L2.56520781,8.54422018 L2.18882772,8.5353211 L0.391542655,8.5353211 L1.64059243,0.506605505 C1.64448383,0.482293578 1.65706302,0.459724771 1.67543406,0.443669725 C1.6938956,0.427614679 1.71742501,0.418807339 1.74204039,0.418807339 L4.77253813,0.418807339 C5.77869198,0.418807339 6.47299062,0.631009174 6.83543406,1.04990826 C7.00538881,1.24642202 7.1136241,1.45183486 7.16602229,1.67779817 C7.22095442,1.91495413 7.2218594,2.19825688 7.16828474,2.54385321 L7.16439333,2.56899083 L7.16439333,2.79045872 L7.33434808,2.88807339 C7.47742501,2.96504587 7.59118066,3.05311927 7.67842048,3.15394495 C7.82375985,3.32201835 7.917787,3.53559633 7.95751551,3.7887156 C7.99860148,4.04908257 7.98502682,4.35899083 7.917787,4.70981651 C7.84023044,5.11330275 7.71489107,5.46477064 7.5455698,5.75229358 C7.3899137,6.01724771 7.19154265,6.23706422 6.95597704,6.40733945 C6.73109017,6.56917431 6.46394084,6.69201835 6.1618594,6.7706422 C5.86909922,6.84788991 5.53534356,6.88688073 5.16928021,6.88688073 L4.93344311,6.88688073 C4.76484582,6.88688073 4.60104492,6.94844037 4.47244763,7.05880734 C4.34348836,7.17146789 4.25823949,7.32541284 4.23208564,7.49376147 L4.21425759,7.59174312 L3.91570555,9.50944954 L3.90222139,9.57981651 C3.89860148,9.60211009 3.89244763,9.61321101 3.88339786,9.62073394 C3.87534356,9.62761468 3.86375985,9.63220183 3.85244763,9.63220183 L2.39624854,9.63220183" id="Fill-7" fill="#28356A"></path>
            <g id="Group-12" transform="translate(0.048737, 0.066239)">
                <path d="M7.02841629,2.3593578 C6.96733032,2.3412844 6.90434389,2.32495413 6.83972851,2.31018349 C6.77475113,2.29577982 6.70823529,2.28302752 6.63972851,2.27183486 C6.4,2.23256881 6.13728507,2.21394495 5.8559276,2.21394495 L3.48063348,2.21394495 C3.42208145,2.21394495 3.36651584,2.22733945 3.31683258,2.25155963 C3.20723982,2.30495413 3.12588235,2.41009174 3.10615385,2.53880734 L2.60081448,5.7833945 L2.58633484,5.87798165 C2.61954751,5.66440367 2.79954751,5.50724771 3.01312217,5.50724771 L3.90226244,5.50724771 C5.64850679,5.50724771 7.0158371,4.78825688 7.41547511,2.70844037 C7.42742081,2.64688073 7.43746606,2.58697248 7.44642534,2.52834862 C7.34533937,2.47394495 7.2358371,2.42743119 7.11791855,2.38779817 C7.08877828,2.37798165 7.05873303,2.36853211 7.02841629,2.3593578" id="Fill-9" fill="#22284F"></path>
                <path d="M3.10615385,2.53880734 C3.12588235,2.41009174 3.20723982,2.30495413 3.31683258,2.25192661 C3.36687783,2.22761468 3.42208145,2.21422018 3.48063348,2.21422018 L5.8559276,2.21422018 C6.13728507,2.21422018 6.4,2.23293578 6.63972851,2.27220183 C6.70823529,2.28330275 6.77475113,2.29614679 6.83972851,2.31055046 C6.90434389,2.32522936 6.96733032,2.34165138 7.02841629,2.35963303 C7.05873303,2.36880734 7.08877828,2.37834862 7.11819005,2.38779817 C7.2361086,2.42743119 7.34570136,2.47431193 7.44678733,2.52834862 C7.56570136,1.75963303 7.44579186,1.23623853 7.0358371,0.762293578 C6.5838009,0.240458716 5.7680543,0.0171559633 4.7241629,0.0171559633 L1.69357466,0.0171559633 C1.48036199,0.0171559633 1.29846154,0.174311927 1.26552036,0.388256881 L0.00325791855,8.49954128 C-0.0216289593,8.66 0.100452489,8.80477064 0.260090498,8.80477064 L2.13104072,8.80477064 L3.10615385,2.53880734" id="Fill-11" fill="#28356A"></path>
            </g>
            <path d="M21.5836694,4.36587156 L20.5255698,4.36587156 C20.4354341,4.36587156 20.3575155,4.43266055 20.3436694,4.5233945 L20.2967915,4.8233945 L20.2228549,4.7146789 C19.9938051,4.37761468 19.4829454,4.26495413 18.9731716,4.26495413 C17.8038503,4.26495413 16.8052078,5.16275229 16.6107282,6.42211009 C16.5096422,7.05027523 16.6533526,7.65100917 17.0049363,8.06990826 C17.3273798,8.45504587 17.7887372,8.61559633 18.337606,8.61559633 C19.2797779,8.61559633 19.8021309,8.00146789 19.8021309,8.00146789 L19.7549816,8.29954128 C19.737244,8.41348624 19.8238503,8.51568807 19.9366105,8.51568807 L20.8896422,8.51568807 C21.0412259,8.51568807 21.1691897,8.40431193 21.1930811,8.25266055 L21.7649363,4.58137615 C21.7830359,4.46834862 21.696701,4.36587156 21.5836694,4.36587156 Z M20.1087372,6.45357798 C20.0066558,7.06633028 19.5269273,7.47770642 18.9149816,7.47770642 C18.6077417,7.47770642 18.3622214,7.37779817 18.2044838,7.18853211 C18.0481037,7.00055046 17.9887372,6.73293578 18.0384205,6.43486239 C18.1338051,5.82733945 18.6215879,5.40247706 19.2242123,5.40247706 C19.5246648,5.40247706 19.7689182,5.50376147 19.9298232,5.69458716 C20.0909997,5.88752294 20.1549816,6.15678899 20.1087372,6.45357798 L20.1087372,6.45357798 Z" id="Fill-2" fill="#28356A"></path>
            <path d="M27.2189635,4.36587156 L26.1556151,4.36587156 C26.0541671,4.36587156 25.958873,4.41697248 25.9014069,4.50247706 L24.4348911,6.69229358 L23.8132621,4.58788991 C23.7741671,4.45623853 23.6543481,4.36587156 23.5186015,4.36587156 L22.4738051,4.36587156 C22.3467463,4.36587156 22.2586015,4.49165138 22.2989635,4.61284404 L23.4701852,8.09706422 L22.3690992,9.67284404 C22.2824929,9.79697248 22.3697327,9.96761468 22.5193255,9.96761468 L23.5813164,9.96761468 C23.6821309,9.96761468 23.7764295,9.91779817 23.8336241,9.8340367 L27.3700947,4.65899083 C27.4548006,4.53522936 27.3678322,4.36587156 27.2189635,4.36587156" id="Fill-3" fill="#28356A"></path>
            <path d="M30.739235,2.29385321 L28.5293707,2.29385321 C28.378511,2.29385321 28.2499137,2.40522936 28.2262938,2.5566055 L27.3326286,8.30045872 C27.3148911,8.41385321 27.4014974,8.5159633 27.5142576,8.5159633 L28.6482847,8.5159633 C28.7535336,8.5159633 28.8436694,8.43807339 28.8601399,8.33192661 L29.1138051,6.70376147 C29.137063,6.55211009 29.2660223,6.44073394 29.416882,6.44073394 L30.1160675,6.44073394 C31.5718141,6.44073394 32.4115427,5.72669725 32.6312712,4.31183486 C32.7304567,3.69275229 32.6351626,3.20642202 32.3491897,2.86577982 C32.0354341,2.49174312 31.4787825,2.29385321 30.739235,2.29385321 Z M30.9941671,4.39174312 C30.8736241,5.19550459 30.2678322,5.19550459 29.6817689,5.19550459 L29.3487372,5.19550459 L29.5829454,3.69440367 C29.5967915,3.60366972 29.6737146,3.53688073 29.7644838,3.53688073 L29.9173345,3.53688073 C30.315977,3.53688073 30.6927191,3.53688073 30.8871988,3.76743119 C31.0032169,3.90495413 31.0384205,4.1093578 30.9941671,4.39174312 L30.9941671,4.39174312 Z" id="Fill-4" fill="#298FC2"></path>
            <path d="M37.3437598,4.36587156 L36.2862938,4.36587156 C36.1955246,4.36587156 36.11833,4.43266055 36.1047553,4.5233945 L36.0578775,4.8233945 L35.9835789,4.7146789 C35.7545291,4.37761468 35.2440313,4.26495413 34.7341671,4.26495413 C33.5649363,4.26495413 32.5666558,5.16275229 32.3721761,6.42211009 C32.2713617,7.05027523 32.4144386,7.65100917 32.7659318,8.06990826 C33.0890992,8.45504587 33.5497327,8.61559633 34.098692,8.61559633 C35.0407734,8.61559633 35.5632169,8.00146789 35.5632169,8.00146789 L35.5160675,8.29954128 C35.49833,8.41348624 35.5848458,8.51568807 35.69833,8.51568807 L36.6510902,8.51568807 C36.8019499,8.51568807 36.9305472,8.40431193 36.9541671,8.25266055 L37.5262938,4.58137615 C37.5437598,4.46834862 37.4571535,4.36587156 37.3437598,4.36587156 Z M35.8689182,6.45357798 C35.7674703,7.06633028 35.2870178,7.47770642 34.6750721,7.47770642 C34.3684657,7.47770642 34.1223119,7.37779817 33.9645743,7.18853211 C33.8082847,7.00055046 33.7494612,6.73293578 33.798511,6.43486239 C33.8945291,5.82733945 34.3816784,5.40247706 34.9843028,5.40247706 C35.2847553,5.40247706 35.5290087,5.50376147 35.6899137,5.69458716 C35.8517237,5.88752294 35.9157056,6.15678899 35.8689182,6.45357798 L35.8689182,6.45357798 Z" id="Fill-5" fill="#298FC2"></path>
            <path d="M14.978873,2.29385321 L12.7692802,2.29385321 C12.6180585,2.29385321 12.4894612,2.40522936 12.4658413,2.5566055 L11.5721761,8.30045872 C11.5544386,8.41385321 11.6410449,8.5159633 11.7544386,8.5159633 L12.8092802,8.5159633 C12.9605019,8.5159633 13.0890992,8.4046789 13.1127191,8.25302752 L13.3537146,6.70376147 C13.3769725,6.55211009 13.5058413,6.44073394 13.6567915,6.44073394 L14.3562485,6.44073394 C15.8117237,6.44073394 16.6517237,5.72669725 16.8711807,4.31183486 C16.9700042,3.69275229 16.8753436,3.20642202 16.5893707,2.86577982 C16.2753436,2.49174312 15.71833,2.29385321 14.978873,2.29385321 Z M15.2337146,4.39174312 C15.1129001,5.19550459 14.5071083,5.19550459 13.9214069,5.19550459 L13.5879227,5.19550459 L13.8218594,3.69440367 C13.835796,3.60366972 13.9132621,3.53688073 14.0037598,3.53688073 L14.1566105,3.53688073 C14.5556151,3.53688073 14.9319951,3.53688073 15.1264748,3.76743119 C15.2424929,3.90495413 15.277968,4.1093578 15.2337146,4.39174312 L15.2337146,4.39174312 Z" id="Fill-1" fill="#28356A"></path>
            <path d="M38.5911807,2.45146789 L37.6843028,8.30045872 C37.6665653,8.41385321 37.7530811,8.5159633 37.8658413,8.5159633 L38.777606,8.5159633 C38.9291897,8.5159633 39.0576965,8.4046789 39.0809544,8.25302752 L39.9752531,2.50944954 C39.9930811,2.39605505 39.9064748,2.29357798 39.7937146,2.29357798 L38.7728096,2.29357798 C38.6826739,2.29385321 38.6051173,2.36073394 38.5911807,2.45146789" id="Fill-6" fill="#298FC2"></path>
            <path d="M7.49516256,2.59458716 C7.48620329,2.65321101 7.47579605,2.71311927 7.46421234,2.7746789 C7.06457433,4.85486239 5.69724401,5.57348624 3.95099967,5.57348624 L3.0618594,5.57348624 C2.84828474,5.57348624 2.66828474,5.7306422 2.63507207,5.94422018 L2.05090917,9.7006422 C2.02928021,9.84091743 2.13588655,9.96724771 2.27543406,9.96724771 L3.85244763,9.96724771 C4.03914446,9.96724771 4.197787,9.82972477 4.22719876,9.64302752 L4.24267388,9.56183486 L4.53959695,7.65165138 L4.55869198,7.54688073 C4.58774175,7.35954128 4.74674627,7.22192661 4.93344311,7.22192661 L5.16928021,7.22192661 C6.69715351,7.22192661 7.89326211,6.59311927 8.24285487,4.77330275 C8.38882772,4.01311927 8.31326211,3.37834862 7.92683677,2.93192661 C7.8099137,2.79733945 7.66484582,2.68559633 7.49516256,2.59458716" id="Fill-8" fill="#298FC2"></path>
        </g>
    </g>
</svg>