<?xml version="1.0" encoding="UTF-8"?>
<svg width="50px" height="34px" viewBox="0 0 50 34" version="1.1" xmlns="http://www.w3.org/2000/svg" xmlns:xlink="http://www.w3.org/1999/xlink">
    <title>Icon Alipay</title>
    <g id="Icon Alipay" stroke="none" stroke-width="1" fill="none" fill-rule="evenodd">
        <rect id="Rectangle" x="0" y="0" width="50" height="34"></rect>
        <g id="icon_alipay" transform="translate(8.000000, 9.000000)" fill-rule="nonzero">
            <path d="M15.1172285,13.0202892 L14.7885076,13.0844853 L14.4597866,13.2128776 L14.2093406,13.4054314 C14.1154107,13.5338237 14.1154107,13.6621814 14.1154107,13.6621814 L14.1936857,13.8708189 C14.2563056,13.9670784 14.3971667,13.9670784 14.3971667,13.9670784 L14.6632677,13.8868679 L14.7571976,13.7103631 L14.6945438,13.3572843 L14.8667487,13.2610247 L15.1171947,13.2289267 L15.4146056,13.3091372 L15.5711217,13.4856766 L15.6337754,13.6621814 L15.6650854,13.8066227 L15.6650854,14.0633726 L15.1172285,14.2559264 L14.5850265,14.4324659 L14.3502355,14.5447745 L14.1623757,14.6892158 C14.0684796,14.7854754 14.0215146,14.8978533 14.0215146,14.8978533 L13.9745496,15.1866667 C13.9745496,15.4755147 14.1936857,15.6681031 14.1936857,15.6681031 C14.3971667,15.8606916 14.7258538,15.8606916 14.7258538,15.8606916 L15.1171947,15.7964608 L15.2424007,15.7483137 L15.6650516,15.4594657 C15.7120166,15.6520541 15.8528776,15.7322646 15.8528776,15.7322646 C15.9781175,15.8446079 16.2129085,15.8446079 16.2129085,15.8446079 L16.4476657,15.8124752 L16.6824567,15.7322646 L16.6824567,15.5718089 L16.4946307,15.5718089 L16.3537358,15.5236618 L16.2285297,15.4273676 L16.1815647,15.2508628 L16.2128747,13.9028823 L16.1346336,13.4696276 L15.8998426,13.1968286 L15.5710879,13.0523872 L15.1172285,13.0202892 Z M15.6651192,14.2879899 L15.6494642,15.2347791 L15.3833633,15.4593963 L15.1172623,15.5556906 L15.0076774,15.5556906 C14.8041964,15.5556906 14.6946114,15.4433473 14.6946114,15.4433473 C14.5694054,15.3310387 14.5694054,15.1063521 14.5694054,15.1063521 C14.5694054,14.9458964 14.6476465,14.8175041 14.6476465,14.8175041 L14.8824375,14.5928523 L15.2268134,14.4323965 L15.6651192,14.2879899 Z M16.6981793,13.1004997 L18.013063,13.1004997 L18.013063,13.2930881 L17.8095482,13.3251862 C17.8095482,13.3251862 17.6843421,13.3572843 17.6843421,13.4053967 L17.6999971,13.4535785 L18.4200251,15.0582744 L19.1087769,13.4856766 L18.983537,13.3572843 L18.717436,13.2770738 L18.717436,13.1005343 L19.7818399,13.1004997 L19.7818399,13.2770738 L19.5627039,13.3572843 C19.5627039,13.3572843 19.4061878,13.4535785 19.3435679,13.5979852 L18.733091,14.9620148 L17.981753,16.4704511 L17.6999971,16.8074462 L17.4652061,16.9679019 L17.2304151,17 C17.2304151,17 17.0269003,17 16.8860392,16.8876914 C16.8860392,16.8876914 16.7608331,16.8074809 16.7608331,16.6630395 L16.823453,16.4544367 C16.823453,16.4544367 16.9173492,16.3581425 17.0425891,16.3581425 L17.1991051,16.3902405 L17.30869,16.4704857 L17.4808611,16.6951376 L17.8408582,16.3259751 C17.8408582,16.3259751 18.1382691,15.8606223 18.028718,15.4915637 L17.1677951,13.5658871 L16.9642803,13.3732987 L16.6981793,13.2770391 L16.6981793,13.1004997 Z M12.2214277,13.0363035 L11.8457419,13.1325978 L11.4700898,13.4053621 L11.4387798,13.4053621 L11.4387798,13.100465 L11.3918148,13.0683669 L10.4213409,13.1325978 L10.4213409,13.3091025 L10.6091669,13.3412006 L10.7500618,13.3893477 L10.8596129,13.501691 L10.9065779,13.6621467 L10.9065779,16.5185289 L10.8752679,16.6790192 L10.7500618,16.7752788 L10.5935119,16.8073769 L10.4213409,16.8073769 L10.4213409,16.9999307 L12.0336017,16.9999307 L12.0336017,16.8073769 L11.6109847,16.7431807 L11.5013998,16.6468865 L11.4387798,16.4864308 L11.4387798,15.6840829 L11.4700898,15.6840829 L11.7518457,15.7963915 L12.1744966,15.8606223 L12.2214616,15.8606223 L12.6910435,15.7643281 L13.1136944,15.459431 L13.4267603,15.0261763 L13.5363114,14.4324312 L13.4424153,13.8707842 C13.3328642,13.5979852 13.1606594,13.4214458 13.1606594,13.4214458 C13.0197983,13.244941 12.7850073,13.1326324 12.7850073,13.1326324 L12.2997365,13.0363382 L12.2214277,13.0363382 L12.2214277,13.0363035 Z M12.2057728,13.4371135 C12.2160516,13.4371482 12.2214277,13.4374948 12.2214277,13.4374948 C12.5970798,13.4696276 12.8162496,13.7745246 12.8162496,13.7745246 C13.0040757,14.0312399 12.9884207,14.4164168 12.9884207,14.4164168 C12.9884207,14.8015244 12.7849397,15.0743234 12.7849397,15.0743234 C12.5814248,15.3792205 12.2214277,15.4273676 12.2214277,15.4273676 C11.8770518,15.4594657 11.4387798,15.2187301 11.4387798,15.2187301 L11.4387798,13.6300833 C11.8222425,13.4475471 12.1338545,13.4368709 12.2057728,13.4371135 L12.2057728,13.4371135 Z M4.77056666,11.8648971 L3.40875182,15.1064215 L3.28354573,15.3310733 L3.09568589,15.4915637 L2.90785985,15.5717743 L2.72,15.5878233 L2.72,15.7804118 L4.28529587,15.7803771 L4.28529587,15.5878233 L3.87833382,15.5236271 C3.67481898,15.4593963 3.67481898,15.3470877 3.67481898,15.3470877 L3.69047397,15.2347791 L3.97222993,14.4324312 L5.4279747,14.4324312 L5.77235061,15.3150243 L5.78803941,15.3792205 L5.78803941,15.4434166 C5.78803941,15.5076474 5.64714452,15.5236618 5.64714452,15.5236618 L5.27149245,15.587858 L5.27149245,15.7804118 L6.99333819,15.7804118 L6.99333819,15.587858 L6.82113333,15.5718089 L6.63327348,15.5076128 L6.49241241,15.3631714 C6.41417128,15.3150243 6.38286131,15.202681 6.38286131,15.202681 L5.00539148,11.8648971 L4.77056666,11.8648971 Z M4.69229173,12.7153921 L4.70794671,12.7153921 L5.3184236,14.2077793 L4.08181484,14.2077793 L4.69229173,12.7153921 Z M9.23166327,12.7153921 C9.23166327,12.7153921 9.07514721,12.7153921 8.98125109,12.6030835 C8.98125109,12.6030835 8.87166618,12.5067893 8.87166618,12.3463335 C8.87166618,12.3463335 8.87166618,12.2179412 8.98125109,12.0895836 C8.98125109,12.0895836 9.09080219,11.977275 9.23166327,11.977275 C9.23166327,11.977275 9.40386813,11.977275 9.51341923,12.0895836 L9.60734915,12.3302845 L9.51341923,12.6030835 C9.51341923,12.6030488 9.40386813,12.7153921 9.23166327,12.7153921 L9.23166327,12.7153921 Z M9.74821023,13.1165834 L9.74821023,15.2989753 L9.79517519,15.459431 L9.92041509,15.5396762 L10.1865161,15.6038723 L10.1865161,15.7803771 L8.79339124,15.7803771 L8.79339124,15.6038723 L9.04383723,15.5717743 L9.16904332,15.4915637 L9.21600828,15.3310733 L9.21600828,13.6781957 L9.16904332,13.501691 L9.04383723,13.3893477 L8.88728736,13.3412006 L8.69946132,13.3091025 L8.69946132,13.1325978 L9.71690025,13.0683669 L9.74821023,13.1165834 Z M7.94812336,11.56 L6.93065062,11.6241962 L6.86803067,11.6402452 L6.86803067,11.8007356 L6.93065062,11.8007356 L7.08720049,11.8328336 L7.27506034,11.8970298 L7.40026643,12.0254221 L7.44723139,12.2179759 L7.44723139,15.3311427 L7.40026643,15.4916331 L7.27506034,15.5718436 L7.00895937,15.6039417 L7.00895937,15.7804464 L8.41773917,15.7804464 L8.41773917,15.6039417 L8.27684428,15.5878926 L8.1516382,15.5397455 L8.0263983,15.4595003 L7.99508832,15.2990446 L7.99508832,11.6081125 L7.94812336,11.56 Z M26.9666338,13.1326324 L27.9371078,13.0684016 L27.9840728,13.1165834 L27.9840728,13.4856419 L27.9997277,13.4856419 L28.1719326,13.3251516 L28.3754474,13.1807449 C28.3754474,13.1807449 28.4693436,13.1165487 28.6258934,13.0684016 L28.9546144,13.0363035 L29.4398851,13.1646958 L29.7372623,13.501691 L29.9094671,13.3412006 L30.1286032,13.1967939 C30.1286032,13.1967939 30.2381543,13.1165834 30.3790491,13.0684016 L30.7234251,13.0363035 C30.7234251,13.0363035 31.0990771,13.0363035 31.302592,13.2609554 C31.302592,13.2609554 31.521728,13.4856073 31.521728,13.934911 L31.521728,15.2989406 L31.553038,15.4593963 L31.6625891,15.5556906 L31.8034839,15.5877886 L31.96,15.6038377 L31.96,15.7803424 L30.5511526,15.7803424 L30.5511526,15.6038377 L30.8015986,15.5717396 L30.9268046,15.4915291 L30.9581484,15.3310387 L30.9581484,13.9509947 C30.9581484,13.9509947 30.9581484,13.6621467 30.8329085,13.501691 C30.8329085,13.501691 30.6920475,13.3572496 30.4885326,13.3572496 L30.2067767,13.3893477 L29.9719857,13.501691 L29.8311246,13.6300486 L29.7528496,13.7584409 L29.7528496,15.2989406 L29.7841934,15.4593963 L29.9093995,15.5556906 L30.0346394,15.5877886 L30.1755005,15.6038377 L30.1755005,15.7803424 L28.7980307,15.7803424 L28.7980307,15.6038377 L29.0328217,15.5717396 L29.1580278,15.4915291 L29.1893377,15.3310387 L29.1893377,13.9509947 C29.1893377,13.9509947 29.1893377,13.6621467 29.0641316,13.501691 C29.0641316,13.501691 28.9389256,13.3572496 28.7197557,13.3572496 L28.4536548,13.3893477 L28.2188638,13.501691 L28.0780027,13.6460977 L27.9840728,13.7584409 L27.9840728,15.2989406 L28.0153827,15.4593963 L28.1406226,15.5396415 L28.2658287,15.5877886 L28.4067236,15.6038377 L28.4067236,15.7803424 L27.0135988,15.7803424 L27.0135988,15.6038377 L27.2796998,15.5717396 L27.4049058,15.4915291 L27.4362158,15.3310387 L27.4362158,13.6621467 L27.3892509,13.501691 L27.2796998,13.3893477 L27.1388387,13.3412006 L26.9666338,13.3091025 L26.9666338,13.1326324 Z M21.3315146,14.5447398 C21.3315146,14.5447398 21.3315146,15.0903378 21.5975818,15.4112839 C21.5975818,15.4112839 21.8480278,15.748279 22.2706786,15.748279 L22.7871917,15.6038723 L23.1785326,15.202681 L23.3663587,15.3310733 C23.3663587,15.3310733 23.1785326,15.6520194 22.8341905,15.8606223 C22.8341905,15.8606223 22.5054696,16.0531761 22.1141287,16.0531761 C22.1141287,16.0531761 21.4567207,16.0531761 21.065346,15.6520194 C21.065346,15.6520194 20.6740389,15.2508628 20.6740389,14.5608235 C20.6740389,14.5608235 20.6740389,14.2880245 20.7836239,14.0152255 C20.7836239,14.0152255 20.87752,13.7585102 21.081001,13.5338237 C21.081001,13.5338237 21.2688608,13.3412353 21.5506168,13.2128776 C21.5506168,13.2128776 21.8480278,13.0844853 22.1610937,13.0844853 C22.1610937,13.0844853 22.6150545,13.0844853 22.9124655,13.2770738 C22.9124655,13.2770738 23.1942214,13.5017256 23.1942214,13.8226717 L23.1159803,14.0794217 L22.8811893,14.1756813 L22.5837783,14.0954707 C22.5837783,14.0954707 22.4741934,14.0312399 22.4741934,13.9189313 L22.5211922,13.6621814 L22.5681572,13.4535785 L22.3959523,13.3412353 L22.1455063,13.3091372 L21.8637504,13.3572843 L21.5976494,13.5819362 L21.4098234,13.9670438 C21.4097895,13.9670438 21.3315146,14.2077447 21.3315146,14.5447398 L21.3315146,14.5447398 Z M25.1352032,13.0844506 C24.4621402,13.1004997 24.0395231,13.501691 24.0395231,13.501691 C23.6325273,13.9188966 23.6325273,14.5768379 23.6325273,14.5768379 C23.6325273,14.9459311 23.7421122,15.202681 23.7421122,15.202681 L24.0708331,15.6841175 C24.2899691,15.876706 24.5560701,15.9729655 24.5560701,15.9729655 L25.119582,16.0692251 L25.135237,16.0692251 L25.7770238,15.9569165 C26.0744348,15.8285589 26.2622608,15.6199214 26.2622608,15.6199214 L26.5753606,15.1384849 L26.6692567,14.5447398 C26.6692567,13.8868332 26.2466058,13.4856419 26.2466058,13.4856419 C25.8239888,13.0844506 25.1665808,13.0844506 25.1665808,13.0844506 L25.1352032,13.0844506 Z M25.1254315,13.3091372 C25.1317882,13.3089292 25.1352032,13.3091372 25.1352032,13.3091372 L25.150892,13.3091372 L25.557854,13.4053967 L25.823955,13.6942448 L25.9648499,14.0954361 L26.0118148,14.5607888 C26.0118148,15.1545339 25.7926788,15.5075781 25.7926788,15.5075781 C25.5422328,15.8606223 25.1509258,15.8606223 25.1509258,15.8606223 L25.135237,15.8606223 L24.7439299,15.748279 L24.477829,15.459431 L24.3213129,15.0422253 C24.2743479,14.8335878 24.2743479,14.5287254 24.2743479,14.5287254 L24.3056579,14.0954707 L24.446519,13.7103631 C24.5560701,13.5338237 24.7439299,13.4054314 24.7439299,13.4054314 C24.8945289,13.3211653 25.0811377,13.3104544 25.1254315,13.3091372 L25.1254315,13.3091372 Z M19.8288049,15.8606223 C19.8288049,15.8606223 20.0635959,15.8606223 20.0635959,15.6038723 C20.0635959,15.6038723 20.0635959,15.3631714 19.8288049,15.3631714 C19.8288049,15.3631714 19.5783589,15.3631714 19.5783589,15.6038723 C19.5783589,15.6038723 19.5783589,15.8606223 19.8288049,15.8606223 L19.8288049,15.8606223 Z" id="Shape" fill="#EC6C00"></path>
            <path d="M31.96,0 L31.96,0.134626568 L32.2008407,0.134626568 L32.2008407,1 L32.2858235,1 L32.2858235,0.134626568 L32.5266641,0.134626568 L32.5266641,0 L31.96,0 Z M32.6258464,0 L32.6258464,0.999958461 L32.7250287,0.999958461 L32.7250287,0.173049763 L32.9375316,0.999958461 L33.0225143,0.999958461 L33.2208483,0.19228213 L33.2208483,0.999958461 L33.32,0.999958461 L33.32,0 L33.1925105,0 L32.9800077,0.846141065 L32.7675048,0 L32.6258464,0 Z" id="Shape" fill="#000000"></path>
            <path d="M26.7363649,0 L26.3345634,0.0306449186 C26.3345634,0.0306449186 25.9172721,0.12254658 25.9172721,0.306416092 L25.9172721,0.919248275 L24.1090986,0.980538112 L24.1090986,0.643477102 L23.2745493,0.643477102 C23.2745493,0.643477102 22.44,0.704766939 22.44,0.949893194 L22.44,3.1867075 L25.9172721,3.1867075 L25.9172721,4.71875486 L23.5218195,4.71875486 L23.5218195,5.33158705 L25.9172721,5.33158705 L25.9172721,8.84 L27.694566,8.65613049 L27.694566,5.33158705 L30.2445499,5.33158705 L30.2445499,4.71875486 L27.694566,4.71875486 L27.694566,3.1867075 L30.6927542,3.1867075 L30.6927542,2.88029141 L30.7700032,2.88029141 C30.7700032,2.88029141 31.0018169,2.88029141 31.1409251,2.51258548 L31.28,1.50143554 C31.28,1.50143554 31.2645435,0.766056776 30.4763636,0.766056776 L27.694566,0.857958438 L27.694566,0 L26.7363649,0 Z M29.487283,1.40950078 C29.487283,1.40950078 29.7345532,1.39417833 29.7500096,1.65462704 L29.6263579,2.58919777 L24.1090986,2.58919777 L24.1090986,1.57801474 L25.9172721,1.53204736 L25.9172721,1.54736982 L27.694566,1.47079062 L29.487283,1.40950078 Z" id="Shape" fill="#003F96"></path>
            <path d="M15.0389686,5.10200875 L15.6367819,5.77140109 L16.3315493,6.36294929 C16.3315493,6.36294929 16.5254224,6.5497416 16.7192955,6.36294929 L17.397869,5.77140109 L17.9956823,5.10200875 C17.9956823,5.10200875 18.2057494,4.93078527 17.9956823,4.71285531 L17.3979039,4.05899818 L16.7193304,3.4830188 C16.7193304,3.4830188 16.5254224,3.2962265 16.3315842,3.4830188 L15.6529409,4.05899818 L15.0389686,4.71282169 C15.0389686,4.71282169 14.8612893,4.93078527 15.0389686,5.10200875 L15.0389686,5.10200875 Z M30.5497275,7.156825 C30.5497275,7.156825 30.6628406,7.01670555 30.5497275,6.8610509 L30.0811862,6.36291566 L29.5641679,5.92705574 C29.5641679,5.92705574 29.4187369,5.78693629 29.2571817,5.92705574 L28.7401634,6.36291566 L28.2877811,6.8610509 C28.2877811,6.8610509 28.1585091,7.01670555 28.2877811,7.156825 L28.7401634,7.65496023 L29.2571817,8.09082016 C29.2571817,8.09082016 29.4187369,8.24647481 29.5641679,8.09082016 L30.0811862,7.65496023 L30.5497275,7.156825 Z" id="Shape" fill="#EC6C00"></path>
            <path d="M3.58103032,4.00602671 L8.95974459,4.00602671 C8.95974459,4.00602671 8.802912,4.60693904 8.41089827,5.36191523 C8.41089827,5.36191523 7.73661975,6.6561649 6.70162627,7.62687711 C6.70162627,7.62687711 4.75713926,9.41417109 3.5026479,9.41417109 C3.5026479,9.41417109 2.57747111,9.41417109 1.98157501,9.07519064 C1.98157501,9.07519064 1.24452958,8.62837546 1.24452958,7.7038924 C1.24452958,7.7038924 1.24452958,6.48669131 3.14200069,6.13230115 C3.14200069,6.13230115 1.91887585,6.05528585 1.2758961,6.68698433 C1.2758961,6.68698433 0.68,7.24166751 0.68,8.21237972 C0.68,8.21237972 0.68,9.13686278 1.54247763,9.69154596 C1.54247763,9.69154596 2.31088958,10.2 3.40858222,10.1845903 L3.65948049,10.2 C3.65948049,10.2 5.79213274,10.092132 7.76798627,8.47431159 C7.76798627,8.47431159 9.46157501,7.08760364 10.3083694,5.09998336 C10.3083694,5.09998336 10.5749509,4.48366132 10.7160664,3.86733927 L10.8101321,3.38970467 L10.8101321,3.40511438 L7.90906785,3.40511438 L7.90906785,2.04925914 L11.5628269,2.04925914 L11.5628269,1.44834681 L7.90906785,1.44834681 L7.90906785,0.0462291455 L6.95252454,0.0462291455 L6.54482755,0.0770485759 C6.54482755,0.0770485759 6.12141343,0.169473585 6.12141343,0.354390167 L6.12141343,1.44834681 L2.59312049,1.44834681 L2.59312049,2.04925914 L6.12141343,2.04925914 L6.12141343,3.40514767 L3.58103032,3.40514767 L3.58103032,4.00602671 Z M15.64,0 L15.6086335,0.292751306 L15.4047511,1.01690807 C15.4047511,1.01690807 15.1852194,1.50995239 14.8559048,1.89516199 L14.8559048,8.84411148 L13.0525671,8.62840875 L13.0525671,3.11239636 C13.0525671,3.11239636 12.3782886,3.45137681 11.7980758,3.66707954 L11.5628607,3.29727966 C11.5628607,3.29727966 12.1744401,2.88128391 12.7859856,2.2957813 C12.7859856,2.2957813 13.9934272,1.10939965 13.9934272,0.308194304 C13.9934272,0.308194304 13.9934272,0.123277721 14.4168413,0.0308527127 L14.8245383,3.32823222e-05 L15.64,0 L15.64,0 Z" id="Shape" fill="#003F96"></path>
            <path d="M14.96,2.78675731 L18.3408934,2.78675731 L18.3408934,9.48777953 L20.1408855,9.52 L20.1408855,2.78675731 L21.08,2.78675731 L21.08,2.14241754 L20.1408855,2.14241754 L20.1408855,0 L19.1704964,0 L18.763522,0.0322204678 C18.763522,0.0322204678 18.3409272,0.128847076 18.3409272,0.322169883 L18.3409272,2.14238275 L14.9600338,2.14238275 L14.9600338,2.78675731" id="Path" fill="#003F96"></path>
            <path d="M6.91819481,6.51364107 C6.91819481,6.51364107 4.60685221,5.48958448 3.18205432,5.44157535 C3.18205432,5.44157535 2.01055003,5.37756317 1.04487458,6.06562495 C1.04487458,6.06562495 0.0316659749,6.78569283 0,7.85775855 C0,7.85775855 0,9.10585776 0.981542634,9.80988803 C0.981542634,9.80988803 1.88392033,10.4659437 3.34038419,10.4659437 L3.48284689,10.4659437 L3.24538627,10.4499407 C3.24538627,10.4499407 2.1847129,10.4499407 1.44066507,9.92190934 C1.44066507,9.92190934 0.617452315,9.32986582 0.617452315,8.3537838 C0.617452315,8.3537838 0.617452315,7.29772112 1.34570135,6.75368674 C1.34570135,6.75368674 1.96311946,6.30567062 2.96046089,6.28963301 L4.36942579,6.44966346 L5.46176514,6.88167653 L8.0739003,8.22579401 C8.0739003,8.22579401 9.86278851,9.16983538 11.5725802,9.74587585 C11.5725802,9.74587585 17.5250311,11.7460145 30.8389664,10.4339031 L31.5513482,10.2899102 C31.5513482,10.2899102 31.8046418,10.1778889 32.0104707,9.84185955 C32.0104707,9.84185955 32.1846335,9.56984236 33.3719366,8.49777664 C33.3719366,8.49777664 34.2267811,7.71369659 33.9418558,7.45768244 L33.5302323,7.52169462 C33.5302323,7.52169462 29.1766737,8.51377968 22.5434726,8.78579687 C22.5434726,8.78579687 15.0870588,9.08982015 11.3984173,8.01771987 C11.3983831,8.01771987 8.8496141,7.28168351 6.91819481,6.51364107" id="Path" fill="#EC6C00"></path>
        </g>
    </g>
</svg>