<?xml version="1.0" encoding="UTF-8"?>
<svg width="50px" height="34px" viewBox="0 0 50 34" version="1.1" xmlns="http://www.w3.org/2000/svg" xmlns:xlink="http://www.w3.org/1999/xlink">
    <title>Icon Account Card</title>
    <defs>
        <rect id="path-1" x="0" y="0" width="34" height="23" rx="2.772"></rect>
    </defs>
    <g id="Icon Account-Card" stroke="none" stroke-width="1" fill="none" fill-rule="evenodd">
        <rect id="Rectangle" x="0" y="0" width="50" height="34"></rect>
        <g id="icon_account-card" transform="translate(8.000000, 5.000000)">
            <mask id="mask-2" fill="white">
                <use xlink:href="#path-1"></use>
            </mask>
            <use id="path-1" fill="#5CAEBF" fill-rule="nonzero" xlink:href="#path-1"></use>
            <path d="M12.24,21.5773241 L24.5893869,-0.696969697 L38.08,23.1666768 C33.0271472,17.8550636 28.3790601,15.2509457 24.1357386,15.3543229 C19.8924171,15.4577002 15.9271709,17.5320339 12.24,21.5773241 Z" id="Path" stroke="#4EA3B4" stroke-width="2.079" mask="url(#mask-2)"></path>
            <path d="M3.63916016,9.36816406 L4.73486328,9.36816406 L4.19580078,7.66894531 L3.63916016,9.36816406 Z M3.69482422,6.68164062 L4.71435547,6.68164062 L6.24365234,11 L5.26513672,11 L4.98681641,10.1123047 L3.39599609,10.1123047 L3.09716797,11 L2.15380859,11 L3.69482422,6.68164062 Z M6.60400391,8.87597656 C6.60400391,8.12206654 6.80615032,7.54101767 7.21044922,7.1328125 C7.56201348,6.77734197 8.00927463,6.59960938 8.55224609,6.59960938 C9.27881223,6.59960938 9.81005691,6.83788824 10.1459961,7.31445312 C10.3315439,7.58203259 10.4311523,7.85058459 10.4448242,8.12011719 L9.54248047,8.12011719 C9.48388643,7.9130849 9.40869187,7.75683646 9.31689453,7.65136719 C9.15283121,7.46386625 8.90966958,7.37011719 8.58740234,7.37011719 C8.2592757,7.37011719 8.00048923,7.50244008 7.81103516,7.76708984 C7.62158108,8.0317396 7.52685547,8.40624758 7.52685547,8.890625 C7.52685547,9.37500242 7.62695212,9.73779176 7.82714844,9.97900391 C8.02734475,10.220216 8.28173674,10.3408203 8.59033203,10.3408203 C8.90673986,10.3408203 9.14794839,10.2373057 9.31396484,10.0302734 C9.40576218,9.91894476 9.48193329,9.75195424 9.54248047,9.52929688 L10.4360352,9.52929688 C10.3579098,10.0000024 10.1582047,10.382811 9.83691406,10.6777344 C9.51562339,10.9726577 9.10400642,11.1201172 8.60205078,11.1201172 C7.98095393,11.1201172 7.49267756,10.9209004 7.13720703,10.5224609 C6.7817365,10.1220683 6.60400391,9.57324567 6.60400391,8.87597656 Z M10.9370117,8.87597656 C10.9370117,8.12206654 11.1391581,7.54101767 11.543457,7.1328125 C11.8950213,6.77734197 12.3422824,6.59960938 12.8852539,6.59960938 C13.61182,6.59960938 14.1430647,6.83788824 14.4790039,7.31445312 C14.6645517,7.58203259 14.7641601,7.85058459 14.777832,8.12011719 L13.8754883,8.12011719 C13.8168942,7.9130849 13.7416997,7.75683646 13.6499023,7.65136719 C13.485839,7.46386625 13.2426774,7.37011719 12.9204102,7.37011719 C12.5922835,7.37011719 12.333497,7.50244008 12.144043,7.76708984 C11.9545889,8.0317396 11.8598633,8.40624758 11.8598633,8.890625 C11.8598633,9.37500242 11.9599599,9.73779176 12.1601562,9.97900391 C12.3603526,10.220216 12.6147446,10.3408203 12.9233398,10.3408203 C13.2397477,10.3408203 13.4809562,10.2373057 13.6469727,10.0302734 C13.73877,9.91894476 13.8149411,9.75195424 13.8754883,9.52929688 L14.769043,9.52929688 C14.6909176,10.0000024 14.4912125,10.382811 14.1699219,10.6777344 C13.8486312,10.9726577 13.4370142,11.1201172 12.9350586,11.1201172 C12.3139617,11.1201172 11.8256854,10.9209004 11.4702148,10.5224609 C11.1147443,10.1220683 10.9370117,9.57324567 10.9370117,8.87597656 Z M17.3676758,10.3554688 C17.7250994,10.3554688 18.008788,10.2236341 18.21875,9.95996094 C18.428712,9.69628774 18.5336914,9.32129149 18.5336914,8.83496094 C18.5336914,8.35058352 18.428712,7.97607554 18.21875,7.71142578 C18.008788,7.44677602 17.7250994,7.31445312 17.3676758,7.31445312 C17.0102521,7.31445312 16.7250987,7.44628774 16.512207,7.70996094 C16.2993153,7.97363413 16.1928711,8.34863038 16.1928711,8.83496094 C16.1928711,9.32129149 16.2993153,9.69628774 16.512207,9.95996094 C16.7250987,10.2236341 17.0102521,10.3554688 17.3676758,10.3554688 Z M19.4360352,8.83496094 C19.4360352,9.61035544 19.2182639,10.2040995 18.7827148,10.6162109 C18.4565413,10.9521501 17.9848664,11.1201172 17.3676758,11.1201172 C16.7504852,11.1201172 16.2788102,10.9521501 15.9526367,10.6162109 C15.5151345,10.2040995 15.2963867,9.61035544 15.2963867,8.83496094 C15.2963867,8.04394136 15.5151345,7.45019729 15.9526367,7.05371094 C16.2788102,6.71777176 16.7504852,6.54980469 17.3676758,6.54980469 C17.9848664,6.54980469 18.4565413,6.71777176 18.7827148,7.05371094 C19.2182639,7.45019729 19.4360352,8.04394136 19.4360352,8.83496094 Z M20.1245117,6.68164062 L21.0415039,6.68164062 L21.0415039,9.3359375 C21.0415039,9.63281398 21.0766598,9.84960869 21.1469727,9.98632812 C21.2563482,10.2285168 21.4946271,10.3496094 21.8618164,10.3496094 C22.2270526,10.3496094 22.4643549,10.2285168 22.5737305,9.98632812 C22.6440433,9.84960869 22.6791992,9.63281398 22.6791992,9.3359375 L22.6791992,6.68164062 L23.5961914,6.68164062 L23.5961914,9.3359375 C23.5961914,9.79492417 23.5249031,10.1523425 23.3823242,10.4082031 C23.1166979,10.8769555 22.609867,11.1113281 21.8618164,11.1113281 C21.1137658,11.1113281 20.6059584,10.8769555 20.3383789,10.4082031 C20.1958001,10.1523425 20.1245117,9.79492417 20.1245117,9.3359375 L20.1245117,6.68164062 Z M24.4428711,6.68164062 L25.3891602,6.68164062 L27.1088867,9.69628906 L27.1088867,6.68164062 L27.949707,6.68164062 L27.949707,11 L27.0473633,11 L25.2836914,7.93261719 L25.2836914,11 L24.4428711,11 L24.4428711,6.68164062 Z M31.9282227,6.68164062 L31.9282227,7.44628906 L30.6362305,7.44628906 L30.6362305,11 L29.7280273,11 L29.7280273,7.44628906 L28.4301758,7.44628906 L28.4301758,6.68164062 L31.9282227,6.68164062 Z M8.60351562,15.8759766 C8.60351562,15.1220665 8.80566204,14.5410177 9.20996094,14.1328125 C9.5615252,13.777342 10.0087863,13.5996094 10.5517578,13.5996094 C11.2783239,13.5996094 11.8095686,13.8378882 12.1455078,14.3144531 C12.3310556,14.5820326 12.430664,14.8505846 12.4443359,15.1201172 L11.5419922,15.1201172 C11.4833981,14.9130849 11.4082036,14.7568365 11.3164062,14.6513672 C11.1523429,14.4638663 10.9091813,14.3701172 10.5869141,14.3701172 C10.2587874,14.3701172 10.0000009,14.5024401 9.81054688,14.7670898 C9.6210928,15.0317396 9.52636719,15.4062476 9.52636719,15.890625 C9.52636719,16.3750024 9.62646384,16.7377918 9.82666016,16.9790039 C10.0268565,17.220216 10.2812485,17.3408203 10.5898438,17.3408203 C10.9062516,17.3408203 11.1474601,17.2373057 11.3134766,17.0302734 C11.4052739,16.9189448 11.481445,16.7519542 11.5419922,16.5292969 L12.4355469,16.5292969 C12.3574215,17.0000024 12.1577165,17.382811 11.8364258,17.6777344 C11.5151351,17.9726577 11.1035181,18.1201172 10.6015625,18.1201172 C9.98046564,18.1201172 9.49218928,17.9209004 9.13671875,17.5224609 C8.78124822,17.1220683 8.60351562,16.5732457 8.60351562,15.8759766 Z M14.3046875,16.3681641 L15.4003906,16.3681641 L14.8613281,14.6689453 L14.3046875,16.3681641 Z M14.3603516,13.6816406 L15.3798828,13.6816406 L16.9091797,18 L15.9306641,18 L15.6523438,17.1123047 L14.0615234,17.1123047 L13.7626953,18 L12.8193359,18 L14.3603516,13.6816406 Z M18.359375,14.4316406 L18.359375,15.5917969 L19.3818359,15.5917969 C19.584962,15.5917969 19.7373042,15.5683596 19.8388672,15.5214844 C20.0185556,15.4394527 20.1083984,15.277345 20.1083984,15.0351562 C20.1083984,14.7734362 20.0214852,14.5976567 19.8476562,14.5078125 C19.7499995,14.457031 19.6035166,14.4316406 19.4082031,14.4316406 L18.359375,14.4316406 Z M19.5957031,13.6816406 C19.898439,13.6875 20.1313468,13.724609 20.2944336,13.7929688 C20.4575203,13.8613285 20.5957026,13.9619134 20.7089844,14.0947266 C20.8027348,14.2041021 20.8769529,14.3251946 20.9316406,14.4580078 C20.9863284,14.590821 21.0136719,14.7421867 21.0136719,14.9121094 C21.0136719,15.1171885 20.9619146,15.3188467 20.8583984,15.5170898 C20.7548823,15.715333 20.5839856,15.8554683 20.3457031,15.9375 C20.5449229,16.0175785 20.6860347,16.1313469 20.769043,16.2788086 C20.8520512,16.4262703 20.8935547,16.6513657 20.8935547,16.9541016 L20.8935547,17.2441406 C20.8935547,17.4414072 20.9013671,17.575195 20.9169922,17.6455078 C20.9404298,17.7568365 20.9951168,17.8388669 21.0810547,17.8916016 L21.0810547,18 L20.0878906,18 C20.0605467,17.9042964 20.0410157,17.8271487 20.0292969,17.7685547 C20.0058593,17.6474603 19.9931641,17.5234381 19.9912109,17.3964844 L19.9853516,16.9951172 C19.9814453,16.7197252 19.9311528,16.5361333 19.8344727,16.4443359 C19.7377925,16.3525386 19.556642,16.3066406 19.2910156,16.3066406 L18.359375,16.3066406 L18.359375,18 L17.4775391,18 L17.4775391,13.6816406 L19.5957031,13.6816406 Z M22.6660156,14.4316406 L22.6660156,17.25 L23.4980469,17.25 C23.9238303,17.25 24.2207023,17.0400412 24.3886719,16.6201172 C24.4804692,16.3896473 24.5263672,16.115236 24.5263672,15.796875 C24.5263672,15.3574197 24.4575202,15.0200207 24.3198242,14.784668 C24.1821282,14.5493152 23.9082052,14.4316406 23.4980469,14.4316406 L22.6660156,14.4316406 Z M23.6503906,13.6816406 C23.9179701,13.6855469 24.1406241,13.7167966 24.3183594,13.7753906 C24.6210953,13.8750005 24.86621,14.0576159 25.0537109,14.3232422 C25.2041023,14.538087 25.3066404,14.7705066 25.3613281,15.0205078 C25.4160159,15.2705091 25.4433594,15.5087879 25.4433594,15.7353516 C25.4433594,16.3095732 25.3281262,16.7958964 25.0976562,17.1943359 C24.7851547,17.731448 24.3027376,18 23.6503906,18 L21.7900391,18 L21.7900391,13.6816406 L23.6503906,13.6816406 Z" id="ACCOUNTCARD" fill="#FFFFFF" fill-rule="nonzero" mask="url(#mask-2)"></path>
        </g>
    </g>
</svg>