<?xml version="1.0" encoding="UTF-8"?>
<svg width="16px" height="16px" viewBox="0 0 16 16" version="1.1" xmlns="http://www.w3.org/2000/svg" xmlns:xlink="http://www.w3.org/1999/xlink">
    <!-- Generator: Sketch 57.1 (83088) - https://sketch.com -->
    <title>icon_geolocation</title>
    <desc>Created with Sketch.</desc>
    <g id="Geo-location-detection" stroke="none" stroke-width="1" fill="none" fill-rule="evenodd">
        <g id="Mobile-/-Check-store-stock-/-Results-/-Geo-Active-/-Alt" transform="translate(-20.000000, -288.000000)" fill="#000000" fill-rule="nonzero">
            <g id="Group-5" transform="translate(10.000000, 276.000000)">
                <g id="Group-3">
                    <g id="icon_geolocation" transform="translate(10.000000, 12.000000)">
                        <path d="M8,5.33333333 C9.47275933,5.33333333 10.6666667,6.52724067 10.6666667,8 C10.6666667,9.47275933 9.47275933,10.6666667 8,10.6666667 C6.52724067,10.6666667 5.33333333,9.47275933 5.33333333,8 C5.33333333,6.52724067 6.52724067,5.33333333 8,5.33333333 L8,5.33333333 Z M0,8.66666667 L0,7.33333333 L2.03333333,7.33333333 C2.33333333,4.55333333 4.55333333,2.33333333 7.33333333,2.03333333 L7.33333333,0 L8.66666667,0 L8.66666667,2.03333333 C11.4466667,2.33333333 13.6666667,4.55333333 13.9666667,7.33333333 L16,7.33333333 L16,8.66666667 L13.9666667,8.66666667 C13.6666667,11.4466667 11.4466667,13.6666667 8.66666667,13.9666667 L8.66666667,16 L7.33333333,16 L7.33333333,13.9666667 C4.55333333,13.6666667 2.33333333,11.4466667 2.03333333,8.66666667 L0,8.66666667 Z M8,3.33333333 C5.42267117,3.33333333 3.33333333,5.42267117 3.33333333,8 C3.33333333,10.5773288 5.42267117,12.6666667 8,12.6666667 C10.5773288,12.6666667 12.6666667,10.5773288 12.6666667,8 C12.6666667,5.42267117 10.5773288,3.33333333 8,3.33333333 Z" id="Shape"></path>
                    </g>
                </g>
            </g>
        </g>
    </g>
</svg>