<?xml version="1.0" encoding="UTF-8"?>
<svg width="50px" height="34px" viewBox="0 0 50 34" version="1.1" xmlns="http://www.w3.org/2000/svg" xmlns:xlink="http://www.w3.org/1999/xlink">
    <title>Icon Maestro</title>
    <g id="Icon Maestro" stroke="none" stroke-width="1" fill="none" fill-rule="evenodd">
        <rect id="Rectangle" x="0" y="0" width="50" height="34"></rect>
        <g id="icon-maestro" transform="translate(9.000000, 4.000000)" fill-rule="nonzero">
            <g id="_Group_">
                <rect id="Rectangle" fill="#7673C0" x="11.6622222" y="2.1510989" width="8.61538462" height="15.5521978"></rect>
                <path d="M12.2092308,9.92857143 C12.2060096,6.8932671 13.5928462,4.02514952 15.9699145,2.1510989 C11.9329341,-1.03570006 6.13566832,-0.571515233 2.65227976,3.21743676 C-0.831108794,7.00638875 -0.831108794,12.8480069 2.65227976,16.6369588 C6.13566832,20.4259108 11.9329341,20.8900957 15.9699145,17.7032967 C13.5936024,15.829841 12.2068506,12.9629117 12.2092308,9.92857143 L12.2092308,9.92857143 Z" id="_Path_" fill="#EB001B"></path>
                <path d="M31.0013844,16.6425519 L31.0013844,15.8647741 L31.1565,15.8647741 L31.1565,15.6981074 L30.7637607,15.6981074 L30.7637607,15.8647741 L30.9188762,15.8647741 L30.9188762,16.6703297 L31.0013844,16.6425519 Z M31.7637607,16.6425519 L31.7637607,15.6703297 L31.6449488,15.6703297 L31.5063349,16.3647741 L31.3677211,15.6703297 L31.2456089,15.6703297 L31.2456089,16.6425519 L31.3314174,16.6425519 L31.3314174,15.9133852 L31.4601303,16.5453297 L31.5492392,16.5453297 L31.6779521,15.9133852 L31.6779521,16.6494963 L31.7637607,16.6425519 Z" id="Shape" fill="#00A1DF"></path>
                <path d="M31.8988034,9.92857143 C31.8978929,13.7141945 29.74574,17.1671747 26.3559498,18.8216961 C22.9661596,20.4762175 18.9335192,20.0419707 15.9699145,17.7032967 C18.3451898,15.8282505 19.732046,12.9617023 19.732046,9.9271978 C19.732046,6.89269327 18.3451898,4.0261451 15.9699145,2.1510989 C18.9334946,-0.18925682 22.9672724,-0.624488303 26.3580869,1.03024893 C29.7489014,2.68498617 31.9014506,6.13918121 31.9015385,9.92582418 L31.8988034,9.92857143 Z" id="Path" fill="#00A1DF"></path>
            </g>
            <path d="M9.67931624,24.7912088 L9.67931624,23.1428571 C9.69866981,22.8631446 9.59723609,22.5885963 9.40090342,22.3892836 C9.20457076,22.1899709 8.93233423,22.0851772 8.65367521,22.1016484 C8.2854931,22.0774032 7.93335508,22.2563637 7.73470085,22.5686813 C7.55358521,22.2656756 7.22195647,22.0864713 6.87042735,22.1016484 C6.56435347,22.0861063 6.2729741,22.234537 6.10461538,22.4917582 L6.10461538,22.1675824 L5.5357265,22.1675824 L5.5357265,24.7912088 L6.11008547,24.7912088 L6.11008547,23.3379121 C6.08431507,23.1558616 6.1413164,22.9718114 6.26535314,22.8365722 C6.38938988,22.701333 6.56734313,22.6292084 6.75008547,22.6401099 C7.12752137,22.6401099 7.31897436,22.8873626 7.31897436,23.3324176 L7.31897436,24.7912088 L7.89333333,24.7912088 L7.89333333,23.3379121 C7.86961219,23.1562755 7.92732204,22.9734268 8.0508941,22.8386942 C8.17446617,22.7039616 8.35116939,22.631226 8.53333333,22.6401099 C8.9217094,22.6401099 9.10769231,22.8873626 9.10769231,23.3324176 L9.10769231,24.7912088 L9.67931624,24.7912088 Z M12.8793162,23.4807692 L12.8793162,22.1703297 L12.3049573,22.1703297 L12.3049573,22.489011 C12.1092553,22.2353353 11.8037097,22.0921108 11.4844444,22.1043956 C10.7291832,22.1043956 10.1169231,22.7193891 10.1169231,23.478022 C10.1169231,24.2366549 10.7291832,24.8516484 11.4844444,24.8516484 C11.8037097,24.8639332 12.1092553,24.7207087 12.3049573,24.467033 L12.3049573,24.7857143 L12.8738462,24.7857143 L12.8793162,23.4807692 Z M10.7651282,23.4807692 C10.790426,23.0496342 11.1541721,22.7178869 11.5838333,22.7340859 C12.0134945,22.7502848 12.3514591,23.1084877 12.3445103,23.5403145 C12.3375616,23.9721413 11.9882485,24.319186 11.5582906,24.3214286 C11.3381621,24.3266143 11.126052,24.2383683 10.9740415,24.0783586 C10.8220311,23.9183488 10.7441998,23.7013955 10.7596581,23.4807692 L10.7651282,23.4807692 Z M25.0338462,22.1071429 C25.221135,22.1066567 25.4067944,22.1420895 25.5808547,22.2115385 C25.7469979,22.2783704 25.8984652,22.3773104 26.0266667,22.5027473 C26.1532109,22.6270516 26.2536528,22.7755845 26.3220513,22.9395604 C26.4649458,23.2918002 26.4649458,23.6862217 26.3220513,24.0384615 C26.2537184,24.2024732 26.1532682,24.3510184 26.0266667,24.4752747 C25.8984652,24.6007116 25.7469979,24.6996515 25.5808547,24.7664835 C25.2202008,24.9072496 24.820141,24.9072496 24.4594872,24.7664835 C24.294119,24.6997179 24.1435355,24.6007481 24.0164103,24.4752747 C23.8910752,24.3505315 23.7916075,24.2020645 23.7237607,24.0384615 C23.5811567,23.6861646 23.5811567,23.2918574 23.7237607,22.9395604 C23.7916075,22.7759575 23.8910752,22.6274905 24.0164103,22.5027473 C24.1435355,22.3772739 24.294119,22.2783041 24.4594872,22.2115385 C24.6398022,22.1364637 24.8331858,22.0981746 25.0283761,22.0989011 L25.0338462,22.1071429 Z M25.0338462,22.6565934 C24.9224567,22.6550673 24.8118597,22.6756051 24.7083761,22.717033 C24.6109038,22.7562885 24.5224749,22.8151926 24.448547,22.8901099 C24.3731288,22.9689775 24.3145003,23.062454 24.2762393,23.1648352 C24.1926854,23.3841876 24.1926854,23.6268014 24.2762393,23.8461538 C24.3144311,23.9485694 24.373068,24.0420593 24.448547,24.1208791 C24.5224254,24.195857 24.6108675,24.25477 24.7083761,24.293956 C24.9167421,24.3759105 25.1482152,24.3759105 25.3565812,24.293956 C25.4587521,24.2560213 25.5519091,24.1970704 25.6300855,24.1208791 C25.7056873,24.042156 25.7643411,23.948639 25.8023932,23.8461538 C25.8859471,23.6268014 25.8859471,23.3841876 25.8023932,23.1648352 C25.7643411,23.06235 25.7056873,22.9688331 25.6300855,22.8901099 C25.5519091,22.8139186 25.4587521,22.7549677 25.3565812,22.717033 C25.2534063,22.6695899 25.1418001,22.6434322 25.0283761,22.6401099 L25.0338462,22.6565934 Z M15.9699145,23.4807692 C15.9699145,22.6565934 15.4611966,22.1071429 14.7309402,22.1071429 C13.975679,22.1177638 13.3719905,22.7413671 13.3825642,23.5 C13.3931379,24.2586329 14.0139696,24.8650164 14.7692308,24.8543956 C15.1586091,24.8677588 15.5392665,24.7367209 15.8386325,24.4862637 L15.5651282,24.0631868 C15.3491588,24.2371645 15.0816005,24.3338381 14.8047863,24.3379121 C14.4137754,24.3716896 14.0670305,24.0867227 14.0225641,23.6950549 L15.9617094,23.6950549 C15.9699145,23.6263736 15.9699145,23.5576923 15.9699145,23.4807692 Z M14.0252991,23.25 C14.0472522,22.8875686 14.350396,22.6073343 14.7117949,22.6153846 C14.8837205,22.6117029 15.0500567,22.6767939 15.1741919,22.7963307 C15.298327,22.9158676 15.3700863,23.0800525 15.3736752,23.2527473 L14.0252991,23.25 Z M18.3630769,22.8379121 C18.1133044,22.6934493 17.830766,22.6158774 17.5425641,22.6126374 C17.2307692,22.6126374 17.0447863,22.728022 17.0447863,22.9203297 C17.0447863,23.1126374 17.2417094,23.1456044 17.4878632,23.1785714 L17.7613675,23.217033 C18.3302564,23.2994505 18.6748718,23.5412088 18.6748718,24.0027473 C18.6748718,24.4642857 18.237265,24.8598901 17.4851282,24.8598901 C17.0820155,24.870661 16.686094,24.7512581 16.3555556,24.5192308 L16.6290598,24.0741758 C16.8800556,24.2612169 17.1864075,24.3579841 17.4988034,24.3489011 C17.8871795,24.3489011 18.0950427,24.2335165 18.0950427,24.0302198 C18.0950427,23.8818681 17.9473504,23.7994505 17.6355556,23.7554945 L17.3620513,23.717033 C16.7767521,23.6346154 16.4594872,23.3708791 16.4594872,22.9423077 C16.4594872,22.4203297 16.8861538,22.1016484 17.5535043,22.1016484 C17.9270129,22.0890782 18.2962688,22.1844264 18.6174359,22.3763736 L18.3630769,22.8379121 Z M21.0981197,22.6895604 L20.1709402,22.6895604 L20.1709402,23.8736264 C20.1709402,24.1483516 20.2639316,24.3131868 20.5483761,24.3131868 C20.7259161,24.307281 20.8990641,24.2562389 21.0516239,24.1648352 L21.2157265,24.6538462 C21.0024773,24.7875214 20.7559818,24.857991 20.5046154,24.8571429 C19.8317949,24.8571429 19.5965812,24.4945055 19.5965812,23.8846154 L19.5965812,22.6895604 L19.0659829,22.6895604 L19.0659829,22.1675824 L19.5965812,22.1675824 L19.5965812,21.3708791 L20.1709402,21.3708791 L20.1709402,22.1675824 L21.0981197,22.1675824 L21.0981197,22.6895604 Z M23.0646154,22.1016484 C23.2026044,22.1021839 23.3394932,22.1263393 23.4694017,22.1730769 L23.294359,22.7225275 C23.1813163,22.6772561 23.0604872,22.6548496 22.9388034,22.6565934 C22.5668376,22.6565934 22.3917949,22.8983516 22.3917949,23.3324176 L22.3917949,24.8021978 L21.822906,24.8021978 L21.822906,22.1785714 L22.3863248,22.1785714 L22.3863248,22.4972527 C22.5285424,22.251869 22.793003,22.1042905 23.0755556,22.1126374 L23.0646154,22.1016484 Z M26.9976068,24.4093407 C27.0331659,24.4089031 27.0684687,24.4154352 27.1015385,24.4285714 C27.1329484,24.4414462 27.1616997,24.4600782 27.1863248,24.4835165 C27.2103574,24.5072037 27.2298291,24.5351446 27.2437607,24.5659341 C27.2717569,24.6307822 27.2717569,24.7043826 27.2437607,24.7692308 C27.2298291,24.8000202 27.2103574,24.8279612 27.1863248,24.8516484 C27.1616997,24.8750867 27.1329484,24.8937187 27.1015385,24.9065934 C27.0687952,24.9211058 27.033396,24.9285916 26.9976068,24.9285714 C26.8917743,24.9277702 26.7959009,24.8657093 26.751453,24.7692308 C26.7237809,24.7043154 26.7237809,24.6308494 26.751453,24.5659341 C26.7653846,24.5351446 26.7848563,24.5072037 26.8088889,24.4835165 C26.833514,24.4600782 26.8622652,24.4414462 26.8936752,24.4285714 C26.9224594,24.4170734 26.952979,24.4105707 26.9839316,24.4093407 L26.9976068,24.4093407 Z M26.9976068,24.8736264 C27.0249052,24.8737929 27.0519317,24.8681763 27.0769231,24.8571429 C27.1004544,24.84659 27.1217954,24.8316778 27.1398291,24.8131868 C27.1869242,24.7655436 27.2075644,24.697617 27.1949822,24.631678 C27.1824001,24.5657391 27.1382184,24.5102921 27.0769231,24.4835165 C27.051907,24.4725608 27.0248971,24.4669476 26.9976068,24.467033 C26.9703402,24.4671777 26.9433759,24.4727814 26.9182906,24.4835165 C26.8937175,24.4936374 26.8714016,24.5085811 26.8526496,24.5274725 C26.7817307,24.6051943 26.7817307,24.7244761 26.8526496,24.8021978 C26.8909084,24.8411089 26.9431613,24.8628956 26.9976068,24.8626374 L26.9976068,24.8736264 Z M27.0140171,24.5467033 C27.0395491,24.5454596 27.0647086,24.5532355 27.0851282,24.5686813 C27.1021135,24.5828011 27.1112784,24.6042813 27.1097436,24.6263736 C27.1105376,24.6448229 27.1035926,24.662761 27.0905983,24.6758242 C27.0747455,24.6902873 27.0545222,24.6989932 27.0331624,24.7005495 L27.1124786,24.7912088 L27.0495726,24.7912088 L26.9757265,24.7005495 L26.9511111,24.7005495 L26.9511111,24.7912088 L26.8991453,24.7912088 L26.8991453,24.5384615 L27.0140171,24.5467033 Z M26.9538462,24.5934066 L26.9538462,24.6593407 L27.0140171,24.6593407 C27.0247244,24.6625472 27.0361303,24.6625472 27.0468376,24.6593407 C27.0507386,24.6515646 27.0507386,24.6423914 27.0468376,24.6346154 C27.0507386,24.6268394 27.0507386,24.6176661 27.0468376,24.6098901 C27.0361303,24.6066836 27.0247244,24.6066836 27.0140171,24.6098901 L26.9538462,24.5934066 Z" id="Shape" fill="#000000"></path>
        </g>
    </g>
</svg>