<?xml version="1.0" encoding="UTF-8"?>
<svg width="50px" height="34px" viewBox="0 0 50 34" version="1.1" xmlns="http://www.w3.org/2000/svg" xmlns:xlink="http://www.w3.org/1999/xlink">
    <title>Icon Upay</title>
    <g id="Icon Upay" stroke="none" stroke-width="1" fill="none" fill-rule="evenodd">
        <rect id="Rectangle" x="0" y="0" width="50" height="34"></rect>
        <g id="icon_cupay" transform="translate(10.000000, 7.000000)" fill-rule="nonzero">
            <path d="M28.5468496,0.0019210433 L21.2928022,0 C21.2919306,0 21.2909327,0 21.2909327,0 C21.2853256,0 21.2798418,0.00102541691 21.2743595,0.00102541691 C20.2778193,0.0323968233 19.0366596,0.853703733 18.8106092,1.86644338 L15.3801031,17.4640624 C15.1540526,18.4862588 15.7690239,19.3180275 16.758337,19.3333333 L24.3790003,19.3333333 C25.353234,19.2838144 26.2999285,18.4719533 26.5221168,17.4707212 L29.952749,1.87297398 C30.1824123,0.840386015 29.5526112,0.0019210433 28.5468496,0.0019210433" id="Path" fill="#01798A"></path>
            <path d="M14.7899458,17.4642481 L18.2102475,1.86817879 C18.4356256,0.855539664 19.6730912,0.0343143545 20.6666667,0.00294616747 L17.7910498,0.00102531503 L12.6100921,0 C11.6137458,0.0209981651 10.3601536,0.847986031 10.134862,1.86817879 L6.713554,17.4642481 C6.48734413,18.4863429 7.10138061,19.318029 8.0871287,19.3333333 L16.1640793,19.3333333 C15.1777094,19.318029 14.5645676,18.4863429 14.7899457,17.4642481" id="Path" fill="#024381"></path>
            <path d="M6.74511739,17.4644212 L10.1809371,1.86979828 C10.4071835,0.849698384 11.666094,0.0227887675 12.6666667,0.00179254759 L6.0013723,0 C4.99520991,0 3.70519404,0.836384965 3.47525452,1.86979828 L0.039429402,17.4644212 C0.0185206465,17.5595941 0.00692077492,17.6528603 0,17.7441294 L0,18.0334394 C0.0672590322,18.7784272 0.621757488,19.3209309 1.41882324,19.3333333 L8.12451852,19.3333333 C7.13458908,19.3180304 6.51794799,18.4864214 6.74511739,17.4644213" id="Path" fill="#DD0228"></path>
            <path d="M13.2965833,11.3325216 L13.4281137,11.3325216 C13.5489767,11.3325216 13.630289,11.2909081 13.6684072,11.2085091 L14.010179,10.6836222 L14.9254291,10.6836222 L14.7345741,11.0288522 L15.8319637,11.0288522 L15.6927577,11.5578108 L14.3869468,11.5578108 C14.2365526,11.7899888 14.0514211,11.8991426 13.8288209,11.8862061 L13.14866,11.8862061 L13.2965831,11.3325216 L13.2965833,11.3325216 Z M13.1463183,12.0906417 L15.5505581,12.0906417 L15.3973004,12.6652327 L14.4304011,12.6652327 L14.2828686,13.2198518 L15.223748,13.2198518 L15.0704903,13.7943883 L14.1296109,13.7943883 L13.911043,14.6139349 C13.8569212,14.7509239 13.9280868,14.8125232 14.1233664,14.7985453 L14.8901726,14.7985453 L14.7481033,15.3324566 L13.2758978,15.3324566 C12.9968332,15.3324566 12.9011063,15.1686461 12.9886377,14.8402655 L13.2680905,13.7943883 L12.6666667,13.7943883 L12.8194431,13.2198518 L13.4209575,13.2198518 L13.5683614,12.6652327 L12.9934514,12.6652327 L13.1463184,12.0906417 L13.1463183,12.0906417 Z M16.9837354,10.67971 L16.9458761,11.0160752 C16.9458761,11.0160752 17.3994029,10.6666667 17.8112986,10.6666667 L19.3333333,10.6666667 L18.751268,12.8288289 C18.703,13.0760131 18.4960127,13.1989313 18.1304316,13.1989313 L16.4053116,13.1989313 L16.0012232,14.7171859 C15.9779349,14.7985435 16.0108505,14.8402638 16.0978862,14.8402638 L16.4373156,14.8402638 L16.3125505,15.3115361 L15.4496006,15.3115361 C15.1183676,15.3115361 14.980591,15.2093248 15.0352338,15.0040075 L16.1771164,10.67971 L16.9837337,10.67971 L16.9837352,10.67971 L16.9837354,10.67971 Z M18.2726311,11.2909081 L16.9141309,11.2909081 L16.7516367,11.874324 C16.7516367,11.874324 16.97788,11.7067089 17.3559501,11.700714 C17.7329784,11.6946532 18.1633472,11.700714 18.1633472,11.700714 L18.2726311,11.2909081 Z M17.780465,12.6443123 C17.8809014,12.6582902 17.9371038,12.6175046 17.9438692,12.5212474 L18.0270031,12.2137066 L16.6664223,12.2137066 L16.5523248,12.6443123 L17.780465,12.6443123 Z M16.8627421,13.342876 L17.6469827,13.342876 L17.6324117,13.6911226 L17.8412206,13.6911226 C17.9467311,13.6911226 17.9990314,13.6564524 17.9990314,13.5880313 L18.0608287,13.362742 L18.7126273,13.362742 L18.6255914,13.6911226 C18.5519546,13.9650208 18.3568052,14.1079109 18.0396224,14.1218888 L17.6218729,14.1218888 L17.6199211,14.717186 C17.6122456,14.8125216 17.6962894,14.8611175 17.8693225,14.8611175 L18.2619637,14.8611175 L18.1352453,15.3324567 L17.1934558,15.3324567 C16.9294833,15.3453395 16.8000349,15.2162676 16.8027664,14.9424753 L16.8627421,13.3428761 L16.8627421,13.342876 Z" id="Shape" fill="#FFFFFF"></path>
            <path d="M7.4136341,7.71954009 C7.31589613,8.23701521 7.08932853,8.63446713 6.73788594,8.9167127 C6.38963579,9.19417985 5.940456,9.33333333 5.39052626,9.33333333 C4.87299235,9.33333333 4.49357766,9.19124794 4.25145666,8.90612088 C4.08353578,8.70353345 4,8.44625513 4,8.13519186 C4,8.00657833 4.01424924,7.86832923 4.04268832,7.71954019 L4.62862444,4.66666677 L5.51357101,4.66666677 L4.93560864,7.68497428 C4.91782066,7.7685207 4.91071996,7.84628047 4.91165238,7.91636681 C4.91071996,8.07096853 4.9462477,8.19765766 5.01821227,8.29649712 C5.12305066,8.44342634 5.29320708,8.51634219 5.52999601,8.51634219 C5.80228935,8.51634219 6.02665786,8.44439521 6.20079512,8.29937779 C6.37496816,8.15538059 6.48867657,7.95093252 6.53975675,7.68497417 L7.11953664,4.66666667 L8,4.66666667 L7.4136341,7.71954009 Z" id="Path" fill="#FFFFFF"></path>
            <path d="M11.1615742,6.89010979 L11.7949794,6.89010979 L11.2988263,9.33333333 L10.6666667,9.33333333 L11.1615742,6.89010979 Z M11.3609575,6 L12,6 L11.8806326,6.59304393 L11.2416334,6.59304393 L11.3609575,6 Z" id="Shape" fill="#FFFFFF"></path>
            <path d="M12.2863537,9.0751947 C12.0966852,8.90100278 12.0009253,8.66605065 12,8.36766991 C12,8.31671752 12.0032269,8.25868563 12.0102565,8.19520865 C12.0172479,8.13087845 12.0260913,8.06833911 12.0385991,8.01030722 C12.1245904,7.59848245 12.3077546,7.27150617 12.5898683,7.03026746 C12.8715445,6.78817554 13.2113825,6.66666667 13.6092554,6.66666667 C13.9350846,6.66666667 14.193495,6.75423174 14.3827383,6.92932525 C14.5718564,7.1053439 14.6666667,7.34292838 14.6666667,7.64497576 C14.6666667,7.69670866 14.6625381,7.75657988 14.6555345,7.82089825 C14.6471538,7.88611763 14.6370231,7.94865697 14.6252651,8.01030713 C14.541213,8.41588138 14.3585991,8.73929949 14.076422,8.97607921 C13.7942465,9.21460124 13.4554086,9.33333333 13.0602871,9.33333333 C12.7330837,9.33333333 12.4755467,9.24760749 12.2863537,9.0751946 M13.6682919,8.57312481 C13.7961229,8.44001716 13.8876795,8.23807119 13.9434638,7.96922286 C13.9518446,7.92724941 13.9592238,7.88344932 13.9638517,7.8396851 C13.9684795,7.7967741 13.9703559,7.75657978 13.9703559,7.71995527 C13.9703559,7.56360101 13.9289559,7.44213974 13.8457786,7.35635447 C13.7631021,7.26967925 13.6455283,7.22685268 13.4935581,7.22685268 C13.2926833,7.22685268 13.1290801,7.29465662 13.000875,7.43049259 C12.8715445,7.56632933 12.779988,7.771785 12.7223257,8.04515251 C12.7144457,8.08712596 12.7079429,8.12914701 12.7019379,8.17023128 C12.6973101,8.21220473 12.6959343,8.25150987 12.6968108,8.28723271 C12.6968108,8.44269788 12.7382108,8.56242762 12.8213881,8.64726361 C12.9040646,8.73215979 13.0211375,8.77413314 13.1751096,8.77413314 C13.3768607,8.77413314 13.5404624,8.70713405 13.6682919,8.57312472" id="Shape" fill="#FFFFFF"></path>
            <path d="M20.6666667,-6.33647469e-05 L18,-0.00094834555 L20.651431,0.00094834555 C20.6564709,0.00094834555 20.6615121,-6.32635253e-05 20.6666667,-6.32635253e-05" id="Path" fill="#E02F41"></path>
            <path d="M18,0.0013915445 L12.7075941,-0.00139164572 C12.6942931,-0.00139164572 12.6804799,-0.000506664921 12.6666667,0.000379935428 L18,0.00139164572" id="Path" fill="#2E4F7D"></path>
            <path d="M19.7017096,11.3623492 L19.8848495,10.7072259 L20.8107688,10.7072259 L20.7708127,10.9476373 C20.7708127,10.9476373 21.24399,10.7072259 21.5847251,10.7072259 L22.7296785,10.7072259 L22.5477172,11.3623492 L22.3675901,11.3623492 L21.5038965,14.4521195 L21.6840236,14.4521195 L21.5126742,15.0657252 L21.3325471,15.0657252 L21.2576147,15.3319281 L20.3609085,15.3319281 L20.4357114,15.0657252 L18.6666667,15.0657252 L18.8390651,14.4521195 L19.0163105,14.4521195 L19.8807893,11.3623492 L19.7017097,11.3623492 L19.7017096,11.3623492 Z M20.7007272,11.3623492 L20.4650556,12.198563 C20.4650556,12.198563 20.8682787,12.0412801 21.2158244,11.996753 C21.2925926,11.704744 21.3929386,11.3623491 21.3929386,11.3623491 L20.7007271,11.3623491 L20.7007272,11.3623492 Z M20.355932,12.5905448 L20.1194737,13.4663996 C20.1194737,13.4663996 20.5663196,13.242739 20.8729945,13.2239101 C20.9615516,12.8854041 21.0502399,12.5905448 21.0502399,12.5905448 L20.355932,12.5905449 L20.355932,12.5905448 Z M20.5292468,14.4521195 L20.7064905,13.8167704 L20.0153281,13.8167704 L19.8371648,14.4521195 L20.5292468,14.4521195 Z M22.7687167,10.6666667 L23.639221,10.6666667 L23.6761644,10.9931502 C23.6703995,11.0762657 23.7190021,11.1159586 23.8222314,11.1159586 L23.976027,11.1159586 L23.8203972,11.6691252 L23.1805863,11.6691252 C22.9362682,11.6819743 22.8106366,11.5870484 22.7989788,11.3821095 L22.7687167,10.6666667 Z M22.5136572,11.8532522 L25.3333333,11.8532522 L25.1678783,12.4470837 L24.2701247,12.4470837 L24.1161979,12.9992109 L25.0130352,12.9992109 L24.8465312,13.5920713 L23.8476448,13.5920713 L23.6216673,13.9395261 L24.1105658,13.9395261 L24.223489,14.6352078 C24.2369809,14.7044884 24.297374,14.7381364 24.4006032,14.7381364 L24.5524335,14.7381364 L24.392873,15.3110625 L23.8553751,15.3110625 C23.5768658,15.3250039 23.4328953,15.2299845 23.4211048,15.025153 L23.2915441,14.3898023 L22.8466636,15.0657253 C22.7414689,15.2567099 22.5798119,15.3458175 22.3618269,15.3319283 L21.5409711,15.3319283 L21.7006612,14.7588428 L21.9567698,14.7588428 C22.0619644,14.7588428 22.1494724,14.7113462 22.2283357,14.6153809 L22.9246089,13.5920713 L22.0268553,13.5920713 L22.1932281,12.9992109 L23.1669617,12.9992109 L23.3218047,12.4470837 L22.3471549,12.4470837 L22.5136572,11.8532522 Z" id="Shape" fill="#FFFFFF"></path>
            <path d="M7.8547547,6.73260814 L8.50110699,6.73260814 L8.42718181,7.10805107 L8.51994743,7.00092056 C8.72947243,6.77750538 8.9839587,6.66666667 9.28441953,6.66666667 C9.55638581,6.66666667 9.7525354,6.74545916 9.87567422,6.90384441 C9.99692153,7.06229127 10.0300028,7.28117264 9.97264246,7.56229931 L9.61655217,9.33333333 L8.95227472,9.33333333 L9.27383727,7.72805276 C9.3069684,7.5622994 9.29779562,7.43865846 9.24670314,7.35895452 C9.19624064,7.27930015 9.09970468,7.23997157 8.96053221,7.23997157 C8.78963879,7.23997157 8.64583054,7.29301304 8.52868704,7.39836954 C8.41104936,7.50458781 8.33345274,7.65205692 8.29530329,7.83975394 L7.99899533,9.33333333 L7.33333333,9.33333333 L7.8547547,6.73260814 Z" id="Path" fill="#FFFFFF"></path>
            <path d="M15.8547179,6.73260814 L16.501718,6.73260814 L16.4282774,7.10805107 L16.5200177,7.00092056 C16.7297082,6.77750538 16.9851459,6.66666667 17.284722,6.66666667 C17.5567268,6.66666667 17.7533124,6.74545916 17.8754659,6.90384441 C17.9960135,7.06229127 18.0308804,7.28117264 17.9720283,7.56229931 L17.6173084,9.33333333 L16.9520101,9.33333333 L17.2737178,7.72805276 C17.3067283,7.5622994 17.2975792,7.43865846 17.2470115,7.35895452 C17.1945889,7.27930015 17.0998813,7.23997157 16.961283,7.23997157 C16.7902913,7.23997157 16.6469932,7.29301304 16.5284242,7.39836954 C16.4107201,7.50458781 16.3327049,7.65205692 16.2959831,7.83975394 L15.998262,9.33333333 L15.3333333,9.33333333 L15.8547177,6.73260814" id="Path" fill="#FFFFFF"></path>
            <path d="M18.8978318,5.33333333 L20.8416619,5.33333333 C21.2154059,5.33333333 21.5044465,5.41078391 21.7031546,5.56287736 C21.9009661,5.71684311 22,5.9377297 22,6.2255374 L22,6.23419494 C22,6.28894886 21.9960343,6.35072145 21.9904037,6.4176437 C21.9808074,6.4837451 21.9683965,6.55066622 21.9524027,6.62027832 C21.8668043,7.00115533 21.6679681,7.30726096 21.360886,7.53942577 C21.0526528,7.77071358 20.6876087,7.88725226 20.2672904,7.88725226 L19.2248734,7.88725226 L18.9025659,9.33333333 L18,9.33333333 L18.8978317,5.33333343 M19.3836606,7.19163502 L20.2482257,7.19163502 C20.473547,7.19163502 20.652294,7.14373738 20.7826751,7.04900674 C20.9120348,6.95335138 20.9976332,6.80729477 21.0451025,6.60904736 C21.0526527,6.57242785 21.0573868,6.53943517 21.063144,6.50901611 C21.0660866,6.48035253 21.0697976,6.45157186 21.0697976,6.4238434 C21.0697976,6.2820456 21.0147781,6.17944185 20.9043564,6.11509462 C20.7940629,6.0498105 20.6210745,6.01857378 20.3812932,6.01857378 L19.647111,6.01857378 L19.3836606,7.19163502" id="Shape" fill="#FFFFFF"></path>
            <path d="M25.8391804,9.75982044 C25.5709059,10.3422371 25.3152637,10.6817997 25.1651267,10.8397519 C25.0147489,10.9959348 24.7171213,11.3593024 24,11.3318612 L24.0617151,10.8873006 C24.6651515,10.6973991 24.9915315,9.84187348 25.1775182,9.46305414 L24.9558006,6.67305354 L25.4225738,6.66666667 L25.8141566,6.66666667 L25.8562624,8.41681583 L26.5902263,6.66666667 L27.3333333,6.66666667 L25.8391803,9.75982044" id="Path" fill="#FFFFFF"></path>
            <path d="M24.0105234,6.73986954 L23.732042,6.96410207 C23.441078,6.69746832 23.1754199,6.53251279 22.6627161,6.81098602 C21.9642435,7.19020808 21.3806143,10.0987866 23.3036534,9.14077241 L23.4132758,9.292852 L24.169849,9.31558752 L24.6666667,6.67269965 L24.0105234,6.73986964 M23.5803188,8.18476396 C23.4587817,8.60452758 23.1873359,8.88201782 22.9747873,8.80302143 C22.7622387,8.72599174 22.6863196,8.32101804 22.8094455,7.90032406 C22.9308704,7.4795782 23.2041308,7.20307104 23.4149769,7.28208041 C23.627527,7.3591101 23.7042398,7.76401736 23.5803188,8.18476396" id="Shape" fill="#FFFFFF"></path>
        </g>
    </g>
</svg>