<?xml version="1.0" encoding="UTF-8"?>
<svg width="50px" height="34px" viewBox="0 0 50 34" version="1.1" xmlns="http://www.w3.org/2000/svg" xmlns:xlink="http://www.w3.org/1999/xlink">
    <title>Icon Masterpass</title>
    <g id="Icon Masterpass" stroke="none" stroke-width="1" fill="none" fill-rule="evenodd">
        <rect id="Rectangle" x="0" y="0" width="50" height="34"></rect>
        <g id="icon-masterpass" transform="translate(9.000000, 4.000000)" fill-rule="nonzero">
            <g id="_Group_">
                <rect id="Rectangle" fill="#FF5F00" x="11.6649573" y="2.21625459" width="8.61538462" height="15.9824424"></rect>
                <path d="M12.2119658,10.2088874 C12.2087447,7.08961275 13.5955812,4.14214998 15.9726496,2.21625459 C11.9356692,-1.05870573 6.13840337,-0.581679437 2.65501481,3.31209221 C-0.828373751,7.20586386 -0.828373751,13.2090877 2.65501481,17.1028593 C6.13840337,20.996631 11.9356692,21.4736573 15.9726496,18.198697 C13.5963374,16.273413 12.2095856,13.3271713 12.2119658,10.2088874 L12.2119658,10.2088874 Z" id="_Path_" fill="#EB001B"></path>
                <path d="M31.9042735,10.2088874 C31.9041856,14.1002861 29.7516365,17.6500399 26.360822,19.3505547 C22.9700074,21.0510695 18.9362297,20.6037976 15.9726496,18.198697 C18.3479249,16.2717784 19.7347811,13.3259285 19.7347811,10.2074758 C19.7347811,7.08902304 18.3479249,4.14317311 15.9726496,2.21625459 C18.9362297,-0.188846016 22.9700074,-0.636117983 26.360822,1.06439682 C29.7516365,2.76491161 31.9041856,6.31466541 31.9042735,10.2060641 L31.9042735,10.2088874 Z" id="Path" fill="#F79E1B"></path>
                <path d="M31.0041195,17.1023966 L31.0041195,16.2797016 L31.159235,16.2797016 L31.159235,16.1094888 L30.7664957,16.1094888 L30.7664957,16.2797016 L30.9348126,16.2797016 L30.9348126,17.1023966 L31.0041195,17.1023966 Z M31.7664957,17.1023966 L31.7664957,16.1094888 L31.6476838,16.1094888 L31.50907,16.8187087 L31.3704561,16.1094888 L31.2648456,16.1094888 L31.2648456,17.1023966 L31.3506541,17.1023966 L31.3506541,16.3577158 L31.479367,17.0031058 L31.5684759,17.0031058 L31.6971888,16.3577158 L31.6971888,17.1094888 L31.7664957,17.1023966 Z" id="Shape" fill="#F79E1B"></path>
            </g>
            <path d="M30.5134422,22.6695121 C30.2459133,22.4894931 29.8767878,22.3968806 29.4701331,22.3968806 C28.8227561,22.3968806 28.4053789,22.7130783 28.4053789,23.2309411 C28.4053789,23.6561914 28.7157982,23.9178628 29.288385,23.9995152 L29.5505526,24.0376014 C29.8553426,24.0811677 30.0000977,24.1630941 30.0000977,24.3102329 C30.0000977,24.511898 29.7966363,24.6264306 29.4167882,24.6264306 C29.0315788,24.6264306 28.7533273,24.5009379 28.5659498,24.3537991 L28.3037822,24.7952155 C28.6088402,25.0242807 28.9940497,25.1330593 29.4114269,25.1330593 C30.1496779,25.1330593 30.5777778,24.7787754 30.5777778,24.2828328 C30.5777778,23.8249763 30.2408201,23.584951 29.6843171,23.5032986 L29.4221495,23.4652124 C29.1814271,23.4323322 28.9886884,23.3832859 28.9886884,23.209021 C28.9886884,23.0183159 29.1707045,22.9037833 29.4754944,22.9037833 C29.8019976,22.9037833 30.1175101,23.029276 30.2727198,23.1273685 L30.5134422,22.6695121 L30.5134422,22.6695121 Z M27.8435146,22.6695121 C27.5759857,22.4894931 27.2068602,22.3968806 26.8002055,22.3968806 C26.1528285,22.3968806 25.7354513,22.7130783 25.7354513,23.2309411 C25.7354513,23.6561914 26.0456025,23.9178628 26.6181894,23.9995152 L26.880357,24.0376014 C27.185415,24.0811677 27.329902,24.1630941 27.329902,24.3102329 C27.329902,24.511898 27.1267087,24.6264306 26.7465925,24.6264306 C26.3613831,24.6264306 26.0831316,24.5009379 25.8957542,24.3537991 L25.6335866,24.7952155 C25.9386446,25.0242807 26.323854,25.1330593 26.7412312,25.1330593 C27.4794823,25.1330593 27.9075821,24.7787754 27.9075821,24.2828328 C27.9075821,23.8249763 27.5706244,23.584951 27.0141214,23.5032986 L26.7519538,23.4652124 C26.5112315,23.4323322 26.3184927,23.3832859 26.3184927,23.209021 C26.3184927,23.0183159 26.5002408,22.9037833 26.8052988,22.9037833 C27.131802,22.9037833 27.4473145,23.029276 27.6025241,23.1273685 L27.8432465,22.6695121 L27.8435146,22.6695121 L27.8435146,22.6695121 Z M21.471073,23.7542839 C21.471073,24.2121404 21.1767376,24.5883444 20.6952928,24.5883444 C20.2350252,24.5883444 19.924874,24.2285805 19.924874,23.7542839 C19.924874,23.2799874 20.2350252,22.9202234 20.6952928,22.9202234 C21.1770057,22.9202234 21.471073,23.2961534 21.471073,23.7542839 Z M19.4005388,23.7542839 L19.4005388,26 L19.9570418,26 L19.9570418,24.7409632 C20.1336966,24.9752345 20.4012255,25.1226473 20.7649897,25.1226473 C21.4817956,25.1226473 22.0436599,24.5502582 22.0436599,23.7545579 C22.0436599,22.9588576 21.4817956,22.3864685 20.7649897,22.3864685 C20.4012255,22.3864685 20.1336966,22.5336073 19.9570418,22.7678786 L19.9570418,22.4516809 L19.4005388,22.4516809 L19.4005388,23.7542839 Z M23.0229014,23.7597639 C23.0229014,23.3019075 23.3172368,22.9257034 23.7986815,22.9257034 C24.2589492,22.9257034 24.5691004,23.2854674 24.5691004,23.7597639 C24.5691004,24.2340605 24.2586811,24.5938244 23.7986815,24.5938244 C23.3172368,24.5938244 23.0229014,24.2178944 23.0229014,23.7597639 Z M25.0934356,23.7597639 L25.0934356,22.4571609 L24.5369326,22.4571609 L24.5369326,22.7733586 C24.3605458,22.5388134 24.0930169,22.3916746 23.7289846,22.3916746 C23.0119107,22.3916746 22.4503145,22.9640637 22.4503145,23.7597639 C22.4503145,24.5554642 23.0121788,25.1278533 23.7289846,25.1278533 C24.0927489,25.1278533 24.3602777,24.9807145 24.5369326,24.7461692 L24.5369326,25.062367 L25.0934356,25.062367 L25.0934356,23.7594899 L25.0934356,23.7597639 L25.0934356,23.7597639 Z M6.54306826,23.7597639 C6.54306826,23.3019075 6.83740365,22.9257034 7.31884842,22.9257034 C7.77911606,22.9257034 8.08926729,23.2854674 8.08926729,23.7597639 C8.08926729,24.2340605 7.77911606,24.5938244 7.31884842,24.5938244 C6.83740365,24.5938244 6.54306826,24.2178944 6.54306826,23.7597639 Z M8.61360246,23.7597639 L8.61360246,22.4571609 L8.05709948,22.4571609 L8.05709948,22.7733586 C7.88044464,22.5388134 7.61291575,22.3916746 7.24915152,22.3916746 C6.53234566,22.3916746 5.97048138,22.9640637 5.97048138,23.7597639 C5.97048138,24.5554642 6.53234566,25.1278533 7.24915152,25.1278533 C7.61291575,25.1278533 7.88044464,24.9807145 8.05709948,24.7461692 L8.05709948,25.062367 L8.61360246,25.062367 L8.61360246,23.7594899 L8.61360246,23.7597639 L8.61360246,23.7597639 Z M15.5157405,22.8985773 C15.8741435,22.8985773 16.1044113,23.1276425 16.1631176,23.5309727 L14.8361957,23.5309727 C14.89517,23.1547687 15.1198085,22.8985773 15.5157405,22.8985773 L15.5157405,22.8985773 Z M15.5264631,22.3916746 C14.7774895,22.3916746 14.2531543,22.9476236 14.2531543,23.7597639 C14.2531543,24.5883444 14.7989347,25.1278533 15.5639922,25.1278533 C15.9492017,25.1278533 16.3022433,25.0297608 16.6126626,24.7626093 L16.3397724,24.3428391 C16.1258565,24.517378 15.8529663,24.6151965 15.5961601,24.6151965 C15.2374891,24.6151965 14.9112539,24.4464116 14.8311025,23.9775951 L16.7306112,23.9775951 C16.7359725,23.9066287 16.7413338,23.8359363 16.7413338,23.7594899 C16.7359725,22.9473496 16.2438051,22.3914006 15.5267312,22.3914006 L15.5264631,22.3916746 Z M11.3636815,22.664306 C11.0961526,22.4842871 10.7270271,22.3916746 10.3203724,22.3916746 C9.67299541,22.3916746 9.25561818,22.7078723 9.25561818,23.2257351 C9.25561818,23.6509854 9.56603747,23.9126568 10.1383563,23.9943092 L10.4005239,24.0323954 C10.7055819,24.0759616 10.8500689,24.1576141 10.8500689,24.3047529 C10.8500689,24.506418 10.6468756,24.6209506 10.2667594,24.6209506 C9.88155,24.6209506 9.60329851,24.4954579 9.41592106,24.3483191 L9.15375347,24.7900095 C9.45881146,25.0188007 9.84402089,25.1281273 10.2613981,25.1281273 C10.9996492,25.1281273 11.427749,24.7738434 11.427749,24.2779007 C11.427749,23.8200443 11.0907913,23.580019 10.5342883,23.4983665 L10.2721207,23.4602803 C10.0313983,23.4274001 9.83865959,23.3783539 9.83865959,23.2040889 C9.83865959,23.0133839 10.0206757,22.8988513 10.3257337,22.8988513 C10.6522369,22.8988513 10.9677494,23.024344 11.1229591,23.1224365 L11.3636815,22.66458 L11.3636815,22.664306 L11.3636815,22.664306 Z M18.5387098,22.3916746 C18.2178359,22.3916746 18.0090133,22.5442934 17.8645262,22.7733586 L17.8645262,22.4571609 L17.3133846,22.4571609 L17.3133846,25.062641 L17.8698875,25.062641 L17.8698875,23.6016651 C17.8698875,23.1709348 18.0516356,22.9311835 18.4156679,22.9311835 C18.5279872,22.9311835 18.6456677,22.9476236 18.7633482,22.9966698 L18.9346418,22.462367 C18.8115999,22.4133207 18.651029,22.3914006 18.5387098,22.3914006 L18.5387098,22.3916746 L18.5387098,22.3916746 Z M13.7928867,22.4571609 L12.8833421,22.4571609 L12.8833421,21.6666667 L12.3214778,21.6666667 L12.3214778,22.4571609 L11.8025039,22.4571609 L11.8025039,22.9750237 L12.3214778,22.9750237 L12.3214778,24.1630941 C12.3214778,24.7680894 12.5514776,25.1278533 13.2098453,25.1278533 C13.4505676,25.1278533 13.7288191,25.0514069 13.905474,24.9261882 L13.744903,24.4409316 C13.5789708,24.5390241 13.3969546,24.5880704 13.2524676,24.5880704 C12.9742161,24.5880704 12.8833421,24.4135315 12.8833421,24.152134 L12.8833421,22.9747497 L13.7928867,22.9747497 L13.7928867,22.4568869 L13.7928867,22.4571609 Z M5.47831401,25.062641 L5.47831401,23.4274001 C5.47831401,22.8114448 5.09310458,22.3971546 4.472266,22.3916746 C4.14576281,22.3861945 3.80880508,22.4897671 3.57344399,22.8550111 C3.39678915,22.5662135 3.11853766,22.3916746 2.72796693,22.3916746 C2.45507674,22.3916746 2.18754785,22.473327 1.9787252,22.7788387 L1.9787252,22.4571609 L1.42222222,22.4571609 L1.42222222,25.062641 L1.9840865,25.062641 L1.9840865,23.6181052 C1.9840865,23.1657287 2.23017019,22.9259774 2.61028638,22.9259774 C2.97941191,22.9259774 3.16678936,23.1712088 3.16678936,23.6126251 L3.16678936,25.062641 L3.72865364,25.062641 L3.72865364,23.6181052 C3.72865364,23.1657287 3.98545992,22.9259774 4.35458545,22.9259774 C4.73443358,22.9259774 4.91644973,23.1712088 4.91644973,23.6126251 L4.91644973,25.062641 L5.47831401,25.062641 L5.47831401,25.062641 Z" id="Shape" fill="#000000"></path>
        </g>
    </g>
</svg>