<?xml version="1.0" encoding="UTF-8"?>
<svg width="50px" height="34px" viewBox="0 0 50 34" version="1.1" xmlns="http://www.w3.org/2000/svg" xmlns:xlink="http://www.w3.org/1999/xlink">
    <title>Icon Sofort</title>
    <g id="Icon Sofort" stroke="none" stroke-width="1" fill="none" fill-rule="evenodd">
        <rect id="Rectangle" x="0" y="0" width="50" height="34"></rect>
        <g id="icon_sofort" transform="translate(6.000000, 13.000000)" fill="#EF7D00" fill-rule="nonzero">
            <path d="M31.6666667,0 C31.7943548,0.11756847 31.8965054,0.249832999 31.9858871,0.396793587 C32.2157258,0.778891116 32.3051075,1.23446894 32.2540323,1.748831 L33.4287634,1.748831 L31.6666667,7.33333333 L33.4287634,7.33333333 L35.1908602,1.748831 L37.4509409,1.748831 L38,0.0146960588 L31.6666667,0 Z" id="Path"></path>
            <path d="M31.4591783,0.721552878 C31.1419107,0.235609103 30.5073756,0 29.5141902,0 L27.1967577,0 L24.7,7.33333333 L26.8243132,7.33333333 L27.7347331,4.75635877 C27.7761158,4.85943775 28.3140912,7.33333333 28.3140912,7.33333333 L30.5487584,7.33333333 C30.5487584,7.33333333 30.1487254,5.50736278 29.845252,4.78580991 C29.7624866,4.59437751 29.6935154,4.38821954 29.5831615,4.21151272 C30.2176966,3.96117805 31.1281165,3.43105756 31.500561,2.34136546 C31.7350631,1.66398929 31.7212689,1.11914324 31.4591783,0.721552878 L31.4591783,0.721552878 Z M29.6107499,2.34136546 C29.4038363,2.93038822 29.045186,3.28380187 28.3416797,3.28380187 L27.9830295,3.28380187 L28.6037703,1.5167336 L28.9486264,1.5167336 C29.5969557,1.5167336 29.8314578,1.72289157 29.6107499,2.34136546 L29.6107499,2.34136546 Z" id="Shape"></path>
            <path d="M10.7666667,0 L6.83903061,1.0463146e-15 C6.22104592,1.0463146e-15 5.61679422,1.0463146e-15 5.08120748,0.294511379 C4.54562075,0.589022758 4.06496599,1.17804552 3.70790816,2.34136546 C3.6255102,2.59170013 3.58431122,2.81258367 3.58431122,3.00401606 C3.58431122,3.19544846 3.61177721,3.35742972 3.68044218,3.48995984 C3.76284014,3.66666667 3.90017007,3.81392236 4.06496599,3.96117805 C4.2297619,4.09370817 4.4357568,4.21151272 4.6417517,4.27041499 C4.65548469,4.27041499 4.76534864,4.3145917 4.90267857,4.34404284 C5.0400085,4.38821954 5.20480442,4.43239625 5.30093537,4.47657296 C5.35586735,4.49129853 5.42453231,4.52074967 5.47946429,4.56492637 C5.53439626,4.60910308 5.58932823,4.65327979 5.63052721,4.72690763 C5.6579932,4.77108434 5.6579932,4.82998661 5.67172619,4.87416332 C5.67172619,4.9330656 5.6579932,4.99196787 5.6442602,5.05087015 C5.58932823,5.21285141 5.52066327,5.31593039 5.36960034,5.37483266 C5.21853741,5.43373494 5.01254252,5.46318608 4.68295068,5.46318608 L0.631717687,5.46318608 L0,7.33333333 L4.32589286,7.33333333 C4.73788265,7.33333333 5.47946429,7.33333333 6.19357993,7.00937082 C6.90769558,6.6854083 7.59434524,6.03748327 7.8827381,4.72690763 C7.99260204,4.24096386 7.95140306,3.84337349 7.77287415,3.53413655 C7.59434524,3.2248996 7.2647534,2.9892905 6.79783163,2.84203481 C6.79783163,2.84203481 6.68796769,2.81258367 6.56437075,2.76840696 C6.44077381,2.72423025 6.30344388,2.68005355 6.22104592,2.66532798 C6.09744898,2.62115127 6.00131803,2.54752343 5.94638605,2.45917001 C5.89145408,2.3708166 5.87772109,2.25301205 5.90518707,2.1352075 C5.93265306,2.01740295 6.01505102,1.91432396 6.12491497,1.84069612 C6.23477891,1.76706827 6.38584184,1.73761714 6.56437075,1.73761714 L9.0775085,1.73761714 C9.0912415,1.708166 9.10497449,1.67871486 9.13244048,1.64926372 C9.59936224,0.957161981 10.148682,0.397590361 10.7666667,0 Z" id="Path"></path>
            <path d="M14.2594664,0.768932039 C13.9296331,0.25631068 13.3755133,0 12.5839135,0 C12.0693737,0 11.5812205,0.12815534 11.1062606,0.370226537 C10.4465941,0.71197411 9.83970099,1.2815534 9.33835446,2.03624595 C9.02171456,2.52038835 8.74465464,3.08996764 8.53356136,3.73074434 C8.12456815,4.92686084 8.13776148,5.89514563 8.54675469,6.53592233 C8.78423463,6.89190939 9.27238782,7.33333333 10.2618875,7.33333333 C12.0693737,7.33333333 13.4150933,6.05177994 14.2726597,3.53139159 C14.5101396,2.84789644 14.8003929,1.60906149 14.2594664,0.768932039 L14.2594664,0.768932039 Z M12.3332403,3.61682848 C11.7659271,5.2828479 11.3569339,5.69579288 10.7368474,5.69579288 C10.1431476,5.69579288 9.93205429,5.2828479 10.4861741,3.63106796 C10.8951673,2.39223301 11.4492872,1.60906149 12.1089537,1.60906149 C12.7290401,1.60906149 12.8741668,1.99352751 12.3332403,3.61682848 Z" id="Shape"></path>
            <path d="M21.5333333,0 L17.5401667,0 C16.4286667,0 15.5916111,0.603748327 15.1936667,1.73761714 L13.3,7.33333333 L15.3720556,7.33333333 L16.3463333,4.46184739 L18.1851111,4.46184739 L18.7065556,2.91566265 L16.8815,2.91566265 L17.1696667,2.01740295 C17.2245556,1.85542169 17.3755,1.73761714 17.5950556,1.73761714 L19.7631667,1.73761714 C19.7768889,1.708166 19.7906111,1.67871486 19.8180556,1.64926372 C20.2571667,0.957161981 20.9295556,0.397590361 21.5333333,0 L21.5333333,0 Z" id="Path"></path>
            <path d="M25.0299453,0.768932039 C24.6999034,0.25631068 24.145433,0 23.3533325,0 C22.8384671,0 22.3500051,0.12815534 21.8747448,0.370226537 C21.214661,0.71197411 20.6073839,1.2815534 20.1057202,2.03624595 C19.78888,2.52038835 19.5116448,3.08996764 19.300418,3.73074434 C18.891166,4.92686084 18.9043677,5.89514563 19.3136196,6.53592233 C19.5512498,6.89190939 20.0397118,7.33333333 21.0298375,7.33333333 C22.8384671,7.33333333 24.185038,6.05177994 25.043147,3.53139159 C25.2675755,2.84789644 25.571214,1.60906149 25.0299453,0.768932039 L25.0299453,0.768932039 Z M23.0892989,3.61682848 C22.5216269,5.2828479 22.1123749,5.69579288 21.5050978,5.69579288 C20.9110224,5.69579288 20.6997956,5.2828479 21.254266,3.63106796 C21.6767196,2.39223301 22.2179883,1.60906149 22.8780721,1.60906149 C23.4853492,1.60906149 23.6437693,1.99352751 23.0892989,3.61682848 Z" id="Shape"></path>
        </g>
    </g>
</svg>