<svg enable-background="new 0 0 20.6 20.7" viewBox="0 0 20.6 20.7" xmlns="http://www.w3.org/2000/svg"><g fill="#232323"><path d="m.2 14.4c0-2.7 0-5.4 0-8 0-.2.1-.5.1-.7.1-2.6 1.7-4.6 4.3-5.1.5-.1 1.1-.2 1.6-.2h8c.2 0 .5.1.7.1 2.6.2 4.5 1.7 5.1 4.2.1.6.2 1.2.3 1.8v7.7c0 .3-.1.6-.1.9-.2 2.6-1.7 4.5-4.2 5.1-.6.2-1.3.2-1.9.3-2.6 0-5.2 0-7.7 0-.3 0-.5-.1-.8-.1-2.6-.2-4.6-1.8-5.1-4.4-.2-.5-.3-1.1-.3-1.6zm9.9 4.1h4.5c1.1 0 2.1-.4 2.8-1.3.6-.7.9-1.6.9-2.5 0-2.9.1-5.8 0-8.6 0-2.4-1.4-3.8-3.8-3.9-2.5 0-4.9 0-7.4 0-.8 0-1.5.1-2.2.2-1.7.3-2.8 1.7-2.8 3.6-.1 2.9-.1 5.8 0 8.7 0 2.3 1.5 3.7 3.8 3.8 1.4.1 2.8 0 4.2 0z"/><path d="m5.1 10.4c0-2.9 2.3-5.1 5.2-5.1s5.1 2.3 5.1 5.2-2.3 5.1-5.2 5.1c-2.9-.1-5.2-2.4-5.1-5.2zm5.1 3.3c1.9 0 3.3-1.5 3.3-3.3s-1.5-3.3-3.3-3.3c-1.9 0-3.4 1.4-3.4 3.3.1 1.8 1.5 3.3 3.4 3.3z"/><path d="m16.8 5c0 .7-.5 1.2-1.2 1.2s-1.2-.5-1.2-1.2.5-1.2 1.2-1.2c.6 0 1.2.5 1.2 1.2z"/></g></svg>