<svg enable-background="new 0 0 21.9 20.7" viewBox="0 0 21.9 20.7" xmlns="http://www.w3.org/2000/svg"><path d="m11.4 20.7c-.3 0-.6 0-.9 0-.7-.3-1.6-.5-2.2-1-1.3-.9-2.7-1.4-4.3-1-.5.1-.8-.1-.8-.5-.1-.7-.5-.9-1.1-1-.9-.2-1.7-.3-2.1-1.2v-.1c.2-.1.5-.4.7-.5 1.8-.5 3.1-1.8 3.9-3.4.5-.9.4-1.2-.6-1.6-.5-.2-1-.4-1.4-.7-.6-.3-.5-.9 0-1.2.3-.1.7-.1 1-.1.2 0 .5.1.7.2.6.1.7-.1.7-.6 0-.9 0-1.8 0-2.8.1-2.2 1.1-3.7 3.1-4.5.7-.3 1.6-.5 2.4-.7h1.2c.3.1.6.1.9.2 2.3.5 4.2 2.4 4.4 4.8.1 1 0 2 0 2.9 0 .7.1.7.8.6.4-.1.9-.1 1.3-.1s.7.3.7.6-.2.6-.4.7c-.5.3-1 .5-1.4.7-.9.4-1 .7-.6 1.5.9 1.7 2.1 3 4.1 3.5.2.1.5.3.5.4.1.3-.1.6-.5.7-.5.2-1 .4-1.5.5-.6.1-1 .4-1.1 1-.1.5-.4.7-.8.5-.1 0-.3 0-.4-.1-1.1-.2-2.2-.1-3.2.6-1.1.9-2 1.5-3.1 1.7z" fill="#232323"/></svg>