<svg viewBox="0 0 38.51 41.4" xmlns="http://www.w3.org/2000/svg"><path d="m24.69 10.66a5.24 5.24 0 0 0 -1.79.34 7.5 7.5 0 0 0 -3.38 2.37 7.12 7.12 0 0 0 -3.12-2.29 5.68 5.68 0 0 0 -2-.35 5.2 5.2 0 0 0 -5.2 4.55 11.56 11.56 0 0 0 1.21 5.82 25.49 25.49 0 0 0 5.44 7.07c1.15 1.1 2.38 2.12 3.6 3.21 1.19-1 2.19-1.88 3.35-2.9a30.28 30.28 0 0 0 5.69-7.24 9.79 9.79 0 0 0 1.16-6.09 5.22 5.22 0 0 0 -4.96-4.49z" transform="translate(-.24 -.3)"/><path d="m38.01 40.9v-.5h-37.01v-39.4h36.51v39.9h.5v-.5.5h.5v-40.9h-38.51v41.4h38.51v-.5z"/></svg>