<svg viewBox="0 0 39 39.17" xmlns="http://www.w3.org/2000/svg"><path d="m29.33 3.9c3.9 0 6.53 3.27 7 6.33a16 16 0 0 1 -1.9 9.92 54.64 54.64 0 0 1 -10.25 13c-1.62 1.52-3.1 2.85-4.68 4.15l-.56-.49c-1.6-1.39-3.11-2.7-4.56-4.09a45.4 45.4 0 0 1 -9.78-12.72c-1.24-2.51-2.41-6.59-2-9.63a7.37 7.37 0 0 1 7.34-6.37 8.28 8.28 0 0 1 2.85.52 11 11 0 0 1 4.77 3.48l2 2.7 2-2.73a11.76 11.76 0 0 1 5.23-3.61 7.47 7.47 0 0 1 2.54-.46m0-2.49a9.93 9.93 0 0 0 -3.38.59 14.2 14.2 0 0 0 -6.39 4.49 13.48 13.48 0 0 0 -5.92-4.34 10.75 10.75 0 0 0 -3.7-.67 9.85 9.85 0 0 0 -9.86 8.63c-.41 3.46.77 7.94 2.29 11a48.28 48.28 0 0 0 10.3 13.38c2.18 2.09 4.5 4 6.82 6.07 2.25-1.92 4.16-3.56 6.35-5.49a57.35 57.35 0 0 0 10.78-13.68 18.54 18.54 0 0 0 2.2-11.54 9.89 9.89 0 0 0 -9.49-8.44z" transform="translate(0 -1.41)"/></svg>