<svg id="Layer_1" data-name="Layer 1" xmlns="http://www.w3.org/2000/svg" viewBox="0 0 32 32"><title>NEW_Icons</title><path d="M16,31.59A15.59,15.59,0,1,1,31.59,16,15.6,15.6,0,0,1,16,31.59ZM16,1.41A14.59,14.59,0,1,0,30.59,16,14.61,14.61,0,0,0,16,1.41Zm1.13,14.26h2.21c.11,0,.18,0,.2-.15.07-.77.15-1.55.23-2.33,0-.17,0-.34,0-.53H17.15c0-.64,0-1.26,0-1.87a.68.68,0,0,1,.78-.69h1.83V7.22l0,0c-1.05,0-2.11,0-3.16,0a3.08,3.08,0,0,0-2.92,3c-.06.72,0,1.44,0,2.16v.24H11.94v2.55c0,.44,0,.44.43.44h1.24v8.45h3.52Z"/></svg>