<svg id="Layer_1" data-name="Layer 1" xmlns="http://www.w3.org/2000/svg" viewBox="0 0 32 32"><title>NEW_Icons</title><path d="M16,31.59A15.59,15.59,0,1,1,31.59,16,15.6,15.6,0,0,1,16,31.59ZM16,1.41A14.59,14.59,0,1,0,30.59,16,14.61,14.61,0,0,0,16,1.41ZM8.63,16c0-1.12,0-2.23,0-3.35a4,4,0,0,1,4-4c1.92-.05,3.84-.07,5.76-.05a7.57,7.57,0,0,1,2.12.27A3.67,3.67,0,0,1,23.25,12a11,11,0,0,1,.14,1.81c0,1.85,0,3.71-.07,5.56a4,4,0,0,1-4,4c-1.93,0-3.86.08-5.8,0a7.94,7.94,0,0,1-2.27-.33A3.51,3.51,0,0,1,8.72,20a32.73,32.73,0,0,1-.09-4ZM22.1,16h0c0-1,0-2-.06-3a3.53,3.53,0,0,0-.54-2A2.8,2.8,0,0,0,19.08,10c-2.22,0-4.45,0-6.67.06a2.45,2.45,0,0,0-2.34,2A4.3,4.3,0,0,0,9.92,13c0,2,0,4,0,6a3.25,3.25,0,0,0,.56,1.93,2.84,2.84,0,0,0,2.43,1.12c2.19,0,4.38,0,6.57-.05A2.57,2.57,0,0,0,22,19.53C22.05,18.36,22.06,17.19,22.1,16ZM16,12.2a3.8,3.8,0,1,1,0,7.6,3.8,3.8,0,1,1,0-7.6ZM13.49,16A2.49,2.49,0,1,0,16,13.51,2.51,2.51,0,0,0,13.49,16ZM20.84,12a.92.92,0,0,0-.91-.9.9.9,0,0,0-.87.92.87.87,0,0,0,.9.85A.89.89,0,0,0,20.84,12Z"/></svg>