<svg id="Layer_1" data-name="Layer 1" xmlns="http://www.w3.org/2000/svg" viewBox="0 0 32 32"><title>NEW_Icons</title><path d="M16,31.59A15.59,15.59,0,1,1,31.59,16,15.6,15.6,0,0,1,16,31.59ZM16,1.41A14.59,14.59,0,1,0,30.59,16,14.61,14.61,0,0,0,16,1.41Zm3.91,17.42A6,6,0,0,0,21,17.65c1.54-2.31,1.62-5.78.2-7.74A6.25,6.25,0,0,0,13.7,8a6.1,6.1,0,0,0-3.84,6.41,3.4,3.4,0,0,0,1.6,2.78,1,1,0,0,0,.6,0,6.85,6.85,0,0,0,0-1.5c0-.32-.31-.6-.4-.91A4.59,4.59,0,0,1,16.3,9.14,3.6,3.6,0,0,1,20,13.24a10.13,10.13,0,0,1-.66,2.94A4.51,4.51,0,0,1,18,17.83a1.39,1.39,0,0,1-1.81,0,1.5,1.5,0,0,1-.55-1.74A25.25,25.25,0,0,0,16.35,13a1.34,1.34,0,0,0-.91-1.67,1.46,1.46,0,0,0-1.66,1,10.05,10.05,0,0,0-.3,2.33c-.05.63,0,1.29-.06,1.91-.26,1.39-.63,2.77-.93,4.16a8.28,8.28,0,0,0,.07,3.8c1.53-1.68,1.91-3.75,2.39-5.81A3.63,3.63,0,0,0,19.91,18.83Z"/></svg>