<svg id="Layer_1" data-name="Layer 1" xmlns="http://www.w3.org/2000/svg" viewBox="0 0 32 32"><title>NEW_Icons</title><path d="M12.78,19.84A3.42,3.42,0,0,1,9.67,17.5c.24,0,.48,0,.72,0s.48-.05.72-.09A3.48,3.48,0,0,1,8.44,14a3.72,3.72,0,0,0,1.53.39A3.43,3.43,0,0,1,8.92,9.87a9.79,9.79,0,0,0,7,3.56c0-.2,0-.38-.06-.56a3.41,3.41,0,0,1,4-3.59,3.28,3.28,0,0,1,1.85,1,.18.18,0,0,0,.19.06,7.07,7.07,0,0,0,1.93-.74L24,9.5a3.38,3.38,0,0,1-1.41,1.82v0c.31-.07.62-.12.92-.2s.61-.2.92-.31a6.12,6.12,0,0,1-.88,1.07c-.23.2-.46.4-.7.59a.22.22,0,0,0-.09.2,9.52,9.52,0,0,1-.35,2.91,9.72,9.72,0,0,1-.95,2.28,16.79,16.79,0,0,1-1,1.41,8.06,8.06,0,0,1-1.4,1.4,9.3,9.3,0,0,1-1.95,1.2,9.45,9.45,0,0,1-2.55.74,11,11,0,0,1-2.29.08,8.26,8.26,0,0,1-2.36-.48c-.53-.2-1-.44-1.56-.68a3.17,3.17,0,0,1-.52-.32A6.88,6.88,0,0,0,12.78,19.84ZM31.59,16A15.59,15.59,0,1,0,16,31.59,15.6,15.6,0,0,0,31.59,16Zm-1,0A14.59,14.59,0,1,1,16,1.41,14.61,14.61,0,0,1,30.59,16Z"/></svg>