<svg id="Layer_1" data-name="Layer 1" xmlns="http://www.w3.org/2000/svg" viewBox="0 0 32 32"><title>NEW_Icons</title><path d="M16,31.59A15.59,15.59,0,1,1,31.59,16,15.6,15.6,0,0,1,16,31.59ZM16,1.41A14.59,14.59,0,1,0,30.59,16,14.61,14.61,0,0,0,16,1.41Zm.68,21.05H15.25l-.7,0-1.3-.08-.92-.07-1-.12q-.57-.06-1.14-.15a2.5,2.5,0,0,1-2-1.93,17.31,17.31,0,0,1-.27-2c0-.46-.05-.92-.07-1.39,0,0,0,0,0-.06V15.38s0,0,0-.06c0-.23,0-.46,0-.69s0-.58.06-.88.06-.59.1-.89a8.7,8.7,0,0,1,.17-1A2.41,2.41,0,0,1,9.9,10.05a5.24,5.24,0,0,1,.88-.16c.5-.06,1-.12,1.49-.16s1.05-.1,1.58-.13c.71,0,1.43-.06,2.14-.06s1.31,0,2,.05l.82.05.75.06.76.08.83.1c.28,0,.56.06.83.12a2.46,2.46,0,0,1,1.83,1.58,3.83,3.83,0,0,1,.2.95c.07.54.14,1.08.18,1.61s.07,1.08.07,1.62,0,1.18,0,1.76q0,.53-.09,1.05c0,.33-.08.66-.13,1a4.74,4.74,0,0,1-.15.75A2.43,2.43,0,0,1,22,22c-.24.05-.48.08-.72.11l-1.12.13q-.47.06-.93.09l-1.06.08-1.38.05Zm-.57-11.75c-.53,0-.95,0-1.37,0s-.67,0-1,0l-1,.07-1,.1-1.32.17a1.3,1.3,0,0,0-1.12,1,6.17,6.17,0,0,0-.14.86c-.05.37-.1.75-.13,1.13S9,14.88,9,15.28c0,.59,0,1.19,0,1.78a7.34,7.34,0,0,0,0,.81c0,.32.06.65.1,1a8.17,8.17,0,0,0,.16,1,1.26,1.26,0,0,0,1,1c.22.05.45.07.67.1l.8.1,1.14.11,1.31.09c.53,0,1.06,0,1.58,0s1.07,0,1.6,0l.94-.05.71-.05.82-.08.88-.1.82-.11a1.28,1.28,0,0,0,1.06-.76,2.19,2.19,0,0,0,.16-.67c.06-.46.12-.92.17-1.39s.06-.87.08-1.31c0-.65,0-1.3,0-2,0-.46-.07-.91-.11-1.36s-.11-.79-.18-1.19a1.27,1.27,0,0,0-.92-1.05,5.65,5.65,0,0,0-.7-.11q-.8-.11-1.59-.18c-.56-.05-1.11-.1-1.67-.13S16.62,10.72,16.11,10.71Zm-2.45,8.23L19.53,16l-5.87-2.94Z"/></svg>