<svg height="22" viewBox="0 0 22 22" width="22" xmlns="http://www.w3.org/2000/svg"><path d="m.02538462 11.0084615c0 6.0669231 4.91615384 10.983077 10.98307688 10.983077 6.0669231 0 10.983077-4.9161539 10.983077-10.983077 0-6.06692304-4.9161539-10.98307688-10.983077-10.98307688-6.06692304 0-10.98307688 4.91615384-10.98307688 10.98307688zm9-5.98307688 3.99999998.01692307v7.75641021h-3.99999998zm2.02197798 12.99999998c-1.11355308 0-2.02197798-.9084249-2.02197798-2 0-1.1135531.9084249-2 2.02197798-2 1.0915751 0 1.978022.8864469 1.978022 2 0 1.0915751-.8864469 2-1.978022 2z" fill="#333" fill-rule="evenodd" transform="matrix(-1 0 0 -1 22.016924 22.016924)"/></svg>