<svg height="25" viewBox="0 0 26 25" width="26" xmlns="http://www.w3.org/2000/svg" xmlns:xlink="http://www.w3.org/1999/xlink"><mask id="a" fill="#fff"><path d="m25.375 25v-24.9328125h-25.375v24.9328125z" fill="#fff" fill-rule="evenodd"/></mask><path d="m25.2592266 12.2291667-12.2682839-12.0401042c-.1649375-.16302083-.4334896-.16302083-.5989557 0l-12.27039846 12.0401042c-.1649375.1630208-.16070833.4234375 0 .5880208.08511198.0854167.19242709.128125.29974219.128125v.0020833h2.96094531v11.6375c0 .1140625.04757813.2177084.12423177.2927084.07823959.0755208.18344011.1223958.29921354.1223958h5.92030469c.23577604 0 .42344536-.1875.42344536-.4151042v-8.3109375h5.0760572v8.3109375c0 .2276042.1897839.4151042.4234454.4151042h5.9203046c.2331329 0 .4234454-.1875.4234454-.4151042v-11.6375h2.9794479c.1115442.0020834.2167448-.040625.2870547-.128125.1448489-.1833333.1654661-.4270833 0-.5901041z" fill="#333" fill-rule="evenodd" mask="url(#a)" transform="translate(.175)"/></svg>