<?xml version="1.0" encoding="UTF-8"?>
<svg width="24px" height="13px" viewBox="0 0 24 13" version="1.1" xmlns="http://www.w3.org/2000/svg" xmlns:xlink="http://www.w3.org/1999/xlink">
    <!-- Generator: Sketch 58 (84663) - https://sketch.com -->
    <title>ddp-icon (1)</title>
    <desc>Created with Sketch.</desc>
    <g id="Desktop" stroke="none" stroke-width="1" fill="none" fill-rule="evenodd">
        <g id="DP/BURTON---DDP-Template---Desktop" transform="translate(-296.000000, -1232.000000)" fill="#FFFFFF" fill-rule="nonzero">
            <g id="Group-8" transform="translate(296.000000, 1227.000000)">
                <g id="Group-7">
                    <g id="Group-6">
                        <g id="Group-5">
                            <g id="ddp-icon-(1)" transform="translate(0.000000, 5.000000)">
                                <path d="M23.7218543,5.16397351 L21.741457,2.06622517 C21.5723374,1.79797407 21.2781648,1.63441167 20.9610596,1.63231788 L18.7104636,1.63231788 L18.7104636,1.28264901 C18.7100454,0.964824759 18.5830609,0.660254561 18.3575806,0.436265559 C18.1321003,0.212276557 17.8266942,0.0873157915 17.5088742,0.088966617 L7.14278146,0.088966617 C6.47587955,0.0836552169 5.92879998,0.615853094 5.91576159,1.28264901 L5.91576159,2.27125828 L0.301986755,2.27125828 C0.199633586,2.26343686 0.101525335,2.31361284 0.0479563368,2.40117829 C-0.00561266133,2.48874374 -0.00561266133,2.59893838 0.0479563368,2.68650383 C0.101525335,2.77406928 0.199633586,2.82424526 0.301986755,2.81642384 L5.91576159,2.81642384 L5.91576159,4.35337748 L2.19655629,4.35337748 C2.09420312,4.34555606 1.99609487,4.39573204 1.94252587,4.4832975 C1.88895688,4.57086295 1.88895688,4.68105758 1.94252587,4.76862303 C1.99609487,4.85618849 2.09420312,4.90636447 2.19655629,4.89854305 L5.91576159,4.89854305 L5.91576159,6.73430464 L4.2007947,6.73430464 C4.09844153,6.72648322 4.00033328,6.7766592 3.94676428,6.86422465 C3.89319529,6.9517901 3.89319529,7.06198474 3.94676428,7.14955019 C4.00033328,7.23711564 4.09844153,7.28729162 4.2007947,7.2794702 L5.91576159,7.2794702 L5.91576159,8.42384106 C5.92879998,9.09063697 6.47587955,9.62283485 7.14278146,9.61748344 L7.94701987,9.61748344 C7.94627626,9.62061876 7.94627626,9.62388455 7.94701987,9.62701987 C7.91626089,9.77121552 7.90081103,9.91825559 7.90092715,10.0656954 C7.90092715,11.2375631 8.85091368,12.1875497 10.0227815,12.1875497 C11.1946492,12.1875497 12.1446358,11.2375631 12.1446358,10.0656954 C12.1447519,9.91825559 12.129302,9.77121552 12.098543,9.62701987 C12.098543,9.62701987 12.098543,9.62701987 12.098543,9.61748344 L16.3899338,9.61748344 C16.3899338,9.61748344 16.3899338,9.61748344 16.3899338,9.62701987 C16.3604976,9.77139354 16.3455888,9.91835147 16.3454305,10.0656954 C16.3526755,10.9042963 16.8531646,11.6599529 17.6224734,11.9938211 C18.3917822,12.3276893 19.2855583,12.1771224 19.9030235,11.6096361 C20.5204888,11.0421498 20.7457825,10.1642267 20.4778808,9.36953642 L22.9446358,9.36953642 C23.4624427,9.35996186 23.8751666,8.93374101 23.8681694,8.41589404 L23.8681694,5.66463576 C23.8681694,5.48720266 23.8174464,5.31345481 23.7218543,5.16397351 Z M11.5343046,9.61430464 C11.575345,9.7569189 11.5962099,9.90457819 11.5962914,10.0529801 C11.569322,10.9003737 10.8745776,11.5733587 10.026755,11.5733587 C9.17893236,11.5733587 8.48418796,10.9003737 8.45721854,10.0529801 C8.4573,9.90457819 8.4781649,9.7569189 8.5192053,9.61430464 C8.51989448,9.61116318 8.51989448,9.60790967 8.5192053,9.60476821 C8.54221793,9.51752617 8.57528725,9.43325274 8.61774834,9.35364238 C8.61816284,9.34941411 8.61816284,9.34515543 8.61774834,9.34092715 C8.66842792,9.24372074 8.72915708,9.1520943 8.7989404,9.06754967 C8.7989404,9.06754967 8.7989404,9.06754967 8.80847682,9.06754967 L8.8005298,9.06754967 L8.80847682,9.05801325 C9.10682472,8.6994225 9.54915428,8.49203421 10.0156291,8.49203421 C10.482104,8.49203421 10.9244336,8.6994225 11.2227815,9.05801325 L11.2227815,9.06754967 C11.2227815,9.06754967 11.2227815,9.06754967 11.2323179,9.06754967 C11.3020727,9.15268453 11.3627959,9.24483461 11.4135099,9.34251656 L11.4135099,9.35523179 C11.4557046,9.43496473 11.4887616,9.51920693 11.512053,9.60635762 C11.512053,9.60635762 11.5327152,9.61589404 11.5343046,9.61907285 L11.5343046,9.61430464 Z M11.901457,9.05960265 L11.901457,9.05006623 C11.8255517,8.90787224 11.7332686,8.77504856 11.6264901,8.65430464 L11.5788079,8.6018543 C11.4823372,8.49834904 11.3758579,8.40464718 11.2609272,8.32211921 C10.5253788,7.80083334 9.54084636,7.80083334 8.80529801,8.32211921 C8.69064399,8.4049943 8.58419704,8.49866762 8.48741722,8.6018543 L8.4397351,8.65430464 C8.33010966,8.77768331 8.23566171,8.91375239 8.1584106,9.05960265 C8.15795414,9.06276507 8.15795414,9.06597665 8.1584106,9.06916196 L7.14278146,9.06916196 C6.779065,9.07210105 6.47799155,8.78716907 6.46092715,8.42384106 L6.46092715,7.10781457 C6.48635925,7.04293299 6.48635925,6.97084185 6.46092715,6.90596026 L6.46092715,4.72688742 C6.47365569,4.69504434 6.48013127,4.66104753 6.48,4.62675497 C6.48042177,4.59243617 6.47393549,4.5583832 6.46092715,4.52662252 L6.46092715,2.64476821 C6.48635925,2.57988663 6.48635925,2.50779549 6.46092715,2.44291391 L6.46092715,1.28264901 C6.47716426,0.918694339 6.77847654,0.632833966 7.14278146,0.635739303 L17.5088742,0.635739303 C17.8684171,0.634877216 18.1610853,0.92470395 18.1637086,1.28423841 L18.1637086,7.9597351 C18.1005533,7.96907799 18.0379462,7.98181162 17.9761589,7.99788079 L17.9109934,8.01377483 L17.858543,8.02807947 L17.8076821,8.04556291 C17.4965625,8.15047634 17.2137656,8.32559291 16.9811921,8.55735099 L16.9589404,8.58119205 L16.9160265,8.62569536 C16.8683444,8.6797351 16.8238411,8.73377483 16.7809272,8.78463576 C16.7683928,8.79931315 16.7567177,8.81470307 16.7459603,8.83072848 L16.7459603,8.84344371 L16.7459603,8.85456954 C16.6954147,8.91249511 16.6551033,8.97860579 16.626755,9.05006623 L11.901457,9.05006623 L11.901457,9.05960265 Z M20.0407947,10.0529801 C20.0138253,10.9003737 19.3190809,11.5733587 18.4712583,11.5733587 C17.6234357,11.5733587 16.9286913,10.9003737 16.9017219,10.0529801 C16.9018033,9.90457819 16.9226682,9.7569189 16.9637086,9.61430464 C16.9643978,9.61116318 16.9643978,9.60790967 16.9637086,9.60476821 C16.9864725,9.51869468 17.0190016,9.4355056 17.0606623,9.35682119 C17.0606623,9.35682119 17.0606623,9.34569536 17.0606623,9.34251656 C17.0807947,9.30437086 17.1030464,9.26622517 17.1274172,9.22807947 C17.1623473,9.1728566 17.2005617,9.11978095 17.2418543,9.06913907 C17.2418543,9.06913907 17.2418543,9.06913907 17.2513907,9.06913907 C17.2688742,9.04688742 17.287947,9.02622517 17.3070199,9.00397351 C17.3564225,8.95148097 17.4095399,8.90261295 17.4659603,8.85774834 C17.4813625,8.84518436 17.4978513,8.83401457 17.5152318,8.82437086 L17.504106,8.82437086 L17.5152318,8.81483444 L17.5374834,8.7989404 C17.717259,8.66687373 17.9231818,8.57475038 18.141457,8.52874172 L18.1621192,8.52874172 C18.1986755,8.52874172 18.2352318,8.51602649 18.2733775,8.51125828 L18.2924503,8.51125828 C18.330596,8.51125828 18.3703311,8.51125828 18.4100662,8.50172185 L18.4609272,8.50172185 C18.5402117,8.50109844 18.6194149,8.50694566 18.6977483,8.5192053 C18.9474573,8.55190339 19.1853705,8.64521339 19.3907285,8.79099338 L19.4129801,8.80688742 L19.424106,8.81642384 L19.4129801,8.81642384 C19.6010975,8.96036983 19.7561144,9.14302963 19.8675497,9.35205298 C19.8675497,9.35205298 19.8675497,9.3615894 19.8675497,9.3615894 C19.9781319,9.57720686 20.037421,9.81545114 20.0407947,10.0577483 L20.0407947,10.0529801 Z M23.3213245,8.42384106 C23.3216531,8.63664129 23.1555182,8.81254887 22.9430464,8.82437086 L20.1854305,8.82437086 C20.1858869,8.82120844 20.1858869,8.81799686 20.1854305,8.81483444 L20.1743046,8.7989404 C19.8274803,8.32531279 19.2996926,8.01681312 18.7168212,7.94701987 L18.7168212,2.22516556 L20.9674172,2.22516556 C21.093933,2.21866425 21.2145896,2.27899256 21.285298,2.38410596 L23.2688742,5.47390728 C23.3077876,5.53171832 23.3287957,5.59971791 23.3292715,5.66940397 L23.3213245,8.42384106 Z M14.5303311,2.95152318 C14.989175,2.97347025 15.4240424,3.16291185 15.7525828,3.48397351 C16.0957002,3.82420403 16.2887061,4.28739175 16.2887061,4.77059603 C16.2887061,5.2538003 16.0957002,5.71698802 15.7525828,6.05721854 C15.1363487,6.71962929 14.1013509,6.76148321 13.4336424,6.15099338 L12.6230464,5.35629139 C12.5546188,5.28348885 12.5546188,5.17002108 12.6230464,5.09721854 C12.6949951,5.02819069 12.8085811,5.02819069 12.8805298,5.09721854 L13.6943046,5.89192053 C14.2076821,6.34490066 14.9197351,6.39735099 15.509404,5.80768212 C15.7882697,5.53629289 15.9455788,5.16369444 15.9455788,4.77456954 C15.9455788,4.38544463 15.7882697,4.01284618 15.509404,3.74145695 C15.2632673,3.47466335 14.9186979,3.32018139 14.5557616,3.31390728 C14.1504925,3.33203254 13.769564,3.51247232 13.4988079,3.81456954 L11.3324503,5.97774834 C10.983357,6.32047038 10.5295721,6.53645187 10.0434437,6.59125828 C9.58046182,6.58788852 9.13894637,6.39555084 8.82119205,6.05880795 C8.47837311,5.71809492 8.28560141,5.25472311 8.28560141,4.77139073 C8.28560141,4.28805834 8.47837311,3.82468654 8.82119205,3.48397351 C9.43758844,2.82052279 10.4738015,2.77864842 11.1417219,3.39019868 L11.9570861,4.18490066 C12.0045007,4.23004389 12.0242299,4.29705333 12.008842,4.36068718 C11.9934542,4.42432103 11.9452869,4.47491179 11.8824844,4.49340242 C11.819682,4.51189304 11.7517854,4.49547435 11.7043709,4.45033113 C11.4341722,4.18807947 11.1639735,3.92264901 10.890596,3.66357616 C10.3788079,3.21218543 9.66834437,3.1597351 9.0802649,3.74940397 C8.80203815,4.01886397 8.64497353,4.38963103 8.64497353,4.77695364 C8.64497353,5.16427626 8.80203815,5.53504332 9.0802649,5.80450331 C9.32590379,6.07219333 9.67064905,6.2273287 10.0339073,6.23364238 C10.4353812,6.20733992 10.8101728,6.02337208 11.0765563,5.7218543 L13.2429139,3.56344371 C13.57521,3.19854411 14.0375543,2.97878787 14.5303311,2.95152318 L14.5303311,2.95152318 Z" id="Shape"></path>
                            </g>
                        </g>
                    </g>
                </g>
            </g>
        </g>
    </g>
</svg>