<svg height="16" viewBox="0 0 11 16" width="11" xmlns="http://www.w3.org/2000/svg" xmlns:xlink="http://www.w3.org/1999/xlink"><mask id="a" fill="#fff"><path d="m5.46282 15.84022h-5.44962v-15.84h5.44962 5.44962v15.84z" fill="#fff" fill-rule="evenodd"/></mask><path d="m10.6546 3.94306c-.05676-.21142-.17116-.4367-.25608-.63426-1.01332-2.4354-3.22784-3.30858-5.01622-3.30858-2.39338 0-5.02986 1.60534-5.3823 4.91392v.6754c0 .02838.00946.28182.0231.40898.19778 1.57608 1.4421 3.25204 2.37116 4.829.99946 1.68938 2.03676 3.35148 3.06438 5.0127.63426-1.0846 1.26588-2.18284 1.88474-3.23906.16918-.30932.3652-.61864.53372-.91432.11242-.19778.32824-.39446.42614-.5775.99946-1.8304 2.6092-3.67466 2.6092-5.49142v-.74602c0-.19668-.2442-.88682-.25784-.92884zm-5.22852 3.39284c-.70378 0-1.47378-.35156-1.85372-1.32352-.05676-.15466-.05236-.46486-.05236-.49324v-.4367c0-1.23838 1.05182-1.80202 1.96702-1.80202 1.12596 0 1.99738.90156 1.99738 2.02818s-.9317 2.0273-2.05832 2.0273z" fill-rule="evenodd" mask="url(#a)"/></svg>