<svg height="22" viewBox="0 0 34 22" width="34" xmlns="http://www.w3.org/2000/svg"><g fill="none" fill-rule="evenodd" transform="translate(.042361 .074175)"><g fill="#333"><path d="m30.4766589 13.8253375 1.5616946-6.12565278h-3.0135549l-1.5616947 6.12565278z"/><path d="m26.3552879 13.8253375 1.5603606-6.12565278h-20.30647782l5.48060572 6.12565278z"/><path d="m30.9219553.25037512-1.5630287 6.12565271h3.0144441l1.565697-6.12565271z"/><path d="m0 .25037512 5.24403919 6.12565271h23.00253561l1.5608054-6.12565271z"/><path d="m27.1195933 15.1493932-1.5590266 6.1256527h3.0126656l1.5634734-6.1256527z"/><path d="m15.5496234 15.1493932 5.4432531 6.1256527h3.4542267l1.5656968-6.1256527z"/></g><g fill="#efefef"><path d="m13.0899098 13.8253375-5.48060573-6.12565278v1.29817213l5.11686243 4.82748065z"/><path d="m0 .25037512v1.54991734l4.85139214 4.57573537h.40109586z"/><path d="m15.5496234 16.4653382 5.0995202 4.8097521h.3437329l-5.4432531-6.1256527z"/></g></g></svg>