<svg height="18" viewBox="0 0 16 18" width="16" xmlns="http://www.w3.org/2000/svg"><path d="m15.9010245 7.80588235-7.72338013-7.70614379c-.10406525-.10426144-.27262643-.10426144-.37671778 0l-7.72364111 7.70614379c-.10409135.10426144-.10197716.27066667 0 .37628758.05217618.05385621.12032627.08130719.18795432.08185621v.0010719h1.86469168v7.44745096c0 .0735948.02980751.1394771.07799022.1874771.0481827.0485229.11474062.0786667.18821533.0786667h3.72724307c.14694943 0 .26623165-.119451.26623165-.2661438v-5.3189281h3.19480587v5.3189281c0 .1464052.11925612.2661438.26623165.2661438h3.72724303c.1469495 0 .2662317-.119451.2662317-.2661438v-7.44745096h1.876646c.0697683.00133333.135491-.02614379.1802284-.08266667.0905448-.116.1041435-.27228758.0000261-.37654902z" fill="#333" fill-rule="evenodd" transform="translate(0 1)"/></svg>