<svg height="22" viewBox="0 0 22 22" width="22" xmlns="http://www.w3.org/2000/svg" xmlns:xlink="http://www.w3.org/1999/xlink"><mask id="a" fill="#fff"><path d="m4 11c0-3.9 3.1-7 7-7s7 3.1 7 7-3.1 7-7 7-7-3.1-7-7zm15.9-1c-.5-4.2-3.8-7.5-7.9-7.9v-2.1h-2v2.1c-4.2.4-7.5 3.7-7.9 7.9h-2.1v2h2.1c.5 4.2 3.8 7.5 7.9 7.9v2.1h2v-2.1c4.2-.5 7.5-3.8 7.9-7.9h2.1v-2zm-8.9-3c-2.2 0-4 1.8-4 4s1.8 4 4 4 4-1.8 4-4-1.8-4-4-4z" fill="#fff" fill-rule="evenodd"/></mask><mask id="b" fill="#fff"><path d="m0 0h302v62h-302z" fill="#fff" fill-rule="evenodd"/></mask><g fill="none" fill-rule="evenodd" mask="url(#a)"><path d="m204 24h32v32h-32z" fill="#2c6ea8" fill-rule="evenodd" mask="url(#b)" transform="translate(-209 -29)"/></g></svg>