<svg enable-background="new 0 0 10.9 14.8" viewBox="0 0 10.9 14.8" xmlns="http://www.w3.org/2000/svg" xmlns:xlink="http://www.w3.org/1999/xlink"><clipPath id="a"><path d="m5.4 14.8h-5.4v-14.8h5.4 5.5v14.8z"/></clipPath><clipPath id="b"><path d="m0 0h11v15h-11z"/></clipPath><clipPath id="c"><path d="m5.4 6.9c-.7 0-1.5-.3-1.9-1.2 0-.2 0-.5 0-.5v-.5c0-1.2 1.1-1.7 2-1.7 1.1 0 2 .8 2 1.9s-1 2-2.1 2zm5-3.8c-1-2.3-3.2-3.1-5-3.1-2.4 0-5.1 1.5-5.4 4.6v.6.4c.2 1.5 1.4 3 2.4 4.5 1 1.6 2 3.1 3.1 4.7.6-1 1.3-2 1.9-3 .2-.3.5-.9.5-.9s.3-.4.4-.5c1-1.7 2.6-3.4 2.6-5.1v-.7c0-.2-.2-.8-.3-.9 0-.2-.1-.4-.2-.6z"/></clipPath><clipPath id="d"><path d="m0 0h11v15h-11z"/></clipPath><g clip-path="url(#a)" enable-background="new"><g clip-path="url(#b)"><g clip-path="url(#c)"><path clip-path="url(#d)" d="m-5-5h20.9v24.8h-20.9z" fill="#666"/></g></g></g></svg>