<svg viewBox="0 0 157 57.66" xmlns="http://www.w3.org/2000/svg"><g fill="#231f20"><path d="m156.41 34.41a3.75 3.75 0 0 1 -2.79 4l3.38 4.72h-2.77l-3.09-4.34h-2.86v4.34h-2.18v-12.91h4.8a7 7 0 0 1 4.23 1 3.81 3.81 0 0 1 1.28 3.19zm-2.9 1.83a2.3 2.3 0 0 0 .67-1.84 2 2 0 0 0 -.68-1.74 4.55 4.55 0 0 0 -2.5-.46h-2.77v4.62h2.77a4 4 0 0 0 2.51-.58z"/><path d="m2.18 43.13h-2.18v-12.91h3.4l3.9 8.11 3.9-8.11h3.38v12.91h-2.18v-10.13l-4.51 9h-1.22l-4.49-9z"/><path d="m32.78 30.22v2.05h-6.89v3.42h6.19v1.94h-6.19v3.45h7.11v2.05h-9.29v-12.91z"/><path d="m52.12 30.22h2.18v12.91h-2.36l-7.32-9.42v9.42h-2.18v-12.91h2.18l7.5 9.65z"/><path d="m68.08 31.92a2.86 2.86 0 0 0 -1.56.39 1.3 1.3 0 0 0 -.61 1.17 1.36 1.36 0 0 0 .61 1.2 9.22 9.22 0 0 0 2.6.9 7.14 7.14 0 0 1 3 1.35 3.2 3.2 0 0 1 1 2.56 3.39 3.39 0 0 1 -1.28 2.74 5.08 5.08 0 0 1 -3.34 1.05 7.85 7.85 0 0 1 -5.38-2.09l1.37-1.64a6.16 6.16 0 0 0 4.07 1.7 2.77 2.77 0 0 0 1.67-.45 1.42 1.42 0 0 0 .62-1.2 1.35 1.35 0 0 0 -.58-1.16 6.13 6.13 0 0 0 -2-.76 18 18 0 0 1 -2.18-.68 4.89 4.89 0 0 1 -1.31-.75 3.12 3.12 0 0 1 -1.15-2.66 3.24 3.24 0 0 1 1.3-2.76 5.25 5.25 0 0 1 3.22-1 7.72 7.72 0 0 1 2.46.41 6.42 6.42 0 0 1 2.11 1.15l-1.16 1.71a4.4 4.4 0 0 0 -1.56-.85 6 6 0 0 0 -1.92-.33z"/><path d="m85.75 39.51 2.88-9.29h2l2.88 9.29 3.25-9.29h2.35l-4.54 12.91h-2.17l-2.72-8.85h-.15l-2.72 8.85h-2.15l-4.51-12.91h2.35z"/><path d="m116.44 30.22v2.05h-6.89v3.42h6.19v1.94h-6.19v3.45h7.11v2.05h-9.29v-12.91z"/><path d="m127.94 40.2-1.29 2.94h-2.33l5.68-12.92h2.33l5.67 12.91h-2.3l-1.3-2.93zm5.58-2-2.35-5.32-2.35 5.32z"/><path d="m48.32 57.59v-6.86h1.16v5.77h3.13v1.1z"/><path d="m63.1 56.65a3.76 3.76 0 0 1 -5.15 0 3.6 3.6 0 0 1 0-5.07 3.77 3.77 0 0 1 5.15 0 3.6 3.6 0 0 1 0 5.07zm-.85-4.3a2.41 2.41 0 0 0 -3.45 0 2.56 2.56 0 0 0 0 3.53 2.41 2.41 0 0 0 3.45 0 2.56 2.56 0 0 0 0-3.53z"/><path d="m73.9 50.73h1.16v6.87h-1.26l-3.89-5v5h-1.16v-6.87h1.16l4 5.13z"/><path d="m85.5 51.63a3.2 3.2 0 0 1 1 2.5 3.37 3.37 0 0 1 -1 2.53 4.09 4.09 0 0 1 -2.95.93h-2.25v-6.86h2.36a4.09 4.09 0 0 1 2.84.9zm-.18 2.53q0-2.36-2.7-2.36h-1.16v4.7h1.29a2.77 2.77 0 0 0 1.91-.59 2.23 2.23 0 0 0 .66-1.75z"/><path d="m96.87 56.65a3.76 3.76 0 0 1 -5.15 0 3.6 3.6 0 0 1 0-5.07 3.77 3.77 0 0 1 5.15 0 3.6 3.6 0 0 1 0 5.07zm-.87-4.3a2.41 2.41 0 0 0 -3.45 0 2.56 2.56 0 0 0 0 3.53 2.41 2.41 0 0 0 3.45 0 2.56 2.56 0 0 0 0-3.53z"/><path d="m107.47 50.73h1.16v6.87h-1.26l-3.89-5v5h-1.16v-6.87h1.16l4 5.13z"/><path d="m9.95 23.36h-9.95v-22.72h8.84a12.76 12.76 0 0 1 4 .55 5.47 5.47 0 0 1 2.49 1.5 5.81 5.81 0 0 1 1.56 4 4.69 4.69 0 0 1 -1.69 4 7.45 7.45 0 0 1 -.84.57l-.81.37a6 6 0 0 1 3.36 1.9 5.3 5.3 0 0 1 1.25 3.59 6.11 6.11 0 0 1 -1.63 4.19q-1.94 2.05-6.58 2.05zm-6.11-13.29h4.87q4.16 0 4.16-2.83a2.67 2.67 0 0 0 -1-2.34 5.44 5.44 0 0 0 -3.12-.71h-4.91zm0 9.75h6a6.4 6.4 0 0 0 3.23-.67 2.68 2.68 0 0 0 1.12-2.52q0-3-4.84-3h-5.51z"/><path d="m31.7 18.16a5.28 5.28 0 0 0 4.22 1.84 5.28 5.28 0 0 0 4.23-1.82 7.34 7.34 0 0 0 1.56-4.94v-12.6h3.84v12.74q0 4.91-2.7 7.56a9.46 9.46 0 0 1 -6.92 2.65 9.46 9.46 0 0 1 -6.93-2.65q-2.7-2.65-2.7-7.56v-12.74h3.84v12.58a7.34 7.34 0 0 0 1.56 4.94z"/><path d="m73.27 8q0 5.62-4.91 7.09l5.95 8.26h-4.88l-5.43-7.62h-5v7.64h-3.87v-22.73h8.45q5.2 0 7.42 1.76t2.27 5.6zm-5.1 3.22a4.05 4.05 0 0 0 1.16-3.22 3.46 3.46 0 0 0 -1.2-3 8 8 0 0 0 -4.29-.83h-4.84v8.13h4.78q3.22-.05 4.38-1.06z"/><path d="m90.71 4.15v19.21h-3.84v-19.21h-6.87v-3.51h17.6v3.51z"/><path d="m124.31 20.14a12.46 12.46 0 0 1 -17 0 11.24 11.24 0 0 1 -3.45-8.39 11.24 11.24 0 0 1 3.45-8.39 12.46 12.46 0 0 1 17 0 11.24 11.24 0 0 1 3.45 8.39 11.24 11.24 0 0 1 -3.45 8.39zm-2.81-14.22a8 8 0 0 0 -11.41 0 8.09 8.09 0 0 0 -2.32 5.83 8.09 8.09 0 0 0 2.32 5.83 8 8 0 0 0 11.41 0 8.09 8.09 0 0 0 2.32-5.83 8.09 8.09 0 0 0 -2.32-5.83z"/><path d="m153 .64h3.84v22.72h-4.16l-12.87-16.57v16.57h-3.81v-22.72h3.84l13.2 17z"/></g></svg>