<svg viewBox="0 0 156.85 39.46" xmlns="http://www.w3.org/2000/svg"><g fill="#231f20"><path d="m1.16 39.37h-1.16v-6.85h1.81l2.07 4.3 2.12-4.3h1.8v6.87h-1.21v-5.38l-2.4 4.76h-.64l-2.39-4.76z"/><path d="m17.42 32.52v1.09h-3.66v1.82h3.29v1h-3.29v1.84h3.78v1.09h-4.94v-6.84z"/><path d="m27.71 32.52h1.16v6.87h-1.26l-3.89-5v5h-1.16v-6.87h1.16l4 5.13z"/><path d="m36.19 33.89a1.52 1.52 0 0 0 -.83.21.69.69 0 0 0 -.32.62.73.73 0 0 0 .32.64 4.9 4.9 0 0 0 1.38.48 3.8 3.8 0 0 1 1.59.72 1.7 1.7 0 0 1 .54 1.36 1.8 1.8 0 0 1 -.68 1.46 2.7 2.7 0 0 1 -1.78.56 4.17 4.17 0 0 1 -2.86-1.11l.73-.87a3.27 3.27 0 0 0 2.16.9 1.47 1.47 0 0 0 .89-.24.75.75 0 0 0 .33-.64.72.72 0 0 0 -.31-.62 3.26 3.26 0 0 0 -1.07-.4 9.57 9.57 0 0 1 -1.15-.33 2.6 2.6 0 0 1 -.7-.4 1.66 1.66 0 0 1 -.61-1.41 1.72 1.72 0 0 1 .69-1.47 2.79 2.79 0 0 1 1.71-.52 4.1 4.1 0 0 1 1.31.22 3.41 3.41 0 0 1 1.12.61l-.62.87a2.34 2.34 0 0 0 -.83-.45 3.18 3.18 0 0 0 -1.01-.19z" transform="translate(0 -.48)"/><path d="m45.58 37.45 1.54-4.93h1l1.53 4.94 1.77-4.94h1.25l-2.4 6.87h-1.15l-1.44-4.7h-.08l-1.44 4.7h-1.16l-2.39-6.87h1.25z"/><path d="m61.9 32.52v1.09h-3.67v1.82h3.29v1h-3.29v1.84h3.77v1.09h-4.93v-6.84z"/><path d="m68 38.29-.69 1.56h-1.23l3-6.87h1.24l3 6.87h-1.19l-.69-1.56zm3-1.07-1.25-2.83-1.25 2.83z" transform="translate(0 -.48)"/><path d="m83.14 35.22a2 2 0 0 1 -1.48 2.14l1.8 2.49h-1.46l-1.64-2.31h-1.54v2.31h-1.16v-6.85h2.55a3.7 3.7 0 0 1 2.25.53 2 2 0 0 1 .68 1.69zm-1.54 1a1.22 1.22 0 0 0 .35-1 1 1 0 0 0 -.36-.92 2.42 2.42 0 0 0 -1.3-.25h-1.47v2.46h1.44a2.12 2.12 0 0 0 1.34-.32z" transform="translate(0 -.48)"/><path d="m96.54 39.37v-6.85h1.16v5.77h3.13v1.1z"/><path d="m111.32 38.9a3.76 3.76 0 0 1 -5.15 0 3.6 3.6 0 0 1 0-5.07 3.77 3.77 0 0 1 5.15 0 3.6 3.6 0 0 1 0 5.07zm-.85-4.3a2.41 2.41 0 0 0 -3.45 0 2.56 2.56 0 0 0 0 3.53 2.41 2.41 0 0 0 3.45 0 2.56 2.56 0 0 0 0-3.53z" transform="translate(0 -.48)"/><path d="m122.11 32.52h1.16v6.87h-1.27l-3.89-5v5h-1.11v-6.87h1.16l4 5.13z"/><path d="m133.71 33.88a3.2 3.2 0 0 1 1 2.5 3.37 3.37 0 0 1 -1 2.53 4.09 4.09 0 0 1 -3 .93h-2.28v-6.84h2.36a4.09 4.09 0 0 1 2.92.88zm-.18 2.53q0-2.36-2.7-2.36h-1.16v4.7h1.33a2.77 2.77 0 0 0 1.91-.59 2.23 2.23 0 0 0 .63-1.75z" transform="translate(0 -.48)"/><path d="m145.09 38.9a3.76 3.76 0 0 1 -5.15 0 3.6 3.6 0 0 1 0-5.07 3.77 3.77 0 0 1 5.15 0 3.6 3.6 0 0 1 0 5.07zm-.85-4.3a2.41 2.41 0 0 0 -3.45 0 2.56 2.56 0 0 0 0 3.53 2.41 2.41 0 0 0 3.45 0 2.56 2.56 0 0 0 0-3.53z" transform="translate(0 -.48)"/><path d="m155.69 32.52h1.16v6.87h-1.26l-3.89-5v5h-1.16v-6.87h1.16l4 5.13z"/><g transform="translate(0 -.48)"><path d="m9.95 23.83h-9.95v-22.72h8.84a12.76 12.76 0 0 1 4 .55 5.47 5.47 0 0 1 2.49 1.5 5.81 5.81 0 0 1 1.56 4 4.69 4.69 0 0 1 -1.69 4 7.45 7.45 0 0 1 -.84.57l-.81.37a6 6 0 0 1 3.36 1.9 5.3 5.3 0 0 1 1.25 3.59 6.11 6.11 0 0 1 -1.63 4.19q-1.94 2.05-6.58 2.05zm-6.11-13.29h4.87q4.16 0 4.16-2.83a2.67 2.67 0 0 0 -1-2.34 5.44 5.44 0 0 0 -3.12-.71h-4.91zm0 9.75h6a6.4 6.4 0 0 0 3.23-.67 2.68 2.68 0 0 0 1.12-2.52q0-3-4.84-3h-5.51z"/><path d="m31.7 18.63a5.28 5.28 0 0 0 4.23 1.82 5.28 5.28 0 0 0 4.23-1.82 7.34 7.34 0 0 0 1.56-4.94v-12.58h3.84v12.75q0 4.91-2.7 7.56a9.46 9.46 0 0 1 -6.92 2.65 9.46 9.46 0 0 1 -6.94-2.66q-2.7-2.65-2.7-7.56v-12.74h3.84v12.58a7.34 7.34 0 0 0 1.56 4.94z"/><path d="m73.27 8.49q0 5.62-4.91 7.09l5.95 8.26h-4.88l-5.43-7.64h-5v7.64h-3.87v-22.73h8.45q5.2 0 7.44 1.76t2.25 5.62zm-5.1 3.22a4 4 0 0 0 1.17-3.23 3.46 3.46 0 0 0 -1.2-3.06 8 8 0 0 0 -4.29-.83h-4.85v8.13h4.78q3.22 0 4.38-1z"/></g><path d="m90.71 4.14v19.21h-3.84v-19.21h-6.87v-3.51h17.6v3.51z"/><path d="m124.31 20.61a12.46 12.46 0 0 1 -17 0 11.24 11.24 0 0 1 -3.45-8.39 11.24 11.24 0 0 1 3.45-8.39 12.46 12.46 0 0 1 17 0 11.24 11.24 0 0 1 3.45 8.39 11.24 11.24 0 0 1 -3.45 8.39zm-2.81-14.22a8 8 0 0 0 -11.41 0 8.09 8.09 0 0 0 -2.32 5.83 8.09 8.09 0 0 0 2.32 5.78 8 8 0 0 0 11.41 0 8.09 8.09 0 0 0 2.32-5.83 8.09 8.09 0 0 0 -2.32-5.78z" transform="translate(0 -.48)"/><path d="m153 .63h3.84v22.72h-4.16l-12.87-16.57v16.57h-3.81v-22.72h3.84l13.2 17z"/></g></svg>