<svg height="27" viewBox="0 0 33 27" width="33" xmlns="http://www.w3.org/2000/svg"><path d="m34.4206726 5.36275884c-.2401187-.24144853-.5253505-.36275884-.8539492-.36275884h-19.4254521c-.3285987 0-.6141216.12131031-.8539491.36275884-.2398276.24174156-.3603235.52890123-.3603235.85972089v3.66743917h-3.03568167c-.34111399 0-.71162432.08233864-1.10949362.248188-.3978693.1649703-.71744538.3686192-.95843717.6112399l-3.75545545 3.7808379c-.16473594.1658494-.30676975.3568985-.42726564.5734403-.11933169.2162488-.20810282.4108141-.26485814.5825239-.05704636.1717097-.09895798.4075909-.12398853.7061783-.02503055.3000526-.04103845.5198176-.04773267.6592952-.00582106.1397706-.00582106.3823912 0 .7258107.00669422.3434195.01018685.5664078.01018685.6683788v6.1109335c-.32859871 0-.6141216.1213103-.85394918.3630519-.23982758.2426206-.36032348.5286082-.36032348.8594278 0 .1913421.02503055.3607077.07625586.5060457.05006109.14651.13533959.2643041.25583549.3536752s.22381967.1626262.3125908.2197651.23749916.0961106.44560198.1142778c.20926703.0196323.35130084.0322322.4275567.0389717.07625585.0058604.23633494.0058604.48314779 0 .24681286-.0067395.38884667-.0102557.4275567-.0102557h1.21427266c0 1.3496504.47412516 2.5020983 1.42208443 3.4567577.94825031.9558315 2.09325239 1.4331612 3.43355099 1.4331612 1.3405896 0 2.4853006-.4773297 3.4335509-1.4331612.9494145-.9546594 1.4235397-2.1071073 1.4235397-3.4567577h7.2841807c0 1.3496504.4741252 2.5020983 1.4223755 3.4567577.9482503.9558315 2.0929613 1.4331612 3.4335509 1.4331612 1.3414628 0 2.4853007-.4773297 3.433551-1.4331612.9491235-.9546594 1.4232486-2.1071073 1.4232486-3.4567577.0375458 0 .1795796.0035162.4263925.0102557.2468128.0058604.4080562.0058604.484312 0 .0750917-.0067395.2182897-.0193394.4263925-.0389717.209267-.0181672.3568308-.0571389.445602-.1142778.0887711-.0571389.1932591-.130394.313755-.2197651.1193317-.0893711.2046102-.2071652.2558355-.3536752.0512253-.145338.0762558-.3147036.0762558-.5060457v-19.55674537c0-.33081966-.1204959-.61680725-.3603234-.85972089zm-22.2146119 23.35809476c-.4808194.4843622-1.0504099.7258107-1.7076073.7258107-.65807063 0-1.22678798-.2414485-1.70760735-.7258107-.48081938-.4828971-.72093801-1.0563373-.72093801-1.7191487 0-.6616393.24128284-1.2350796.72093801-1.7179767.48081937-.4840692 1.04953672-.7269828 1.70760735-.7269828.6571974 0 1.2267879.2429136 1.7076073.7269828.4811104.4828971.720938 1.0563374.720938 1.7179767 0 .6628114-.2398276 1.2362516-.720938 1.7191487zm.720938-11.4975214h-7.28534493v-.5722682c0-.1658494.05675531-.30562.1717212-.4201908l3.69840909-3.7245781c.11351063-.1142778.25350707-.1717098.41707879-.1717098h2.99813585zm16.2762597 11.4975214c-.4811104.4843622-1.0495367.7258107-1.7076073.7258107-.6571974 0-1.2267879-.2414485-1.7078983-.7258107-.4796552-.4828971-.720647-1.0563373-.720647-1.7191487 0-.6616393.2409918-1.2350796.720647-1.7179767.4811104-.4840692 1.0507009-.7269828 1.7078983-.7269828.6580706 0 1.2264969.2429136 1.7076073.7269828.4808194.4828971.720647 1.0563374.720647 1.7179767 0 .6628114-.2398276 1.2362516-.720647 1.7191487z" fill="#333" fill-rule="evenodd" transform="translate(-2 -5)"/></svg>