<svg enable-background="new 0 0 2000 960" viewBox="0 0 2000 960" xmlns="http://www.w3.org/2000/svg"><path d="m713.1 960c69.6-64.4 111.8-125.5 142.4-185.7 22.2-45.4 36.9-89.7 57-135 6.3-14.8 14.8-29.5 22.2-45.4 14.8-30.6 38-62.2 89.7-94.9 49.6-30.6 102.3-49.6 154-61.2 84.4-17.9 181.5-20 265.8 8.4 68.6 23.2 107.6 60.1 123.4 94.9 12.7 28.5 11.6 57-1.1 86.5-12.7 30.6-36.9 61.2-85.5 93.9-24.3 16.9-51.7 29.5-77 40.1-25.3 9.5-50.6 15.8-77 23.2-50.6 14.8-101.3 25.3-153 35.9-154 31.7-305.9 66.5-460.9 139.3z" opacity=".09"/><path d="m760.5 30.6c-174.1 0-314.4 140.3-314.4 314.4 0 236.3 314.4 584.4 314.4 584.4s314.4-348.1 314.4-584.4c0-174.1-140.3-314.4-314.4-314.4zm0 427.2c-62.2 0-112.9-50.6-112.9-112.9s50.6-112.9 112.9-112.9 112.9 50.7 112.9 113-50.6 112.8-112.9 112.8z" fill="#333"/><circle cx="760.5" cy="344.6" fill="#fff" r="115"/></svg>