<svg enable-background="new 0 0 100 100" viewBox="0 0 100 100" xmlns="http://www.w3.org/2000/svg"><g fill="#999"><path d="m73.1 59.6c3.8-6.1 5.8-13.1 5.7-20.3.2-10.4-4-20.5-11.5-27.7-7.4-7.5-17.4-11.6-27.9-11.4-10.4-.2-20.5 3.9-27.8 11.4-7.5 7.2-11.7 17.3-11.5 27.7-.2 10.5 4 20.5 11.5 27.8 7.3 7.5 17.4 11.7 27.8 11.5 7.2.1 14.2-1.9 20.3-5.7l26.9 26.8 13.3-13.3zm-16.4-3c-4.5 4.6-10.8 7.2-17.2 7.1-6.4.1-12.6-2.5-17.1-7.1-4.7-4.5-7.3-10.7-7.2-17.1-.2-6.5 2.4-12.8 7.1-17.2 9.2-9.5 24.3-9.8 33.8-.6.2.2.4.4.6.6 4.6 4.5 7.2 10.7 7.1 17.1.1 6.5-2.5 12.7-7.1 17.2z"/><path d="m43.4 21.8h-8.7v12.9h-12.8v8.7h12.9v13.1h8.7v-13.2h13.1v-8.7h-13.2z"/></g></svg>