<svg height="520pt" preserveAspectRatio="xMidYMid meet" viewBox="0 0 520 520" width="520pt" xmlns="http://www.w3.org/2000/svg"><g transform="matrix(.1 0 0 -.1 0 520)"><path d="m0 2595v-1965h2600 2600v1965 1965h-2600-2600zm3483 691c62-26 72-46 75-166 6-189-17-210-232-210-219 0-241 18-241 195 0 125 12 156 68 180 44 19 285 20 330 1zm-2022-9c37-28 51-96 28-138-8-16-7-25 5-38 10-11 16-36 16-68 0-107-14-113-250-113h-180v185 185h183c127-1 187-4 198-13zm219-136c0-127 2-150 16-155 9-3 64-6 124-6s115 3 124 6c14 5 16 28 16 155v149h40 40v-150c0-180-8-203-72-221-59-16-296-8-325 11-37 24-43 54-43 210v150h40 40zm843 129c45-36 49-141 7-178-11-9-20-20-20-24s20-39 44-77c25-38 43-71 41-73s-24-2-49 0c-43 4-47 7-86 68l-42 63-76 3-77 3-3 33-3 32h93c111 0 131 9 126 60l-3 35-132 3-133 3v-150-149l-35-4c-20-2-38-2-40 1-3 2-5 87-5 188v183h184c169 0 185-2 209-20zm507-15v-35h-85-85v-150-150h-40-40v150 150h-85-85v35 35h210 210zm861-97c77-73 144-134 150-136 5-2 9 51 9 132v136h35 35v-185-185h-46c-45 0-48 2-187 135-77 74-143 135-146 135s-5-57-3-126c2-70 1-132-1-138-3-8-19-11-41-8l-36 4v184 184h46c45 0 48-2 185-132zm-1456-338c43-10 85-49 85-81 0-16-7-19-40-19-29 0-40 4-40 15 0 21-32 26-140 23l-95-3-3-29c-2-16 1-33 7-39s66-13 133-17c161-9 188-26 188-121 0-33-7-48-34-75l-34-34h-127c-143 0-185 12-205 60-19 46-10 65 30 65 28 0 35-4 40-25 7-30 32-38 130-39 82-1 123 13 128 44 6 45-16 56-133 61-135 6-150 9-175 34-15 15-20 34-20 75 0 60 19 90 62 99 13 3 32 7 43 9 38 8 160 7 200-3zm-1719-115c24-60 43-118 43-127 2-41 19-11 61 110l46 127 62 3 62 3-2-188-3-188-32-3-32-3-3 147-3 147-55-144-55-144h-34-34l-52 138c-29 75-54 139-56 141-2 3-4-59-4-137v-142h-35-35l-3 175c-1 96 0 180 3 188 3 9 21 12 62 10l57-3zm762 83-3-33-157-3-158-3v-39-40h161 160l-3-32-3-33-157-3-158-3v-44-45h161 160l-3-32-3-33h-195-195l-3 188-2 187h200 201zm335-109 147-141v141 141h40 40l-2-187-3-188-38-3c-44-4-53 3-228 174-58 57-109 104-112 104-4 0-7-63-7-141v-140l-37 3-38 3-3 188-2 187h48 48zm879-9c20-80 39-138 42-130 2 8 14 51 26 95s28 104 36 133l15 52h43 43l39-144c21-80 41-143 43-141 2 3 19 63 37 134 17 72 35 135 39 140 3 6 22 11 42 11 29 0 34-3 31-17-3-10-25-93-49-185l-44-168h-56-56l-34 129c-18 72-35 128-37 127-1-2-14-46-28-97-45-171-38-159-100-159-30 0-54 2-54 5s-20 82-45 176-45 175-45 181c0 5 17 8 38 6l37-3zm896 118-3-33-157-3-158-3v-39-40h161 160l-3-32-3-33-157-3-158-3v-44-45h161 160l-3-32-3-33h-195-195l-3 188-2 187h200 201zm448-158c46-101 84-186 84-187 0-2-19-3-43-3-40 0-45 3-60 35l-17 35h-125-125l-14-35c-14-32-19-35-55-35-24 0-41 5-41 11 0 10 127 303 152 352 8 15 20 17 85 15l76-3zm507 178c37-19 46-40 47-105 0-55-3-64-26-82l-26-20 46-74c25-41 46-77 46-80 0-4-20-7-44-7-42 0-44 1-90 70l-46 70h-75-75v35 35h93c50 0 98 4 105 9 8 5 12 23 10 47l-3 39-132 3-133 3v-156-155h-35-35v190 190h176c114 0 183-4 197-12zm-3955-751 3-146 62-3c47-2 62-7 62-18 0-12-16-15-80-15h-80l-3 155c-3 161 0 184 21 178 9-4 13-45 15-151zm848 134c17-10 39-36 49-57 25-50 25-146 1-192-49-94-197-95-248-1-26 49-25 150 4 200 37 66 129 90 194 50zm719-126 80-139 3 143c2 128 4 142 20 139 15-3 17-20 17-168v-165h-24c-19 0-36 22-100 132l-76 132-5-132c-4-108-8-132-20-132-13 0-15 25-18 155-1 85 0 160 3 168 13 34 44 0 120-133zm834 117c51-38 66-69 66-140 0-111-53-160-177-165l-63-2-3 155c-1 85 0 161 3 169 8 21 141 8 174-17zm808 8c47-28 67-73 67-150 0-115-53-174-152-167-85 6-132 66-132 166 0 78 33 140 85 161 36 15 99 11 132-10zm651-7c10-16 48-79 83-141l64-114 5 139c4 114 8 138 20 138 13 0 15-25 15-165 0-161-1-165-21-168-18-3-34 19-100 134l-79 137-5-134c-4-110-8-134-20-134-13 0-15 25-18 155-1 85 0 160 2 167 9 21 33 15 54-14z"/><path d="m3182 3214c-20-14-22-23-22-108 0-126 0-126 159-126 67 0 131 5 142 10 17 10 19 22 19 115s-2 105-19 115c-11 5-73 10-138 10-91 0-124-4-141-16z"/><path d="m1160 3180v-40h114c63 0 121 3 130 6 10 4 16 18 16 40v34h-130-130z"/><path d="m1162 3033 3-48 121-3c101-2 125 0 138 13 18 18 20 43 6 65-7 12-37 16-140 18l-131 4z"/><path d="m3853 2748c-11-13-73-152-73-162 0-3 43-6 96-6 110 0 106-8 50 110-31 65-53 83-73 58z"/><path d="m1295 2147c-60-60-57-168 6-222 75-63 169 1 169 116 0 118-102 179-175 106z"/><path d="m2850 2040v-130h43c50 0 104 30 117 66 6 14 10 48 10 76 0 44-4 54-34 84s-40 34-85 34h-51z"/><path d="m3661 2154c-62-52-65-162-6-221 74-74 175-13 175 107 0 57-23 106-59 124-43 23-75 20-110-10z"/></g></svg>