<?xml version="1.0" encoding="UTF-8" standalone="no"?>
<svg width="17px" height="17px" viewBox="0 0 17 17" version="1.1" xmlns="http://www.w3.org/2000/svg" xmlns:xlink="http://www.w3.org/1999/xlink">
    <!-- Generator: Sketch 3.8.2 (29753) - http://www.bohemiancoding.com/sketch -->
    <title>search-icon</title>
    <desc>Created with Sketch.</desc>
    <defs>
        <path d="M6.3,10.7 C3.9,10.7 1.9,8.8 1.9,6.3 C1.9,3.9 3.8,1.9 6.3,1.9 C8.7,1.9 10.7,3.8 10.7,6.3 C10.7,8.7 8.7,10.7 6.3,10.7 L6.3,10.7 L6.3,10.7 Z M11.1,10.4 C12.1,9.3 12.7,7.9 12.7,6.3 C12.7,2.8 9.9,0 6.4,0 C2.9,0 0.1,2.8 0.1,6.3 C0.1,9.8 2.9,12.6 6.4,12.6 C8,12.6 9.4,12 10.5,11 L11.1,10.4 L11.1,10.4 L11.1,10.4 Z" id="path-1"></path>
    </defs>
    <g id="Page-1" stroke="none" stroke-width="1" fill="none" fill-rule="evenodd">
        <g id="search-icon">
            <path d="M10.4,10.4 L16.3,16.3" id="Shape" stroke="#333333" stroke-width="2"></path>
            <mask id="mask-2" fill="white">
                <use xlink:href="#path-1"></use>
            </mask>
            <use id="path-1" fill="#333333" xlink:href="#path-1"></use>
        </g>
    </g>
</svg>