<svg height="24" viewBox="0 0 24 24" width="24" xmlns="http://www.w3.org/2000/svg"><g fill="#4a4a4a" fill-rule="evenodd" transform="translate(7 7)"><path d="m1.37534375 10.091c-.352 0-.704-.13066667-.972125-.39066667-.537625-.52133333-.537625-1.364 0-1.88533333l7.656-7.424c.537625-.52133333 1.408-.52133333 1.94425005 0 .5376249.52.5376249 1.364 0 1.88533333l-7.65600005 7.424c-.268125.26-.620125.39066667-.972125.39066667"/><path d="m8.05921875 9.70033333-7.656-7.424c-.537625-.52133333-.537625-1.36533333 0-1.88533333.53625-.52133333 1.406625-.52133333 1.94425 0l7.65599995 7.424c.537625.52133333.537625 1.364 0 1.88533333-.26812495.26-.62012495.39066667-.97212495.39066667"/></g></svg>