<svg height="44" viewBox="76 452 44 44" width="44" xmlns="http://www.w3.org/2000/svg"><g fill="none" fill-rule="evenodd" transform="translate(77 453)"><path d="m41.386975 21.0216125c0 11.24725-9.1175 20.365625-20.365625 20.365625-11.24725 0-20.36475-9.118375-20.36475-20.365625s9.1175-20.365625 20.36475-20.365625c11.248125 0 20.365625 9.118375 20.365625 20.365625z" stroke="#464646" stroke-width="1.5"/><path d="m33.677875 25.0705875c-.11375.364875-.443625.75425-1.026375.75425h-23.282875c-.58275 0-.91175-.389375-1.0255-.75425-.109375-.34825-.069125-.826875.350875-1.157625l12.264875-4.927125c.01225-.00525.02625-.007875.04025-.009625.021-.002625.042875.00175.063.009625l12.264875 4.927125c.42.33075.459375.809375.350875 1.157625m.034125-1.850625-12.47575-5.012c.154875-.723625.6405-1.21275 1.150625-1.7255.704375-.70875 1.432375-1.442 1.432375-2.835875 0-1.70625-1.1025-2.80875-2.80875-2.80875-1.54875 0-2.80875 1.26-2.80875 2.80875 0 .161.028875.364.084875.604625.01925.07875.08925.13475.16975.13475h.27125c.11375 0 .196875-.10675.16975-.217-.055125-.221375-.083125-.396375-.083125-.522375 0-1.211.98525-2.19625 2.19625-2.19625 1.061375 0 2.19625.5775 2.19625 2.19625 0 1.141-.609 1.754375-1.25475 2.403625-.59675.601125-1.21275 1.2215-1.351 2.23125l-12.292 4.9385c-1.49975 1.038625-.76475 3.3915 1.059625 3.3915h23.282875c1.82525 0 2.56025-2.352875 1.0605-3.3915" fill="#464646"/><path d="m8.8169375 24.12095c-.3815.322-.28525.751625-.245875.8785.04375.137375.2275.58625.798.58625h23.282875c.569625 0 .75425-.448875.797125-.58625h.000875c.039375-.126875.135625-.5565-.245875-.8785l-12.194-4.89825zm23.835 2.729125h-23.282875c-.938 0-1.7255-.578375-2.004625-1.4735-.280875-.895125.03675-1.819125.807625-2.352875l12.214125-4.913125c.1855-1.008875.826875-1.6555 1.3965-2.228625.636125-.639625 1.18475-1.19175 1.18475-2.23475 0-1.8165-1.498-1.957375-1.957375-1.957375-1.078875 0-1.957375.877625-1.957375 1.957375 0 .072625.013125.212625.077.46375.030625.125125.0035.254625-.076125.35525-.07875.1015-.196875.15925-.3255.15925h-.27125c-.1925 0-.357875-.13125-.4025-.3185-.060375-.259-.091875-.48125-.091875-.65975 0-1.680875 1.36675-3.047625 3.047625-3.047625 1.8515 0 3.0485 1.196125 3.0485 3.047625 0 1.491875-.798 2.295125-1.502375 3.003-.4375.440125-.85225.858375-1.03425 1.414875l12.326125 4.958625c.770875.53375 1.0885 1.45775.8085 2.352875-.279125.895125-1.066625 1.4735-2.004625 1.4735z" fill="#474647"/></g></svg>