<?xml version="1.0" encoding="UTF-8"?>
<svg width="24px" height="24px" viewBox="0 0 24 24" version="1.1" xmlns="http://www.w3.org/2000/svg" xmlns:xlink="http://www.w3.org/1999/xlink">
    <!-- Generator: Sketch 58 (84663) - https://sketch.com -->
    <title>Combined-Shape</title>
    <desc>Created with Sketch.</desc>
    <g id="Desktop" stroke="none" stroke-width="1" fill="none" fill-rule="evenodd">
        <g id="MS---DDP-Template---Desktop" transform="translate(-21.000000, -1224.000000)" fill="#FFFFFF" fill-rule="nonzero">
            <g id="ddp-icon" transform="translate(21.000000, 1224.000000)">
                <path d="M0,11.7351797 L0,11.1273599 L3.05908501,11.2695439 L10.9293369,23.2028935 L0,11.7351797 Z M2.99232322,7.7646068 L5.73221381,6.30469366 L3.08333183,10.9634103 L0.173713514,10.8111184 L2.99232322,7.7646068 Z M6.11112849,6.26951827 L7.91170393,10.9636124 L3.45892503,10.9636124 L6.11112849,6.26951827 Z M7.3278206,11.2839645 L11.4786768,23.4706846 L3.45895824,11.2839645 L7.3278206,11.2839645 Z M6.3892694,6.14613489 L11.6870333,7.60604804 L8.19349848,10.8537062 L6.3892694,6.14613489 Z M20.9405828,11.2697124 L24,11.1275284 L24,11.7353482 L13.0706631,23.203062 L20.9405828,11.2697124 Z M18.2676201,6.30489581 L21.0075107,7.76480896 L23.8261204,10.8113205 L20.9165021,10.9636124 L18.2676201,6.30489581 Z M17.8887719,6.26951827 L20.5409753,10.9636124 L16.0878643,10.9636124 L17.8887719,6.26951827 Z M20.5411082,11.2839645 L12.5213897,23.4706846 L16.6722458,11.2839645 L20.5411082,11.2839645 Z M17.6104649,6.14613489 L15.8062358,10.8537062 L12.3127009,7.60604804 L17.6104649,6.14613489 Z M12.000083,11.2839645 L16.3243206,11.2839645 L12.000083,24 L7.67551334,11.2839645 L12.000083,11.2839645 Z M11.9999502,7.75756499 L15.4483129,10.963444 L11.9999502,10.963444 L8.55158746,10.963444 L11.9999502,7.75756499 Z M16.6811806,6.14613489 L12.0101803,7.46217937 L7.33951221,6.14613489 L12.0101803,6.14613489 L16.6811806,6.14613489 Z M12.1660232,4.5918934 L11.8338772,4.59065694 L11.8504846,0 L12.1826306,0.00123642819 L12.1660232,4.5918934 Z M10.3927182,4.70364098 L8.44300821,1.6571294 L10.3927182,4.70364098 Z M10.5320134,4.61191001 L10.2534231,4.79537194 L8.30371306,1.74886037 L8.58230336,1.56539844 L10.5320134,4.61191001 Z M13.7672436,4.79536095 L13.4886393,4.611921 L15.4380171,1.56540943 L15.7166214,1.74884937 L13.7672436,4.79536095 Z" id="Combined-Shape"></path>
            </g>
        </g>
    </g>
</svg>