<?xml version="1.0" encoding="UTF-8"?>
<svg width="70px" height="70px" viewBox="0 0 70 70" version="1.1" xmlns="http://www.w3.org/2000/svg" xmlns:xlink="http://www.w3.org/1999/xlink">
  <g id="DDP-Renewal_Mobile" stroke="none" stroke-width="1" fill="none" fill-rule="evenodd">
    <g id="Assets-+-Colours" transform="translate(-460.000000, -74.000000)" fill="#000000" fill-rule="nonzero">
      <path d="M460,108.227608 L460,106.4548 L468.922331,106.869503 L491.877232,141.675106 L460,108.227608 Z M468.727609,96.6467698 L476.718957,92.3886898 L468.993051,105.976613 L460.506664,105.532429 L468.727609,96.6467698 Z M477.824125,92.286095 L483.075803,105.977203 L470.088531,105.977203 L477.824125,92.286095 Z M481.37281,106.911563 L493.479474,142.456163 L470.088628,106.911563 L481.37281,106.911563 Z M478.635369,91.9262268 L494.087181,96.1843068 L483.897704,105.656643 L478.635369,91.9262268 Z M521.0767,106.869994 L530,106.455291 L530,108.228099 L498.122768,141.675597 L521.0767,106.869994 Z M513.280559,92.3892795 L521.271906,96.6473595 L529.492851,105.533018 L521.006464,105.977203 L513.280559,92.3892795 Z M512.175585,92.286095 L519.911178,105.977203 L506.922937,105.977203 L512.175585,92.286095 Z M519.911566,106.911563 L496.52072,142.456163 L508.627384,106.911563 L519.911566,106.911563 Z M511.363856,91.9262268 L506.101521,105.656643 L495.912044,96.1843068 L511.363856,91.9262268 Z M495.000242,106.911563 L507.612602,106.911563 L495.000242,144 L482.386914,106.911563 L495.000242,106.911563 Z M494.999855,96.6262312 L505.057579,105.976712 L494.999855,105.976712 L484.94213,105.976712 L494.999855,96.6262312 Z M508.653443,91.9262268 L495.029693,95.7646898 L481.406911,91.9262268 L495.029693,91.9262268 L508.653443,91.9262268 Z M495.484234,87.3930224 L494.515475,87.3894161 L494.563913,74 L495.532672,74.0036062 L495.484234,87.3930224 Z M490.312095,87.7189528 L484.625441,78.8332941 L490.312095,87.7189528 Z M490.718372,87.4514042 L489.905817,87.9865015 L484.219163,79.1008427 L485.031718,78.5657454 L490.718372,87.4514042 Z M500.15446,87.9864694 L499.341864,87.4514362 L505.02755,78.5657775 L505.840146,79.1008107 L500.15446,87.9864694 Z" id="MS_DDP_Success_Icon"></path>
    </g>
  </g>
</svg>