<svg height="39" viewBox="0 0 39 39" width="39" xmlns="http://www.w3.org/2000/svg"><g fill="none" fill-rule="evenodd" transform="translate(1 1)"><path d="m18.5987438 17.5211187c-1.7058542 0-3.0933542-1.3882708-3.0933542-3.0948958 0-1.7058542 1.3875-3.0933542 3.0933542-3.0933542 1.7058541 0 3.0948958 1.3875 3.0948958 3.0933542 0 1.706625-1.3890417 3.0948958-3.0948958 3.0948958m5.2254791-5.9084374c-.5388125-.84175-1.2364166-1.5177709-2.0750833-2.00647922-1.221-.7145625-2.7642083-1.012875-4.1941042-.7955-1.8099166.272875-3.3469583 1.27110422-4.3259166 2.81200002-.596625.9381042-.9103542 1.998-.9334792 3.1527083-.02775 1.4314375.4571042 2.4589584.8826042 3.195875.0894166.1541667.1749791.3060209.2597708.4609584.1426042.2574583.2844375.5064375.439375.7546458.2651667.4262708.5395833.8301875.8132292 1.2495208.4702083.7207292.9566041 1.4345209 1.3875 2.1991875 1.0383125 1.8399792 1.6966041 3.5681875 2.072 5.4143334.0393125.1888541.2050416.272875.3969791.272875h.0015417c.19425 0 .3592083-.0871042.3962083-.2759584.6112709-3.1442291 2.0111042-5.360375 3.5134584-7.6366458.5064375-.7662083 1.0298333-1.5763542 1.45225-2.4551042l.1456875-.3029375c.1688125-.3353125.3430208-.6860416.4632708-1.0891875.1772917-.5858333.2628542-1.2125208.2482083-1.8052916-.0285208-1.1647292-.3368541-2.1945625-.9435-3.145" fill="#464646"/><path d="m34.7588792 26.6470917c-4.481625 8.9617083-15.3796667 12.593875-24.341375 8.1114791-8.96170837-4.481625-12.59387503-15.3796666-8.11225003-24.341375 4.481625-8.9617083 15.38043753-12.59387497 24.34214583-8.11147913 8.9617083 4.481625 12.5931042 15.37966663 8.1114792 24.34137503z" stroke="#464646" stroke-linecap="round" stroke-linejoin="round"/></g></svg>