<svg height="153" viewBox="0 0 840 153" width="840" xmlns="http://www.w3.org/2000/svg"><g fill-rule="evenodd"><path d="m616.8 27.3c1.8.8 4.3-.8 5.6-3.5 1.3-2.8.9-5.7-.9-6.5s-4.3.8-5.6 3.5c-1.2 2.8-.8 5.7.9 6.5z"/><path d="m741.9 84c1.2-7.3.4-15.3-7.8-17.5-8.4-2.2-18.8.3-25.7 5.5-3.3 2.5-5.8 6-6.8 10.1-1.2 4.9.4 9.9 2.7 14.3-6.2.7-13.1-3-17.9-6.3-1.5-1.1-2.9-2.3-4.3-3.5-.4-.3-3.8-3.6-3.9-3.4.5-1.1.9-2.2 1.3-3.3 1.9-5.7 2.1-11.9.3-17.7-.2-.6-.9-.4-1 .1-.2 3.6-.9 7.3-2.6 10.5-.4.8-1.8 3.4-2.8 2-.7-.9-.9-2.2-1.2-3.4-1.5-6.4-2.1-13.8-1.2-20.3.1-.6.1-1.9.7-2.2-.1.1 2.7 2.7 3.4 2.9 1.5.6.9-1.5.7-2.1-.9-3.3-2-6.6-3.4-9.7-.7-1.6-2.5-5.5-4.9-4.9-1.8.5-2.3 2.7-2.7 4.3-.9 3.4-1 7-1.1 10.5-.2 7.1-.2 14.8 1.6 21.8-8.4-5.7-19.6-5.2-27.8.7-4.5 3.2-7.7 8-6.7 13.6.5 3 2.4 5.7 4.5 7.9-4.3.9-9 .4-13.1-.7-2-.6-4-1.4-5.9-2.4-1.2-.6-3.5-1.4-3.8-2.8-.8-2.8-1.7-6.4-.6-9.2.1-.2 0-.5-.2-.6-1.7-1-3.5-.8-4.7.9-1.4 2-2.9 4-4.6 5.8-5.5 5.9-13 9.6-20.5 5-1.1-.6-3.2-1.6-3.1-2.7.1-1 .2-2 .2-3 0-3-.9-5.9-2.8-8.2-.5-.6-1.1-1-1.8-1.5-.5-.4-1.3-.4-1.3-.5.1-1.3.1-2.6-.2-3.9-.6-3.1-3.2-4.2-6-3.3-.1 0-.1.1-.1.1-2.1 1.2-2 3.9-1.5 6 .3 1.1 1.5 2.1 1.1 3.2-.4 1-.9 1.9-1.5 2.8-3.5 6.2-9.8 13.1-17.3 8.3-.6-.3-4.9-4.4-5-4.4.2-.3.5-.6.7-.9 1.1-1.4 2-3 2.8-4.6 3-6 4.2-12.7 4-19.4-.3-7.6-2.6-15-5.8-21.8-2.2-4.7-5-9.1-8-13.3-2-2.7-3.6-6-3.8-9.4 0-.2-.1-.4-.2-.4-1.4-.7-6.1-1.1-7.6-.5-2.9 1.2-2.1 5.3-1.7 7.7 1.2 6.9 2 13.9 2.9 20.9 1.1 9.1 6.4 43.6 6.4 43.5-2.3 3.6-5.5 5.2-9.5 5.9-8.7 1.2-20.6-4-24-7.8-.9-1 1.2-3.6 1.4-3.9 4.7-9.4 7.1-22.1 1.7-31.7-1.9-3.5-4.9-7.4-8.3-9.4-2-1.2-4.2-2.1-6.4-2.9-1.1-.4-1.4-.6-2.3-.1-6.1 3.1-4.5 12.4-3.3 17.7 1.5 6.9 3.2 13.8 5.1 20.7.9 3.2 1.8 6.4 3.2 9.4.1.2.2.4.3.6 0 .1.1.1.1.1-.7.6-1.3 1.2-2 1.7-6.9 5.2-15.5 8-24.2 8.1-3.2.1-6.3-.4-9.4-1-.8-.2-6.9-1.7-6.9-1.9 0-1.8 1.5-3.5 2.7-4.6 1.6-1.5 3.4-2.7 5.3-3.7 1.5-.8 3-1.5 4.5-2.2 1.1-.5 3.6-.8 4.4-1.7 1.6-1.7-1.3-3.7-2.8-3.6-3.1.1-6.3.2-9.4-.1-.4 0-4.3-.3-4.2-1.1 0 .2.3-.1.7-.3.9-.4 1.7-.7 2.6-1 3.3-1.2 6.8-2.2 10.4-2.2 1.9 0 3.6 1.1 5.2-.4 1-1 .1-4.2-1.3-4.3-2.1-.3-4.1-.2-6.2-.1-4 .3-7.9 1.3-11.7 2.7-2.3.9-4.4 2-6.5 3.2-.8.5-1.7.8-2 1.7-1.4 4.6 2.3 6.9 6.2 7.4-2 2.2-4.2 4.1-6.6 5.8-2.3 1.7-4.9 3-7.6 3.8-.7.2-3.5 1.1-3.7.7-.9-1.4-.7-2.7-.2-4.2.4-1.1.6-2.2.7-3.4.7-6.6-2.3-12.9-6.8-17.7-5.6-6-13.4-9.6-21-12.3-13.1-4.6-21.2-7.4-35.1-8.4 13.6-3.9 21.7-8.7 35.8-9.7-.4 2 .2 4.4 2.7 4.1 3.7-.3 18.9-3.7 19.8-3.8.5-.1 1.5 0 1.9-.2 1.3-.8 2.4-2.7 2.3-4.2-.2-2.9-4.8-3.4-11.1-4.1-7.6-.9-63 7.9-81.5 13-3.4.9-6.8 1.9-10.1 3.1-2.2.8-3.7 5-4.6 7.3-2.2 5.6 4.5 5.7 8.2 5.4 14.1-1.2 28-2.4 42.2-1.5 16.8 1.1 36.1 5.1 46.9 19.1 3 3.8 4.9 7.7 3.4 12.6-.4 1.4-1.3 2.7-1.8 4.1-1.6 3.3-2.7 5.3-3.9 5.1-3.5-.6-7-2.6-10.3-3.9-16.1-6.6-32.6-12-49.7-15.6-12.1-2.5-24.4-4.2-36.7-4.9-7.1-.4-14.2-.5-21.3-.4-4.4.1-9-.1-13.2.8-2.2.5-4.7 1.4-6 3.4-2.1 3.1-.3 6.6 1.6 9.2 3.3 4.6 8.8 7.3 13.8 9.4 19 8 40.6 10.5 60.9 11.8 14.8.9 29.6.8 44.4-.2 4.1-.3 8.4-.3 12.4-1.1 8.1-1.7 16-5.1 23.5-8.5.7-.3 6.3-2.9 6.1-3.1.2.3.5.5.7.8 1.2 1.2 2.6 2.2 4 3.1 15.2 9.7 33.9 1.2 46.9-8.2 3.1 3.8 7.3 6.9 11.6 9 9.7 4.7 20.3 2.8 29.3-2.5.8 5.8 1.5 11.5 2.3 17.3 0 .3.1.6.1.9-.9 0-1.8 0-2.8.1-4.5.1-8.9.3-13.4.7-4.4.4-8.9.8-13.1 2.1-1.8.5-4 3.3-2.4 5 2.4 2.7 6.5 2.4 9.7 2.1 4.6-.3 9.3-1.1 13.9-1.7 1.8-.2 3.7-.4 5.6-.5h2c.3 0 .5.1.8.1h.1c.2 2 .4 4 .6 6 .8 7.3 1.7 14.8 3.8 21.9.4 1.4 1.1 4 2.8 4.5.4.1.4 0 .3 0 .2.1.4.2.7.2 3.1-.2 1.4-9.9 1.3-11.3-.5-4.5-1.3-8.9-2.1-13.4-.4-2.1-.6-4.4-.2-6.6.4-1.9 1.6-1.5 3.2-1.7l9.9-.9c1.6-.1 3.1-3.3 3.2-4.6.2-2.7-3.7-2.7-5.5-2.7l-11.7.1v-.1c-.4-1.6-.7-3.2-1-4.8-.9-4.6-1.9-10-.7-14.6v-.1c2.8 2.4 6.4 4.2 10.1 4.8 8.3 1.3 14.2-5.1 17.8-11.8 1.4 4.8 4.2 10.1 8.6 12.5 1.5.8 3.2.9 4.9 1 2.8.1 5.6 0 8.4-.4 5.6-.7 10.8-3 15.5-6 1.4 2.5 3.9 4.6 6.3 6.1 7.3 4.4 16.4 4.2 24.5 2.7 1.6-.3 3.2-.7 4.8-1.1.6-.2 1.8-.8 2.4-.7.9.2 1.9.4 2.9.5 3.7.6 7.5.5 11.2-.2 5-.9 9.7-3.2 13.5-6.6.5-.5 2-1.5 1.4-2.2.1.1.2.2.3.3.5.5 1 1 1.5 1.4 5.7 5.2 12.8 8.8 20.3 10.7 13 3.2 26.3-.4 37.7-6.8.4 6 .9 12.1 1.5 18.1.8 8.2.8 14 .5 22.5-5.3-2.8-7.1-2.8-12.6-5.3-8.2-3.8-17.2-8.1-26.3-9.2.9-1.4 1.8-2.9 2.7-4.3.3-.5-.4-1-.8-.6-4.3 4.3-11 2.4-16.3 1.5-8-1.3-16-2.5-24.1-3.2-19.7-1.7-42.2-1.6-59.8 8.7-2.4 1.4-4.5 3.4-5 6.3-1 5.4 6 7.6 10 8.5 13 3.2 27.5 2.2 40.6.2 11.6-1.8 23-5.1 33.9-9.2 2.8-1.1 5.7-2.5 8.6-3.4 2.7-.8 5.8-.1 8.5.6 7.7 2 15 6 21.9 9.8 4.2 2.3 9.7 5.8 18.7 10.4 4 2 8 2.7 12.5 3.4.4.1.7-.2.6-.6-2.8-13.7-5-27.5-6.4-41.4-.8-8.1-1.2-16.2.1-24.5zm-342.1 14.2s0 .1 0 0c-20.4.7-39.5.3-59.7-2.3-21.4-3.7-31.4-8.9-37.8-13.1-7.5-4.5.3-5.9 1.7-6 25.5-2.1 40.4.6 64.8 8.2 10.6 3.3 21.4 7.1 31.1 12.5v.1c0 .1.1.1.1.2 0 0 .1.1.1.2v.1.2c0 .1 1.2-.2 1.2-.1 0-.2-1.4 0-1.5 0zm96-20.2c-2.2-1.3-3.8-4.2-4.8-6.4-4.1-8.7-4.7-16.8-4.9-26.3 0 0 0 0 0-.1 0-.3.3-.4.5-.4h.1c4 .5 8.2 2.9 10.8 6 6.7 8.4 2.9 18.2-1.1 26.9-.1.3-.4.4-.6.3zm44.3-1.2c-.2.3-.7.4-.9 0-1.3-2.7-1.6-5.9-1.9-8.8-.5-4.4-.8-8.8-1-13.2-.3-5.8-.5-11.6-.5-17.4v-.1-.1c0-.1.1-.2.2-.2 0 0 .1 0 .2-.1h.1c.1 0 .2 0 .2.1 0 0 .1 0 .1.1 0 0 .1 0 .1.1 4.6 8.9 7.9 19.1 6.7 29.2-.4 3.5-1.2 7.4-3.3 10.4zm109 17c-1.3.6-2.1.1-3.5-.3-2-.7-4.1-1.5-5.8-2.8-2.1-1.7-3.6-4.1-2.8-6.9 1.7-6.1 7.1-8.4 12.8-9.5 4.3-.8 11-1 13.7 3.3v.2s.1 0 .1.1c.1.6.1 1.2 0 1.9-.5 6.7-9 11.5-14.5 14zm21.5-7.7c-3.1 4-7.6 6.5-12.5 7.6-.4.1-.9-.5-.5-.8 1.7-1.4 3.3-3 4.9-4.5 2.2-2.2 4.9-4.6 6.1-7.6 0 0 0 0 .1-.1s.1-.1.2-.2h.1.2c.1 0 .1 0 .2.1h.1c1 .9 2.3 2.1 2.4 3.5-.1.7-1 1.6-1.3 2zm3.7 38.9c0 .1-.1.2-.2.2 0 0 0 0-.1.1-.1 0-.1.1-.1.1-2.8.7-5.5 1.4-8.3 2-11.2 2.6-13.5 3.6-25 4.4-6 .4-12.2.6-18.1-.8-2.7-.6-9.3-2.4-8.7-5.3s20.1-5.6 34.3-4.6c8.6.6 17.3 1.6 25.8 3.4 0 0 0 0 .1.1 0 0 .1 0 .1.1.1.1.1.1.1.2v.1zm56.1-34c-4.9 4.4-16.7 1.2-19.2-2.7-4.7-8.8 3.3-14.6 8.3-16.2 4.8-1.5 10.4-1.5 14.3 3 .1.1.2.3.3.4 3.2 5.7.3 11.4-3.7 15.5z"/><path d="m836.8 91.8s-52.8 5.2-67.7 3.7c0 0-3.4-6.2 22.7-21.4 0 0 7.9-7-1.3-9.1 0 0-10.7 1.4-15.8-1.6 0 0 19.9-3 21.6-3.9 0 0 7.1-3.9 0-5.4 0 0-30.5-4-33.6 12.3 0 0-.8 5.8 15.8 5.7 0 0-14 13.8-18.2 18-4.1 4.2-2.4 13.3 7.6 12.8 0 0 65.7-.4 68.1 0 0 0 7.9-6.6.8-11.1z"/><path d="m259.3 100.1c-1.2-.5-2.8-.3-4-.4-3.6-.3-7.2-.6-10.8-.9-7.5-.7-15.1-1.2-22.6-2.4-2.1-.3-2.8-1.5-4-3.3-2.3-3.4-4.8-6.5-7.9-9.3-5.2-4.7-11.5-7.7-17.4-11.3-5.4-3.3-10.5-7-15.3-11.1-2-1.7-4.2-3.4-5.8-5.5-1.8-2.4-4.9-4.4-7-1.4-1.8 2.5-.4 5.5-.2 8.3.4 4.5.2 9.1-1.1 13.4-.8 2.8-2.4 6.4-4.9 8.3-.7-8.5-8.6-14.9-14.9-19.9-3-2.4-6.3-4.5-8.9-7.2-1.8-1.8-2.6-6.9-6.1-6-3.5 1-.3 7.7.5 9.4.6 1.3 2.1 3 1.8 4.4-.6 3.6-1.4 7.1-2.3 10.5-2.1 7.6-5.6 16.2-12.4 20.8-2 1.3-4.5 2.4-7 2.2-3.5-.3-7.1-.9-10.2-2.3 19.3-15.9 25.6-39.5 18.5-61.9-5.4-17.2-22.6-35.8-42.5-33.4-22.1 2.7-31.5 33.4-35.3 51.4-4.1-11.1-16.7-42.2-31-23.7-10.3 13.3-12.8 51.1 10.3 72.4 5.1 5.1 14.1 1.1 9-2.1-30-18.9-25.1-49.3-20.6-58.5 6.3-13.2 17.5-4.7 22.2 3.4 4.9 8.5 7 17.9 7.6 27.6.4 6.6-.4 13.9 1.5 18.1 1.8 3.8 7.9 4.6 8-3 .1-12-1.8-16.6 1.7-32.7 2.5-11.2 6.3-25.2 15.2-34.1 16.4-16.3 34.4-1.9 40.9 12.5 13.8 27.1 3.2 48.5-10.2 61.1-1.7-1.4-3.1-3.1-4.1-5.3-2.5-5.3-2.1-11.3-2.3-16.9-.1-2.3-.4-4.2-2-5.9-1.9-2.1-4.9-.2-6.3 1.6v.2c0 .1-.1.1-.1.2-.6 10.6 2 22.9 8.2 31.7-5.1 3.6-10.1 5.9-13.8 6.8-1 0-1.9.1-2.9.1-11.1.6-18.2 1.7-22.8 3-4.5 1.3-9.4 3.5-9.5 5.1-.1 2 5.3 5 8.6 5.4h.2c9.8.4 19.2-5.4 26.7-9.1 1.7-.8 3.2-1.7 4.6-2.5l2.7-.8c4.2-.1 8.9-.2 14-.3.5.3 1 .7 1.6.9 5.9 3.1 12.8 2.2 18.8-.9 20.1.3 46 1.4 80.4 4.2 0 0 7.8 2.5 8.2 0 .4-2.7-5.2-2.5-7.5-1.5-32.3-2.6-58.3-3.6-78.8-4 3.6-2.3 6.7-5.3 9-8.7.5-.8 1-1.6 1.4-2.5 2.7 3.6 6 7 10.4 8.1 2.6.7 5.2-.2 7.7-.9 8.3-2.3 15.6-7.4 19.8-15 2.7-4.9 4-8.3 4.1-13.9 0-.9 0-1.8-.1-2.6.1 0 4 1.2 4.8 1.7 2.6 1.3 5.1 2.6 7.7 4 9 5 18.2 8 25.9 14.9 1 .9 2 1.8 2.7 2.9s-.1 1.2-1.1 1.2c-3.6.2-7.4-.2-11-.5-8-.6-16-1.5-24-2.5-4.3-.5-12.2 3.1-7.3 7.8.7.7 1.5 1.2 2.4 1.7 1 .5 3.7-.1 4.8-.1 2.4 0 4.8.2 7.2.5 7.7 1.1 14.9 4 22.3 6.1 4.5 1.2 11.8 3.7 16 .3 1.2-1 1.6-2.7 1.4-4.2 11.9 1.3 23.8 2.5 35.7 3.8 2.2.2 5-1.2 5.8-3.3 1-1.9-2.8-3.6-4.3-4.2zm-193.6 11.7c-4.6 2-9.8 3.3-13.7 3.1h-.2c-4.1-1.4.3-7 19.2-5.6-1.6.8-3.4 1.7-5.3 2.5zm18.9-5.9c2-1 3.9-2 5.7-3.1 1 1.1 2.2 2.1 3.3 3-3.1 0-6.1 0-9 .1zm65.8-16.3c-2.4 3.5-6.7 5.9-10.7 3.3-3-2.1-5.5-5.1-7.3-8.3-.1-.2-.1-.4 0-.5 1.5-2.2 1.9-5.8 2.6-8.3.6-2.3 1.1-4.5 1.7-6.8v-.1c0-.1.1-.1.1-.1s0-.1.1-.1c.1-.1.2-.1.3-.1h.1c.1 0 .1 0 .2.1 0 0 .1 0 .1.1 5.2 4.2 18.4 12.5 12.8 20.8zm65.3 15.9c-3.8 0-7.6-1.4-11-2.8 0 0 0 0-.1-.1-.1 0-.1-.1-.1-.2l-.1-.1c-.1-.2 0-.4.1-.5 0-.1.1-.1.2-.1 3.4-.6 11-1.9 13 2 .6 1.3-1.1 1.8-2 1.8z"/><path d="m89.2 41.9c1.3-2.8 1-5.8-.9-6.7-1.8-.9-4.3.7-5.7 3.5-1.3 2.8-1 5.8.9 6.7 1.8.9 4.3-.7 5.7-3.5z"/></g></svg>