<svg height="44" viewBox="0 0 44 44" width="44" xmlns="http://www.w3.org/2000/svg" xmlns:xlink="http://www.w3.org/1999/xlink"><mask id="a" fill="#fff"><path d="m0 42.1658h42.165449v-42.16544898h-42.165449z" fill="#fff" fill-rule="evenodd"/></mask><g fill="none" fill-rule="evenodd" transform="translate(1 1)"><path d="m41.5076367 21.0829c0 11.2800408-9.1440816 20.425-20.425 20.425-11.28004078 0-20.42412241-9.1449592-20.42412241-20.425 0-11.28004082 9.14408163-20.425 20.42412241-20.425 11.2809184 0 20.425 9.14495918 20.425 20.425z" stroke="#464646" stroke-width="1.5"/><g fill="#464646"><path d="m16.4744408 27.4421612c.5124898 0 .928449-.4159592.928449-.928449s-.4159592-.9284489-.928449-.9284489-.928449.4159591-.928449.9284489.4159592.928449.928449.928449"/><path d="m28.0532878 27.4421612c.5124898 0 .9284489-.4159592.9284489-.928449s-.4159591-.9284489-.9284489-.9284489-.928449.4159591-.928449.9284489.4159592.928449.928449.928449"/><path d="m25.8788918 23.9504735h-6.262204-2.8520409c1.2864898.1447959 2.2895307 1.239102 2.2895307 2.5633265 0 .1333878-.0096531.2641429-.0298368.3913878h.592347 5.918204c-.0193061-.1272449-.0298367-.258-.0298367-.3913878 0-.4861633.136898-.9407347.3738367-1.3268571z"/><path d="m16.2078408 23.9505612h-3.1205714v2.9547143h.86c-.0193061-.1272449-.0298367-.258-.0298367-.3913877 0-1.3242245 1.0039183-2.4185307 2.2904081-2.5633266"/><path d="m12.3041429 23.4880041h13.5221836v-7.9321837h-13.5221836z" mask="url(#a)"/><path d="m28.0532878 25.5854388c.5124898 0 .9284489.4159592.9284489.928449s-.4159591.9284489-.9284489.9284489-.928449-.4159591-.928449-.9284489.4159592-.928449.928449-.928449m0 2.7792041c1.0223469 0 1.8516326-.8284082 1.8516326-1.8507551 0-1.022347-.8292857-1.8516327-1.8516326-1.8516327-1.022347 0-1.8507551.8292857-1.8507551 1.8516327 0 1.0223469.8284081 1.8507551 1.8507551 1.8507551" mask="url(#a)"/><path d="m16.4744408 25.5854388c.5124898 0 .928449.4159592.928449.928449s-.4159592.9284489-.928449.9284489-.928449-.4159591-.928449-.9284489.4159592-.928449.928449-.928449m0 2.7792041c1.022347 0 1.8507551-.8284082 1.8507551-1.8507551 0-1.022347-.8284081-1.8516327-1.8507551-1.8516327-1.0223469 0-1.8516326.8292857-1.8516326 1.8516327 0 1.0223469.8292857 1.8507551 1.8516326 1.8507551" mask="url(#a)"/><path d="m6.24289796 17.131902h5.21002044v-.7985714h-5.21002044z" mask="url(#a)"/><path d="m7.9997551 19.1160449h3.4531633v-.7722449h-3.4531633z" mask="url(#a)"/><path d="m9.92159184 20.9834735h1.53132656v-.6844898h-1.53132656z" mask="url(#a)"/><path d="m28.5944735 20.6280653v-2.6370408l3.4242041.0535306c.2132448 0 .4063061.1272449.4914285.3229388l.946 2.1833469c.1070612.2474694-.0895102.5195102-.3580408.4940612zm4.7027959 3.1328571h.8705306v-2.5229591c0-.2676531-.0596735-.531796-.1737551-.774 0 0-.7748776-2.1385919-1.3426531-2.8371225-.6274489-.7731224-2.1350816-1.1083469-2.9898163-1.2382245-1.0907959-.1658571-3.088102-.2816939-3.088102-.2816939l.0245714 4.7247347v3.5356531c.4177143-.2869592.9223061-.4545714 1.4663878-.4545714 1.4339183 0 2.6001836 1.1671428 2.6001836 2.6010612h2.9450613c.3080204 0 .5581224-.2492245.5581224-.5581224v-.713449h-.3799796c-.4563265 0-.8257755-.3703266-.8257755-.8266531v-.318551c0-.1851633.1500612-.3361021.3352245-.3361021z" mask="url(#a)"/></g></g></svg>