<svg enable-background="new 0 0 30 30" viewBox="0 0 30 30" xmlns="http://www.w3.org/2000/svg"><path d="m13.9 29.4c-.5 0-.8-.2-.9-.6-.5-2.6-1.5-5.1-2.9-7.7-.5-.9-1.1-1.7-1.6-2.6l-.8-1.1c-.2-.4-.5-.8-.7-1.2s-.4-.7-.6-1.1c-.1-.2-.2-.4-.4-.7-.6-1.1-1.3-2.6-1.3-4.7 0-1.7.5-3.3 1.3-4.7 1.5-2.3 3.7-3.8 6.4-4.2 2.2-.3 4.4.2 6.3 1.2 1.2.7 2.3 1.7 3.1 3 .9 1.4 1.4 2.9 1.4 4.7 0 .9-.1 1.8-.4 2.7-.2.6-.4 1.1-.7 1.6l-.2.4c-.6 1.3-1.4 2.5-2.1 3.6-2.3 3.5-4.2 6.5-5 10.8-.1.4-.4.6-.9.6zm0-28c-.4 0-.9 0-1.3.1-2.5.4-4.6 1.8-6 3.9-.9 1.2-1.3 2.7-1.3 4.3 0 2 .6 3.4 1.2 4.4.1.2.3.4.4.7.2.4.4.7.6 1.1.3.4.5.8.8 1.2l.7 1.1c.5.8 1.1 1.7 1.6 2.6 1.5 2.7 2.5 5.2 3 7.8 0 .1.1.1.3.1.1 0 .2 0 .3-.1.9-4.4 2.7-7.5 5.1-11 .7-1.1 1.5-2.2 2.1-3.5l.2-.4c.2-.5.5-1 .6-1.5.2-.8.4-1.7.3-2.5 0-1.6-.5-3-1.3-4.3-.7-1.2-1.7-2.1-2.9-2.8-1.3-.8-2.9-1.2-4.4-1.2zm.1 12.5c-2.6 0-4.7-2.1-4.7-4.7s2.1-4.7 4.7-4.7 4.7 2.1 4.7 4.7-2.1 4.7-4.7 4.7zm0-8.8c-2.3 0-4.1 1.8-4.1 4.1s1.8 4.1 4.1 4.1 4.1-1.8 4.1-4.1-1.8-4.1-4.1-4.1z" fill="#4f4f4f"/></svg>