<svg viewBox="0 0 295.19 291.41" xmlns="http://www.w3.org/2000/svg" xmlns:xlink="http://www.w3.org/1999/xlink"><clipPath id="a" transform="translate(-6.2 -9.14)"><path clip-rule="evenodd" d="m207.82 173.48 7.61-29.52h-14.67l-7.61 29.52z"/></clipPath><clipPath id="b" transform="translate(-6.2 -9.14)"><path clip-rule="evenodd" d="m209.99 108.06-7.61 29.52h14.68l7.62-29.52z"/></clipPath><clipPath id="c" transform="translate(-6.2 -9.14)"><path clip-rule="evenodd" d="m191.48 179.86-7.59 29.53h14.67l7.61-29.53z"/></clipPath><clipPath id="d" transform="translate(-6.2 -9.14)"><path clip-rule="evenodd" d="m96.48 143.96v6.26l24.92 23.26h1.77"/></clipPath><path d="m151.91 300.55c-80.34 0-145.7-65.36-145.7-145.7s65.36-145.71 145.7-145.71 145.7 65.36 145.7 145.7-65.36 145.71-145.7 145.71z" fill="#4f504f" transform="translate(-6.2 -9.14)"/><path d="m201.62 164.34 7.6-29.52h-14.67l-7.6 29.52z" fill="#fff" fill-rule="evenodd"/><g clip-path="url(#a)"><path d="m110.23 58.11h175.71v182.95h-175.71z" fill="#fff"/></g><path d="m181.55 164.34 7.6-29.52h-98.87v6.26l24.91 23.26z" fill="#fff" fill-rule="evenodd"/><path d="m203.79 98.92-7.61 29.52h14.68l7.62-29.52z" fill="#fff" fill-rule="evenodd"/><g clip-path="url(#b)"><path d="m119.46 22.21h175.73v182.95h-175.73z" fill="#fff"/></g><path d="m53.23 98.92v7.47l23.62 22.05h113.91l7.6-29.52z" fill="#fff" fill-rule="evenodd"/><path d="m185.28 170.73-7.59 29.52h14.66l7.62-29.52z" fill="#fff" fill-rule="evenodd"/><g clip-path="url(#c)"><path d="m100.97 94.01h175.71v182.95h-175.71z" fill="#fff"/></g><path d="m128.94 170.73v6.34l24.83 23.18h18.49l7.63-29.52z" fill="#fff" fill-rule="evenodd"/><path d="m90.28 134.82v6.26l24.91 23.26h1.78" fill="#fff" fill-rule="evenodd"/><g clip-path="url(#d)"><path d="m13.57 58.11h180.12v182.95h-180.12z" fill="#fff"/></g></svg>