<svg height="44" viewBox="0 0 44 44" width="44" xmlns="http://www.w3.org/2000/svg"><g fill="none" fill-rule="evenodd" transform="translate(1 1)"><path d="m41.386975 21.0216125c0 11.24725-9.1175 20.365625-20.365625 20.365625-11.24725 0-20.36475-9.118375-20.36475-20.365625s9.1175-20.365625 20.36475-20.365625c11.248125 0 20.365625 9.118375 20.365625 20.365625z" stroke="#464646" stroke-width="1.5"/><path d="m29.1528125 18.4022125h-1.89l.972125-3.70825h1.854125zm-1.134 4.482625h-1.890875l.972125-3.70825h1.855zm-1.18825 4.482625h-1.89l.972125-3.70825h1.854125zm-4.95075-.035875-2.93475-2.610125v-1.1165c.027125.027125 6.300875.035875 6.300875.035875l-.95375 3.69075zm-7.83125-7.09275v-1.1165c.027125.027125 12.385625.035875 12.385625.035875l-.95375 3.69075h-8.498zm-4.645375-4.482625v-1.080625c.027125.027125 18.165 0 18.165 0l-.95375 3.69075h-14.2765z" fill="#464646"/></g></svg>