<svg viewBox="0 0 324.35 246" xmlns="http://www.w3.org/2000/svg"><g fill="#4f504f"><path d="m405.71 127h-311.07a6.66 6.66 0 0 0 -6.64 6.64v232.72a6.66 6.66 0 0 0 6.64 6.64h311.07a6.66 6.66 0 0 0 6.64-6.64v-232.72a6.66 6.66 0 0 0 -6.64-6.64zm-106.39 17.15a6.66 6.66 0 0 1 6.64-6.64h18.59a6.66 6.66 0 0 1 6.64 6.64v9.3a6.66 6.66 0 0 1 -6.64 6.64h-18.55a6.66 6.66 0 0 1 -6.64-6.64v-9.3zm-64.4 0a6.66 6.66 0 0 1 6.64-6.64h18.59a6.66 6.66 0 0 1 6.64 6.64v9.3a6.66 6.66 0 0 1 -6.64 6.64h-18.6a6.66 6.66 0 0 1 -6.64-6.64v-9.3zm-32.53 9.3a6.66 6.66 0 0 1 -6.64 6.64h-18.6a6.66 6.66 0 0 1 -6.64-6.64v-9.3a6.66 6.66 0 0 1 6.64-6.64h18.59a6.66 6.66 0 0 1 6.64 6.64m-96.28 0a6.66 6.66 0 0 1 6.64-6.64h18.59a6.66 6.66 0 0 1 6.64 6.64v9.3a6.66 6.66 0 0 1 -6.64 6.64h-18.59a6.66 6.66 0 0 1 -6.64-6.64zm0 30.82a2.66 2.66 0 0 1 2.66-2.66h282.84a2.66 2.66 0 0 1 2.66 2.66v150.03a2.66 2.66 0 0 1 -2.66 2.66h-282.85a2.66 2.66 0 0 1 -2.66-2.66v-150zm31.9 180.32a6.66 6.66 0 0 1 -6.64 6.64h-18.62a6.66 6.66 0 0 1 -6.64-6.64v-9.29a6.66 6.66 0 0 1 6.64-6.64h18.59a6.66 6.66 0 0 1 6.67 6.64v9.3zm64.4 0a6.66 6.66 0 0 1 -6.64 6.64h-18.61a6.66 6.66 0 0 1 -6.64-6.64v-9.29a6.66 6.66 0 0 1 6.64-6.64h18.59a6.66 6.66 0 0 1 6.64 6.64v9.3zm64.4 0a6.66 6.66 0 0 1 -6.64 6.64h-18.61a6.66 6.66 0 0 1 -6.64-6.64v-9.29a6.66 6.66 0 0 1 6.64-6.64h18.59a6.66 6.66 0 0 1 6.64 6.64v9.3zm64.4 0a6.66 6.66 0 0 1 -6.64 6.64h-18.56a6.66 6.66 0 0 1 -6.64-6.64v-9.29a6.66 6.66 0 0 1 6.64-6.64h18.59a6.66 6.66 0 0 1 6.64 6.64v9.3zm64.4.5a6.66 6.66 0 0 1 -6.64 6.64h-18.6a6.66 6.66 0 0 1 -6.64-6.64v-9.3a6.66 6.66 0 0 1 6.64-6.64h18.64a6.66 6.66 0 0 1 6.64 6.64v9.3zm0-201.85a6.66 6.66 0 0 1 -6.64 6.64h-18.6a6.66 6.66 0 0 1 -6.64-6.64v-9.3a6.66 6.66 0 0 1 6.64-6.64h18.64a6.66 6.66 0 0 1 6.64 6.64v9.3z" transform="translate(-88 -127)"/><path d="m131.68 79.56v86.88l60.99-43.44z"/></g></svg>