<svg height="31" viewBox="0 0 32 31" width="32" xmlns="http://www.w3.org/2000/svg" xmlns:xlink="http://www.w3.org/1999/xlink"><mask id="a" fill="#fff"><path d="m.31122963.68502857h13.50992597v13.02925713h-13.50992597z" fill="#fff" fill-rule="evenodd"/></mask><mask id="b" fill="#fff"><path d="m.00023704.38742857h13.61422226v13.12628573h-13.61422226z" fill="#fff" fill-rule="evenodd"/></mask><g fill="#4f4f4f" fill-rule="evenodd" transform="translate(0 -1)"><path d="m6.70885926 13.4644571 7.11229634.2502858-.2583704-6.85942861-1.1851852.04.1896296 5.00114281-11.62666664-11.21142853c-.1837037.22742857-.39466666.42971429-.62933333.60685714l11.62785187 11.21257139-5.18874076-.1828571z" mask="url(#a)" transform="translate(17.777778 17.898286)"/><path d="m1.44497778 7.20514286-.19081482-5.00228572 11.73096294 11.31085716c.1837037-.2274286.3934815-.4297143.6293334-.6068572l-11.72859263-11.30971424 5.18518518.18285714.04266667-1.144-7.11348148-.24914286.25955555 6.85942857z" mask="url(#b)" transform="translate(0 .755429)"/><path d="m29.7344 2.41554286-11.6468148 11.24571424c.2346667.1771429.4444444.3794286.6293333.6057143l11.5354074-11.13828569-.1825185 4.89942858 1.1851852.04.2536296-6.85942858-7.1122963.25371429.0426667 1.144z"/><path d="m2.08047407 30.3289143 11.53540743-11.1371429c-.2346667-.1771428-.4456296-.3794285-.6293334-.6057143l-11.64681477 11.2457143.19081482-5.1074285-1.18518519-.04-.25481481 6.8594285 7.11348148-.2537143-.04385185-1.1428571z"/></g></svg>