<svg height="1280pt" preserveAspectRatio="xMidYMid meet" viewBox="0 0 1280 1280" width="1280pt" xmlns="http://www.w3.org/2000/svg"><g transform="matrix(.1 0 0 -.1 0 1280)"><path d="m1691 7558c-123-21-239-128-350-320-50-87-121-251-141-328l-12-45-33 110c-48 163-79 241-116 295-58 85-117 101-185 52-93-67-154-189-190-377-26-135-25-534 2-725 36-258 74-381 120-388 34-5 53 20 59 76 3 28 7 73 10 100 2 26 7 88 10 137 4 50 9 108 11 130 11 95 13 703 3 760-6 33-11 67-11 75-2 53 4 71 26 85 22 15 27 15 55 1 57-30 99-130 126-301 29-178 34-342 24-740-3-120-1-168 10-192 23-56 63-38 96 41 13 31 17 86 20 270 2 127 7 265 10 306 7 70 59 274 89 344 7 17 30 72 51 121 76 182 177 320 269 367 75 38 177 21 243-41 89-84 169-268 198-454 43-271 12-526-89-731-57-116-120-194-205-257-65-47-83-68-96-116-19-68 49-100 132-63 138 61 309 360 368 644 24 117 30 179 30 316 0 236-31 386-115 558-104 210-259 318-419 290zm-877-687c21-132 9-493-20-598-8-29-16-53-18-53-17 0-40 211-40 365 0 171 34 399 56 377 5-5 15-46 22-91z"/><path d="m8150 7383c-21-15-22-21-16-97 3-45 8-90 10-101s7-58 11-105 8-92 10-100 6-51 9-95c7-82 12-139 21-222 3-27 7-79 10-118 3-38 7-90 10-115s7-77 10-117c7-86-5-110-73-150-81-48-197-31-314 44-81 51-80 48-56 107 53 131 70 215 70 338-1 155-79 294-197 349-56 26-70 24-97-13-34-48-30-168 11-368 18-85 34-166 37-179 15-74 33-140 42-157 12-23 4-37-53-80-46-36-135-79-184-89-91-19-202-9-293 27-33 12-32 11-13 47 21 41 91 98 158 129 44 20 57 31 57 48 0 29-19 35-112 39-43 2-85 8-94 13-26 14 99 57 170 58 68 1 86 18 67 61-11 25-14 25-84 21-137-10-279-83-285-146-3-25 3-39 25-60 15-16 35-31 43-34 32-11-106-132-179-157-43-14-54-1-45 49 4 19 8 59 9 88 8 179-111 341-327 444-77 37-239 92-298 102-19 3-57 10-85 15-61 12-120 20-160 21-46 1-15 15 127 56 122 35 235 59 334 70 52 6 52 6 59-25 9-44 39-41 169 15 58 25 116 47 128 49 26 5 44 22 53 52 4 17-1 30-20 49-27 26-29 27-123 21-54-4-108-9-122-12s-36-7-50-10c-14-2-45-8-70-14-25-5-61-13-80-16s-55-11-80-16c-25-6-56-13-70-15-14-3-61-14-105-26-44-11-91-22-105-24-55-10-381-107-473-141-106-38-126-52-128-86-4-73 11-80 151-72 63 3 140 8 170 11 97 8 261 10 334 3 269-27 424-87 551-214 119-118 158-225 121-330-8-22-17-52-20-67-8-35-32-59-54-52-9 4-69 32-132 63-346 173-683 283-975 320-44 5-102 13-130 17-82 11-419 12-479 2-44-8-62-17-86-44-25-29-29-40-24-72 15-94 92-180 218-244 123-62 341-133 471-153 265-41 373-50 645-50 332 0 428 10 550 58 52 20 221 104 266 133 19 11 24 10 50-18 93-97 240-125 385-71 67 25 199 103 245 144 20 19 21 18 87-47 76-74 146-110 226-117 64-6 149 14 208 49 44 25 54 29 51 17-1-5 1-35 5-68s10-89 13-125c4-36 8-68 11-73 7-12-15-15-133-22-60-3-119-7-131-9-11-3-37-7-58-10-77-13-113-44-102-88 10-38 53-52 145-45 42 4 88 9 102 12 24 5 92 15 137 20 33 3 45-9 48-51 5-66 17-198 20-216 2-9 7-38 10-65 17-117 36-182 57-189 11-3 25-1 30 4 10 10 12 105 4 172-3 19-7 60-11 90-3 30-9 81-14 114-7 53-7 124 1 132 4 4 45 10 118 19 30 3 61 9 68 14 20 12 28 86 11 97-8 5-55 9-105 10s-96 4-101 7c-18 11-41 234-29 281l6 26 45-34c88-68 181-56 252 32 18 22 40 56 50 76l17 36 20-53c49-125 88-159 185-162 83-2 173 22 241 64 29 18 53 31 54 29 2-2 12-17 24-35 36-52 118-100 191-111 72-10 120-7 206 15 33 8 78 14 100 13 68-5 149-3 179 3 46 10 108 46 153 89l41 41 34-38c45-52 165-129 235-151 61-20 191-25 273-12 24 5 86 28 137 53s96 46 100 48c5 1 9-16 9-38 2-61 15-256 19-295 2-19 6-70 10-112 3-42 8-87 10-100 3-12 7-40 10-63 3-22 9-49 12-60 5-18 5-18-20-2-172 112-373 219-466 247l-71 22 21 35c12 19 18 37 15 41-4 3-11 1-15-6-10-17-76-40-104-36-25 3-58 9-131 24-269 55-517 75-696 55-141-16-285-66-385-135-72-50-97-120-61-175 17-26 97-69 146-79 14-3 48-9 75-15 51-10 305-8 360 3 157 31 242 53 328 82 96 33 123 45 264 110 67 32 89 32 173 3 81-28 176-84 355-209 167-117 197-134 266-154 81-24 78-28 63 77-7 50-15 112-18 137s-8 54-10 65-7 51-11 88c-3 37-8 76-10 85-1 9-6 58-10 107-4 50-8 106-10 125-7 63-6 283 2 350 22 203-18 298-133 316-149 22-306-54-372-180-23-44-27-62-26-136 0-51 7-102 17-129l16-44-46 7c-25 3-68 18-95 33-56 30-184 146-193 174-3 10 1 44 9 76 18 71 22 140 12 216-8 59-26 70-26 15 0-47-30-145-50-163-17-15-18-13-29 32-6 26-13 66-16 88-8 58-7 263 0 276 5 7 16 3 31-12 13-12 27-19 31-16 9 10-33 163-60 217-40 82-81 51-94-72-9-81-9-303-1-390l7-68-52 26c-133 68-308 7-380-130-32-61-29-150 7-215l27-51h-54c-68 0-139 21-198 59-41 25-48 35-54 73-4 23-7 62-6 85 2 72-37 70-84-4-90-143-185-196-277-155-59 26-71 44-73 110-3 64-25 126-55 152-13 11-20 30-20 51 0 63-48 102-89 72-24-16-28-66-10-107 17-36-37-142-99-197-43-37-50-40-87-35-29 5-51 18-81 48l-40 42 31 62c18 35 40 99 49 143 48 222 9 444-126 701-32 63-66 139-74 169-7 30-15 56-17 58-12 12-48 9-67-4zm158-468c21-60 36-113 47-170 15-70 12-240-5-308-22-88-35-102-49-51-15 59-21 138-27 389-3 143-2 224 4 215 5-8 19-42 30-75zm-575-84c72-80 87-209 42-380-26-102-33-115-51-100-33 28-73 127-94 240-22 113-32 307-16 312 19 7 81-30 119-72zm3122-443c43-28 49-49 42-134-15-172-144-266-280-206-87 39-102 106-48 216 33 67 104 141 144 150 41 8 107-4 142-26zm-5395-2c19-3 58-8 85-12 196-24 522-127 728-230 101-51 187-104 187-115 0-10-507-6-575 4-16 3-61 8-100 12-100 9-299 50-396 81-92 29-210 84-305 142-83 50-94 61-94 88 0 24 9 29 70 37 36 5 359-1 400-7zm4445-10c43-18 58-47 51-97-9-67-86-156-170-199l-40-19-50 27c-85 46-110 104-76 178 24 53 59 83 122 105 64 22 117 24 163 5zm150-127c19-36 11-52-50-112-36-35-111-75-121-64-3 3 21 37 55 76 33 39 67 84 76 101 9 16 18 30 20 30s12-14 20-31zm-278-624c90-8 121-13 228-36 49-10 91-19 94-19s1-4-5-9c-19-20-365-101-497-117-227-28-417 16-417 97 0 9 62 39 125 59 102 33 280 43 472 25z"/><path d="m9355 7284c-24-26-27-35-30-94-4-56 41-67 76-19 29 41 36 101 14 123s-32 20-60-10z"/><path d="m2560 6950c-56-56-51-159 6-148 50 9 77 135 34 158-16 8-24 6-40-10z"/><path d="m2955 6706c-23-16-17-77 15-149 19-43 20-55 11-115-40-253-122-424-223-466-57-24-175 6-232 60-65 62-85 123-92 290-6 160-30 201-93 158-23-17-24-19-18-143 6-135 8-144 32-230 25-85 62-155 110-204 141-145 348-117 465 64l37 57 16-28c23-38 82-88 114-96 31-8 102 9 158 37 119 62 209 185 241 330 3 13 8 59 11 102 4 55 10 77 20 77 23 0 258-159 348-235 124-106 188-178 163-187-14-5-85-3-168 7-30 3-77 8-105 11-27 3-61 7-75 10-75 14-152 16-180 4-53-22-65-69-30-113 19-24 27-26 94-26 81 1 121-8 246-53 47-16 116-41 155-55 73-26 140-32 173-14 21 11 45 65 34 76-6 5 25 3 118-10 19-3 55-7 80-10s63-8 85-10c22-3 49-7 60-9s50-7 87-11c63-7 68-6 92 18 33 33 33 42-3 78-22 21-40 29-68 30-21 1-47 3-58 4-22 3-101 12-180 20-143 16-212 28-231 40-12 8-36 40-54 72-43 75-160 190-286 280-109 78-258 214-300 274-32 47-59 57-85 33-19-17-20-26-13-140 8-138-9-240-50-308l-23-39-7 39c-15 80-67 155-192 279-67 66-128 136-136 155-21 49-40 63-63 46zm197-333c75-78 109-138 110-193 1-73-72-151-125-134-28 8-83 68-107 114-16 31-16 40-4 80 7 25 16 60 19 79 13 79 24 121 34 121 4 0 37-30 73-67zm954-466c17-15 24-28 19-37-11-17-84-6-138 21-37 19-40 23-22 30 11 4 41 8 67 8 35 1 54-5 74-22z"/><path d="m11463 6680c-100-27-154-74-177-150-11-38-11-48 1-67 17-25 79-51 141-57 54-6 56-8 34-32-71-78-230-274-238-294-14-32-9-94 11-123 32-49 32-49 546-51l482-1 20 28c21 27 21 27 1 53l-19 25-420 4c-231 2-431 6-445 9-14 2-28 5-32 5-17 2-7 50 18 87 40 60 101 120 199 196 161 125 160 208-3 202-59-2-132 12-132 26 0 3 33 12 73 19 39 7 80 15 91 17 65 12 127 37 141 56 14 21 13 24-5 42-17 17-35 20-122 22-71 1-122-4-165-16z"/></g></svg>