<?xml version="1.0" encoding="UTF-8" standalone="no"?>
<svg width="18px" height="18px" viewBox="0 0 18 18" version="1.1" xmlns="http://www.w3.org/2000/svg" xmlns:xlink="http://www.w3.org/1999/xlink">
    <!-- Generator: Sketch 3.8.1 (29687) - http://www.bohemiancoding.com/sketch -->
    <title>search-icon</title>
    <desc>Created with Sketch.</desc>
    <defs>
        <path d="M6.7,11.3 C4.3,11.3 2.3,9.4 2.3,6.9 C2.3,4.5 4.2,2.5 6.7,2.5 C9.1,2.5 11.1,4.4 11.1,6.9 C11.1,9.3 9.2,11.3 6.7,11.3 L6.7,11.3 L6.7,11.3 Z M12.6,11.3 L11.8,11.3 L11.5,11 C12.5,9.9 13.1,8.5 13.1,6.9 C13.1,3.4 10.3,0.6 6.8,0.6 C3.3,0.6 0.5,3.4 0.5,6.9 C0.5,10.4 3.3,13.2 6.8,13.2 C8.4,13.2 9.8,12.6 10.9,11.6 L11.2,11.9 L11.2,12.7 L16.1,17.6 L17.6,16.1 L12.6,11.3 L12.6,11.3 L12.6,11.3 Z" id="path-1"></path>
    </defs>
    <g id="Page-1" stroke="none" stroke-width="1" fill="none" fill-rule="evenodd">
        <g id="search-icon">
            <mask id="mask-2" fill="white">
                <use xlink:href="#path-1"></use>
            </mask>
            <use id="path-1" fill="#FFFFFF" xlink:href="#path-1"></use>
        </g>
    </g>
</svg>