<svg enable-background="new 0 0 30 30" viewBox="0 0 30 30" xmlns="http://www.w3.org/2000/svg"><g fill="#4f4f4f"><path d="m28.5 24.1-1.4-14.2c0-.2-.2-.4-.4-.4h-4.4v3.6c0 .8-.6 1.4-1.4 1.4s-1.4-.6-1.4-1.4v-3.6h-9.1v3.6c0 .8-.6 1.4-1.4 1.4s-1.4-.6-1.4-1.4v-3.6h-4.2c-.2 0-.4.2-.4.4l-1.3 12.2-.7 7c0 .2.2.4.4.4h27.3c.2 0 .4-.2.4-.4z"/><path d="m15 .5c-3.5 0-6.4 2.9-6.4 6.4v5.8c0 .3.2.5.5.5s.5-.2.5-.5v-5.8c0-3 2.4-5.4 5.4-5.4s5.4 2.4 5.4 5.4v5.8c0 .3.2.5.5.5s.5-.2.5-.5v-5.8c0-3.5-2.9-6.4-6.4-6.4z"/></g></svg>