<svg height="50" viewBox="0 0 49 50" width="49" xmlns="http://www.w3.org/2000/svg" xmlns:xlink="http://www.w3.org/1999/xlink"><mask id="a" fill="#fff"><path d="m48.871 48.9999v-48.8709h-48.871v48.8709z" fill="#fff" fill-rule="evenodd"/></mask><g fill="none" fill-rule="evenodd"><circle cx="24.5" cy="24.5" fill="#4f4f4f" r="24.5"/><path d="m24.4355 1.1289c-12.923 0-23.436 10.513-23.436 23.436 0 12.922 10.513 23.435 23.436 23.435s23.436-10.513 23.436-23.435c0-12.923-10.513-23.436-23.436-23.436m0 47.871c-13.474 0-24.436-10.962-24.436-24.435 0-13.474 10.962-24.436 24.436-24.436s24.436 10.962 24.436 24.436c0 13.473-10.962 24.435-24.436 24.435" fill="#4f4f4f" mask="url(#a)" transform="translate(0 .8711)"/><g transform="translate(8 13)"><path d="m29.8852917 16.4582625c-.1245834.399625-.485875.8260833-1.124125.8260833h-25.5002917c-.63825 0-.99858333-.4264583-1.12316667-.8260833-.11979166-.3814167-.07570833-.905625.38429167-1.267875l13.4329583-5.396375c.0134167-.00575.02875-.008625.0440834-.01054167.023-.002875.0469583.00191667.069.01054167l13.4329583 5.396375c.46.36225.503125.8864583.3842917 1.267875m.037375-2.026875-13.6639167-5.48933333c.169625-.79254167.7015-1.32825 1.2602083-1.88983334.7714584-.77625 1.5687917-1.57933333 1.5687917-3.10595833 0-1.86875-1.2075-3.07625-3.07625-3.07625-1.69625 0-3.07625 1.38-3.07625 3.07625 0 .17633333.031625.39866667.0929583.66220833.0210834.08625.09775.14758334.1859167.14758334h.2970833c.1245834 0 .215625-.11691667.1859167-.23766667-.060375-.24245833-.0910417-.434125-.0910417-.572125 0-1.32633333 1.0790834-2.40541667 2.4054167-2.40541667 1.1624583 0 2.4054167.6325 2.4054167 2.40541667 0 1.24966667-.667 1.92145833-1.37425 2.63254167-.6535834.658375-1.32825 1.33783333-1.4796667 2.44375l-13.46266667 5.40883333c-1.64258333 1.1375417-.83758333 3.7145 1.16054167 3.7145h25.5002917c1.9990833 0 2.8040833-2.5769583 1.1615-3.7145" fill="#464646"/><path d="m2.65664583 15.4181833c-.41783333.3526667-.31241666.8232084-.26929166.9621667.04791666.1504583.24916666.6420833.874.6420833h25.50029163c.623875 0 .8260834-.491625.8730417-.6420833h.0009583c.043125-.1389583.1485417-.6095-.2692916-.9621667l-13.3553334-5.36475zm26.10499997 2.9890417h-25.50029163c-1.02733334 0-1.88983334-.6334583-2.19554167-1.6138333-.307625-.980375.04025-1.992375.88454167-2.5769584l13.37737503-5.38104163c.2031666-1.10495834.905625-1.81316667 1.5295-2.440875.6967083-.70054167 1.2975833-1.30525 1.2975833-2.44758334 0-1.9895-1.6406667-2.14379166-2.1437917-2.14379166-1.181625 0-2.1437916.96120833-2.1437916 2.14379166 0 .07954167.014375.232875.0843333.50791667.0335417.13704167.0038333.278875-.083375.38908333-.08625.11116667-.215625.17441667-.3565.17441667h-.2970833c-.2108334 0-.3919584-.14375-.4408334-.34883333-.066125-.28366667-.100625-.52708334-.100625-.72258334 0-1.84095833 1.4969167-3.337875 3.337875-3.337875 2.0278334 0 3.3388334 1.31004167 3.3388334 3.337875 0 1.63395834-.874 2.51370834-1.6454584 3.289-.4791666.48204167-.9334166.940125-1.13275 1.549625l13.5000417 5.43087497c.8442917.5845834 1.1921667 1.5965834.8855 2.5769584-.3057083.980375-1.1682083 1.6138333-2.1955417 1.6138333z" fill="#fff"/></g></g></svg>