<?xml version="1.0" encoding="UTF-8" standalone="no"?>
<svg width="27px" height="30px" viewBox="0 0 27 30" version="1.1" xmlns="http://www.w3.org/2000/svg" xmlns:xlink="http://www.w3.org/1999/xlink">
    <!-- Generator: Sketch 49.3 (51167) - http://www.bohemiancoding.com/sketch -->
    <title>DELETE</title>
    <desc>Created with Sketch.</desc>
    <defs></defs>
    <g id="Page-1" stroke="none" stroke-width="1" fill="none" fill-rule="evenodd">
        <g id="DELETE" fill="#505151" fill-rule="nonzero">
            <g id="Combined-Shape">
                <path d="M18.63,3.07 L26.2,3.07 L26.2,6.48 L0,6.48 L0,3.07 L7.56,3.07 L7.56,2.07 C7.56,0.9654305 8.4554305,0.07 9.56,0.07 L16.63,0.07 C17.7345695,0.07 18.63,0.9654305 18.63,2.07 L18.63,3.07 Z M4.5,28.37 L2.08,7.26 L24.08,7.26 L21.72,28.39 C21.6668498,28.8768084 21.2689844,29.2535108 20.78,29.28 L5.44,29.28 C4.94417793,29.2521491 4.54391274,28.8646583 4.5,28.37 Z M14.5,12.88 L14.5,24.28 C14.5,24.5948023 14.7551977,24.85 15.07,24.85 C15.3848023,24.85 15.64,24.5948023 15.64,24.28 L15.64,12.88 C15.64,12.5651977 15.3848023,12.31 15.07,12.31 C14.7551977,12.31 14.5,12.5651977 14.5,12.88 Z M9.94,12.88 L9.94,24.28 C9.94,24.5948023 10.1951977,24.85 10.51,24.85 C10.8248023,24.85 11.08,24.5948023 11.08,24.28 L11.08,12.88 C11.08,12.5651977 10.8248023,12.31 10.51,12.31 C10.1951977,12.31 9.94,12.5651977 9.94,12.88 Z M16.74,3.07 L16.69,3.07 L16.69,2.07 C16.69,1.99820298 16.631797,1.94 16.56,1.94 L9.53,1.94 C9.45820298,1.94 9.4,1.99820298 9.4,2.07 L9.4,3.07 L16.74,3.07 Z"></path>
            </g>
        </g>
    </g>
</svg>