<svg height="20" viewBox="0 0 24 20" width="24" xmlns="http://www.w3.org/2000/svg" xmlns:xlink="http://www.w3.org/1999/xlink"><mask id="a" fill="#fff"><path d="m0 .00017647h23.5662v19.97911763h-23.5662z" fill="#fff" fill-rule="evenodd"/></mask><mask id="b" fill="#fff"><path d="m0 .00017647h23.5662v19.97911763h-23.5662z" fill="#fff" fill-rule="evenodd"/></mask><mask id="c" fill="#fff"><path d="m0 .00017647h23.5662v19.97911763h-23.5662z" fill="#fff" fill-rule="evenodd"/></mask><mask id="d" fill="#fff"><path d="m0 .00017647h23.5662v19.97911763h-23.5662z" fill="#fff" fill-rule="evenodd"/></mask><mask id="e" fill="#fff"><path d="m0 .00017647h23.5662v19.97911763h-23.5662z" fill="#fff" fill-rule="evenodd"/></mask><g fill="#464646" fill-rule="evenodd"><path d="m6.7512.38488235c-3.5064 0-6.3588 2.79647059-6.3588 6.23411765 0 1.12176471.3438 2.28117647.9936 3.35235294.6852 1.13058826 1.6884 2.11176466 2.9016 2.83764706 5.193 3.1076471 7.2132 6.2882353 7.233 6.32l.2628.4241176.2622-.4235294c.0192-.0317647 2.0118-3.1964706 7.2342-6.3205882 1.212-.7258824 2.2152-1.7070588 2.901-2.83764706.6498-1.07117647.993-2.23058823.993-3.35235294 0-3.43764706-2.8524-6.23411765-6.3588-6.23411765-1.8918 0-3.6708.81588236-4.881 2.23882353l-.1506.17705883-.1506-.17705883c-1.2108-1.42294117-2.9898-2.23882353-4.8816-2.23882353m5.0322 19.59470585c-.123 0-.2346-.0617647-.2976-.1652941l-.3-.4852941c-.0198-.0305882-2.0256-3.1535294-7.1028-6.1917647-1.2678-.7582353-2.3172-1.7852941-3.0348-2.9694118-.6852-1.13058821-1.0482-2.35764703-1.0482-3.5488235 0-3.64941176 3.0288-6.61882353 6.7512-6.61882353 1.9314 0 3.7524.80117647 5.0322 2.20588235 1.2798-1.40470588 3.1008-2.20588235 5.0316-2.20588235 3.723 0 6.7512 2.96941177 6.7512 6.61882353 0 1.19117647-.3624 2.41823529-1.0482 3.5488235-.7176 1.1841177-1.767 2.2111765-3.0336 2.9694118-5.1072 3.0552941-7.0842 6.1605882-7.1034 6.1917647l-.3006.4858824c-.063.1029411-.174.1647058-.297.1647058" mask="url(#a)"/><path d="m6.7512.38488235c-3.5064 0-6.3588 2.79647059-6.3588 6.23411765 0 1.12176471.3438 2.28117647.9936 3.35235294.6852 1.13058826 1.6884 2.11176466 2.9016 2.83764706 5.193 3.1076471 7.2132 6.2882353 7.233 6.32l.2628.4241176.2622-.4235294c.0192-.0317647 2.0118-3.1964706 7.2342-6.3205882 1.212-.7258824 2.2152-1.7070588 2.901-2.83764706.6498-1.07117647.993-2.23058823.993-3.35235294 0-3.43764706-2.8524-6.23411765-6.3588-6.23411765-1.8918 0-3.6708.81588236-4.881 2.23882353l-.1506.17705883-.1506-.17705883c-1.2108-1.42294117-2.9898-2.23882353-4.8816-2.23882353m5.0322 19.59470585c-.123 0-.2346-.0617647-.2976-.1652941l-.3-.4852941c-.0198-.0305882-2.0256-3.1535294-7.1028-6.1917647-1.2678-.7582353-2.3172-1.7852941-3.0348-2.9694118-.6852-1.13058821-1.0482-2.35764703-1.0482-3.5488235 0-3.64941176 3.0288-6.61882353 6.7512-6.61882353 1.9314 0 3.7524.80117647 5.0322 2.20588235 1.2798-1.40470588 3.1008-2.20588235 5.0316-2.20588235 3.723 0 6.7512 2.96941177 6.7512 6.61882353 0 1.19117647-.3624 2.41823529-1.0482 3.5488235-.7176 1.1841177-1.767 2.2111765-3.0336 2.9694118-5.1072 3.0552941-7.0842 6.1605882-7.1034 6.1917647l-.3006.4858824c-.063.1029411-.174.1647058-.297.1647058" mask="url(#b)"/><path d="m6.7512.38488235c-3.5064 0-6.3588 2.79647059-6.3588 6.23411765 0 1.12176471.3438 2.28117647.9936 3.35235294.6852 1.13058826 1.6884 2.11176466 2.9016 2.83764706 5.193 3.1076471 7.2132 6.2882353 7.233 6.32l.2628.4241176.2622-.4235294c.0192-.0317647 2.0118-3.1964706 7.2342-6.3205882 1.212-.7258824 2.2152-1.7070588 2.901-2.83764706.6498-1.07117647.993-2.23058823.993-3.35235294 0-3.43764706-2.8524-6.23411765-6.3588-6.23411765-1.8918 0-3.6708.81588236-4.881 2.23882353l-.1506.17705883-.1506-.17705883c-1.2108-1.42294117-2.9898-2.23882353-4.8816-2.23882353m5.0322 19.59470585c-.123 0-.2346-.0617647-.2976-.1652941l-.3-.4852941c-.0198-.0305882-2.0256-3.1535294-7.1028-6.1917647-1.2678-.7582353-2.3172-1.7852941-3.0348-2.9694118-.6852-1.13058821-1.0482-2.35764703-1.0482-3.5488235 0-3.64941176 3.0288-6.61882353 6.7512-6.61882353 1.9314 0 3.7524.80117647 5.0322 2.20588235 1.2798-1.40470588 3.1008-2.20588235 5.0316-2.20588235 3.723 0 6.7512 2.96941177 6.7512 6.61882353 0 1.19117647-.3624 2.41823529-1.0482 3.5488235-.7176 1.1841177-1.767 2.2111765-3.0336 2.9694118-5.1072 3.0552941-7.0842 6.1605882-7.1034 6.1917647l-.3006.4858824c-.063.1029411-.174.1647058-.297.1647058" mask="url(#c)"/><path d="m6.7512.38488235c-3.5064 0-6.3588 2.79647059-6.3588 6.23411765 0 1.12176471.3438 2.28117647.9936 3.35235294.6852 1.13058826 1.6884 2.11176466 2.9016 2.83764706 5.193 3.1076471 7.2132 6.2882353 7.233 6.32l.2628.4241176.2622-.4235294c.0192-.0317647 2.0118-3.1964706 7.2342-6.3205882 1.212-.7258824 2.2152-1.7070588 2.901-2.83764706.6498-1.07117647.993-2.23058823.993-3.35235294 0-3.43764706-2.8524-6.23411765-6.3588-6.23411765-1.8918 0-3.6708.81588236-4.881 2.23882353l-.1506.17705883-.1506-.17705883c-1.2108-1.42294117-2.9898-2.23882353-4.8816-2.23882353m5.0322 19.59470585c-.123 0-.2346-.0617647-.2976-.1652941l-.3-.4852941c-.0198-.0305882-2.0256-3.1535294-7.1028-6.1917647-1.2678-.7582353-2.3172-1.7852941-3.0348-2.9694118-.6852-1.13058821-1.0482-2.35764703-1.0482-3.5488235 0-3.64941176 3.0288-6.61882353 6.7512-6.61882353 1.9314 0 3.7524.80117647 5.0322 2.20588235 1.2798-1.40470588 3.1008-2.20588235 5.0316-2.20588235 3.723 0 6.7512 2.96941177 6.7512 6.61882353 0 1.19117647-.3624 2.41823529-1.0482 3.5488235-.7176 1.1841177-1.767 2.2111765-3.0336 2.9694118-5.1072 3.0552941-7.0842 6.1605882-7.1034 6.1917647l-.3006.4858824c-.063.1029411-.174.1647058-.297.1647058" mask="url(#d)"/><path d="m6.7512.38488235c-3.5064 0-6.3588 2.79647059-6.3588 6.23411765 0 1.12176471.3438 2.28117647.9936 3.35235294.6852 1.13058826 1.6884 2.11176466 2.9016 2.83764706 5.193 3.1076471 7.2132 6.2882353 7.233 6.32l.2628.4241176.2622-.4235294c.0192-.0317647 2.0118-3.1964706 7.2342-6.3205882 1.212-.7258824 2.2152-1.7070588 2.901-2.83764706.6498-1.07117647.993-2.23058823.993-3.35235294 0-3.43764706-2.8524-6.23411765-6.3588-6.23411765-1.8918 0-3.6708.81588236-4.881 2.23882353l-.1506.17705883-.1506-.17705883c-1.2108-1.42294117-2.9898-2.23882353-4.8816-2.23882353m5.0322 19.59470585c-.123 0-.2346-.0617647-.2976-.1652941l-.3-.4852941c-.0198-.0305882-2.0256-3.1535294-7.1028-6.1917647-1.2678-.7582353-2.3172-1.7852941-3.0348-2.9694118-.6852-1.13058821-1.0482-2.35764703-1.0482-3.5488235 0-3.64941176 3.0288-6.61882353 6.7512-6.61882353 1.9314 0 3.7524.80117647 5.0322 2.20588235 1.2798-1.40470588 3.1008-2.20588235 5.0316-2.20588235 3.723 0 6.7512 2.96941177 6.7512 6.61882353 0 1.19117647-.3624 2.41823529-1.0482 3.5488235-.7176 1.1841177-1.767 2.2111765-3.0336 2.9694118-5.1072 3.0552941-7.0842 6.1605882-7.1034 6.1917647l-.3006.4858824c-.063.1029411-.174.1647058-.297.1647058" mask="url(#e)"/></g></svg>