<svg height="18" viewBox="0 0 19 18" width="19" xmlns="http://www.w3.org/2000/svg"><g fill="none" fill-rule="evenodd" transform="translate(-1)"><path d="m19.16 6.7c0-.14 0-.29 0-.43-.0089787-2.00096214-1.3213985-3.76230059-3.2362135-4.34317372-1.914815-.58087314-3.9846137.15444458-5.1037865 1.81317372l-.2.31c-.0325104.04470712-.084728.07081592-.14.07-.055272.00081592-.1074896-.02529288-.14-.07l-.21-.31c-1.11917279-1.65872914-3.18897151-2.39404686-5.10378651-1.81317372-1.91481501.58087313-3.22723482 2.34221158-3.23621349 4.34317372.10024101 1.93323445 1.18838146 3.67879309 2.88 4.62 2.22969645 1.2923412 4.19981029 2.987792 5.81 5 1.4060772-1.7580763 3.0960085-3.2688748 5-4.47"/><path d="m.49 18.22h23v-18h-23z"/><g fill-rule="nonzero"><path d="m4.27 11.59c2.31211939 1.3061494 4.31721064 3.0929994 5.88 5.24l.25.41c.0211343.0381979.0613453.0619052.105.0619052s.0838657-.0237073.105-.0619052l.25-.41c1.3778732-1.917055 3.1255368-3.538914 5.14-4.77-.1996162-.1868472-.3743821-.3985828-.52-.63-1.9039915 1.2011252-3.5939228 2.7119237-5 4.47-1.61018971-2.012208-3.58030355-3.7076588-5.81-5-1.69161854-.94120691-2.77975899-2.68676555-2.88-4.62.00897867-2.00096214 1.32139848-3.76230059 3.23621349-4.34317372 1.914815-.58087314 3.98461372.15444458 5.10378651 1.81317372l.21.31c.0325104.04470712.084728.07081592.14.07.055272.00081592.1074896-.02529288.14-.07l.2-.31c1.1191728-1.65872914 3.1889715-2.39404686 5.1037865-1.81317372 1.914815.58087313 3.2272348 2.34221158 3.2362135 4.34317372v.43c.27908.08645678.544914.21096133.79.37.044449-.26439637.0678558-.53190196.07-.8.0009156-2.26462047-1.4164022-4.2873592-3.5452654-5.05965973-2.1288632-.77230054-4.5134306-.1287946-5.9647346 1.60965973-1.45130398-1.73845433-3.83587139-2.38196027-5.9647346-1.60965973-2.12886322.77230053-3.54618098 2.79503926-3.5452654 5.05965973.01554033 1.02126511.30569027 2.01951908.84 2.89.60231625.9913574 1.43616726 1.8217769 2.43 2.42z" fill="#303030"/><path d="m17.86 11.69h.47v-1.75h1.66v-.44h-1.66v-1.73h-.47v1.73h-1.66v.44h1.66z" fill="#464646"/><path d="m17.86 11.69h.47v-1.75h1.66v-.44h-1.66v-1.73h-.47v1.73h-1.66v.44h1.66z" fill="#464646"/></g></g></svg>