<svg height="20" viewBox="0 0 24 20" width="24" xmlns="http://www.w3.org/2000/svg" xmlns:xlink="http://www.w3.org/1999/xlink"><mask id="a" fill="#fff"><path d="m.00006857.00013333h23.84084573v19.98999997h-23.84084573z" fill="#fff" fill-rule="evenodd"/></mask><path d="m11.9205257 19.9901333c.0548572 0 .1049143-.0273333.1337143-.0733333l.3085714-.4953333c.0198857-.032 2.0598857-3.2293334 7.3748572-6.3826667 1.2754285-.7566667 2.3307428-1.7813333 3.0528-2.962.6870857-1.12333333 1.0505143-2.34133333 1.0505143-3.52066667 0-3.61533333-3.0253715-6.556-6.7433143-6.556-2.0132572 0-3.8921143.856-5.1771429 2.35466667-1.2850286-1.49866667-3.1638857-2.35466667-5.17714284-2.35466667-3.71794286 0-6.74331429 2.94066667-6.74331429 6.556 0 1.17933334.36342857 2.39733334 1.05051429 3.52066667.72205714 1.1806667 1.77805714 2.2053333 3.0528 2.962 5.28411428 3.1353333 7.35497144 6.3506667 7.37485714 6.382l.3085714.496c.0288.046.0788572.0733333.1337143.0733333" fill="#4f504f" fill-rule="evenodd" mask="url(#a)"/></svg>