<svg height="49" viewBox="675 1060 33 49" width="33" xmlns="http://www.w3.org/2000/svg"><g fill="none" fill-rule="evenodd" transform="translate(675.777143 1061)"><path d="m15.3377524 43.7186419 12.8990476-22.4675161c.8518095-1.8148064 1.3272381-3.8388387 1.3272381-5.9750645 0-7.80806453-6.3619048-14.13941936-14.2110476-14.13941936-7.84761907 0-14.20952383 6.33135483-14.20952383 14.13941936 0 2.1119677.4647619 4.1162903 1.29980952 5.9159355z" fill="#fff" stroke="#121212" stroke-width="1.5"/><path d="m15.4870857 23.9307323-7.56266665-3.4400968v-8.601l7.41942855-3.50225808 7.4377143 3.50225808v8.8754193z" fill="#fefefe"/><g stroke="#010201" stroke-width=".8"><path d="m15.4870857 23.9307323-7.56266665-3.4400968v-8.601l7.41942855-3.50225808 7.4377143 3.50225808v8.8754193z"/><path d="m8.19611429 12.1679968 7.15733331 2.985258"/><path d="m22.782019 11.8900903-7.4285714 3.2627097"/><path d="m15.4870857 23.9307323-.1340952-8.7783871"/></g></g></svg>