<svg height="32" viewBox="0 -1 25 32" width="25" xmlns="http://www.w3.org/2000/svg" xmlns:xlink="http://www.w3.org/1999/xlink"><mask id="a" fill="#fff"><path d="m0 30.3494h24.155v-30.349h-24.155z" fill="#fff" fill-rule="evenodd"/></mask><g fill="none" fill-rule="evenodd"><path d="m14.0692 28.8357 8.465-14.819c.559-1.197.871-2.532.871-3.941 0-5.15-4.175-9.326-9.326-9.326-5.15 0-9.325 4.176-9.325 9.326 0 1.393.305 2.715.853 3.902z" fill="#fefefe"/><path d="m14.0692 28.8357 8.465-14.819c.559-1.197.871-2.532.871-3.941 0-5.15-4.175-9.326-9.326-9.326-5.15 0-9.325 4.176-9.325 9.326 0 1.393.305 2.715.853 3.902z" stroke="#121212" stroke-width="1.5"/><path d="m.25 9.6224h10.678v-1.403h-10.678z" fill="#010201" mask="url(#a)"/><path d="m.25 9.6224h10.678v-1.403h-10.678z" mask="url(#a)" stroke="#fefefe" stroke-width=".5"/><path d="m1.918 11.3654h8.598v-1.403h-8.598z" fill="#010201" mask="url(#a)"/><path d="m1.918 11.3654h8.598v-1.403h-8.598z" mask="url(#a)" stroke="#fefefe" stroke-width=".5"/><path d="m4.02 13.1114h6.496v-1.403h-6.496z" fill="#010201" mask="url(#a)"/><path d="m4.02 13.1114h6.496v-1.403h-6.496z" mask="url(#a)" stroke="#fefefe" stroke-width=".5"/><path d="m14.1671 15.7841-4.963-2.269v-5.673l4.869-2.31 4.881 2.31v5.854z" fill="#fefefe" mask="url(#a)"/><g stroke="#010201" stroke-width=".8"><path d="m14.1671 15.7841-4.963-2.269v-5.673l4.869-2.31 4.881 2.31v5.854z" mask="url(#a)"/><path d="m9.3824 8.0257 4.697 1.969" mask="url(#a)"/><path d="m18.9544 7.8424-4.875 2.152" mask="url(#a)"/><path d="m14.1671 15.7841-.088-5.79" mask="url(#a)"/></g></g></svg>