<svg height="30" viewBox="0 0 30 30" width="30" xmlns="http://www.w3.org/2000/svg"><g fill="none" fill-rule="evenodd"><path d="m29.4935897 15.0064103h-.4807692c0 3.8717948-1.5705128 7.3717948-4.1025641 9.9102564-2.5384615 2.5384615-6.0384615 4.1025641-9.9102564 4.1025641s-7.37179488-1.5705129-9.91025641-4.1025641c-2.53846154-2.5384616-4.1025641-6.0384616-4.1025641-9.9102564 0-3.8717949 1.57051282-7.3717949 4.1025641-9.91025646 2.53846153-2.53846153 6.03846151-4.10256409 9.91025641-4.10256409s7.3717949 1.57051281 9.9102564 4.10256409c2.5384615 2.53846156 4.1025641 6.03846156 4.1025641 9.91025646h.4807692.4807693c0-8.2692308-6.7051282-14.97435902-14.974359-14.97435902-8.26923078 0-14.97435897 6.70512822-14.97435897 14.97435902 0 8.2692307 6.70512819 14.9743589 14.97435897 14.9743589 8.2692308 0 14.974359-6.7051282 14.974359-14.9743589z" fill="#1e1e1c"/><g fill="#232323"><path d="m13.474359 19.6538462c0-.8461539.6923077-1.5256411 1.5384615-1.5256411.8333333 0 1.5064103.673077 1.5064103 1.5256411 0 .8333333-.673077 1.525641-1.5064103 1.525641-.8461538 0-1.5384615-.6923077-1.5384615-1.525641z"/><path d="m16.2692308 16.525641h-2.5384616v-7.69230768l2.5384616.0128205z"/></g></g></svg>