<svg height="46" viewBox="0 0 31 46" width="31" xmlns="http://www.w3.org/2000/svg" xmlns:xlink="http://www.w3.org/1999/xlink"><mask id="a" fill="#fff"><path d="m1.19009524.77322581-.94476191 3.66145161h1.82247619l.9432381-3.66145161z" fill="#fff" fill-rule="evenodd"/></mask><mask id="b" fill="#fff"><path d="m.44038095.77322581 3.3112381 3.66145161h8.01523805l.9417143-3.66145161z" fill="#fff" fill-rule="evenodd"/></mask><mask id="c" fill="#fff"><path d="m2.336.87025807-.9447619 3.65993548h1.82095238l.94628571-3.65993548z" fill="#fff" fill-rule="evenodd"/></mask><mask id="d" fill="#fff"><path d="m.41295238.87025807 3.16952381 3.65993548h13.89866671l.9432381-3.65993548z" fill="#fff" fill-rule="evenodd"/></mask><mask id="e" fill="#fff"><path d="m1.56190476.67770968-.94171428 3.66145161h1.82095238l.9447619-3.66145161z" fill="#fff" fill-rule="evenodd"/></mask><mask id="f" fill="#fff"><path d="m.66590476.67770968 3.28990476 3.66145161h2.08609524l.94628572-3.66145161z" fill="#fff" fill-rule="evenodd"/></mask><mask id="g" fill="#fff"><path d="m.44038095 1.54948387 3.09180953 2.88519355h.21942857l-3.3112381-3.66145161z" fill="#fff" fill-rule="evenodd"/></mask><mask id="h" fill="#fff"><path d="m.66590476 1.46458065 3.08266667 2.87458064h.20723809l-3.28990476-3.66145161z" fill="#fff" fill-rule="evenodd"/></mask><g fill="none" fill-rule="evenodd" transform="translate(1.52381)"><g transform="translate(0 .529735)"><path d="m14.2680381 43.1889065 12.8990476-22.4675162c.8518095-1.8148064 1.3272381-3.8388387 1.3272381-5.9750645 0-7.80806451-6.3619048-14.13941935-14.2110476-14.13941935-7.84761906 0-14.20952382 6.33135484-14.20952382 14.13941935 0 2.1119677.46476191 4.1162903 1.29980952 5.9159355z" stroke="#121212" stroke-width="1.5"/><path d="m21.8762667 19.596271.9432381-3.6614516h-1.8209524l-.9432381 3.6614516z" fill="#221f20"/></g><g fill="#221f20"><path d="m-6.26285714 10.9115806h15.78209524v-16.61374189h-15.78209524z" mask="url(#a)" transform="translate(19.809524 15.691026)"/><path d="m19.3859048 20.1260065.9432381-3.6614517h-12.26971433l3.31123813 3.6614517z"/><path d="m-6.06933333 10.9115806h25.28761903v-16.61374189h-25.28761903z" mask="url(#b)" transform="translate(7.619048 15.691026)"/><path d="m22.145219 12.0121387-.9447619 3.6614516h1.8224762l.9447619-3.6614516z"/><path d="m-5.11847619 11.0070968h15.78514289v-16.61374196h-15.78514289z" mask="url(#c)" transform="translate(19.809524 11.142639)"/><path d="m3.46148571 12.0121387 3.168 3.6614516h13.89866669l.9432381-3.6614516z"/><path d="m-6.0952381 11.0070968h31.0293333v-16.61374196h-31.0293333z" mask="url(#d)" transform="translate(3.047619 11.142639)"/><path d="m19.8477714 20.9174258-.9417143 3.6614516h1.8194286l.9447619-3.6614516z"/><path d="m-5.88952381 10.8160645h15.78361905v-16.61374192h-15.78361905z" mask="url(#e)" transform="translate(18.285714 20.239413)"/><path d="m12.8569905 20.9174258 3.2883809 3.6614516h2.0876191l.9462857-3.6614516z"/><path d="m-5.84228571 10.8160645h19.34019051v-16.61374192h-19.34019051z" mask="url(#f)" transform="translate(12.190476 20.239413)"/><path d="m11.370819 20.1260065-3.31123805-3.6614517v.7762581l3.09180955 2.8851936z"/><path d="m-6.06933333 10.9115806h16.32914283v-16.61374189h-16.32914283z" mask="url(#g)" transform="translate(7.619048 15.691026)"/><path d="m12.8569905 21.7039935 3.0811428 2.8745807h.2072381l-3.2883809-3.6614516z"/><path d="m-5.84228571 10.8160645h16.30780951v-16.61374192h-16.30780951z" mask="url(#h)" transform="translate(12.190476 20.239413)"/></g></g></svg>