<svg viewBox="0 0 376.38 35.49" width="200" xmlns="http://www.w3.org/2000/svg"><g fill="#232323"><path d="m230.42.42-9.63 19.21-9.6-19.21h-7.39l.01 34.67 7.4.01v-18l9.58 17.99 9.6-17.96v17.96h7.39l.01-34.68z"/><path d="m252.48 426.08h-8.21v12.28h-7.47v-34.66h16.32c7 0 12.85 3.61 12.85 11 0 8-5.76 11.39-13.49 11.39m.37-15.65h-8.59v8.91h8.74c3.47 0 5.33-1.48 5.33-4.51s-2.13-4.41-5.44-4.41" transform="translate(-100.7 -403.29)"/><path d="m0 .41v6.84h10.7v27.83h7.46v-27.83h10.7v-6.84z"/><path d="m182.15 438.78c-9.69 0-16.31-6.59-16.31-17.7s6.73-17.8 16.42-17.8 16.26 6.59 16.26 17.7-6.73 17.8-16.37 17.8m-.05-28.66c-5.19 0-8.63 3.88-8.63 10.86s3.6 11 8.79 11 8.63-3.88 8.63-10.86-3.6-11-8.79-11" transform="translate(-100.7 -403.29)"/><path d="m392.34 412.61c-.69 1.69-4.17 12.26-4.17 12.26h8.3s-3.17-9.63-4.13-12.26m8.66 25.77-2.12-6h-13.14l-2.06 6h-7.92l11.58-34.71h10l11.59 34.7h-7.93z" transform="translate(-100.7 -403.29)"/><path d="m368.94.39v22.61l-15.27-22.61h-7.44v34.67h7.44v-14.56-7.97l15.27 22.53h7.44v-34.67z"/></g></svg>