<svg height="87" viewBox="0 0 51 87" width="51" xmlns="http://www.w3.org/2000/svg"><g fill="none" fill-rule="evenodd" transform="translate(-1)"><path d="m26.4 87.1c-1.9-9.3-5.2-20.9-9.2-28.1-3-5.3-6.4-10.2-9.6-15.4-1.1-1.7-2-3.5-3-5.3-2.1-3.6-3.7-7.7-3.6-13.1.1-5.3 1.6-9.5 3.8-12.9 3.6-5.7 9.6-10.3 17.6-11.5 6.6-1 12.8.7 17.1 3.3 3.6 2.1 6.3 4.9 8.5 8.2 2.2 3.5 3.7 7.5 3.8 12.9.1 2.7-.4 5.3-1 7.4s-1.7 3.9-2.6 5.8c-1.8 3.7-4 7.1-6.2 10.5-6.6 9.9-12.8 24.1-15.6 38.2z" fill="#000"/><circle cx="26.4" cy="25.6" fill="#fff" r="9.4"/></g></svg>