<svg height="1667pt" preserveAspectRatio="xMidYMid meet" viewBox="0 0 1667 1667" width="1667pt" xmlns="http://www.w3.org/2000/svg"><g transform="matrix(.1 0 0 -.1 0 1667)"><path d="m3850 9442c-97-7-303-61-362-94-13-7-25-13-28-13-17-3-116-61-179-105-135-96-260-238-344-391-35-63-91-204-101-252-3-12-7-33-10-47-14-63-16-78-20-130-25-301 43-551 212-790 55-77 186-209 245-248 23-15 44-29 47-33 12-14 132-78 200-106 207-86 409-107 655-68 50 8 176 46 230 70 33 15 60 26 60 24 0-9 181 112 230 154 64 55 164 158 165 169 0 4 6 13 13 20 44 45 129 197 166 298 27 73 53 181 47 188-3 3-1 11 5 19 11 12 17 251 10 323-6 53-44 215-52 224-5 6-9 16-9 24 0 7-12 39-26 70s-30 66-35 77c-15 34-105 168-144 214-72 87-240 226-258 214-5-3-7-1-3 5 7 12-172 103-261 131-133 42-318 64-453 53z"/><path d="m447 9392c-2-4-4-92-3-197l1-190 380-2c209-1 404-2 433-2l52-1v-662c0-365 0-772 0-905v-241l203 1 203 1-1 903v903l45 1h433c213 0 387 4 387 7 1 10 1 221 1 314l-1 77h-1065c-586-1-1066-4-1068-7z"/><path d="m5697 9392c-2-4-3-500-3-1102l1-1095 203-2c148-1 202 2 203 10 0 7 1 181 1 388l1 377h376c207 1 396 4 421 7s60 8 79 10c18 2 67 14 108 25 208 57 358 187 427 371 61 163 65 392 10 556-80 234-279 387-584 449-48 10-1238 16-1243 6z"/><path d="m8178 8852c-2-301-1-797 2-1103l5-557h202 202v765c0 421 2 767 4 769 2 3 24-27 48-66s89-139 144-224c55-84 111-172 125-194 14-23 28-42 33-42 4 0 7-4 7-10 0-5 37-67 83-137 46-71 121-186 167-258 46-71 91-140 101-153l17-22 23 37c32 52 157 246 166 258 23 28 153 237 153 245 0 4 4 10 8 12 5 2 47 64 95 138s91 142 97 150c5 8 47 72 92 142 46 70 85 128 88 128s5-346 4-769l-1-768 204-1 203-1v1104 1104h-227c-195 0-230-2-245-16-10-9-18-20-18-26 0-5-10-22-22-37-13-15-30-40-39-56-20-34-224-355-236-369-4-5-35-53-68-105-77-124-265-413-275-423-4-4-40 44-81 108-41 63-110 170-153 238-44 67-101 156-128 197-26 41-51 80-55 85-5 6-35 53-68 105-83 132-162 253-174 267-6 7-11 17-11 22 0 7-82 10-235 10l-235-1z"/><path d="m11916 9392c-15-26-84-202-78-202 4 0 2-4-3-8-9-6-68-141-71-162 0-3-10-25-21-50s-37-88-58-140-46-113-55-135c-45-106-55-130-56-135s-9-25-39-95c-9-22-18-44-19-50-2-5-8-21-13-35-65-155-144-349-185-450-27-69-56-138-63-155-29-65-235-571-235-578 0-3 103-5 228-4h228l33 91c18 50 39 105 46 121 7 17 32 82 55 145 24 63 46 119 51 124 8 9 915 15 928 6 7-5 42-92 136-340 20-52 40-107 46-121l10-26 229-1h228l-14 37c-8 20-19 45-24 56s-35 83-66 160-61 146-66 153c-6 6-8 12-5 12 5 0-28 87-58 155-8 17-48 116-91 220-42 105-82 204-89 220-25 61-55 133-90 220-21 50-43 104-50 120-15 36-28 68-29 75-1 5-80 197-101 245-8 17-28 66-45 110s-38 96-47 115c-18 42-22 52-63 155-17 44-39 97-48 117l-15 37h-208c-115 0-210-3-213-7z"/><path d="m13803 8295v-1103l201 1 200 2v793c0 435 3 792 6 792s12-10 20-21c21-30 85-112 157-203 56-70 69-87 189-241 64-82 127-163 140-180 37-47 186-238 289-370 51-66 101-130 111-142 11-12 28-34 39-49 21-28 66-85 75-94 3-3 38-49 79-102 40-54 78-98 83-98s7-4 4-9c-4-5-3-11 2-13 4-1 17-17 29-34l22-31 221-1 220-1v1104 1105l-200-1h-200v-790c0-434-3-789-7-789-5 0-19 16-32 35s-27 35-32 35-9 4-9 10c0 5-7 18-15 27-8 10-55 70-105 133s-96 122-103 130c-18 23-190 243-202 258-5 8-20 25-32 38s-19 24-15 24 2 4-3 8c-6 4-51 59-100 122-50 63-94 120-100 126-5 6-21 26-35 44s-45 59-70 90-56 72-70 90-29 38-35 44c-5 6-23 29-39 51-17 22-33 42-36 45s-37 46-75 95c-38 50-72 92-75 95s-18 22-33 42l-27 37h-218-219z"/></g></svg>