<svg height="19" viewBox="211 0 12 19" width="12" xmlns="http://www.w3.org/2000/svg"><g fill="none" fill-rule="evenodd" transform="translate(211 1)"><path d="m5.91102857 17.8215429 5.37085713-9.40285719c.3548572-.76028571.5528572-1.60714285.5528572-2.50114285 0-3.26828572-2.64857147-5.91771429-5.91685719-5.91771429-3.26828571 0-5.91771428 2.64942857-5.91771428 5.91771429 0 .88371428.19371428 1.72285714.54085714 2.47628571z" fill="#131414"/><path d="m9.11511429 5.85505714c0 1.76914286-1.43485715 3.204-3.204 3.204-1.77 0-3.204-1.43485714-3.204-3.204 0-1.76914285 1.434-3.204 3.204-3.204 1.76914285 0 3.204 1.43485715 3.204 3.204" fill="#fefefe"/><path d="m9.11511429 5.85505714c0 1.76914286-1.43485715 3.204-3.204 3.204-1.77 0-3.204-1.43485714-3.204-3.204 0-1.76914285 1.434-3.204 3.204-3.204 1.76914285 0 3.204 1.43485715 3.204 3.204z" stroke="#131414" stroke-width=".875"/></g></svg>